<svg width="50" height="50" viewBox="0 0 50 50" fill="none" xmlns="http://www.w3.org/2000/svg">
<path d="M1.51514 40.5908V46.8029C1.51514 48.0151 2.49999 49.0075 3.71968 49.0075H46.2803C47.4924 49.0075 48.4848 48.0226 48.4848 46.8029V40.5908H1.51514Z" fill="#A9B2BD"/>
<path d="M1.51514 38.3939V44.606C1.51514 45.8182 2.49999 46.8106 3.71968 46.8106H46.2803C47.4924 46.8106 48.4848 45.8257 48.4848 44.606V38.3939H1.51514Z" fill="#CDD0DA"/>
<path d="M48.4848 13.8788V42.1742C48.4848 43.3864 47.4924 44.3788 46.2803 44.3788H3.71968C2.49999 44.3712 1.51514 43.3864 1.51514 42.1742V13.8788H48.4848Z" fill="#E7E9EE"/>
<path d="M48.4848 7.65144V14.3636H1.51514V7.65144C1.51514 6.43174 2.49999 5.45447 3.71968 5.45447H46.2803C47.4924 5.45447 48.4848 6.43174 48.4848 7.65144Z" fill="#FB6E52"/>
<path d="M12.7649 10.2727C12.7649 10.3864 12.7498 10.4924 12.7271 10.5985C12.5831 11.2803 11.9695 11.7879 11.2498 11.7879C10.5225 11.7879 9.91644 11.2803 9.75735 10.5985C9.7422 10.4924 9.72705 10.3864 9.72705 10.2727C9.72705 9.98484 9.81038 9.72727 9.93917 9.49999C10.2043 9.05302 10.6967 8.75757 11.2422 8.75757C11.7877 8.75757 12.2877 9.0606 12.5377 9.50757C12.6967 9.72727 12.7649 9.99242 12.7649 10.2727Z" fill="#EA573F"/>
<path d="M16.159 5.4848H15.053C14.8409 3.57571 13.2348 2.09086 11.2651 2.09086C9.14388 2.09086 7.40903 3.81056 7.40903 5.91662C7.40903 7.56813 8.46964 8.9848 9.94691 9.5151C10.356 9.66662 10.7954 9.74995 11.2575 9.74995C11.7045 9.74995 12.1363 9.66662 12.5454 9.52268C12.6818 9.74238 12.7575 10.0075 12.7575 10.2878C12.7575 10.4015 12.7424 10.5075 12.7196 10.6136C12.2499 10.7651 11.7575 10.8409 11.2499 10.8409C10.7272 10.8409 10.2272 10.7575 9.74994 10.6136C7.75752 9.97722 6.31055 8.11359 6.31055 5.92419C6.31055 3.21965 8.53024 1.0151 11.2499 1.0151C13.8333 0.99995 15.9469 2.96965 16.159 5.4848Z" fill="#646D78"/>
<path d="M26.5227 10.2727C26.5227 10.3864 26.5076 10.4924 26.4849 10.5985C26.3409 11.2803 25.7273 11.7879 25.0076 11.7879C24.2803 11.7879 23.6743 11.2803 23.5152 10.5985C23.5 10.4924 23.4849 10.3864 23.4849 10.2727C23.4849 9.98484 23.5682 9.72727 23.697 9.49999C23.9621 9.05302 24.4546 8.75757 25 8.75757C25.553 8.75757 26.0455 9.0606 26.2955 9.50757C26.4546 9.72727 26.5227 9.99242 26.5227 10.2727Z" fill="#EA573F"/>
<path d="M29.9168 5.4848H28.8108C28.5987 3.57571 26.9926 2.09086 25.0229 2.09086C22.9017 2.09086 21.1668 3.81056 21.1668 5.91662C21.1668 7.56813 22.2275 8.9848 23.7047 9.5151C24.1138 9.66662 24.5532 9.74995 25.0153 9.74995C25.4623 9.74995 25.8941 9.66662 26.3032 9.52268C26.4396 9.74238 26.5153 10.0075 26.5153 10.2878C26.5153 10.4015 26.5002 10.5075 26.4775 10.6136C26.0078 10.7651 25.5153 10.8409 25.0078 10.8409C24.485 10.8409 23.985 10.7575 23.5078 10.6136C21.5153 9.97722 20.0684 8.11359 20.0684 5.92419C20.0684 3.21965 22.2881 1.0151 25.0078 1.0151C27.5911 0.99995 29.7047 2.96965 29.9168 5.4848Z" fill="#646D78"/>
<path d="M40.2879 10.2727C40.2879 10.3864 40.2727 10.4924 40.25 10.5985C40.1061 11.2803 39.4924 11.7879 38.7727 11.7879C38.0455 11.7879 37.4394 11.2803 37.2803 10.5985C37.2652 10.4924 37.25 10.3864 37.25 10.2727C37.25 9.98484 37.3333 9.72727 37.4621 9.49999C37.7273 9.05302 38.2197 8.75757 38.7652 8.75757C39.3106 8.75757 39.8106 9.0606 40.0606 9.50757C40.2121 9.72727 40.2879 9.99242 40.2879 10.2727Z" fill="#EA573F"/>
<path d="M43.6742 5.4848H42.5681C42.356 3.57571 40.7499 2.09086 38.7802 2.09086C36.659 2.09086 34.9242 3.81056 34.9242 5.91662C34.9242 7.56813 35.9848 8.9848 37.462 9.5151C37.8711 9.66662 38.3105 9.74995 38.7727 9.74995C39.2196 9.74995 39.6514 9.66662 40.0605 9.52268C40.1969 9.74238 40.2727 10.0075 40.2727 10.2878C40.2727 10.4015 40.2575 10.5075 40.2348 10.6136C39.7651 10.7651 39.2727 10.8409 38.7651 10.8409C38.2423 10.8409 37.7423 10.7575 37.2651 10.6136C35.2727 9.97722 33.8257 8.11359 33.8257 5.92419C33.8257 3.21965 36.0454 1.0151 38.7651 1.0151C41.3484 0.99995 43.462 2.96965 43.6742 5.4848Z" fill="#646D78"/>
<path d="M26.8561 21.2499H23.144C22.7803 21.2499 22.4849 20.9544 22.4849 20.5908V17.515C22.4849 17.1514 22.7803 16.856 23.144 16.856H26.8561C27.2197 16.856 27.5152 17.1514 27.5152 17.515V20.5908C27.5152 20.9544 27.2197 21.2499 26.8561 21.2499Z" fill="#CDD0DA"/>
<path d="M35.8483 21.2499H32.1361C31.7725 21.2499 31.4771 20.9544 31.4771 20.5908V17.515C31.4771 17.1514 31.7725 16.856 32.1361 16.856H35.8483C36.2119 16.856 36.5074 17.1514 36.5074 17.515V20.5908C36.5149 20.9544 36.2119 21.2499 35.8483 21.2499Z" fill="#FFCE54"/>
<path d="M44.8483 21.2499H41.1361C40.7725 21.2499 40.4771 20.9544 40.4771 20.5908V17.515C40.4771 17.1514 40.7725 16.856 41.1361 16.856H44.8483C45.2119 16.856 45.5074 17.1514 45.5074 17.515V20.5908C45.5074 20.9544 45.2119 21.2499 44.8483 21.2499Z" fill="#ED5463"/>
<path d="M8.8634 27.9621H5.15128C4.78764 27.9621 4.49219 27.6666 4.49219 27.303V24.2272C4.49219 23.8636 4.78764 23.5681 5.15128 23.5681H8.8634C9.22704 23.5681 9.52249 23.8636 9.52249 24.2272V27.303C9.52249 27.6666 9.22704 27.9621 8.8634 27.9621Z" fill="#CDD0DA"/>
<path d="M17.8561 27.9621H14.144C13.7803 27.9621 13.4849 27.6666 13.4849 27.303V24.2272C13.4849 23.8636 13.7803 23.5681 14.144 23.5681H17.8561C18.2197 23.5681 18.5152 23.8636 18.5152 24.2272V27.303C18.5152 27.6666 18.2197 27.9621 17.8561 27.9621Z" fill="#CDD0DA"/>
<path d="M26.8561 27.9621H23.144C22.7803 27.9621 22.4849 27.6666 22.4849 27.303V24.2272C22.4849 23.8636 22.7803 23.5681 23.144 23.5681H26.8561C27.2197 23.5681 27.5152 23.8636 27.5152 24.2272V27.303C27.5152 27.6666 27.2197 27.9621 26.8561 27.9621Z" fill="#CDD0DA"/>
<path d="M35.8483 27.9621H32.1361C31.7725 27.9621 31.4771 27.6666 31.4771 27.303V24.2272C31.4771 23.8636 31.7725 23.5681 32.1361 23.5681H35.8483C36.2119 23.5681 36.5074 23.8636 36.5074 24.2272V27.303C36.5149 27.6666 36.2119 27.9621 35.8483 27.9621Z" fill="#FFCE54"/>
<path d="M44.8483 27.9621H41.1361C40.7725 27.9621 40.4771 27.6666 40.4771 27.303V24.2272C40.4771 23.8636 40.7725 23.5681 41.1361 23.5681H44.8483C45.2119 23.5681 45.5074 23.8636 45.5074 24.2272V27.303C45.5074 27.6666 45.2119 27.9621 44.8483 27.9621Z" fill="#ED5463"/>
<path d="M8.8634 34.6818H5.15128C4.78764 34.6818 4.49219 34.3863 4.49219 34.0227V30.9469C4.49219 30.5833 4.78764 30.2878 5.15128 30.2878H8.8634C9.22704 30.2878 9.52249 30.5833 9.52249 30.9469V34.0227C9.52249 34.3863 9.22704 34.6818 8.8634 34.6818Z" fill="#CDD0DA"/>
<path d="M17.8561 34.6818H14.144C13.7803 34.6818 13.4849 34.3863 13.4849 34.0227V30.9469C13.4849 30.5833 13.7803 30.2878 14.144 30.2878H17.8561C18.2197 30.2878 18.5152 30.5833 18.5152 30.9469V34.0227C18.5152 34.3863 18.2197 34.6818 17.8561 34.6818Z" fill="#CDD0DA"/>
<path d="M26.8561 34.6818H23.144C22.7803 34.6818 22.4849 34.3863 22.4849 34.0227V30.9469C22.4849 30.5833 22.7803 30.2878 23.144 30.2878H26.8561C27.2197 30.2878 27.5152 30.5833 27.5152 30.9469V34.0227C27.5152 34.3863 27.2197 34.6818 26.8561 34.6818Z" fill="#CDD0DA"/>
<path d="M35.8483 34.6818H32.1361C31.7725 34.6818 31.4771 34.3863 31.4771 34.0227V30.9469C31.4771 30.5833 31.7725 30.2878 32.1361 30.2878H35.8483C36.2119 30.2878 36.5074 30.5833 36.5074 30.9469V34.0227C36.5149 34.3863 36.2119 34.6818 35.8483 34.6818Z" fill="#FFCE54"/>
<path d="M44.8483 34.6818H41.1361C40.7725 34.6818 40.4771 34.3863 40.4771 34.0227V30.9469C40.4771 30.5833 40.7725 30.2878 41.1361 30.2878H44.8483C45.2119 30.2878 45.5074 30.5833 45.5074 30.9469V34.0227C45.5074 34.3863 45.2119 34.6818 44.8483 34.6818Z" fill="#ED5463"/>
<path d="M8.8634 41.4015H5.15128C4.78764 41.4015 4.49219 41.1061 4.49219 40.7424V37.6667C4.49219 37.303 4.78764 37.0076 5.15128 37.0076H8.8634C9.22704 37.0076 9.52249 37.303 9.52249 37.6667V40.7424C9.52249 41.1061 9.22704 41.4015 8.8634 41.4015Z" fill="#CDD0DA"/>
<path d="M17.8561 41.4015H14.144C13.7803 41.4015 13.4849 41.1061 13.4849 40.7424V37.6667C13.4849 37.303 13.7803 37.0076 14.144 37.0076H17.8561C18.2197 37.0076 18.5152 37.303 18.5152 37.6667V40.7424C18.5152 41.1061 18.2197 41.4015 17.8561 41.4015Z" fill="#CDD0DA"/>
<path d="M26.8561 41.4015H23.144C22.7803 41.4015 22.4849 41.1061 22.4849 40.7424V37.6667C22.4849 37.303 22.7803 37.0076 23.144 37.0076H26.8561C27.2197 37.0076 27.5152 37.303 27.5152 37.6667V40.7424C27.5152 41.1061 27.2197 41.4015 26.8561 41.4015Z" fill="#CDD0DA"/>
<path d="M35.8483 41.4015H32.1361C31.7725 41.4015 31.4771 41.1061 31.4771 40.7424V37.6667C31.4771 37.303 31.7725 37.0076 32.1361 37.0076H35.8483C36.2119 37.0076 36.5074 37.303 36.5074 37.6667V40.7424C36.5149 41.1061 36.2119 41.4015 35.8483 41.4015Z" fill="#FFCE54"/>
<path d="M44.8483 41.4015H41.1361C40.7725 41.4015 40.4771 41.1061 40.4771 40.7424V37.6667C40.4771 37.303 40.7725 37.0076 41.1361 37.0076H44.8483C45.2119 37.0076 45.5074 37.303 45.5074 37.6667V40.7424C45.5074 41.1061 45.2119 41.4015 44.8483 41.4015Z" fill="#ED5463"/>
<path d="M2.86368 32.2575C2.63641 32.2575 2.45459 32.0757 2.45459 31.8484V16.8484C2.45459 16.6211 2.63641 16.4393 2.86368 16.4393C3.09095 16.4393 3.27277 16.6211 3.27277 16.8484V31.8408C3.28035 32.0681 3.09095 32.2575 2.86368 32.2575Z" fill="#CDD0DA"/>
</svg>
