<svg width="61" height="61" viewBox="0 0 61 61" fill="none" xmlns="http://www.w3.org/2000/svg">
<path d="M59.7781 27.3243L10.6654 38.7349L1.24268 25.217L50.3554 13.8059L59.7781 27.3243Z" fill="#47A047"/>
<path d="M54.332 26.1894L35.7891 30.5012C38.134 29.237 38.8364 26.9028 37.3019 24.6983C36.7184 23.8663 35.8864 23.1423 34.903 22.5693C33.2714 21.6296 31.2399 21.0999 29.2407 21.1215L47.7944 16.8102C48.6157 16.6156 49.5342 16.7454 50.1285 17.0804C50.323 17.1991 50.4851 17.3395 50.604 17.5014L55.5315 24.558C55.9745 25.2064 55.445 25.9304 54.332 26.1894Z" fill="#96D696"/>
<path d="M48.5884 17.9012C48.7061 17.9691 48.803 18.0513 48.8704 18.1458C49.1336 18.5283 48.8198 18.9584 48.1605 19.1098C47.6744 19.2255 47.1335 19.151 46.7833 18.9489C46.6637 18.8798 46.5662 18.7959 46.5008 18.6996C46.2308 18.321 46.5513 17.887 47.1971 17.7355C47.692 17.6218 48.2344 17.6968 48.5884 17.9012Z" fill="#47A047"/>
<path d="M50.7725 26.2478C50.6842 26.451 50.4374 26.6023 50.039 26.698C49.6341 26.7895 49.2764 26.7815 48.9661 26.6661C48.8775 26.6331 48.7939 26.5939 48.7154 26.5486C48.519 26.4352 48.354 26.2831 48.2202 26.0925C48.0263 25.8216 47.9838 25.5825 48.0648 25.3755C48.1602 25.1682 48.3999 25.021 48.8052 24.9293C49.2036 24.8336 49.561 24.8418 49.8712 24.9572C49.9664 24.9906 50.055 25.0314 50.138 25.0793C50.3316 25.1911 50.493 25.3424 50.624 25.5348C50.811 25.8018 50.8606 26.0367 50.7725 26.2478ZM49.866 26.4469C50.1129 26.3913 50.2568 26.2917 50.2836 26.1482C50.324 26.0048 50.268 25.8376 50.1293 25.6464C50.0255 25.487 49.893 25.3609 49.736 25.2703C49.7045 25.2521 49.672 25.2355 49.6388 25.2202C49.4458 25.1325 49.2257 25.1165 48.9784 25.1723C48.7311 25.2282 48.5941 25.3317 48.5537 25.4751C48.5202 25.6225 48.5693 25.7857 48.7009 25.981C48.8107 26.1366 48.9437 26.2621 49.1004 26.3526C49.1322 26.3709 49.165 26.3877 49.1986 26.4032C49.3915 26.4909 49.6185 26.5108 49.866 26.4469Z" fill="#414A61"/>
<path d="M46.9721 25.4032L48.1576 27.1121L47.6836 27.2197L46.6785 25.7657L46.0807 25.9052L45.9004 25.6503L46.9721 25.4032Z" fill="#414A61"/>
<path d="M19.1132 27.6991C19.5772 27.9669 19.9577 28.2922 20.219 28.6658C21.2519 30.1436 20.0236 31.8245 17.4685 32.4142C15.5661 32.8573 13.4638 32.5698 12.0937 31.7788C11.629 31.5104 11.2484 31.1843 10.9885 30.8089C9.95559 29.3311 11.1908 27.6542 13.739 27.0605C15.6425 26.6172 17.7423 26.9075 19.1132 27.6991Z" fill="#47A047"/>
<path d="M41.5935 19.52C41.7135 19.5893 41.8119 19.6737 41.8791 19.771C42.1423 20.1535 41.8285 20.5836 41.1692 20.735C40.6831 20.8507 40.1422 20.7762 39.792 20.5741C39.6724 20.505 39.5749 20.4211 39.5095 20.3248C39.2395 19.9462 39.56 19.5122 40.2125 19.3568C40.7041 19.2439 41.2421 19.3171 41.5935 19.52Z" fill="#47A047"/>
<path d="M45.0882 18.7108C45.2088 18.7804 45.3077 18.865 45.3748 18.9624C45.6451 19.3408 45.3243 19.775 44.6649 19.9264C44.1757 20.0369 43.6348 19.9615 43.281 19.7572C43.1631 19.6892 43.0659 19.6068 42.9983 19.5122C42.735 19.1297 43.0488 18.6995 43.7082 18.5482C44.1943 18.4325 44.7352 18.507 45.0882 18.7108Z" fill="#47A047"/>
<path d="M53.6776 25.5745C53.5893 25.7777 53.3426 25.9291 52.9441 26.0247C52.5392 26.1162 52.1815 26.1083 51.8712 25.9929C51.7826 25.9599 51.6991 25.9206 51.6204 25.8752C51.4236 25.7616 51.2572 25.6087 51.1185 25.4153C50.9315 25.1483 50.8886 24.9094 50.97 24.7023C51.0651 24.4952 51.305 24.3477 51.7035 24.2521C52.1084 24.1606 52.4661 24.1685 52.7764 24.2839C52.8687 24.3183 52.9559 24.3591 53.0379 24.4065C53.2317 24.5183 53.3956 24.6673 53.5223 24.8576C53.7162 25.1285 53.7657 25.3635 53.6776 25.5745ZM52.7711 25.7736C53.0181 25.718 53.162 25.6184 53.1888 25.4749C53.2225 25.3355 53.1731 25.1644 53.0345 24.9732C52.9249 24.8104 52.7962 24.6865 52.6406 24.5967C52.6095 24.5787 52.5772 24.5622 52.5439 24.5469C52.351 24.4592 52.124 24.4393 51.8836 24.4991C51.6362 24.5549 51.4857 24.6584 51.4588 24.8018C51.4184 24.9452 51.4674 25.1166 51.5992 25.3038C51.7147 25.4626 51.8486 25.5887 52.0016 25.677C52.0326 25.6949 52.0644 25.7111 52.0968 25.7259C52.2966 25.8176 52.5167 25.8335 52.7711 25.7736Z" fill="#414A61"/>
<path d="M26.1105 29.9743C27.7391 30.9145 29.7815 31.4493 31.7799 31.4312L13.2305 35.7402C12.4039 35.9337 11.4913 35.8066 10.8948 35.4622C10.6934 35.3459 10.5281 35.2048 10.4143 35.043L5.49186 27.9847C5.04801 27.3395 5.58068 26.6144 6.68603 26.3556L25.237 22.0463C22.8888 23.3094 22.1721 25.6472 23.7079 27.853C24.2893 28.6868 25.124 29.4047 26.1105 29.9743ZM17.4685 32.4142C20.0236 31.8245 21.2519 30.1435 20.219 28.6657C19.9576 28.2921 19.5772 27.9669 19.1132 27.699C17.7423 26.9075 15.6425 26.6171 13.739 27.0604C11.1908 27.6541 9.95559 29.3311 10.9885 30.8089C11.2484 31.1842 11.629 31.5104 12.0937 31.7787C13.4638 32.5697 15.5661 32.8572 17.4685 32.4142Z" fill="#96D696"/>
<path d="M59.7803 27.3273L59.7603 34.3741L10.6489 45.7863L10.6689 38.7395L59.7803 27.3273Z" fill="#47A047"/>
<path d="M59.7668 32.0635L10.6557 43.3854L10.6543 43.8912L59.7654 32.5698L59.7668 32.0635Z" fill="#5FAF5F"/>
<path d="M59.7697 31.1722L10.6586 42.4936L10.6572 42.9999L59.7683 31.6786L59.7697 31.1722Z" fill="#5FAF5F"/>
<path d="M59.7795 27.6082L10.6684 38.9295L10.667 39.4352L59.7781 28.1139L59.7795 27.6082Z" fill="#5FAF5F"/>
<path d="M59.7746 29.3899L10.6635 40.7112L10.6621 41.2176L59.7732 29.8962L59.7746 29.3899Z" fill="#5FAF5F"/>
<path d="M59.7722 30.2811L10.6611 41.6025L10.6597 42.1088L59.7708 30.7875L59.7722 30.2811Z" fill="#5FAF5F"/>
<path d="M59.7619 33.8452L10.6509 45.1671L10.6494 45.6729L59.7605 34.3516L59.7619 33.8452Z" fill="#5FAF5F"/>
<path d="M59.7771 28.4993L10.666 39.82L10.6646 40.3264L59.7757 29.005L59.7771 28.4993Z" fill="#5FAF5F"/>
<path d="M59.7644 32.9546L10.6533 44.2759L10.6519 44.7817L59.763 33.4603L59.7644 32.9546Z" fill="#5FAF5F"/>
<path d="M28.938 34.4943L28.918 41.5408L35.9637 39.9036L35.9837 32.8571L28.938 34.4943Z" fill="#ED5D71"/>
<path d="M29.833 34.2864L29.813 41.3329L36.8587 39.6957L36.8787 32.6492L29.833 34.2864Z" fill="#E3E7F0"/>
<path d="M10.6689 38.7395L10.6489 45.7863L1.22021 32.2672L1.24019 25.2203L10.6689 38.7395Z" fill="#5FAF5F"/>
<path d="M55.1641 25.6893L55.143 33.1222L38.5303 42.7765L38.5513 35.3436L55.1641 25.6893Z" fill="#47A047"/>
<path d="M38.5514 35.3436L38.5303 42.7765L3.2959 22.4339L3.31697 15.001L38.5514 35.3436Z" fill="#47A047"/>
<path d="M3.30566 18.9933L38.5401 39.3256L38.5412 38.9452L3.30672 18.6129L3.30566 18.9933Z" fill="#77CB77"/>
<path d="M3.30811 18.1132L38.5426 38.4455L38.5437 38.0656L3.30923 17.7328L3.30811 18.1132Z" fill="#77CB77"/>
<path d="M38.5512 35.3435L3.31675 15.0007L3.31543 15.4735L38.5499 35.8058L38.5512 35.3435Z" fill="#77CB77"/>
<path d="M3.2959 22.434L38.5303 42.7763L38.5312 42.465L3.29676 22.1327L3.2959 22.434Z" fill="#77CB77"/>
<path d="M3.30078 20.7529L38.5353 41.0852L38.5363 40.7053L3.30184 20.373L3.30078 20.7529Z" fill="#77CB77"/>
<path d="M3.29834 21.6326L38.5328 41.9654L38.5339 41.585L3.29946 21.2527L3.29834 21.6326Z" fill="#77CB77"/>
<path d="M3.30322 19.8729L38.5377 40.2057L38.5388 39.8253L3.30428 19.493L3.30322 19.8729Z" fill="#77CB77"/>
<path d="M38.5486 36.3054L3.31404 15.9731L3.31299 16.3536L38.5475 36.6853L38.5486 36.3054Z" fill="#77CB77"/>
<path d="M3.31167 16.8533L3.31055 17.2332L38.545 37.5654L38.5461 37.1855L3.31167 16.8533Z" fill="#77CB77"/>
<path d="M25.076 27.5636L25.055 34.9965L18.7925 31.3809L18.8136 23.948L25.076 27.5636Z" fill="#D3DBEA"/>
<path d="M18.15 23.5647L18.1289 30.9976L18.7927 31.381L18.8137 23.9481L18.15 23.5647Z" fill="#E34454"/>
<path d="M25.0777 27.5643L25.0566 34.9972L25.7204 35.3806L25.7415 27.9477L25.0777 27.5643Z" fill="#E34454"/>
<path d="M55.1641 25.6893L38.5513 35.3436L3.31689 15.0009L19.9296 5.34668L55.1641 25.6893Z" fill="#47A047"/>
<path d="M37.7288 29.0705C37.9099 29.1751 37.9685 29.2909 37.8983 29.4216C37.8412 29.5522 37.6934 29.683 37.4557 29.8212C37.2179 29.9594 36.9863 30.0491 36.761 30.0826C36.5418 30.12 36.3417 30.0864 36.1605 29.9819C35.9859 29.881 35.9272 29.7652 35.9847 29.6344C36.0485 29.4999 36.1894 29.3656 36.4271 29.2274C36.6587 29.0929 36.8968 29.007 37.1221 28.9734C37.354 28.9361 37.5541 28.9697 37.7288 29.0705Z" fill="#96D696"/>
<path d="M38.3821 29.4403C38.3253 29.6382 38.1394 29.8361 37.8116 30.0266C37.4776 30.2207 37.1364 30.3291 36.8013 30.359C36.4599 30.3925 36.1436 30.329 35.8525 30.161C35.5679 29.9967 35.4508 29.8099 35.5076 29.6121C35.5581 29.4179 35.7505 29.2236 36.0845 29.0295C36.4123 28.839 36.747 28.7269 37.0884 28.6934C37.4302 28.6596 37.7463 28.7307 38.0309 28.895C38.322 29.0631 38.4392 29.2422 38.3821 29.4403ZM36.7612 30.0826C36.9865 30.0491 37.2181 29.9594 37.4559 29.8212C37.6937 29.683 37.8414 29.5522 37.8985 29.4216C37.9687 29.2909 37.9101 29.1751 37.729 29.0705C37.5543 28.9697 37.3542 28.9361 37.1223 28.9734C36.897 29.007 36.6589 29.0929 36.4273 29.2274C36.1896 29.3656 36.0487 29.4999 35.9849 29.6344C35.9274 29.7652 35.9861 29.881 36.1607 29.9819C36.3419 30.0864 36.542 30.12 36.7612 30.0826Z" fill="#4C5671"/>
<path d="M39.8118 30.273C40.2089 30.5023 39.9332 30.7944 39.5387 31.0237C39.1401 31.2553 38.6432 31.4152 38.2435 31.1844C37.8496 30.957 38.1142 30.6601 38.5102 30.4299C38.7417 30.2954 38.9798 30.2095 39.2051 30.176C39.437 30.1386 39.6371 30.1722 39.8118 30.273Z" fill="#96D696"/>
<path d="M39.8945 31.2291C39.3002 31.5745 38.5475 31.7169 37.9353 31.3635C37.324 31.0105 37.5576 30.5863 38.1673 30.232C38.4951 30.0415 38.8298 29.9294 39.1712 29.8959C39.513 29.8622 39.8291 29.9332 40.1137 30.0975C40.7229 30.4492 40.5002 30.8771 39.8945 31.2291ZM38.844 31.2851C39.0692 31.2515 39.3009 31.1619 39.5387 31.0237C39.9334 30.7943 40.2089 30.5023 39.8118 30.273C39.6371 30.1722 39.437 30.1386 39.2051 30.176C38.9798 30.2095 38.7417 30.2954 38.5102 30.4299C38.1142 30.6601 37.8497 30.957 38.2435 31.1844C38.4246 31.2889 38.6248 31.3225 38.844 31.2851Z" fill="#4C5671"/>
<path d="M48.1408 25.4627C48.613 25.7354 48.6153 26.1762 48.1464 26.4487C47.6771 26.7214 46.9164 26.7213 46.4442 26.4487C45.972 26.1761 45.9694 25.7355 46.4387 25.4627C46.9076 25.1902 47.6686 25.1901 48.1408 25.4627Z" fill="#47A047"/>
<path d="M43.1276 22.5683C43.5934 22.8372 43.5957 23.278 43.1267 23.5505C42.6574 23.8233 41.8968 23.8232 41.4311 23.5543C40.9588 23.2816 40.9562 22.8411 41.4255 22.5683C41.8944 22.2958 42.6554 22.2957 43.1276 22.5683Z" fill="#5FAF5F"/>
<path d="M45.6313 24.0137C46.1035 24.2863 46.1058 24.7271 45.6368 24.9996C45.1675 25.2723 44.4069 25.2722 43.9347 24.9996C43.4689 24.7307 43.4663 24.2901 43.9356 24.0174C44.4045 23.7449 45.1655 23.7448 45.6313 24.0137Z" fill="#47A047"/>
<path d="M36.6472 28.1554L34.5455 29.3768L34.2026 29.1788L35.9895 28.1404L35.5626 27.8939L35.8775 27.7109L36.6472 28.1554Z" fill="#4C5671"/>
<path d="M33.5472 16.0692C30.7986 15.3665 27.0626 15.8677 24.356 17.4407C21.6444 19.0165 20.7938 21.1796 22.0163 22.7683L8.72005 15.0917C7.93091 14.6361 7.92034 13.8929 8.71077 13.4335L17.3865 8.39172C18.177 7.93237 19.4601 7.93606 20.2493 8.39167L33.5472 16.0692ZM15.2435 15.9918C17.0741 17.0487 20.0271 17.0487 21.8461 15.9916C23.6647 14.9348 23.6551 13.2243 21.8245 12.1674C19.9939 11.1105 17.0409 11.1105 15.2223 12.1673C13.4033 13.2244 13.4129 14.9349 15.2435 15.9918Z" fill="#96D696"/>
<path d="M21.8245 12.1673C23.6551 13.2242 23.6647 14.9347 21.8461 15.9916C20.0271 17.0486 17.0741 17.0487 15.2435 15.9918C13.4129 14.9349 13.4033 13.2244 15.2223 12.1673C17.0409 11.1104 19.9939 11.1104 21.8245 12.1673Z" fill="#47A047"/>
<path d="M35.2612 16.7461C35.7654 17.0371 36.1566 17.3725 36.4384 17.7383C37.664 19.3301 36.8109 21.4958 34.1042 23.0687C31.3927 24.6445 27.6611 25.1442 24.9108 24.4393C24.2779 24.2771 23.6969 24.0511 23.1923 23.7598C22.6889 23.4691 22.2978 23.1339 22.0164 22.7683C20.794 21.1795 21.6445 19.0164 24.3561 17.4406C27.0628 15.8677 30.7988 15.3665 33.5473 16.0692C34.179 16.2307 34.7583 16.4557 35.2612 16.7461Z" fill="#47A047"/>
<path d="M49.7331 25.4142C50.5288 25.8736 50.5393 26.6168 49.7489 27.0762L41.0732 32.118C40.2827 32.5773 38.9995 32.5736 38.2039 32.1143L24.9106 24.4394C27.6609 25.1443 31.3925 24.6446 34.1041 23.0688C36.8108 21.4959 37.6638 19.3302 36.4382 17.7384L49.7331 25.4142ZM38.8843 31.5615C39.2194 31.5316 39.5606 31.4233 39.8946 31.2292C40.5004 30.8771 40.7231 30.4493 40.1139 30.0976C39.8293 29.9332 39.5132 29.8622 39.1714 29.8959C38.83 29.9294 38.4953 30.0415 38.1675 30.232C37.5578 30.5864 37.3242 31.0106 37.9355 31.3635C38.2266 31.5316 38.5429 31.5951 38.8843 31.5615ZM36.8014 30.359C37.1365 30.3291 37.4777 30.2207 37.8117 30.0266C38.1395 29.8361 38.3255 29.6381 38.3822 29.4403C38.4394 29.2422 38.3221 29.0631 38.031 28.895C37.7464 28.7307 37.4303 28.6596 37.0885 28.6934C36.7472 28.7269 36.4124 28.839 36.0846 29.0295C35.7506 29.2236 35.5582 29.4178 35.5077 29.612C35.4509 29.8099 35.568 29.9966 35.8526 30.161C36.1437 30.329 36.46 30.3925 36.8014 30.359ZM46.4443 26.4487C46.9165 26.7213 47.6772 26.7214 48.1465 26.4487C48.6155 26.1762 48.6131 25.7354 48.1409 25.4627C47.6687 25.1901 46.9077 25.1902 46.4388 25.4628C45.9695 25.7355 45.9721 26.1761 46.4443 26.4487ZM41.4312 23.5544C41.8969 23.8233 42.6576 23.8233 43.1269 23.5506C43.5958 23.2781 43.5935 22.8373 43.1278 22.5684C42.6556 22.2958 41.8946 22.2959 41.4256 22.5684C40.9563 22.8411 40.959 23.2817 41.4312 23.5544ZM43.9354 24.0174C43.4661 24.2902 43.4688 24.7308 43.9345 24.9997C44.4067 25.2723 45.1674 25.2724 45.6367 24.9997C46.1056 24.7271 46.1033 24.2863 45.6311 24.0137C45.1654 23.7448 44.4044 23.7449 43.9354 24.0174ZM34.5455 29.3768L36.6473 28.1554L35.8775 27.711L35.5627 27.894L35.9896 28.1405L34.2027 29.1789L34.5455 29.3768Z" fill="#96D696"/>
<path d="M41.6887 17.9093L25.076 27.5636L18.8135 23.948L35.4212 14.2908L41.6887 17.9093Z" fill="#E3E7F0"/>
<path d="M34.7626 13.9105L18.1499 23.5646L18.8137 23.948L35.4214 14.2909L34.7626 13.9105Z" fill="#ED5D71"/>
<path d="M42.3432 18.2871L41.6889 17.9092L25.0762 27.5638L25.7414 27.9476L42.3432 18.2871Z" fill="#ED5D71"/>
<path d="M55.1753 29.6819L38.5626 39.3256L38.5615 38.9452L55.1743 29.3015L55.1753 29.6819Z" fill="#5FAF5F"/>
<path d="M55.1729 28.8018L38.5602 38.4455L38.5591 38.0656L55.1718 28.4214L55.1729 28.8018Z" fill="#5FAF5F"/>
<path d="M38.5513 35.3436L55.164 25.6893L55.1653 26.1621L38.5526 35.8058L38.5513 35.3436Z" fill="#5FAF5F"/>
<path d="M55.1848 33.1226L38.5721 42.7763L38.5713 42.465L55.184 32.8213L55.1848 33.1226Z" fill="#5FAF5F"/>
<path d="M55.1802 31.4415L38.5675 41.0853L38.5664 40.7054L55.1791 31.0616L55.1802 31.4415Z" fill="#5FAF5F"/>
<path d="M55.1826 32.3212L38.5699 41.9654L38.5688 41.585L55.1815 31.9413L55.1826 32.3212Z" fill="#5FAF5F"/>
<path d="M55.1778 30.5614L38.565 40.2057L38.564 39.8252L55.1767 30.1815L55.1778 30.5614Z" fill="#5FAF5F"/>
<path d="M38.5542 36.3055L55.167 26.6617L55.1681 27.0422L38.5553 36.6854L38.5542 36.3055Z" fill="#5FAF5F"/>
<path d="M55.1694 27.5419L55.1705 27.9218L38.5578 37.5655L38.5566 37.1856L55.1694 27.5419Z" fill="#5FAF5F"/>
<path d="M10.6533 44.1609L1.22463 30.6635L1.22314 31.1912L10.6519 44.6887L10.6533 44.1609Z" fill="#47A047"/>
<path d="M10.6665 39.5156L1.23782 26.0176L1.23633 26.546L10.665 40.0434L10.6665 39.5156Z" fill="#47A047"/>
<path d="M10.6563 43.2317L1.22756 29.7349L1.22607 30.2627L10.6548 43.7601L10.6563 43.2317Z" fill="#47A047"/>
<path d="M10.669 38.7395L1.24037 25.22L1.23926 25.6167L10.668 39.1141L10.669 38.7395Z" fill="#47A047"/>
<path d="M10.6586 42.303L1.23 28.8055L1.22852 29.3333L10.6572 42.8308L10.6586 42.303Z" fill="#47A047"/>
<path d="M10.6616 41.3737L1.23293 27.8762L1.23145 28.404L10.6602 41.9015L10.6616 41.3737Z" fill="#47A047"/>
<path d="M10.6641 40.4443L1.23538 26.9469L1.23389 27.4753L10.6626 40.9721L10.6641 40.4443Z" fill="#47A047"/>
<path d="M10.6508 45.0896L1.22219 31.5934L1.2207 32.1206L10.6493 45.618L10.6508 45.0896Z" fill="#47A047"/>
<path d="M36.7899 48.6042L36.7861 49.8383C36.7861 48.9648 36.2127 48.0991 35.066 47.4383C33.923 46.7777 32.4308 46.4512 30.9385 46.4512C29.4462 46.4473 27.9539 46.7777 26.8185 47.4383C25.6908 48.0952 25.125 48.9535 25.125 49.8116L25.1288 48.5738C25.1288 47.7118 25.6946 46.8574 26.8223 46.2005C27.9577 45.5397 29.4462 45.2094 30.9422 45.2094C32.4346 45.2132 33.9268 45.5397 35.0698 46.2005C36.2203 46.8651 36.7937 47.7346 36.7899 48.6042Z" fill="#EFA143"/>
<path d="M35.0706 46.7429C37.3544 48.0614 37.3664 50.2002 35.0975 51.5188C32.8261 52.8387 29.1337 52.8388 26.85 51.5202C24.5638 50.2003 24.5518 48.0615 26.8232 46.7416C29.0921 45.423 32.7845 45.423 35.0706 46.7429Z" fill="#FFDD94"/>
<path d="M37.9535 48.6437L37.9498 49.608C37.9468 50.6381 37.2702 51.6666 35.9186 52.4521C33.195 54.0348 28.7679 54.0333 26.0292 52.4521C24.6491 51.6553 23.9595 50.6097 23.9624 49.5658L23.9662 48.6016C23.9632 49.6455 24.6528 50.6911 26.0329 51.4879C28.7716 53.0691 33.1988 53.0706 35.9223 51.4878C37.274 50.7023 37.9506 49.6738 37.9535 48.6437Z" fill="#EFA143"/>
<path d="M35.8902 45.7596C38.6289 47.3408 38.6433 49.9067 35.9225 51.4878C33.1989 53.0706 28.7718 53.0691 26.0331 51.4879C23.2918 49.9052 23.2747 47.3409 25.9983 45.7581C28.7191 44.1769 33.1489 44.1769 35.8902 45.7596ZM26.8499 50.9786C29.1336 52.2971 32.826 52.2971 35.0974 50.9771C37.3663 49.6585 37.3543 47.5198 35.0705 46.2012C32.7844 44.8813 29.092 44.8813 26.8231 46.1999C24.5517 47.5199 24.5637 49.6586 26.8499 50.9786Z" fill="#FEBB61"/>
<path d="M30.2489 50.4694L32.2867 49.2826V49.7418L30.2489 50.9287L29.7787 50.6487L29.7451 49.6521C29.7339 49.4504 29.7227 49.305 29.6891 49.1929C29.6667 49.0923 29.5995 49.0141 29.4988 48.9578C29.398 48.9021 29.2972 48.8796 29.1629 48.8796C29.0397 48.8796 28.9165 48.9021 28.8158 48.9578C28.7598 48.9917 28.7262 49.0251 28.6926 49.0699V49.4843L27.8753 49.6073C27.8193 49.4843 27.8081 49.3722 27.8081 49.2716V48.8124C27.8081 48.9245 27.8305 49.036 27.8753 49.1481L28.6366 49.0475V48.8009C28.6366 48.667 28.7038 48.5773 28.8158 48.4991C28.9165 48.4428 29.0397 48.4204 29.1629 48.4204C29.2972 48.4204 29.398 48.4428 29.4988 48.4991C29.5995 48.5658 29.6667 48.6446 29.7003 48.7452C29.7227 48.8457 29.7339 48.9917 29.7451 49.1929L29.7787 50.1895L30.2489 50.4694Z" fill="#EFA143"/>
<path d="M31.3013 47.6364V47.1777C31.3013 47.0881 31.3684 46.9984 31.5028 46.9202C31.6932 46.8082 31.9283 46.7748 32.197 46.8306C32.4657 46.8754 32.7456 46.9875 33.0367 47.1553C33.3278 47.3232 33.5181 47.4801 33.5965 47.6364C33.6301 47.6927 33.6413 47.7375 33.6413 47.7824V48.2411C33.6413 48.1962 33.6301 48.1405 33.5965 48.0956C33.5181 47.9393 33.3278 47.7824 33.0367 47.6145C32.7456 47.4462 32.4657 47.3346 32.197 47.2898C31.9283 47.2335 31.6932 47.2674 31.5028 47.3795C31.3684 47.4462 31.3013 47.5358 31.3013 47.6364Z" fill="#EFA143"/>
<path d="M34.481 47.7152V48.1744C34.481 48.398 34.313 48.6107 33.9771 48.8009C33.574 49.036 33.1374 49.1256 32.6671 49.0923C32.1969 49.0475 31.7266 48.8906 31.2787 48.6331C30.8197 48.3646 30.5622 48.0957 30.4838 47.8272C30.4726 47.7824 30.4614 47.7376 30.4614 47.6927V47.2335C30.4614 47.2783 30.4726 47.3232 30.4838 47.368C30.5622 47.6364 30.8197 47.9054 31.2787 48.1744C31.7266 48.4319 32.1969 48.5882 32.6671 48.6331C33.1486 48.6779 33.574 48.5773 33.9771 48.3422C34.313 48.152 34.481 47.9393 34.481 47.7152Z" fill="#EFA143"/>
<path d="M34.4623 47.5922C34.5352 47.8646 34.3728 48.1163 33.9751 48.3474C33.5771 48.5787 33.143 48.6736 32.6726 48.6323C32.195 48.5869 31.731 48.4342 31.2807 48.1742C30.8232 47.91 30.558 47.6417 30.4852 47.3694C30.4052 47.0929 30.5676 46.8412 30.9656 46.6098C31.3633 46.3788 31.7973 46.2839 32.2749 46.3293C32.7454 46.3706 33.2094 46.5233 33.6669 46.7874C34.1172 47.0474 34.3824 47.3157 34.4623 47.5922ZM32.7483 48.1328C33.0192 48.1825 33.2543 48.1535 33.4461 48.042C33.6376 47.9307 33.6869 47.7944 33.6006 47.6375C33.514 47.4808 33.3281 47.3239 33.035 47.1547C32.7419 46.9854 32.4632 46.8741 32.1995 46.8286C31.9284 46.7791 31.6932 46.8081 31.5018 46.9194C31.3099 47.0309 31.2606 47.1672 31.3472 47.3239C31.4263 47.4767 31.6195 47.6377 31.9126 47.8069C32.2056 47.9761 32.4772 48.0834 32.7483 48.1328Z" fill="#FEBB61"/>
<path d="M32.2915 49.2844L30.2532 50.469L29.7743 50.1924L29.7475 49.1977C29.7391 48.9955 29.7243 48.8468 29.6949 48.7396C29.6661 48.6404 29.6014 48.562 29.5014 48.5043C29.4013 48.4465 29.2942 48.4177 29.1658 48.4177C29.0375 48.4177 28.9167 48.4466 28.8173 48.5043C28.6396 48.6076 28.5907 48.7851 28.6918 49.0327L27.8731 49.1524C27.7939 48.95 27.7857 48.7725 27.8345 48.6199C27.8907 48.4631 28.0397 48.3103 28.2882 48.1658C28.5367 48.0214 28.8354 47.939 29.1917 47.9224C29.5335 47.9059 29.8473 47.972 30.1261 48.1329C30.2763 48.2196 30.3768 48.3268 30.4344 48.4506C30.4994 48.5703 30.5359 48.756 30.5442 48.9997L30.5693 49.6145L31.7125 48.9501L32.2915 49.2844Z" fill="#FEBB61"/>
<path d="M26.7455 50.6188L26.7417 51.8529C26.7417 50.9795 26.1683 50.1138 25.0216 49.453C23.8786 48.7924 22.3863 48.4659 20.894 48.4659C19.4017 48.462 17.9094 48.7924 16.7741 49.453C15.6463 50.1099 15.0806 50.9681 15.0806 51.8262L15.0843 50.5884C15.0843 49.7265 15.6501 48.8721 16.7779 48.2152C17.9132 47.5544 19.4017 47.224 20.8978 47.224C22.3901 47.2279 23.8824 47.5544 25.0254 48.2152C26.1759 48.8797 26.7493 49.7493 26.7455 50.6188Z" fill="#EFA143"/>
<path d="M25.0262 48.7576C27.3099 50.0761 27.322 52.2149 25.0531 53.5334C22.7817 54.8534 19.0893 54.8534 16.8055 53.5349C14.5194 52.215 14.5073 50.0762 16.7787 48.7562C19.0476 47.4377 22.74 47.4376 25.0262 48.7576Z" fill="#FFDD94"/>
<path d="M27.9091 50.6584L27.9053 51.6226C27.9024 52.6527 27.2258 53.6812 25.8741 54.4667C23.1506 56.0495 18.7234 56.048 15.9847 54.4668C14.6046 53.67 13.915 52.6244 13.918 51.5805L13.9217 50.6162C13.9188 51.6601 14.6084 52.7057 15.9885 53.5025C18.7272 55.0837 23.1543 55.0852 25.8779 53.5025C27.2296 52.717 27.9062 51.6884 27.9091 50.6584Z" fill="#EFA143"/>
<path d="M25.8457 47.7742C28.5844 49.3554 28.5988 51.9213 25.8781 53.5025C23.1545 55.0852 18.7273 55.0837 15.9886 53.5025C13.2473 51.9199 13.2303 49.3555 15.9539 47.7727C18.6746 46.1916 23.1044 46.1915 25.8457 47.7742ZM16.8055 52.9932C19.0892 54.3117 22.7816 54.3117 25.053 52.9917C27.3219 51.6732 27.3099 49.5344 25.0261 48.2159C22.7399 46.896 19.0476 46.896 16.7786 48.2145C14.5072 49.5345 14.5193 51.6733 16.8055 52.9932Z" fill="#FEBB61"/>
<path d="M21.0065 52.1968L21.6335 51.8381V52.2864L21.0065 52.6554L18.6553 51.2898L18.1067 51.6145L17.5581 51.2898V50.842L18.1067 51.1553L18.6553 50.842L21.0065 52.1968Z" fill="#EFA143"/>
<path d="M23.4585 51.2674C23.0666 51.5025 22.6188 51.5921 22.1485 51.5582C21.6783 51.5134 21.2192 51.357 20.7602 51.099C20.3011 50.8306 20.0324 50.5621 19.9652 50.2932C19.954 50.2483 19.9429 50.2035 19.9429 50.1587V49.7109C19.9429 49.7443 19.954 49.7891 19.9652 49.8339C20.0324 50.1029 20.3011 50.3713 20.7602 50.6403C21.2192 50.8978 21.6783 51.0547 22.1485 51.099C22.6188 51.1329 23.0666 51.0432 23.4585 50.8191C23.8056 50.6179 23.9623 50.4052 23.9623 50.1811V50.6403C23.9623 50.8639 23.8056 51.0771 23.4585 51.2674Z" fill="#EFA143"/>
<path d="M20.7827 50.1029V49.6552C20.7827 49.554 20.861 49.4644 20.9842 49.3862C21.1858 49.2741 21.4208 49.2408 21.6784 49.2965C21.9471 49.3413 22.2382 49.4534 22.5181 49.6103C22.8204 49.7891 22.9996 49.946 23.0892 50.1029C23.1227 50.1587 23.1339 50.2035 23.1339 50.2483V50.6961C23.1339 50.6512 23.1115 50.6069 23.0892 50.5621C22.9996 50.4052 22.8093 50.2374 22.5181 50.069C22.2382 49.9012 21.9471 49.8006 21.6784 49.7443C21.4097 49.6994 21.1858 49.7333 20.9842 49.8454C20.8499 49.9236 20.7827 50.0132 20.7827 50.1029Z" fill="#EFA143"/>
<path d="M23.9497 50.0522C24.0221 50.3248 23.8669 50.5807 23.4623 50.8158C23.0643 51.0471 22.6231 51.1379 22.1526 51.0966C21.6821 51.0553 21.2181 50.9026 20.7606 50.6384C20.3031 50.3743 20.038 50.106 19.9652 49.8337C19.8923 49.5613 20.0547 49.3096 20.4527 49.0783C20.8573 48.8431 21.2914 48.7482 21.7622 48.7893C22.2327 48.8306 22.6967 48.9833 23.1542 49.2474C23.6117 49.5116 23.8768 49.7798 23.9497 50.0522ZM22.2355 50.6012C22.5063 50.6509 22.7342 50.6178 22.9261 50.5063C23.1249 50.3907 23.181 50.2588 23.0878 50.1059C23.0012 49.9492 22.815 49.7841 22.5219 49.6149C22.236 49.4498 21.9503 49.3425 21.6795 49.2928C21.4153 49.2394 21.1877 49.2722 20.9889 49.3878C20.797 49.4993 20.7406 49.6314 20.8272 49.7882C20.9208 49.9408 21.107 50.1059 21.3929 50.271C21.686 50.4402 21.9716 50.5475 22.2355 50.6012Z" fill="#FEBB61"/>
<path d="M21.6368 51.8353L21.0119 52.1985L18.6528 50.8365L18.1061 51.1542L17.5557 50.8365L18.7274 50.1555L21.6368 51.8353Z" fill="#FEBB61"/>
</svg>
