<svg width="55" height="55" viewBox="0 0 55 55" fill="none" xmlns="http://www.w3.org/2000/svg">
<path d="M42.7042 2.71777H4.59754C2.05831 2.71777 0 4.77608 0 7.31531V38.5603C0 41.0993 2.05831 43.1578 4.59754 43.1578H42.7042C45.2434 43.1578 47.3017 41.0995 47.3017 38.5603V7.31531C47.3016 4.77608 45.2432 2.71777 42.7042 2.71777Z" fill="#D4D2D3"/>
<path d="M4.59754 43.1577H12.3438C9.80481 43.1576 7.7465 41.0993 7.7465 38.5603V7.31531C7.7465 4.77629 9.8047 2.71799 12.3437 2.71777H4.59754C2.93132 2.71777 1.472 3.60432 0.665692 4.9313C0.550536 5.1209 0.4487 5.31942 0.361366 5.52567C0.128691 6.07577 0 6.68045 0 7.31531V38.5603C0 41.0993 2.05831 43.1577 4.59754 43.1577Z" fill="#BAB8B9"/>
<path d="M42.9218 7.75415H4.37988V34.3975H42.9218V7.75415Z" fill="#465059"/>
<path d="M28.5126 38.0483H18.7886V50.1085H28.5126V38.0483Z" fill="#D4D2D3"/>
<path d="M29.8586 47.9338H17.4433C16.2425 47.9338 15.269 48.9072 15.269 50.1081C15.269 51.3088 16.2424 52.2823 17.4433 52.2823H29.8586C31.0594 52.2823 32.0328 51.3089 32.0328 50.1081C32.0328 48.9073 31.0594 47.9338 29.8586 47.9338Z" fill="#BAB8B9"/>
<path d="M7.74648 7.75415H4.37988V34.3975H7.74648V7.75415Z" fill="#3C474D"/>
<path d="M23.6512 40.4609C24.5753 40.4609 25.3244 39.7118 25.3244 38.7877C25.3244 37.8636 24.5753 37.1145 23.6512 37.1145C22.7271 37.1145 21.978 37.8636 21.978 38.7877C21.978 39.7118 22.7271 40.4609 23.6512 40.4609Z" fill="#465059"/>
<path d="M23.6512 5.89344C24.0108 5.89344 24.3024 5.6019 24.3024 5.24225C24.3024 4.88261 24.0108 4.59106 23.6512 4.59106C23.2915 4.59106 23 4.88261 23 5.24225C23 5.6019 23.2915 5.89344 23.6512 5.89344Z" fill="#465059"/>
<path d="M14.9183 22.6331C14.46 22.6331 14.0884 22.2615 14.0884 21.8032V20.2228C14.0884 19.7644 14.46 19.3928 14.9183 19.3928C15.3767 19.3928 15.7483 19.7644 15.7483 20.2228V21.8032C15.7483 22.2615 15.3767 22.6331 14.9183 22.6331Z" fill="#EFEDEE"/>
<path d="M32.3832 22.6331C31.9248 22.6331 31.5532 22.2615 31.5532 21.8032V20.2228C31.5532 19.7644 31.9248 19.3928 32.3832 19.3928C32.8415 19.3928 33.2131 19.7644 33.2131 20.2228V21.8032C33.2131 22.2615 32.8415 22.6331 32.3832 22.6331Z" fill="#EFEDEE"/>
<path d="M23.6508 23.4768C22.5714 23.4768 21.558 23.0258 20.8706 22.2395C20.569 21.8943 20.6041 21.37 20.9493 21.0684C21.2944 20.7667 21.8186 20.8019 22.1204 21.147C22.4924 21.5727 23.0503 21.8169 23.6507 21.8169C24.2512 21.8169 24.809 21.5727 25.1811 21.147C25.4827 20.8019 26.0071 20.7667 26.3522 21.0684C26.6974 21.37 26.7326 21.8943 26.4308 22.2395C25.7436 23.0258 24.7304 23.4768 23.6508 23.4768Z" fill="#EFEDEE"/>
<path d="M45.2241 22.636C42.811 23.729 41.1313 26.1566 41.1313 28.9783C41.1313 31.7998 42.811 34.2274 45.2241 35.3206C47.6372 34.2275 49.3169 31.7999 49.3169 28.9783C49.3169 26.1566 47.6371 23.729 45.2241 22.636Z" fill="#009983"/>
<path d="M36.4667 28.541C38.9459 27.6075 41.8503 28.1365 43.8453 30.1316C45.8404 32.1267 46.3693 35.031 45.4359 37.5102C42.9567 38.4437 40.0524 37.9147 38.0573 35.9196C36.0622 33.9246 35.5334 31.0203 36.4667 28.541Z" fill="#00AD94"/>
<path d="M53.9808 28.541C51.5017 27.6075 48.5973 28.1365 46.6023 30.1316C44.6071 32.1267 44.0783 35.031 45.0117 37.5102C47.4909 38.4437 50.3952 37.9147 52.3902 35.9196C54.3853 33.9246 54.9142 31.0203 53.9808 28.541Z" fill="#3AC7B4"/>
<path d="M28.5126 43.1577H18.7886V45.9542H28.5126V43.1577Z" fill="#BAB8B9"/>
<path d="M53.5331 36.4141H36.9146C36.1045 36.4141 35.4478 37.0707 35.4478 37.8809V40.5869C35.4478 41.3969 36.1044 42.0537 36.9146 42.0537H53.5332C54.3432 42.0537 55 41.397 55 40.5869V37.8809C54.9999 37.0708 54.3432 36.4141 53.5331 36.4141Z" fill="#FF8C57"/>
<path d="M36.9146 42.0537L37.4709 49.5249C37.5595 51.0639 38.8334 52.2666 40.375 52.2666H50.0727C51.6142 52.2666 52.8883 51.0639 52.9769 49.5249L53.5332 42.0537L45.2239 39.2339L36.9146 42.0537Z" fill="#FF8C57"/>
<path d="M53.2832 45.4077L53.533 42.0537H36.9146L37.1643 45.4077H53.2832Z" fill="#EC6A34"/>
</svg>
