<svg width="696" height="707" viewBox="0 0 696 707" fill="none" xmlns="http://www.w3.org/2000/svg">
<path d="M423.047 490.48C423.047 490.48 422.77 490.48 422.632 490.48C421.885 491.615 421.137 492.778 420.417 493.941L414.244 494.384C412.998 495.574 411.808 497.069 410.645 498.896C410.59 499.007 410.562 499.118 410.507 499.228C432.847 558.277 472.13 564.339 477.86 564.893C477.943 564.588 478.054 564.256 478.137 563.952C474.289 555.065 445.664 490.48 423.047 490.48Z" fill="#802B25"/>
<path d="M692.486 586.376C687.143 568.687 665.052 554.818 645.203 549.17C622.448 542.692 598.446 544.381 574.777 544.132C551.108 543.883 498.095 554.042 492.863 532.643C491.257 526.11 492.42 517.058 492.42 509.002C487.16 516.504 483.146 524.975 480.682 533.944C478.08 543.44 476.446 553.267 475.561 563.095C488.378 571.787 506.427 573.282 532.892 571.87C553.655 570.735 592.273 572.258 612.592 576.632C637.12 581.892 633.825 596.951 635.154 617.714C681.523 630.974 695.171 595.263 692.486 586.349V586.376Z" fill="url(#paint0_radial_2004_2)"/>
<path d="M666.74 558.331C660.567 556.919 653.342 556.753 645.729 559.66C628.427 566.22 625.492 576.02 625.409 581.751C627.181 582.996 628.593 584.381 629.728 585.931C631.057 572.754 648.331 566.636 656.414 566.331C664.221 566.027 678.81 565.916 689.911 580.256C685.205 571.563 676.595 564.061 666.74 558.331Z" fill="#9C3D39"/>
<path d="M614.751 606.532C612.481 617.246 619.097 626.353 628.315 630.617C647.085 639.309 678.948 638.589 689.163 620.125C701.51 597.757 694.174 577.382 676.318 575.361C662.809 573.838 620.204 580.759 614.751 606.532Z" fill="#FFD09C"/>
<path d="M629.755 545.962C621.146 544.744 612.453 544.301 603.678 544.162C599.774 551.249 598.667 566.724 604.204 575.167C607.221 575.61 610.045 576.109 612.564 576.662C614.308 577.022 615.886 577.465 617.353 577.936C613.699 564.011 622.585 550.917 629.755 545.962Z" fill="#9C3D39"/>
<path d="M480.321 535.465C479.768 537.569 479.242 539.673 478.799 541.777C479.186 545.403 478.716 549.14 477.359 552.545C481.54 557.445 485 562.954 487.602 568.823C494.523 570.982 502.579 572.034 512.019 572.311C512.074 572.145 512.129 572.007 512.157 571.841C514.178 563.259 512.6 554.372 506.759 547.562C500.281 540.005 490.315 536.185 480.321 535.492V535.465Z" fill="#9C3D39"/>
<path d="M517.778 545.931C522.014 547.592 526.083 551.412 527.44 557.281C528.769 562.984 527.606 568.105 523.813 572.285C524.671 572.285 525.53 572.23 526.415 572.202C533.115 569.323 535.939 562.457 537.101 556.782C537.821 553.294 537.71 549.502 536.52 546.208C530.042 546.457 523.619 546.457 517.778 545.958V545.931Z" fill="#9C3D39"/>
<path d="M583.359 555.566C584.826 551.081 587.622 546.984 591.331 544.133C585.822 544.133 580.286 544.216 574.777 544.133C573.946 544.133 573.06 544.133 572.147 544.133C571.898 545.13 571.732 546.237 571.565 547.455C570.375 556.424 573.31 565.947 579.427 572.591C580.535 572.674 581.642 572.757 582.749 572.841C581.587 567.11 581.531 561.103 583.359 555.566Z" fill="#9C3D39"/>
<g style="mix-blend-mode:multiply" opacity="0.45">
<path d="M627.903 583.829C622.311 562.264 592.136 559.772 545.988 556.007C520.353 553.931 524.506 547.287 524.561 546.318C513.737 546.18 498.927 543.965 494.58 536.546L478.552 564.949C491.148 572.008 508.422 573.199 532.894 571.897C553.656 570.762 592.274 572.285 612.594 576.659C619.874 578.209 624.691 580.645 627.903 583.829Z" fill="#9C5E3C"/>
</g>
<path d="M516.064 594.71C513.822 592.19 510.002 590.114 505.351 588.675C497.572 576.549 488.879 562.403 491.703 554.846C503.496 532.229 518.417 527.605 509.503 500.448C498.596 467.284 489.156 438.742 478.581 417.205C474.595 394.394 473.155 364.053 479.993 321.393L482.844 296.478L472.186 247.507C454.137 250.026 435.894 250.469 417.678 248.282C389.912 244.96 362.506 236.295 337.009 223.45L311.209 257.556C303.873 287.011 298.807 322.971 301.381 346.17C303.817 370.531 335.93 419.032 357.412 448.681C356.166 451.92 354.201 457.401 353.342 460.75C339.971 512.407 339.805 529.682 366.243 541.696C371.42 568.3 367.516 581.394 362.699 591.581C357.135 592.689 352.512 594.599 350.02 597.118C347.307 600.8 342.241 611.818 347.418 618.932C347.806 621.285 378.894 626.434 394.037 623.998C402.646 622.614 406.577 619.652 408.515 616.053C409.567 614.06 410.176 609.492 410.176 609.492C413 597.09 415.38 577.491 414.633 559.801C414.052 545.766 404.584 555.289 408.903 526C418.232 521.321 429.25 526.858 439.825 536.16C447.521 542.914 453.113 550.998 446.745 560.742C445.472 562.68 448.462 588.924 455.133 605.838C457.265 612.316 460.144 619.237 463.189 620.649C481.46 630.836 517.421 620.815 518.03 617.742C523.566 610.572 518.583 598.641 516.037 594.682L516.064 594.71Z" fill="url(#paint1_radial_2004_2)"/>
<path opacity="0.52" d="M519.828 603.926C518.887 599.995 517.226 596.507 516.063 594.707C514.458 592.88 512.022 591.302 509.06 590.029C501.281 588.949 468.365 595.51 462.441 603.511C458.565 608.743 461.417 616.715 462.607 617.269C480.878 627.456 516.839 617.435 517.448 614.362C519.745 611.4 520.216 607.635 519.828 603.926Z" fill="#F3593D"/>
<path opacity="0.52" d="M360.29 592.16C355.805 593.295 352.124 594.984 349.964 597.143C348.137 599.607 345.286 605.393 345.147 611.068C345.147 612.147 345.258 613.255 345.507 614.307C345.84 615.054 368.263 623.747 396.361 620.148C407.601 618.708 402.341 608.521 401.538 604.894C393.593 594.292 375.931 594.264 360.29 592.188V592.16Z" fill="#F3593D"/>
<path d="M457.874 292.188C423.297 272.92 388.749 253.68 354.172 234.413C350.352 232.281 346.449 230.122 342.13 229.568C338.199 229.042 334.434 229.873 330.891 231.506L311.153 257.611C308.606 267.909 306.308 279.01 304.536 290.056C296.647 310.791 293.076 334.432 294.986 369.341C296.425 365.853 297.893 362.392 299.332 358.904C303.485 367.68 307.637 376.483 311.789 385.258C311.513 382.02 311.236 378.781 310.987 375.542C337.341 434.119 352.262 431.738 366.187 475.81C369.287 485.61 371.779 511.992 378.949 519.328C383.378 523.868 388.583 522.484 394.424 520.436C401.372 516.394 410.618 515.148 418.481 517.03C429.249 519.605 440.24 525.529 449.015 533.585C461.832 519.107 463.355 495.576 458.76 475.866C453.306 452.556 441.845 430.437 441.07 406.519C439.298 351.928 452.78 355.25 464.462 331.498C464.988 330.114 461.14 293.987 457.874 292.188Z" fill="#FFD09C"/>
<path d="M403.477 43.8411C401.234 31.3282 394.48 18.8708 383.545 10.5105C369.565 -0.175203 349.411 -2.97122 333.964 3.31286C318.517 9.59695 308.385 24.4905 308.219 40.436C308.136 48.9901 310.738 57.7657 315.555 65.4893C323.361 77.9744 337.065 87.5528 352.014 90.9579C365.717 94.0861 385.732 92.3697 395.919 83.5941C405.885 74.9846 405.608 55.8002 403.477 43.8411Z" fill="url(#paint2_linear_2004_2)"/>
<path d="M368.347 43.1503C363.724 32.2985 355.198 22.8032 344.208 18.4846C340.221 16.9067 335.875 16.1039 331.584 16.0762C321.341 22.7478 314.891 34.0426 314.78 46.0294C314.697 53.6977 317.05 61.5597 321.397 68.5081C328.401 79.6922 340.609 90.4886 354.035 93.5338C357.8 94.392 362.229 92.6479 366.659 92.6202C376.902 78.6956 375.822 60.5908 368.375 43.1227L368.347 43.1503Z" fill="url(#paint3_radial_2004_2)"/>
<path d="M375.683 83.2067C375.268 81.9887 378.147 66.7075 378.341 66.3477C368.956 43.509 348.194 43.1491 345.757 41.7373C350.187 45.9728 354.035 52.5337 356.249 59.0393C340.332 47.8553 323.445 50.762 307.084 52.423C321.978 57.7382 332.553 64.0776 340.525 75.2617C324.552 70.8047 319.292 73.4069 310.766 81.518C321.009 81.2412 337.259 92.8128 342.214 96.5223C353.121 92.702 374.963 97.1037 378.645 95.7195C378.645 92.2314 376.264 85.809 375.711 83.2344L375.683 83.2067Z" fill="#FFD7AB"/>
<path d="M300.965 171.267C320.398 192.722 345.452 210.051 368.65 224.004C406.299 246.648 448.267 257.002 491.01 264.753C508.755 267.965 526.694 270.622 544.743 272.615C552.882 264.449 560.19 254.289 566.917 241.804C589.368 200.141 584.718 145.383 559.775 105.769C548.896 88.4944 519.884 69.1992 505.239 55.1638C490.179 40.7132 485.972 32.7958 485.75 24.7123C482.843 28.2834 479.964 31.8269 477.058 35.398C477.667 30.7196 477.667 24.7123 474.455 18.1514C473.514 31.1071 461.638 40.8516 449.402 44.3674C437.166 47.8831 424.266 46.8312 411.642 47.8831C384.153 50.1808 357.522 62.9428 338.033 83.1515C318.544 103.36 306.391 130.85 304.453 159.059L300.965 171.295V171.267Z" fill="url(#paint4_linear_2004_2)"/>
<path d="M580.677 195.654L574.615 183.529C574.615 183.529 556.51 183.529 531.982 199.308C547.291 197.564 569.521 201.385 579.681 203.406C580.096 200.831 580.428 198.257 580.677 195.654Z" fill="#9C3D39"/>
<path d="M513.295 213.319C528.604 236.407 549.588 242.414 566.391 242.774C566.557 242.47 566.751 242.165 566.917 241.833C571.43 233.445 574.835 224.503 577.215 215.257C564.869 210.772 537.628 203.326 513.295 213.319Z" fill="#9C3D39"/>
<path d="M341.05 153.193C336.87 95.1412 352.899 66.2953 381.745 71.9981C415.38 78.6421 415.408 130.714 408.597 168.114C401.787 205.514 341.05 153.193 341.05 153.193Z" fill="#FFAE7A"/>
<path d="M341.798 150.146C339.804 121.965 342.656 101.009 349.327 87.084C347.168 82.7654 345.286 79.5541 343.957 77.4502C341.936 79.2773 339.943 81.1598 338.033 83.1253C318.544 103.334 306.391 130.823 304.453 159.033L300.965 171.269C305.92 176.722 311.235 181.927 316.8 186.854C334.6 182.148 350.545 173.677 359.432 163.6C349.355 156.735 341.798 150.146 341.798 150.146Z" fill="#9C3D39"/>
<path d="M347.861 148.98C344.511 97.9601 352.429 79.7169 379.392 82.9835C411.781 86.9145 410.729 129.602 404.971 161.299C399.241 192.997 347.861 148.953 347.861 148.953V148.98Z" fill="#76262C"/>
<path d="M352.097 150.945C348.553 102.942 359.571 84.3668 383.738 88.4362C412.861 93.3362 411.477 131.401 405.747 162.323C400.016 193.245 352.097 150.945 352.097 150.945Z" fill="#FDDFE2"/>
<path d="M388.832 97.1318C365.993 93.2008 355.363 110.697 358.159 155.903C371.225 166.091 401.261 186.382 405.718 162.326C409.179 143.64 411.061 122.379 405.58 107.375C401.787 102.115 396.389 98.433 388.804 97.1318H388.832Z" fill="white"/>
<path d="M507.427 219.048C551.443 184.665 552.439 141.923 526.002 129.936C492.699 114.821 462.829 155.349 444.89 189.399C426.924 223.45 507.427 219.048 507.427 219.048Z" fill="#FFAE7A"/>
<path d="M503.136 210.852C523.123 195.543 535.304 176.912 535.857 164.095C536.272 154.129 528.964 146.516 519.552 141.782C490.568 127.166 465.763 160.413 450.981 188.678C436.198 216.915 503.136 210.852 503.136 210.852Z" fill="#76262C"/>
<path d="M498.457 210.852C534.888 182.726 534.307 153.852 512.769 143.693C483.924 130.073 464.075 161.327 449.79 188.982C435.478 216.638 498.485 210.852 498.485 210.852H498.457Z" fill="#FDDFE2"/>
<path d="M490.761 208.333C523.566 183.944 522.209 157.175 501.89 147.209C495.633 144.136 489.764 143.748 484.477 144.496C470.109 152.579 458.842 171.515 449.79 189.038C446.689 195.018 447.215 199.447 449.956 202.686C463.105 209.856 490.761 208.361 490.761 208.361V208.333Z" fill="white"/>
<path d="M558.225 148.787C567.416 132.647 604.677 123.484 622.062 135.222C639.807 147.209 648.084 174.698 640.721 197.011C638.838 202.713 635.959 208.167 631.696 211.849C626.187 216.583 618.879 217.828 612.069 216.915C605.286 216.001 598.836 213.095 592.469 210.243C586.96 207.752 580.205 203.987 573.81 199.17C573.81 199.17 554.349 155.541 558.197 148.814L558.225 148.787Z" fill="url(#paint5_linear_2004_2)"/>
<path style="mix-blend-mode:multiply" opacity="0.54" d="M300.661 331.913C321.257 308.881 393.898 303.178 475.287 305.559C486.139 281.364 461.141 294.015 457.874 292.188C423.298 272.92 388.749 253.68 354.173 234.413C350.352 232.281 346.449 230.122 342.131 229.568C338.2 229.042 334.435 229.873 330.891 231.506L308.219 270.401C303.789 291.136 300.744 313.587 300.661 331.913Z" fill="url(#paint6_linear_2004_2)"/>
<path d="M386.783 163.681C397.914 163.681 406.937 154.658 406.937 143.528C406.937 132.397 397.914 123.374 386.783 123.374C375.653 123.374 366.63 132.397 366.63 143.528C366.63 154.658 375.653 163.681 386.783 163.681Z" fill="url(#paint7_linear_2004_2)"/>
<path d="M386.783 157.675C394.596 157.675 400.929 151.342 400.929 143.529C400.929 135.716 394.596 129.383 386.783 129.383C378.97 129.383 372.637 135.716 372.637 143.529C372.637 151.342 378.97 157.675 386.783 157.675Z" fill="#76262C"/>
<g style="mix-blend-mode:overlay" opacity="0.35">
<path d="M405.136 151.863C400.901 145.994 394.202 143.364 389.163 146.022C383.848 148.818 382.298 156.458 385.343 163.6C385.841 163.628 386.312 163.683 386.81 163.683C394.977 163.683 401.98 158.839 405.136 151.863Z" fill="white"/>
</g>
<path d="M498.125 187.158C498.125 198.287 489.101 207.311 477.972 207.311C466.843 207.311 457.569 198.48 457.569 187.324C457.569 184.085 458.594 180.819 459.95 178.078C463.272 171.489 470.082 166.949 477.972 166.949C489.101 166.949 498.125 175.974 498.125 187.103V187.158Z" fill="url(#paint8_linear_2004_2)"/>
<path d="M492.117 187.162C492.117 194.968 485.778 201.308 477.971 201.308C470.165 201.308 463.825 194.968 463.825 187.162C463.825 179.355 470.165 173.016 477.971 173.016C485.778 173.016 492.117 179.355 492.117 187.162Z" fill="#76262C"/>
<g style="mix-blend-mode:overlay" opacity="0.35">
<path d="M496.325 195.516C492.089 189.647 485.39 187.017 480.352 189.675C475.036 192.471 473.486 200.111 476.531 207.253C477.03 207.281 477.5 207.337 477.999 207.337C486.165 207.337 493.169 202.492 496.325 195.516Z" fill="white"/>
</g>
<path d="M569.272 237.156C568.856 234.194 558.669 235.938 557.672 233.557C547.43 229.1 544.412 219.106 518.556 210.995C475.038 197.347 417.125 183.34 417.125 183.34C388.334 158.092 331.694 125.565 315.693 117.896C310.489 130.243 305.368 145.663 304.454 159.061C304.454 159.061 288.176 158.065 304.399 205.099C306.918 212.379 324.552 236.325 345.564 256.866C359.627 267.247 374.852 277.85 383.683 284.189C404.695 291.442 442.925 298.031 469.363 299.83C515.538 300.024 544.467 283.47 566.919 241.834C567.749 240.284 568.524 238.734 569.299 237.156H569.272Z" fill="url(#paint9_linear_2004_2)"/>
<path d="M518.389 210.577C496.879 203.822 471.078 196.209 452.198 192.223C451.783 193.662 451.423 195.129 451.146 196.652C536.715 213.926 545.463 226.024 545.463 226.024L545.851 225.11C540.425 220.681 532.923 215.117 518.389 210.577Z" fill="#E99667"/>
<path d="M352.651 140.454C342.021 134.557 334.796 131.845 327.349 129.049C325.467 128.356 323.778 127.747 322.311 127.221C320.816 126.695 319.487 126.363 318.435 126.003C316.303 125.311 315.141 124.896 315.168 124.758C315.196 124.619 316.414 124.841 318.629 125.284C319.736 125.533 321.093 125.782 322.615 126.225C324.138 126.695 325.882 127.221 327.792 127.803C335.433 130.322 343.654 132.149 354.368 138.073C375.241 149.645 391.187 163.486 392.931 164.926C394.675 166.338 391.851 167.113 391.74 167.196C390.799 166.006 381.747 157.507 352.651 140.482V140.454Z" fill="#E99667"/>
<g style="mix-blend-mode:multiply" opacity="0.25">
<path d="M428.365 265.473C416.655 261.293 393.29 268.851 393.29 268.851C393.29 268.851 383.85 252.656 369.676 238.482C346.948 229.208 323.418 204.709 323.805 178.438L298.586 184.251C299.693 189.871 301.52 196.708 304.427 205.096C306.919 212.322 322.975 236.572 341.882 255.784C355.06 266.138 375.877 279.758 384.432 284.409C392.875 287.066 436.282 296.838 469.17 299.939C497.766 300.077 519.581 293.489 537.713 278.817C537.879 272.201 531.457 256.144 531.761 249.223C512.106 271.536 466.208 278.955 428.42 265.473H428.365Z" fill="#E0906E"/>
</g>
<path d="M391.157 165.175C388.748 164.538 410.092 148.205 419.477 149.894C428.861 151.583 448.572 160.026 453.361 167.666C456.24 172.262 458.482 185.218 458.538 191.779C458.593 196.152 457.513 196.18 455.576 194.602C450.731 190.588 420.889 173.065 391.157 165.175Z" fill="#FE9E2E"/>
<path opacity="0.3" d="M410.674 171.573C414.494 160.001 421.719 153.772 425.152 151.364C423.048 150.7 421.083 150.201 419.449 149.897C410.065 148.18 388.721 164.514 391.13 165.178C397.718 166.922 404.334 169.164 410.646 171.6L410.674 171.573Z" fill="white"/>
<path d="M415.214 168.585C412.003 167.422 398.521 162.689 392.127 163.879C389.607 164.35 389.469 169.692 392.293 171.409C417.401 181.458 413.803 184.918 412.695 190.399C415.104 191.368 417.65 192.725 419.976 193.86C424.156 189.79 428.475 185.472 451.147 196.683C454.275 198.234 456.684 197.237 457.791 193.777C458.982 189.956 432.959 175.008 415.214 168.585Z" fill="#76262C"/>
<path opacity="0.16" d="M451.147 196.68C454.275 198.231 456.683 197.234 457.763 193.774C458.372 191.864 452.116 187.157 443.506 182.119C437.084 183.503 431.27 186.189 428.114 189.594C432.544 189.234 439.354 190.867 451.147 196.68Z" fill="white"/>
<path d="M415.215 168.58L415.519 167.749C412.613 166.697 401.65 162.822 394.508 162.794C393.622 162.794 392.764 162.849 391.989 162.988C391.047 163.154 390.355 163.818 389.94 164.566C389.525 165.341 389.331 166.227 389.331 167.14C389.331 168.967 390.051 171.016 391.823 172.123L391.961 172.179C400.903 175.75 406.162 178.49 409.125 180.705C410.592 181.812 411.478 182.781 411.976 183.612C412.474 184.47 412.64 185.19 412.64 185.937C412.64 187.155 412.17 188.512 411.838 190.145C411.754 190.56 411.976 190.975 412.363 191.142C414.717 192.083 417.236 193.439 419.589 194.574C419.921 194.74 420.336 194.657 420.585 194.408C421.693 193.329 422.717 192.332 424.046 191.584C425.375 190.837 426.953 190.339 429.278 190.339C433.486 190.339 440.019 192.083 450.788 197.398C451.84 197.924 452.836 198.201 453.833 198.201C454.94 198.201 455.992 197.813 456.823 197.066C457.653 196.318 458.262 195.266 458.677 193.965L458.761 193.439C458.733 192.47 458.179 191.723 457.404 190.837C456.048 189.314 453.722 187.515 450.76 185.494C441.846 179.487 427.036 171.874 415.547 167.694L415.243 168.524L414.938 169.355C423.547 172.483 434.178 177.632 442.621 182.532C446.829 184.968 450.511 187.349 453.113 189.37C454.414 190.366 455.439 191.28 456.103 192.027C456.795 192.747 457.044 193.384 456.989 193.467C456.657 194.574 456.158 195.322 455.66 195.792C455.134 196.263 454.58 196.457 453.861 196.484C453.224 196.484 452.476 196.291 451.591 195.875C440.711 190.505 433.984 188.622 429.306 188.622C426.731 188.622 424.766 189.204 423.215 190.09C421.637 190.975 420.502 192.138 419.395 193.19L420.004 193.827L420.392 193.024C418.094 191.917 415.519 190.56 413.056 189.536L412.723 190.366L413.582 190.533C413.858 189.065 414.412 187.626 414.44 185.965C414.44 184.941 414.191 183.833 413.526 182.726C412.53 181.065 410.675 179.404 407.381 177.438C404.114 175.501 399.408 173.258 392.625 170.545L392.293 171.376L392.764 170.628C391.712 170.019 391.103 168.524 391.103 167.14C391.103 166.448 391.241 165.811 391.49 165.396C391.739 164.953 391.989 164.759 392.321 164.704C392.958 164.593 393.705 164.538 394.508 164.538C401.124 164.538 412.114 168.358 414.938 169.383L415.243 168.552L415.215 168.58Z" fill="#602229"/>
<path d="M306.226 286.126C312.648 266.831 322.033 254.457 331.694 242.885C330.974 209.361 332.359 169.192 344.262 147.378C347.474 141.315 354.976 139.516 357.467 137.744C358.519 136.997 361.343 118.781 355.696 115.127C350.906 112.054 348.11 111.085 346.006 111.362C345.121 111.473 344.456 110.587 344.816 109.756C346.173 106.656 346.837 103.943 346.782 100.566C346.699 95.7488 345.591 91.8178 338.92 88.0528C333.217 84.8416 327.846 84.4817 322.476 85.9213C318.738 86.9179 316.939 90.3506 315.666 93.6449C314.974 95.3612 312.51 95.2782 311.928 93.5341C311.264 91.5133 310.6 89.7692 309.354 88.4681C306.89 85.8659 302.101 85.0631 290.336 87.7207C281.2 89.7969 278.958 93.3403 279.124 97.1329C279.235 99.9566 279.982 102.476 280.702 104.497C280.979 105.327 280.287 106.158 279.401 105.992C278.044 105.742 276.328 105.493 274.528 105.438C271.788 105.327 268.604 106.213 264.646 108.981C261.213 111.362 258.86 115.016 257.891 119.058C256.507 124.955 256.977 127.086 258.389 128.553C260.465 129.578 265.282 132.983 268.466 139.682C274.224 151.752 273.089 155.129 272.674 171.545C272.314 185.691 266.223 199.09 265.504 213.236C264.673 229.902 291.83 264.727 304.149 286.348C304.648 287.233 305.949 287.095 306.253 286.126H306.226Z" fill="url(#paint10_linear_2004_2)"/>
<path d="M305.395 288.672C309.132 276.63 313.977 267.218 319.375 259.106C311.568 266.553 303.236 270.761 295.097 271.758C299.083 277.931 302.737 283.744 305.423 288.7L305.395 288.672Z" fill="#9C3D39"/>
<path d="M602.547 272.395C600.415 271.233 600.222 268.907 603.71 267.468C608.803 265.364 612.43 260.27 609.246 247.785C605.509 233.057 588.761 241.362 586.851 238.705C585.328 236.629 590.283 232.144 589.84 227.382C588.788 216.032 560.552 212.821 556.87 216.254C554.904 218.081 554.738 221.126 554.24 224.033C553.769 226.718 550.337 227.548 548.676 225.417C546.073 222.067 542.917 217.859 541.146 218.164C531.429 218.524 523.705 225.389 522.238 232.642C521.574 235.909 527.968 235.964 523.152 258.637C520.688 270.264 512.632 282.278 494.666 292.798C494.555 292.798 494.444 292.798 494.333 292.798C489.046 296.092 483.011 298.667 476.339 300.3C476.339 300.3 464.685 347.029 472.934 348.219C482.596 349.604 501.337 350.656 505.96 348.358C511.442 345.617 573.563 301.684 587.377 299.58C601.107 297.476 603.045 300.383 604.014 299.276C606.866 295.926 610.16 284.299 608.942 279.98C608.167 277.295 605.371 273.973 602.492 272.368L602.547 272.395Z" fill="url(#paint11_radial_2004_2)"/>
<path d="M591.832 151.693C581.95 151.998 566.253 159.721 562.239 163.791C561.824 164.206 561.242 166.31 561.519 167.611C563.263 176.082 573.838 199.64 573.838 199.64C580.233 204.319 587.016 207.973 592.525 210.381C598.892 213.177 605.342 215.973 612.124 216.887C616.526 217.468 621.149 217.164 625.357 215.669C625.661 215.143 625.994 214.672 626.298 214.119C633.191 201.467 633.108 184.719 626.104 172.04C619.1 159.361 605.48 151.25 591.86 151.693H591.832Z" fill="url(#paint12_radial_2004_2)"/>
<path d="M399.517 608.659C402.535 607.551 403.836 593.405 362.643 591.606C361.065 591.523 352.456 594.623 349.964 597.143C349.161 598.222 348.193 599.939 347.307 601.987C357.273 606.029 396.5 609.794 399.517 608.686V608.659Z" fill="url(#paint13_linear_2004_2)"/>
<path d="M463.135 602.268C470.582 608.054 503.829 608.607 518.584 599.887C517.754 597.7 516.812 595.873 516.065 594.71C514.1 592.496 510.944 590.641 507.068 589.257C494.721 587.014 486.223 588.315 478.97 590.862C464.325 596.039 463.135 602.268 463.135 602.268Z" fill="url(#paint14_linear_2004_2)"/>
<path opacity="0.44" d="M335.155 419.667C347.778 438.298 357.19 447.378 366.188 475.809C369.288 485.608 371.78 511.99 378.949 519.326C383.379 523.867 388.583 522.482 394.424 520.434C401.373 516.392 410.619 515.146 418.481 517.029C429.25 519.603 440.24 525.528 449.016 533.583C455.051 526.773 458.539 517.97 460.117 508.502C456.739 500.779 431.298 469.386 427.257 467.393C419.395 463.462 358.492 433.979 335.321 419.778C335.265 419.75 335.182 419.722 335.127 419.695L335.155 419.667Z" fill="#F29B62"/>
<path d="M403.864 166.119C407.463 166.894 410.231 168.5 409.927 169.275C409.65 170.022 406.743 169.773 403.2 168.998C399.684 168.195 396.888 167.005 397.054 166.202C397.192 165.399 400.265 165.288 403.864 166.119Z" fill="#FEFEFE"/>
<path d="M378.534 134.642C381.546 134.642 383.987 132.2 383.987 129.188C383.987 126.176 381.546 123.734 378.534 123.734C375.522 123.734 373.08 126.176 373.08 129.188C373.08 132.2 375.522 134.642 378.534 134.642Z" fill="white"/>
<path d="M476.589 176.529C479.601 176.529 482.043 174.087 482.043 171.076C482.043 168.064 479.601 165.622 476.589 165.622C473.577 165.622 471.136 168.064 471.136 171.076C471.136 174.087 473.577 176.529 476.589 176.529Z" fill="white"/>
<g style="mix-blend-mode:screen" opacity="0.27">
<path d="M628.236 605.476C632.72 609.656 642.437 610.072 648.002 609.85C662.369 609.241 679.726 602.376 684.405 585.738C687.81 573.641 659.407 552.241 648.112 553.376C641.441 554.041 672.335 565.308 632.72 588.977C625.744 593.157 622.505 600.133 628.236 605.476Z" fill="#FFF68D"/>
</g>
<path d="M427.644 86.116C431.326 73.4371 432.793 60.1215 432.018 46.9443C425.235 47.3319 418.397 47.3042 411.643 47.8579C410.009 47.9963 408.404 48.1624 406.771 48.3838C409.677 51.429 412.279 54.8063 414.522 58.3498C420.058 66.987 423.879 76.593 427.644 86.116Z" fill="#9C3D39"/>
<path d="M503.635 53.6379C489.904 40.1839 485.946 32.5157 485.724 24.7367C482.818 28.3078 479.938 31.8513 477.032 35.4224C477.641 30.7439 477.641 24.7367 474.43 18.1758C474.014 23.7955 471.55 28.8061 467.896 32.9586C465.516 43.6443 461.418 54.1916 458.65 64.7389C455.688 76.0613 453.058 87.4668 450.76 98.9553C450.428 100.561 452.56 101.419 453.473 100.063C465.626 82.0686 481.738 66.7598 500.396 55.6034C501.448 54.9667 502.556 54.3023 503.635 53.6379Z" fill="#9C3D39"/>
<path d="M552.744 96.7969C545.408 88.7411 535.525 80.5192 526.058 72.8232C511.939 76.4774 498.042 88.2982 489.82 99.4822C509.891 92.2569 532.148 91.371 552.744 96.8246V96.7969Z" fill="#9C3D39"/>
<g style="mix-blend-mode:screen" opacity="0.19">
<path d="M398.16 97.6059C392.513 91.7094 385.066 75.0718 389.219 68.2617C393.925 60.5658 409.787 56.7732 419.227 54.3094C440.571 48.662 464.24 49.4925 484.643 57.4376C517.281 70.1442 537.656 85.1208 536.825 92.0139C536.41 95.4189 452.475 154.273 398.16 97.6336V97.6059Z" fill="#FFF64D"/>
</g>
<path d="M384.817 219.6C385.869 220.68 388.858 220.32 389.107 221.233C390.464 226.299 393.288 229.012 397.662 231.531C403.835 235.103 410.507 233.691 412.085 232.251C412.777 231.642 416.818 233.857 417.455 236.155C420.168 237.373 449.291 221.04 445.747 217.109C430.106 222.479 415.102 214.008 411.337 202.16C410.59 202.049 388.388 210.603 376.124 185.245C374.159 189.564 378.477 213.15 381.135 218.493C381.633 219.517 384.263 219.711 384.844 219.572L384.817 219.6Z" fill="url(#paint15_linear_2004_2)"/>
<path d="M398.826 230.679C402.12 232.423 405.553 232.783 407.989 232.645C410.453 232.479 411.975 231.98 412.086 232.285C412.169 232.479 410.812 233.448 408.155 234.001C405.553 234.527 401.594 234.334 397.94 232.396C394.258 230.513 391.711 227.634 390.438 225.309C389.109 222.983 388.915 221.322 389.109 221.239C389.386 221.129 390.078 222.568 391.573 224.534C393.04 226.499 395.504 228.963 398.826 230.652V230.679Z" fill="#76262C"/>
<path d="M383.739 219.3C384.708 217.002 389.441 215.646 389.746 215.646C390.05 215.646 390.3 221.57 390.327 223.203C390.355 224.836 383.13 220.712 383.739 219.3Z" fill="white"/>
<path d="M417.291 235.16C417.9 232.005 416.322 228.129 415.906 228.24C415.491 228.35 410.868 231.617 409.955 232.724C408.46 234.524 417.014 236.628 417.291 235.16Z" fill="white"/>
<path d="M449.929 209.222C450.622 212.239 449.985 215.229 448.711 217.997C448.102 219.326 450.068 220.461 450.649 219.132C452.116 215.783 452.033 212.405 450.649 209.028C450.483 208.613 449.846 208.751 449.957 209.222H449.929Z" fill="#76262C"/>
<path d="M379.946 176.693C375.738 177.192 372.776 180.79 371.502 184.666C370.921 186.466 373.828 187.296 374.326 185.441C375.267 181.953 377.51 179.379 380.084 176.998L379.946 176.693Z" fill="#76262C"/>
<path d="M383.295 197.262C383.295 197.262 382.437 201.138 384.596 207.2C384.79 207.726 389.856 200.584 389.856 200.584L383.295 197.262Z" fill="white"/>
<path d="M430.884 218.468C430.884 218.468 428.78 221.818 423.022 224.531C422.524 224.78 423.963 216.06 423.963 216.06L430.912 218.44L430.884 218.468Z" fill="white"/>
<path d="M412.694 200.365L413.358 202.829L413.801 204.075C414.106 204.767 414.41 205.459 414.798 206.124C415.545 207.425 416.431 208.643 417.428 209.75C419.449 211.937 421.802 213.681 424.238 215.01C426.729 216.339 429.138 217.28 431.546 217.612C433.955 218 436.308 217.944 438.439 217.723C447.049 216.754 451.451 213.1 451.7 213.543C451.81 213.681 450.925 214.788 448.765 216.145C446.634 217.501 443.256 219.107 438.716 219.882C436.474 220.27 433.927 220.463 431.186 220.159C429.83 220.02 428.418 219.716 426.979 219.273C425.622 218.802 424.238 218.249 422.881 217.529C420.169 216.145 417.483 214.262 415.158 211.799C413.995 210.553 412.971 209.169 412.085 207.618C411.642 206.843 411.255 206.04 410.895 205.21L410.479 204.103L410.175 204.241C409.344 204.629 408.459 204.878 407.6 205.127C405.856 205.57 404.085 205.681 402.396 205.625C398.991 205.514 395.835 204.629 393.011 203.549C390.243 202.442 387.585 201.196 385.398 199.452C383.239 197.763 381.55 195.853 380.194 193.998C377.536 190.261 376.291 186.69 375.765 184.226C375.239 181.735 375.377 180.323 375.571 180.323C376.097 180.184 376.54 185.942 381.938 192.669C383.294 194.303 384.928 195.964 386.921 197.376C388.859 198.815 391.35 199.867 393.98 200.864C396.61 201.805 399.489 202.525 402.451 202.58C403.918 202.608 405.413 202.497 406.853 202.109C407.573 201.916 408.292 201.694 408.957 201.39L409.206 201.279L409.787 201.002L410.895 200.393C411.559 200.144 412.639 199.009 412.611 200.393L412.694 200.365Z" fill="#76262C"/>
<path d="M397.525 298.97C423.271 302.099 464.02 299.579 461.806 299.303C445.556 297.254 411.173 291.441 387.836 281.862C369.316 274.277 351.903 262.235 350.132 260.463C357.468 270.374 394.12 297.531 397.498 298.998L397.525 298.97Z" fill="#BE5C3F"/>
<path d="M356.527 616.52C355.89 607.883 359.267 601.322 358.464 600.879C358.132 600.685 356.776 602.07 355.447 604.866C354.146 607.662 353.094 611.952 353.371 616.714C353.481 618.375 353.758 619.953 354.118 621.42C355.115 621.642 356.194 621.863 357.329 622.057C356.942 620.368 356.61 618.513 356.499 616.492L356.527 616.52Z" fill="#932F30"/>
<path d="M375.684 617.573C374.133 610.376 375.49 604.313 374.604 604.064C374.216 603.953 373.331 605.337 372.666 607.912C372.03 610.459 371.753 614.223 372.583 618.21C373.054 620.508 373.829 622.528 374.687 624.272C375.711 624.356 376.736 624.411 377.76 624.466C376.985 622.528 376.154 620.203 375.656 617.573H375.684Z" fill="#932F30"/>
<path d="M484.561 603.627L484.588 603.794L484.616 603.766L484.561 603.627Z" fill="#932F30"/>
<path d="M488.548 623.224C488.99 621.037 489.378 617.909 489.018 614.393C488.714 610.878 487.551 607.722 486.222 605.784C485.918 605.286 485.585 604.87 485.253 604.511L484.81 604.04L484.561 603.818L484.312 603.957C484.146 603.985 484.367 604.04 484.007 603.874L483.648 603.652C483.509 603.68 483.398 603.901 483.398 604.123C483.398 604.344 483.454 604.621 483.565 604.843L483.758 605.424C483.897 605.812 484.091 606.254 484.229 606.78C484.921 608.746 485.585 611.514 485.89 614.698C486.25 619.072 486.25 623.003 486.499 625.107C487.025 625.107 487.551 625.079 488.049 625.051C488.215 624.525 488.381 623.944 488.52 623.224H488.548Z" fill="#932F30"/>
<path d="M514.652 619.903C514.956 617.799 515.067 615.391 514.735 612.816C514.209 608.581 512.769 604.982 511.275 602.601C510.499 601.383 509.558 600.552 508.811 600.165C508.063 599.777 507.565 599.777 507.482 599.971C507.288 600.386 508.479 601.328 509.309 603.653C510.14 605.978 511.164 609.411 511.634 613.231C511.994 616.083 511.994 618.713 511.884 620.955C512.936 620.623 513.877 620.263 514.68 619.931L514.652 619.903Z" fill="#932F30"/>
<path d="M318.019 234.302C308.634 239.562 297.174 241.057 286.737 238.399C280.508 236.794 274.695 233.721 269.795 229.568C273.781 238.372 280.038 248.531 286.433 258.442C291.471 256.947 296.371 255.065 300.939 252.462C308.302 248.282 314.78 242.137 317.991 234.302H318.019Z" fill="#9C3D39"/>
<path d="M271.649 181.87C270.653 189.012 268.383 196.099 266.888 203.242C268.05 203.601 269.241 203.906 270.431 204.183C291.498 209 303.125 205.595 312.565 199.947C314.78 198.618 314.558 197.234 311.984 197.124C294.045 196.293 276.66 192.694 271.622 181.87H271.649Z" fill="#9C3D39"/>
<path d="M508.561 528.962C512.492 521.709 513.848 513.791 509.474 500.476C509.447 500.365 509.391 500.254 509.364 500.144C504.021 514.76 492.726 529.682 473.099 527.91C485.002 536.049 499.536 535.661 508.561 528.962Z" fill="#9C3D39"/>
<path d="M345.508 519.936C347.916 529.957 354.394 536.38 366.187 541.722C366.187 541.778 366.187 541.833 366.215 541.889C374.741 542.055 383.461 539.895 387.088 533.999C387.088 533.999 357.578 537.349 345.508 519.908V519.936Z" fill="#9C3D39"/>
<path d="M497.019 463.351C493.088 470.105 486.139 477.884 473.765 484.694C484.423 487.435 494.915 485.22 503.164 481.455C501.088 475.199 499.039 469.164 497.019 463.351Z" fill="#9C3D39"/>
<path d="M365.024 495.795C360.401 489.815 354.366 483.227 351.321 468.555C348.885 478.382 347.03 486.826 345.84 494.162C347.03 494.549 348.165 494.854 349.245 495.131C350.657 495.49 365.273 496.1 365.024 495.767V495.795Z" fill="#9C3D39"/>
<path d="M506.015 348.385C506.402 348.191 506.873 347.942 507.371 347.665C496.436 347.776 485.197 344.26 477.778 324.993C477.363 323.913 476.864 324.273 476.67 325.436C475.895 329.865 476.228 342.156 477.861 348.855C487.965 349.88 502.084 350.35 506.015 348.385Z" fill="#9C3D39"/>
<path d="M496.436 311.373C495.882 310.708 495.523 311.622 495.606 312.48C496.741 323.415 506.208 338.336 516.396 341.714C522.237 337.838 529.933 332.689 538.182 327.346C525.863 329.09 508.672 325.906 496.464 311.373H496.436Z" fill="#9C3D39"/>
<path d="M478.525 417.232C475.452 406.574 475.065 372.717 475.009 373.049C469.749 403.445 468.31 430.713 469.583 442.368C474.622 438.769 481.183 431.073 481.902 424.429C480.795 421.938 479.66 419.529 478.525 417.204V417.232Z" fill="#9C3D39"/>
<path d="M578.793 192.166C588.953 192.304 599.445 196.235 609.217 199.862C601.521 188.622 594.212 176.359 579.568 172.87C584.385 170.49 590.06 169.106 594.766 169.41C592.69 168.718 580.066 156.676 562.266 163.763C561.269 164.427 561.269 166.559 561.325 166.919C563.29 176.331 570.266 192.526 573.505 199.363C577.021 201.716 586.987 208.61 589.617 214.7C589.617 204.651 589.755 199.585 578.821 192.138L578.793 192.166Z" fill="#FFD7AB"/>
<path d="M602.656 262.456C603.238 255.813 598.975 246.539 592.303 243.106C587.154 244.241 581.977 244.241 578.378 244.905C580.233 241.971 581.922 238.51 583.638 234.995C581.008 228.24 566.917 222.676 556.149 225.499C555.816 229.098 554.072 233.029 553.408 235.742C551.775 232.586 547.401 227.686 545.463 226.053C537.822 225.721 530.265 231.036 530.265 232.503C535.276 242.801 534.445 258.332 530.819 265.889C525.005 278.374 550.169 297.891 561.575 295.095C565.035 293.711 566.917 290.444 578.046 290.084C594.407 289.531 597.397 290.693 599.86 290.001C603.764 288.894 604.705 278.734 604.705 277.571C600.193 272.893 591.666 270.208 588.953 270.319C592.995 268.464 597.618 266.36 602.656 262.484V262.456Z" fill="#FFC281"/>
<path d="M558.447 278.428C559.471 280.698 560.413 283.66 562.683 283.992C564.039 284.186 565.368 283.217 566.143 281.943C566.918 280.67 567.223 279.148 567.527 277.653C568.191 274.441 568.856 271.202 568.662 267.936C568.496 264.669 567.361 261.292 565.036 259.299C562.849 257.416 559.942 257.001 557.174 256.89C553.353 256.724 549.45 257.084 545.934 258.745C544.273 259.548 542.668 260.683 541.643 262.344C540.619 264.005 540.259 266.302 541.062 268.102C542.64 271.59 547.484 269.569 550.308 270.538C553.769 271.701 556.869 274.884 558.447 278.455V278.428Z" fill="#FF836F"/>
<path d="M536.328 235.741C537.131 239.506 539.291 242.247 542.751 243.935C544.107 244.6 545.824 244.987 547.07 244.129C548.177 243.354 548.509 241.887 548.509 240.53C548.537 237.485 547.18 234.274 544.55 232.724C541.92 231.174 537.989 231.838 536.522 234.523L536.301 235.769L536.328 235.741Z" fill="#FF836F"/>
<path d="M589.37 284.547C590.837 286.707 593.605 288.174 596.069 287.316C599.28 286.208 600.166 281.641 598.395 278.734C596.623 275.827 593.162 274.415 589.813 273.889C588.872 273.751 587.847 273.668 587.017 274.139C586.186 274.609 587.93 282.388 589.37 284.52V284.547Z" fill="#FF836F"/>
<path d="M592.304 248.446C590.587 247.781 588.677 247.947 586.85 248.252C585.106 248.529 583.362 248.944 581.895 249.913C580.427 250.882 579.265 252.46 579.209 254.204C579.154 256.335 580.787 258.246 582.697 259.159C584.608 260.073 586.822 260.239 588.954 260.377C590.643 260.488 592.387 260.599 593.992 260.128C595.626 259.657 597.148 258.495 597.563 256.861C598.117 254.73 594.158 249.165 592.276 248.418L592.304 248.446Z" fill="#FF836F"/>
<path d="M347.778 116.037C344.29 116.757 340.913 117.754 338.643 118.695C339.916 116.453 341.3 112.577 342.38 109.144C336.871 103.58 329.341 99.7043 319.375 98.4862C317.604 101.808 315.86 105.407 314.475 108.867C313.368 105.186 311.624 101.31 309.908 98.0156C301.215 98.1264 292.08 99.6489 284.162 103.026C285.131 107.594 286.1 112.411 286.654 115.871C281.948 111.331 277.214 109.698 273.781 109.117C272.618 110.03 271.428 111.027 270.238 112.106C268.411 114.238 266.722 116.508 265.31 118.916C261.407 125.477 265.532 127.526 269.49 131.678C274.667 137.104 278.432 145.132 282.584 151.361C285.408 155.569 288.315 159.915 292.523 162.822C295.734 163.486 318.019 163.736 322.199 163.791C330.808 160.054 332.912 149.645 339.224 142.835C346.643 134.834 351.543 134.419 353.73 131.263C352.457 125.782 350.491 120.605 347.723 116.065L347.778 116.037Z" fill="#FFC281"/>
<path d="M560.108 231.313C558.53 233.473 558.281 237.957 560.302 240.587C562.323 243.217 566.088 244.325 569.188 243.217C572.289 242.11 574.503 238.843 574.393 235.521C574.337 234.303 574.005 233.058 573.285 232.033C571.846 229.957 569.244 229.154 566.835 228.462C565.202 227.991 561.686 229.154 560.108 231.313Z" fill="#FF836F"/>
<path d="M290.613 144.3C292.523 134.721 312.455 121.848 321.369 132.202C325.576 137.102 329.175 147.04 321.036 149.808C313.064 152.549 289.588 149.504 290.613 144.272V144.3Z" fill="#FF836F"/>
<path d="M304.535 116.676C305.089 116.122 305.476 115.403 305.809 114.683C306.861 112.385 307.359 109.838 307.276 107.319C307.22 106.018 306.999 104.634 306.058 103.693C302.404 99.9276 292.964 104.274 292.881 109.118C292.798 113.742 299.94 121.244 304.535 116.676Z" fill="#FF836F"/>
<path d="M272.562 123.874C273.309 125.093 274.749 125.757 276.189 125.951C277.628 126.145 279.095 125.951 280.535 125.729C281.282 125.619 282.03 125.508 282.694 125.176C283.358 124.843 283.94 124.262 284.051 123.57C284.161 122.906 283.829 122.214 283.358 121.715C282.888 121.217 282.279 120.857 281.67 120.525C280.286 119.722 278.874 118.919 277.296 118.67C274.389 118.199 270.652 120.829 272.534 123.874H272.562Z" fill="#FF836F"/>
<path d="M319.485 114.1C319.319 115.262 319.208 116.453 319.485 117.616C319.762 118.778 320.454 119.886 321.561 120.384C322.724 120.938 324.108 120.744 325.271 120.19C326.434 119.636 327.375 118.778 328.288 117.92C329.617 116.702 330.918 115.484 332.247 114.266C333.133 113.435 334.102 112.466 334.074 111.276C334.046 109.67 332.302 108.674 330.807 107.982C329.313 107.317 327.845 106.653 326.35 105.961C325.631 105.629 324.883 105.296 324.08 105.213C320.371 104.798 319.873 111.636 319.513 114.072L319.485 114.1Z" fill="#FF836F"/>
<path d="M337.48 128.521C336.871 129.213 336.317 130.21 336.815 130.985C337.258 131.677 338.282 131.705 339.113 131.677C340.802 131.594 342.518 131.511 344.207 131.428C345.646 131.373 347.169 131.262 348.304 130.431C349.577 129.49 350.048 127.746 349.66 126.251C347.861 118.998 340.137 125.393 337.48 128.521Z" fill="#FF836F"/>
<g style="mix-blend-mode:multiply" opacity="0.28">
<path d="M665.166 629.235C630.729 634.052 616.998 622.425 614.838 606.202C614.838 606.313 614.783 606.424 614.755 606.535C612.485 617.248 619.102 626.356 628.32 630.619C647.089 639.311 678.953 638.592 689.168 620.127C694.123 611.185 695.867 602.576 695.092 595.295C694.787 609.386 689.057 625.885 665.194 629.235H665.166Z" fill="#D87146"/>
</g>
<path d="M46.2225 568.533C66.6699 559.751 92.07 558.723 117.142 565.683C106.141 560.954 94.5449 555.847 85.5282 546.554C76.3372 537.082 70.8297 521.7 76.8224 512.858C79.9945 508.175 85.6561 506.197 91.3177 504.942C113.409 500.027 138.67 503.696 161.624 515.077C154.824 493.355 149.084 463.339 166.356 453.343C190.385 439.437 247.82 463.144 273.543 517.119C276.006 486.397 311.353 465.448 336.497 480.864C359.603 495.037 363.397 533.718 346.415 553.732C370.769 528.791 411.376 500.634 433.485 521.677C457.657 535.443 443.173 581.346 404.939 586.83C427.22 583.499 443.045 592.12 441.875 606.008C440.047 617.73 429.793 631.772 412.858 639.086C422.737 651.833 405.241 649.709 396.329 643.571C427.144 672.945 356.137 679.653 315.449 666.427C342.069 677.14 332.303 725.155 236.927 681.794C245.421 711.786 201.973 710.601 182.124 696.045C166.292 701.907 129.859 707.952 143.141 689.712C94.1354 684.797 72.9676 665.61 84.8746 654.366C26.6552 646.427 28.6423 608.056 61.8188 615.609C21.1767 595.74 36.0439 572.902 46.2225 568.53V568.533Z" fill="#0E7012"/>
<path d="M462.656 557.825C437.413 566.305 408.41 567.287 381.017 560.597C392.817 565.154 405.108 570.029 413.616 578.761C422.124 587.493 425.317 601.32 417.203 609.076C412.965 613.128 406.543 614.828 400.262 615.902C375.896 620.088 349.316 616.966 325.677 607.141C331.074 625.706 334.4 650.099 315.876 657.916C290.682 668.547 232.637 650.253 204.291 605.355C202.766 631.487 167.013 648.431 139.57 636.027C113.618 624.295 104.439 590.552 120.758 572.027C97.0141 594.996 57.5979 619.571 29.6065 601.337C13.316 584.19 31.4889 559.333 55.8172 541.654C58.5942 539.638 61.4613 537.715 64.3575 535.902C58.8469 537.706 53.4033 538.932 48.16 539.635C22.9225 542.999 2.30657 534.244 0.0669157 519.789C-1.02532 505.058 11.242 486.281 37.7083 479.943C40.4417 479.283 43.3263 478.761 46.3677 478.392C44.6741 476.986 43.1519 475.591 41.7895 474.206C39.5383 471.925 37.7315 469.665 36.3401 467.455C20.3081 442.002 59.3408 422.496 111.934 429.677C111.934 429.677 164.875 406.943 244.82 432.434C243.716 423.835 358.449 410.723 368.03 422.377C405.947 428.312 433.616 445.758 449.712 463.525C468.942 484.759 471.632 506.464 455.498 509.541C498.763 530.523 475.394 553.547 462.653 557.825H462.656Z" fill="#1C9327"/>
<path d="M378.174 603.209C343.522 598.709 302.313 574.982 299.063 582.97C298.101 585.332 310.252 589.535 320.838 603.65C326.372 611.029 329.552 635.676 320.396 642.462C301.802 656.246 262.563 641.634 236.376 613.352C219.835 595.49 213.756 578.102 208.812 577.187C203.034 576.118 195.185 598.575 180.143 612.69C164.184 627.665 140.657 633.861 121.924 614.674C106.574 598.953 126.775 571.894 130.758 559.45C131.365 557.556 105.782 577.309 60.3987 594.166C37.244 602.767 22.464 590.433 24.7414 595.136C28.6398 603.197 38.5512 607.999 51.3587 608.057C71.6405 608.15 99.1758 596.342 120.756 572.028C81.6187 632.199 190.615 672.069 204.289 605.352C221.285 632.687 252.922 652.833 280.187 659.101C313.64 666.793 342.447 656.132 325.674 607.142C351.708 618.645 391.781 624.597 417.201 609.079C425.922 599.174 421.782 587.897 413.381 578.994C420.513 594.828 412.132 607.618 378.171 603.206L378.174 603.209Z" fill="#30B743"/>
<path d="M449.716 463.525C433.62 445.758 405.948 428.312 368.034 422.377C358.453 410.723 243.72 423.835 244.824 432.434C164.879 406.941 111.937 429.677 111.937 429.677C77.5292 424.98 48.9249 431.705 37.747 444.042C31.8385 450.563 42.54 462.072 70.7666 455.016C68.4079 457.622 49.2153 475.028 47.3911 491.623C42.9815 531.76 75.6178 552.489 124.498 514.026C119.49 542.113 135.38 557.625 150.154 563.516C166.5 570.037 180.928 567.379 197.48 557.677C204.71 553.436 210.767 548.05 215.374 541.942C238.299 564.692 269.254 576.614 294.906 576.614C305.535 576.614 350.828 575.868 343.168 525.654C372.438 534.851 433.303 525.59 404.193 467.371C421.393 470.017 441.312 466.464 449.713 463.53L449.716 463.525Z" fill="#0E7012"/>
<path d="M129.028 335.781C118.51 337.878 110.405 357.634 126.411 375.319C100.093 365.927 58.4136 379.156 69.3214 400.646C49.3184 407.241 29.365 418.36 30.4223 434.52C33.4202 456.196 82.7856 432.58 108.967 431.609C78.1378 446.474 35.7731 490.892 56.4616 513.788C82.2278 530.584 118.983 499.711 139.512 474.169C121.531 493.347 129.194 529.71 153.385 539.999C177.577 550.288 209.086 530.59 210.431 504.336C235.419 547.052 286.58 560.87 308.787 548.295C325.113 539.052 322.187 514.91 317.426 496.763C338.26 504.766 361.688 505.841 383.166 499.775C388.703 498.212 394.365 496.019 398.097 491.644C405.252 483.261 402.44 469.681 394.94 461.605C387.44 453.53 376.607 449.602 366.205 445.954C390.347 450.535 415.91 447.316 438.162 436.891C449.392 431.63 461.305 420.193 456.436 408.789C454.705 404.737 451.135 401.8 447.544 399.246C419.074 378.985 380.825 373.21 347.643 384.158C357.612 381.41 378.034 362.099 371.472 353.617C363.024 342.703 323.919 351.522 304.912 365.811C313.92 350.052 300.261 329.675 285.4 333.588C278.687 334.688 278.344 350.642 279.317 359.153C268.125 339.467 245.633 318.959 219.831 326.898C194.03 334.837 218.379 369.945 213.877 365.93C189.397 344.097 156.982 330.206 129.022 335.784L129.028 335.781Z" fill="#30B743"/>
<path d="M356.855 406.91C405.959 377.913 375.673 367.714 348.455 376.682C358.671 372.885 377.869 352.806 371.479 343.857C363.031 332.028 323.926 341.588 304.919 357.071C313.927 339.993 300.269 317.907 285.407 322.148C278.694 323.342 278.351 340.629 279.324 349.855C268.132 328.522 245.64 306.294 219.839 314.898C194.038 323.502 218.386 361.55 213.884 357.199C189.404 333.538 156.989 318.483 129.029 324.53C118.511 326.805 110.406 348.211 126.412 367.38C100.094 357.202 58.4149 371.54 69.3227 394.828C34.1563 418.384 92.3758 427.941 140.675 397.315C117.515 420.292 105.387 491.99 170.221 428.179C152.358 469.762 205.282 498.442 209.611 424.484C224.469 466.181 271.688 468.185 293.274 456.859C323.046 458.294 350.831 451.122 313.611 417.664C361.561 435.906 382.439 415.514 356.858 406.91H356.855Z" fill="#43D24E"/>
<path d="M288.467 435.21C288.685 436.764 288.752 438.332 288.63 439.898C286.867 462.321 255.817 452.433 244.833 447.375C211.607 432.081 214.355 405.429 211.366 404.735C208.374 404.04 195.142 444.668 181.911 443.712C168.679 442.757 183.233 411.21 178.614 409.917C165.594 427.459 128.545 448.491 131.633 428.415C135.622 402.483 162.916 383.114 160.726 382.103C158.535 381.095 114.184 400.25 104.287 403.558C94.3609 406.878 57.0943 414.55 63.2381 399.593C42.3347 419.526 95.7901 425.775 140.679 397.31C117.519 420.287 105.391 491.985 170.224 428.174C152.362 469.757 205.286 498.437 209.615 424.479C224.473 466.176 271.692 468.18 293.278 456.854C315.802 457.937 337.179 454.094 330.141 437.673C327.753 454.065 296.88 449.606 288.473 435.207L288.467 435.21Z" fill="#83FF7C"/>
<path d="M194.256 356.722C176.615 331.868 149.269 322.308 132.069 328.042C114.869 333.779 137.803 362.935 194.256 356.722Z" fill="#83FF7C"/>
<path d="M261.289 347.107C258.651 322.785 240.554 313.216 232.188 316.571C223.822 319.923 238.927 340.926 261.289 347.107Z" fill="#83FF7C"/>
<path d="M287.17 347.322C289.802 352.457 299.519 326.61 292.463 324.379C285.407 322.148 279.821 332.983 287.17 347.322Z" fill="#83FF7C"/>
<path d="M174.188 481.04C180.143 484.349 172.867 536.613 152.355 525.365C131.847 514.118 168.233 477.731 174.188 481.04Z" fill="#56DC60"/>
<path d="M273.695 429.548C270.595 435.613 311.185 479.317 321.939 458.547C332.693 437.777 276.794 423.482 273.695 429.548Z" fill="#83FF7C"/>
<path d="M283.643 391.821C280.616 394.372 302.225 399.409 318.19 398.563C329.702 397.953 343.724 391.519 342.007 385.332C339.803 377.393 325.659 376.164 313.781 378.276C298.44 381 288.201 387.978 283.643 391.821Z" fill="#83FF7C"/>
<path d="M387.213 399.006C387.431 402.236 403.05 413.24 420.953 416.868C433.72 419.456 451.544 417.365 448.079 410.254C435.509 384.453 386.844 393.475 387.216 399.006H387.213Z" fill="#56DC60"/>
<path d="M361.407 571.722C358.282 579.403 405.062 623.432 415.938 597.117C426.813 570.799 364.533 564.042 361.407 571.722Z" fill="#30B743"/>
<path d="M107.853 452.411C110.084 454.642 109.27 469.141 101.639 481.919C92.7995 496.719 73.0581 514.096 58.8591 503.09C50.1097 496.31 58.342 480.653 71.2077 469.571C85.5316 457.231 105.317 449.876 107.856 452.411H107.853Z" fill="#56DC60"/>
<path d="M96.1388 544.062C97.6522 546.833 92.7836 560.512 81.8584 570.624C69.2077 582.333 45.3675 593.442 34.846 578.879C28.3624 569.909 40.6732 557.206 56.1417 550.2C73.3617 542.397 94.4191 540.916 96.1388 544.065V544.062Z" fill="#30B743"/>
<path d="M108.599 625.166C111.167 626.999 112.744 641.437 107.318 655.296C101.031 671.348 84.4125 691.732 68.5955 683.209C58.8526 677.957 64.3981 661.164 75.271 648.115C87.3727 633.591 105.679 623.081 108.601 625.166H108.599Z" fill="#1C9327"/>
<path d="M224.842 654.859C222.725 657.2 224.27 671.64 232.537 684.018C242.112 698.353 262.705 714.711 276.331 703.004C284.726 695.791 275.718 680.57 262.306 670.15C247.378 658.548 227.248 652.198 224.842 654.859Z" fill="#1C9327"/>
<path d="M207.885 635.993C205.956 634.648 195.429 637.143 187.057 644.414C177.36 652.835 167.202 669.588 177.131 678.561C183.249 684.089 193.654 676.005 200.097 665.114C207.269 652.992 210.075 637.521 207.885 635.993Z" fill="#1C9327"/>
<defs>
<radialGradient id="paint0_radial_2004_2" cx="0" cy="0" r="1" gradientUnits="userSpaceOnUse" gradientTransform="translate(397.134 294.153) scale(268.499 268.499)">
<stop stop-color="#FE9128"/>
<stop offset="0.33" stop-color="#FE8D29"/>
<stop offset="0.57" stop-color="#FE842C"/>
<stop offset="0.79" stop-color="#FE7432"/>
<stop offset="0.99" stop-color="#FF5E3B"/>
</radialGradient>
<radialGradient id="paint1_radial_2004_2" cx="0" cy="0" r="1" gradientUnits="userSpaceOnUse" gradientTransform="translate(457.874 262.317) scale(362.733 362.733)">
<stop stop-color="#FA7C30"/>
<stop offset="0.23" stop-color="#F66B36"/>
<stop offset="0.55" stop-color="#F3593D"/>
<stop offset="0.64" stop-color="#ED563C"/>
<stop offset="0.76" stop-color="#DD4F39"/>
<stop offset="0.9" stop-color="#C24336"/>
<stop offset="1" stop-color="#AB3933"/>
</radialGradient>
<linearGradient id="paint2_linear_2004_2" x1="341.272" y1="5.8874" x2="365.91" y2="71.9118" gradientUnits="userSpaceOnUse">
<stop stop-color="#76262C"/>
<stop offset="0.18" stop-color="#7B292C"/>
<stop offset="0.41" stop-color="#8B352C"/>
<stop offset="0.67" stop-color="#A6472D"/>
<stop offset="0.95" stop-color="#CB612D"/>
<stop offset="1" stop-color="#D3672E"/>
</linearGradient>
<radialGradient id="paint3_radial_2004_2" cx="0" cy="0" r="1" gradientUnits="userSpaceOnUse" gradientTransform="translate(344.761 56.6514) scale(34.6815 34.6815)">
<stop stop-color="#FFD4A7"/>
<stop offset="0.95" stop-color="#FFB96D"/>
</radialGradient>
<linearGradient id="paint4_linear_2004_2" x1="490.263" y1="69.0054" x2="441.706" y2="178.271" gradientUnits="userSpaceOnUse">
<stop offset="0.06" stop-color="#FE9128"/>
<stop offset="0.3" stop-color="#FE8B2A"/>
<stop offset="0.61" stop-color="#FE7B30"/>
<stop offset="0.97" stop-color="#FE603A"/>
<stop offset="0.99" stop-color="#FF5E3B"/>
</linearGradient>
<linearGradient id="paint5_linear_2004_2" x1="638.679" y1="168.932" x2="562.018" y2="180.329" gradientUnits="userSpaceOnUse">
<stop stop-color="#76262C"/>
<stop offset="0.18" stop-color="#7B292C"/>
<stop offset="0.41" stop-color="#8B352C"/>
<stop offset="0.67" stop-color="#A6472D"/>
<stop offset="0.95" stop-color="#CB612D"/>
<stop offset="1" stop-color="#D3672E"/>
</linearGradient>
<linearGradient id="paint6_linear_2004_2" x1="384.486" y1="345.478" x2="392.735" y2="281.225" gradientUnits="userSpaceOnUse">
<stop stop-color="white"/>
<stop offset="0.02" stop-color="#FDFAF8"/>
<stop offset="0.39" stop-color="#E9B099"/>
<stop offset="0.68" stop-color="#DA7B53"/>
<stop offset="0.89" stop-color="#D15927"/>
<stop offset="1" stop-color="#CE4D17"/>
</linearGradient>
<linearGradient id="paint7_linear_2004_2" x1="375.682" y1="157.342" x2="395.171" y2="133.091" gradientUnits="userSpaceOnUse">
<stop stop-color="#FDA80D"/>
<stop offset="0.99" stop-color="#AE1702"/>
</linearGradient>
<linearGradient id="paint8_linear_2004_2" x1="466.788" y1="201.055" x2="486.332" y2="176.749" gradientUnits="userSpaceOnUse">
<stop stop-color="#FDA80D"/>
<stop offset="0.99" stop-color="#AE1702"/>
</linearGradient>
<linearGradient id="paint9_linear_2004_2" x1="446.469" y1="169.387" x2="398.854" y2="266.5" gradientUnits="userSpaceOnUse">
<stop offset="0.07" stop-color="#FFEBD6"/>
<stop offset="0.23" stop-color="#FFE2C4"/>
<stop offset="0.51" stop-color="#FFD8AE"/>
<stop offset="0.77" stop-color="#FFD2A0"/>
<stop offset="1" stop-color="#FFD09C"/>
</linearGradient>
<linearGradient id="paint10_linear_2004_2" x1="287.816" y1="103.777" x2="348.083" y2="266.582" gradientUnits="userSpaceOnUse">
<stop stop-color="#FE9128"/>
<stop offset="0.05" stop-color="#FC8A2A"/>
<stop offset="0.26" stop-color="#F76F34"/>
<stop offset="0.45" stop-color="#F45E3A"/>
<stop offset="0.6" stop-color="#F3593D"/>
<stop offset="0.67" stop-color="#ED563C"/>
<stop offset="0.76" stop-color="#DD4F3A"/>
<stop offset="0.86" stop-color="#C24336"/>
<stop offset="0.97" stop-color="#9D3331"/>
<stop offset="1" stop-color="#932F30"/>
</linearGradient>
<radialGradient id="paint11_radial_2004_2" cx="0" cy="0" r="1" gradientUnits="userSpaceOnUse" gradientTransform="translate(453.252 139.737) scale(747.114 747.114)">
<stop stop-color="#F66937"/>
<stop offset="0.55" stop-color="#F3593D"/>
<stop offset="0.63" stop-color="#ED563C"/>
<stop offset="0.73" stop-color="#DD4F3A"/>
<stop offset="0.85" stop-color="#C24336"/>
<stop offset="0.97" stop-color="#9D3331"/>
<stop offset="1" stop-color="#932F30"/>
</radialGradient>
<radialGradient id="paint12_radial_2004_2" cx="0" cy="0" r="1" gradientUnits="userSpaceOnUse" gradientTransform="translate(587.72 185.049) rotate(2.15) scale(32.5812 35.3968)">
<stop stop-color="#FFD4A7"/>
<stop offset="0.95" stop-color="#FFB96D"/>
</radialGradient>
<linearGradient id="paint13_linear_2004_2" x1="373.966" y1="604.755" x2="377.066" y2="589.696" gradientUnits="userSpaceOnUse">
<stop stop-color="#F3593D"/>
<stop offset="1" stop-color="#AD3A33"/>
</linearGradient>
<linearGradient id="paint14_linear_2004_2" x1="491.455" y1="604.095" x2="486.389" y2="579.125" gradientUnits="userSpaceOnUse">
<stop stop-color="#F3593D"/>
<stop offset="1" stop-color="#AD3A33"/>
</linearGradient>
<linearGradient id="paint15_linear_2004_2" x1="400.43" y1="231.365" x2="411.309" y2="201.108" gradientUnits="userSpaceOnUse">
<stop stop-color="#C83B28"/>
<stop offset="1" stop-color="#94223F"/>
</linearGradient>
</defs>
</svg>
