<svg width="88" height="145" viewBox="0 0 88 145" fill="none" xmlns="http://www.w3.org/2000/svg">
<path d="M41.3997 106.283C40.0242 107.454 39.2682 110.614 39.8991 111.086C45.5321 112.257 53.5525 112.49 57.4348 112.024C61.3171 111.558 41.4054 106.283 41.4054 106.283H41.3997Z" fill="#9C3D39"/>
<path d="M9.78951 30.985C7.10658 29.797 3.59944 29.9959 1.72934 32.2582C0.342401 33.935 0.149136 36.2883 0.0127156 38.4824C-0.0952839 40.199 0.40493 43.4845 4.64533 46.0708C6.10048 46.9575 14.6495 45.4683 16.3036 43.7232C18.0998 41.8304 18.9467 38.5392 16.9175 36.5384C14.8712 34.5262 12.4213 32.1502 9.7952 30.9906L9.78951 30.985Z" fill="url(#paint0_radial_1_121)"/>
<path d="M0.0126953 38.471C2.12721 35.0832 7.99329 33.1563 17.4063 42.1373C18.3328 40.307 18.4522 38.0504 16.9118 36.5327C14.8655 34.5205 12.4156 32.1445 9.78949 30.985C7.10656 29.797 3.59942 29.9959 1.72932 32.2582C0.348065 33.9294 0.149116 36.2769 0.0126953 38.4653V38.471Z" fill="url(#paint1_linear_1_121)"/>
<path d="M31.3553 14.6932C28.553 14.8581 25.5972 14.3124 23.4827 12.5276C24.1932 14.4829 25.097 16.6258 26.7284 17.8252C25.5461 18.4959 24.3012 18.5073 22.9541 18.2572C24.3808 19.8431 25.6825 20.7128 27.5128 21.4688C27.7288 21.5597 41.3652 17.541 44.5256 13.3802C41.314 12.2547 34.0098 14.5398 31.3496 14.6932H31.3553Z" fill="#9C3D39"/>
<path d="M6.34519 41.7735C7.09551 41.603 7.86287 41.5177 8.63592 41.5291C6.86814 43.0581 5.64604 45.1727 5.21973 47.4293C6.26562 45.8263 8.27781 45.1215 10.1365 44.5247C9.63065 45.3887 9.31802 46.3493 9.21571 47.3326C10.0797 46.8495 11.0119 46.4687 11.9725 46.2015C11.8532 46.2356 12.5125 38.562 12.1715 38.2607C11.5746 37.7377 9.62497 38.9655 9.0736 39.3066C8.01635 39.9546 7.08414 40.7958 6.34519 41.7735Z" fill="#FFD7AB"/>
<path d="M75.8341 27.7618C73.7309 27.9436 71.3663 27.1024 69.3257 25.7211C67.6773 24.6013 66.6086 23.2485 65.5286 21.7934C60.3674 18.3431 54.9333 14.7734 49.1639 13.449C41.4049 11.6641 32.1681 14.7507 25.8814 19.4231C18.3271 25.039 12.2962 33.1674 11.7846 44.0072C11.6255 47.3779 14.0128 49.0092 13.0579 52.2549C12.444 54.3296 11.1821 56.3305 9.44845 57.6378C9.78382 58.013 10.1192 58.3938 10.4602 58.769C11.0969 59.0305 11.7505 59.2635 12.4156 59.4568C16.8663 60.7357 21.8229 60.497 26.3646 59.9001C35.7264 58.6724 39.6599 63.6062 51.2556 66.9485C52.2958 67.1247 53.7283 66.9201 55.3426 66.4142C62.948 61.4235 69.0528 54.2671 72.685 46.2979C74.3675 42.6032 75.4134 38.5901 76.249 34.6567C76.6753 32.6331 77.1528 30.2912 77.1414 28.0175C76.7947 27.9834 76.448 27.9266 76.1069 27.847C76.016 27.8243 75.925 27.7959 75.8341 27.7674V27.7618Z" fill="url(#paint2_linear_1_121)"/>
<path d="M62.0329 19.4915C61.0609 20.9864 59.1908 24.2775 59.4466 27.2504C60.7141 24.5731 63.4766 22.8963 65.7276 21.9243C64.5112 21.1115 63.2834 20.2929 62.0329 19.4915Z" fill="#9C3D39"/>
<path d="M16.8834 54.8068L12.6941 48.1051C13.0806 49.3215 13.3819 51.3167 13.0522 52.2546C12.5577 53.6699 11.8983 55.1024 10.9093 56.2676L16.8834 54.8125V54.8068Z" fill="#9C3D39"/>
<path d="M68.5466 25.1356C68.4101 25.022 68.2737 24.914 68.143 24.8003C68.0861 24.7491 68.035 24.698 67.9781 24.6468C67.8531 24.5331 67.7337 24.4194 67.6201 24.3058C67.5689 24.2546 67.5177 24.1978 67.4666 24.1466C67.3529 24.0329 67.2449 23.9135 67.1369 23.7942C67.1255 23.7771 67.1085 23.7658 67.0971 23.7544C62.4247 25.4312 58.2184 32.1443 56.7178 35.8788C62.7032 34.4179 71.184 34.003 76.692 32.4228C76.9478 30.996 77.1467 29.4897 77.1411 28.0119C76.7943 27.9777 76.4476 27.9209 76.1065 27.8413C76.0156 27.8186 75.9246 27.7902 75.8337 27.7617C73.7305 27.9436 71.3659 27.1024 69.3253 25.7211C69.1093 25.5733 68.9104 25.4255 68.7114 25.2721C68.6546 25.2266 68.6034 25.1811 68.5466 25.1356Z" fill="#9C3D39"/>
<path d="M12.2962 39.7386C12.0347 41.1142 11.8642 42.5353 11.7846 44.0075C11.5345 48.4184 16.8891 54.8074 16.8891 54.8074L21.4421 47.4634C21.4421 47.4634 15.8091 39.0565 12.3019 39.7386H12.2962Z" fill="#FFAE7A"/>
<path d="M22.2492 47.2533C21.9537 46.5314 15.5362 37.4765 13.183 43.8315C11.4607 48.4754 15.2691 53.4377 15.8545 53.4946C17.2244 53.1706 23.0791 52.7272 23.0791 52.7272L22.2492 47.2533Z" fill="#76262C"/>
<path d="M22.7949 47.7083C22.5221 47.0546 16.5252 38.9546 13.9787 44.6104C12.3587 48.2028 15.8943 53.3299 16.44 53.3811C17.7133 53.0855 23.1473 52.6705 23.1473 52.6705L22.7892 47.7026L22.7949 47.7083Z" fill="#FDE2E5"/>
<path d="M22.7949 47.7079C22.5789 47.1849 18.6909 41.8929 15.8432 42.7058C15.7693 42.8479 15.7011 42.9957 15.6328 43.1605C14.0526 46.986 17.5882 52.4712 18.1282 52.5337C18.9297 52.3405 21.408 52.1017 23.1019 51.9539L22.7949 47.7079Z" fill="white"/>
<path d="M35.9883 45.946C33.5612 36.9536 36.3351 17.184 52.2678 19.4293C61.1352 20.6798 57.4689 34.2195 56.0876 38.3576L43.9178 50.4422L35.9883 45.946Z" fill="#FFAE7A"/>
<path d="M37.5565 44.6723C35.6523 37.7262 36.7209 26.3465 50.056 26.6079C57.957 26.7614 55.456 36.362 54.5636 38.2776L43.8261 48.1339L37.5565 44.6723Z" fill="#76262C"/>
<path d="M37.5624 44.9164C35.7833 38.4023 38.5231 27.915 49.2264 27.9889C55.8882 28.0343 53.3929 36.3901 52.3697 39.3913L43.4001 48.1677L37.5624 44.9164Z" fill="#FDE2E5"/>
<path d="M37.5625 44.9164L43.3944 48.1677L50.1984 41.5172C50.7157 36.7198 50.818 30.6093 48.3795 28.0116C38.3867 28.4834 35.8345 38.5785 37.5625 44.9164Z" fill="white"/>
<mask id="mask0_1_121" style="mask-type:luminance" maskUnits="userSpaceOnUse" x="37" y="28" width="17" height="21">
<path d="M38.728 44.4851C36.9034 37.4254 36.8807 27.7566 48.5048 28.1545C56.2694 28.4216 53.3137 35.4928 52.3132 38.7384L43.3947 48.1742L38.7223 44.4908L38.728 44.4851Z" fill="white"/>
</mask>
<g mask="url(#mask0_1_121)">
<path d="M52.1143 38.2324C52.859 41.2507 51.0685 44.1553 48.1127 44.7294C45.1569 45.3035 42.1556 43.3197 41.411 40.3071C40.6664 37.2888 42.4569 34.3842 45.4127 33.8101C48.3685 33.236 51.3697 35.2198 52.1143 38.2324Z" fill="url(#paint3_linear_1_121)"/>
<path d="M50.3747 38.7161C50.8749 40.7453 49.6698 42.7007 47.6804 43.0872C45.6909 43.4737 43.673 42.1379 43.1728 40.1144C42.6726 38.0851 43.8776 36.1298 45.8671 35.7432C47.8566 35.3567 49.8745 36.6925 50.3747 38.7161Z" fill="#76262C"/>
<g style="mix-blend-mode:overlay" opacity="0.28">
<path d="M47.1293 37.619C45.839 38.7786 45.8674 41.1375 47.0668 43.2634C47.368 43.2577 47.675 43.2293 47.9762 43.1725C50.3977 42.7063 52.0348 40.6714 52.1428 38.2954C50.4148 36.8516 48.3628 36.5106 47.1293 37.619Z" fill="white"/>
</g>
<path d="M43.1788 37.4813C43.2413 38.1861 42.6729 38.8114 41.9112 38.8682C41.1496 38.9251 40.4845 38.4021 40.4276 37.6973C40.3651 36.9925 40.9335 36.3672 41.6952 36.3104C42.4569 36.2478 43.122 36.7765 43.1788 37.4813Z" fill="white"/>
</g>
<mask id="mask1_1_121" style="mask-type:luminance" maskUnits="userSpaceOnUse" x="13" y="41" width="10" height="13">
<path d="M22.3682 47.0546C22.0896 46.3498 16.1781 37.7155 13.5975 44.1898C12.2503 47.0944 15.621 53.1537 16.2008 53.5062C17.4911 53.1992 22.6467 52.9775 22.6467 52.9775L22.3739 47.0546H22.3682Z" fill="white"/>
</mask>
<g mask="url(#mask1_1_121)">
<path d="M24.1762 48.4924C24.7276 50.9082 23.4771 53.2216 21.3796 53.6593C19.2822 54.097 17.1335 52.4941 16.5765 50.0783C16.0251 47.6625 17.2756 45.349 19.3731 44.9114C21.4706 44.4737 23.6192 46.0766 24.1762 48.4924Z" fill="url(#paint4_linear_1_121)"/>
<path d="M22.9432 48.8675C23.3127 50.4932 22.4714 52.045 21.0617 52.3405C19.652 52.6361 18.2026 51.5561 17.8331 49.9304C17.4636 48.3048 18.3049 46.753 19.7146 46.4574C21.1242 46.1618 22.5737 47.2418 22.9432 48.8675Z" fill="#76262C"/>
<g style="mix-blend-mode:overlay" opacity="0.23">
<path d="M19.7198 49.3905C18.7706 50.3113 18.8047 52.1985 19.7028 53.9037C19.9245 53.9037 20.1518 53.881 20.3735 53.8355C22.1584 53.4717 23.3577 51.8574 23.4259 49.9532C22.1413 48.788 20.6236 48.5094 19.7142 49.3905H19.7198Z" fill="white"/>
</g>
</g>
<path d="M56.7295 55.6659C57.2411 55.376 57.7584 55.0918 58.2756 54.8076C61.9419 50.0045 65.0682 44.4681 66.3983 38.6759C66.9156 36.4306 67.2794 33.8443 67.1088 31.349C64.6078 32.1618 61.9362 33.1679 60.1116 33.9921C49.7266 38.6816 45.1053 42.8367 43.4115 44.9398C41.4106 43.6154 37.7898 42.7628 35.6184 43.6211C35.6184 43.6211 23.0223 51.1186 18.9922 52.352C16.5423 53.1023 13.615 54.3472 11.6937 55.2112C11.2333 55.9274 10.6819 56.5754 10.0623 57.1381C11.3527 58.6103 12.9727 60.0086 14.3766 61.2762C16.0876 62.8223 18.0771 64.2433 20.0665 65.437C22.397 66.8296 24.881 67.4378 27.5696 67.8301C29.093 68.0517 30.4458 68.0688 31.9635 68.336C35.2206 68.1484 38.4605 67.7959 40.5239 68.3644C40.9104 68.4724 43.4172 68.5519 44.5995 71.3486C44.9633 71.4736 45.3782 71.4623 45.8329 71.3543C46.083 69.5012 46.6117 67.6993 47.3961 65.9941C46.0205 62.8678 52.3925 58.1442 56.7295 55.6659Z" fill="url(#paint5_radial_1_121)"/>
<path d="M25.4263 67.0401C24.3804 66.5456 23.7949 66.25 23.7949 66.25C23.7949 66.25 23.9541 66.915 25.4263 67.0401Z" fill="#FCC797"/>
<path d="M67.1087 31.3491C67.0576 31.3662 67.0064 31.3832 66.9552 31.4003C58.4915 37.704 56.3258 55.7513 41.0581 63.2829C33.7653 66.881 27.4445 67.2106 25.4209 67.0401C25.8415 67.2391 26.3361 67.4664 26.8988 67.7222C27.1205 67.7563 27.3422 67.7961 27.5638 67.8302C29.0872 68.0519 30.44 68.069 31.9577 68.3361C35.2148 68.1485 38.4547 67.7961 40.5181 68.3645C40.9046 68.4725 43.4114 68.5521 44.5937 71.3487C44.9575 71.4738 45.3724 71.4624 45.8271 71.3544C46.0772 69.5014 46.6059 67.6995 47.3903 65.9942C46.0147 62.8679 52.3867 58.1444 56.7237 55.6661C57.2353 55.3762 57.7526 55.092 58.2698 54.8078C61.9361 50.0046 65.0624 44.4682 66.3925 38.676C66.9098 36.4308 67.2736 33.8445 67.103 31.3491H67.1087Z" fill="#FCC797"/>
<path d="M32.7991 15.3587C30.3435 16.4216 28.0073 17.7744 26.0065 19.2637C24.2103 20.5995 22.38 22.2365 20.8111 23.8622C20.1177 26.6361 20.2086 29.734 21.0328 33.656C21.1635 34.287 21.5842 34.4575 21.7206 33.9744C22.9654 29.4497 24.0682 21.3839 32.8048 15.3587H32.7991Z" fill="#9C3D39"/>
<path d="M37.5116 13.7563C36.6533 14.5293 35.7211 15.5752 35.0106 16.6325C31.4239 21.9586 31.4011 25.3407 32.6744 23.3569C35.1243 19.5314 39.9558 15.1887 45.8844 13.0003C45.8162 12.9889 45.748 12.9889 45.6741 12.9776C42.9571 12.8355 40.2514 13.0287 37.5116 13.7506V13.7563Z" fill="#9C3D39"/>
<path d="M18.2589 26.7844C17.3438 27.961 16.5139 29.2059 15.7579 30.5075C16.116 31.1499 16.6389 31.9115 17.7303 32.8494C17.9236 33.0143 18.2419 32.9233 18.2021 32.6789C17.9293 31.1271 17.7985 28.7795 18.2192 26.9549C18.2305 26.8924 18.2419 26.8412 18.2533 26.7844H18.2589Z" fill="#9C3D39"/>
<path d="M18.2416 47.486C18.3041 48.1909 17.7584 48.8161 17.0252 48.873C16.2919 48.9298 15.6496 48.4069 15.5928 47.6963C15.5302 46.9915 16.0759 46.3662 16.8092 46.3094C17.5424 46.2526 18.1847 46.7755 18.2416 47.486Z" fill="white"/>
<path d="M77.0732 10.92C76.7037 6.74211 73.3899 3.69539 69.2347 2.91665C64.9034 2.10382 60.4697 4.05918 58.3154 7.79369C57.1217 9.86273 56.5021 12.3183 55.9962 14.6204C55.7973 15.5128 55.5586 16.4393 55.3653 17.3772L63.7154 22.0383C66.2619 21.4187 69.1153 21.1629 71.5311 20.1397C74.9928 18.3265 77.437 14.9671 77.0789 10.92H77.0732Z" fill="url(#paint6_radial_1_121)"/>
<path d="M72.8041 3.43903C70.6612 1.73946 68.0521 0.204735 65.2214 0.0171569C62.402 -0.170421 59.8101 1.19947 57.9684 3.17756C55.9278 5.37166 54.9103 8.1967 54.376 11.0558C54.0861 12.5849 53.836 14.1253 53.7848 15.6771C53.7621 16.3308 54.3646 16.831 54.5806 16.956C55.8937 17.7291 57.2067 18.5078 58.5254 19.2809C59.8498 15.9954 61.3277 12.7213 63.2945 9.74279C64.1812 8.40132 65.1702 7.10533 66.3639 5.99691C66.8869 5.51376 67.4496 5.06471 68.0578 4.69524C68.6149 4.35419 69.3254 3.88239 69.9847 4.0586C72.4687 4.71229 74.6515 5.96281 75.6064 8.3388C76.3567 10.2032 76.4931 12.3234 75.9759 14.2617C75.2085 17.1379 72.9633 19.2581 70.1837 20.4177C70.7862 20.6849 71.8548 20.0198 72.4119 19.7185C73.0542 19.3718 73.6624 18.9569 74.2252 18.4964C75.3108 17.6154 76.2601 16.5524 76.9194 15.3303C78.3519 12.6758 77.9938 9.71438 76.3794 7.21902C75.4416 5.76387 74.1854 4.51334 72.8155 3.43335C72.787 3.41061 75.6576 5.67292 72.8155 3.43335L72.8041 3.43903Z" fill="url(#paint7_linear_1_121)"/>
<g style="mix-blend-mode:screen" opacity="0.19">
<path d="M40.5921 18.1948C40.5921 18.1948 27.0524 28.7901 21.5899 36.1057C14.3539 45.7972 10.9946 32.3655 24.4206 21.3836C35.2945 12.4936 51.4148 11.9365 40.5921 18.1891V18.1948Z" fill="#FFF64D"/>
</g>
<path d="M66.2168 40.9146C66.6602 38.6807 67.905 36.623 69.1328 35.4976C68.2517 35.6169 67.041 35.8613 66.3987 36.623L66.2225 40.9146H66.2168Z" fill="#F9BD8A"/>
<path d="M58.9176 63.8116C59.1052 63.4989 59.2928 63.1806 59.469 62.8566C61.1686 59.7303 62.2202 56.3653 63.3002 52.9946C64.329 49.7944 65.301 46.5885 65.8182 43.2632C66.182 40.91 67.4382 34.089 67.2165 31.7471C64.6643 46.526 56.1267 53.9097 49.4705 60.2476C47.7312 61.9017 43.9512 63.6126 43.3657 63.8627C41.1205 62.3394 37.5053 61.4867 34.9019 60.7819C31.4403 59.844 28.3026 59.3097 27.2056 58.2922C26.3416 59.2926 24.0224 59.4632 21.294 58.5253C19.0942 56.7291 18.469 54.3758 18.2132 52.8638C18.2018 52.7842 18.162 52.7103 18.1279 52.6251C18.7248 58.2354 21.2713 63.4876 25.2559 67.3983C26.0119 67.5631 26.7849 67.7052 27.575 67.8189C29.0984 68.0406 30.2466 68.0633 31.77 68.3305C31.9462 68.3191 32.5658 68.2907 32.742 68.2793C32.9182 68.268 33.0887 68.2566 33.2649 68.2452C33.3047 68.2452 33.3502 68.2452 33.39 68.2395C34.2142 68.1827 35.027 68.1827 35.7944 68.0917C38.6137 67.745 41.6832 68.1315 43.2691 69.4446C44.9175 70.8031 45.2301 75.8734 45.3779 78.1926C45.3779 78.2039 45.1108 71.2067 47.7766 65.8181C48.8623 66.2046 50.0162 66.5798 51.2611 66.9435C52.3013 67.1198 53.7337 66.9151 55.348 66.4092C56.5814 65.6021 57.7694 64.7267 58.9233 63.8116H58.9176Z" fill="#F9BD8A"/>
<path d="M18.9581 66.0109C23.784 68.5688 30.3435 68.4153 31.8214 68.3358C31.8896 68.3358 31.9578 68.3301 32.026 68.3244C26.4498 65.6983 18.7932 59.7356 18.1168 52.6303C16.1728 53.284 13.6775 54.3185 11.688 55.211C11.0798 56.1489 10.3181 56.9787 9.44845 57.6381C11.5061 60.5541 15.7522 64.2772 18.9524 66.0109H18.9581Z" fill="#F5B99D"/>
<path d="M60.1457 15.5177C63.4084 13.0848 66.3074 12.5392 66.944 12.3971C65.7333 12.9427 64.4657 14.3467 63.5733 15.421C67.2168 14.8697 70.7297 14.8356 74.0549 15.9781C71.173 16.5465 68.3878 17.5014 65.8526 18.7861C69.4962 18.7861 71.3606 19.3488 72.6907 21.8157C70.5591 21.2416 65.3922 22.1625 64.1133 22.5831C62.0727 21.3269 59.2192 19.724 58.5371 19.2863C58.7645 18.644 59.8615 15.9667 60.1514 15.5234L60.1457 15.5177Z" fill="#FFD7AB"/>
<path d="M17.498 52.0281C17.6856 51.4427 19.1294 46.9521 26.2631 43.3086C29.8327 41.484 32.1007 40.944 33.5388 40.9894C34.9712 41.0406 35.6704 42.9277 35.8921 43.4791C35.6079 44.2351 34.5961 45.6732 33.931 46.0995C32.1519 46.5088 17.498 52.0224 17.498 52.0224V52.0281Z" fill="#FE9E2E"/>
<path opacity="0.3" d="M33.5384 40.989C32.6915 40.9606 31.5546 41.1425 30.0313 41.6654C28.5079 43.4389 26.1319 45.7126 23.1193 47.0029C27.7746 47.8555 32.4073 45.201 34.1182 41.1254C33.9363 41.0459 33.743 40.9947 33.5384 40.989Z" fill="white"/>
<path d="M32.7085 44.0978C32.7085 44.0978 26.7799 44.8993 21.7494 47.9006C20.0214 48.9351 18.7595 50.0435 17.3044 51.8283C16.986 52.2149 17.6227 53.3631 18.2422 53.221C19.3222 52.9765 21.2662 52.6696 22.71 52.4536C23.233 52.897 23.8753 53.3403 24.5744 53.5791C25.4271 53.454 26.689 52.6866 26.689 52.6866C25.8591 51.5896 25.717 50.754 27.5018 49.3443C29.0081 48.1563 31.1738 46.8035 33.8112 45.9452C33.9022 45.5985 32.7085 44.0922 32.7085 44.0922V44.0978Z" fill="#76262C"/>
<path opacity="0.16" d="M20.4875 48.7363C19.3563 49.5605 18.3787 50.5098 17.3044 51.8285C16.986 52.215 17.6227 53.3632 18.2422 53.2211C19.2711 52.9881 21.0843 52.6982 22.5054 52.4822C21.7835 51.2544 21.1128 50.0096 20.4932 48.7363H20.4875Z" fill="white"/>
<path d="M32.7085 44.0981L32.6801 43.8935C32.6801 43.8935 26.7231 44.695 21.6414 47.7246C19.8964 48.7705 18.606 49.9017 17.1395 51.7036C17.0429 51.8229 17.0088 51.9707 17.0088 52.1128C17.0088 52.4027 17.1395 52.7154 17.3328 52.9711C17.4294 53.1019 17.5431 53.2156 17.6795 53.3008C17.8103 53.3861 17.9694 53.4486 18.1399 53.4486C18.1911 53.4486 18.2423 53.4486 18.2934 53.4316C19.3564 53.1871 21.306 52.8802 22.7441 52.6642L22.71 52.4596L22.5679 52.6187C23.1022 53.0735 23.7616 53.5339 24.5005 53.784L24.6029 53.7953C25.0746 53.7271 25.6146 53.4941 26.0466 53.2838C26.4786 53.0735 26.7969 52.8745 26.8026 52.8745C26.8538 52.8461 26.8879 52.7949 26.8993 52.7381C26.9106 52.6813 26.8993 52.6187 26.8595 52.5733C26.5071 52.1071 26.3081 51.7206 26.3081 51.3512C26.3081 51.1067 26.3877 50.8566 26.5923 50.5554C26.797 50.2541 27.1323 49.9131 27.6325 49.5208C29.1218 48.3442 31.2647 47.0084 33.8738 46.1558C33.942 46.1331 33.9988 46.0762 34.0159 46.008L34.0272 45.9171C34.0272 45.8204 33.9988 45.7352 33.9647 45.6442C33.8397 45.3316 33.5725 44.9337 33.3338 44.587C33.0894 44.2459 32.879 43.9788 32.879 43.9731C32.8336 43.9162 32.754 43.8821 32.6801 43.8935L32.7085 44.0981L32.538 44.2289C32.538 44.2289 32.6062 44.3141 32.7085 44.4506C32.862 44.6552 33.095 44.9678 33.2826 45.2691C33.3792 45.4169 33.4588 45.5647 33.5213 45.684C33.5782 45.8034 33.6066 45.9 33.6009 45.9171L33.8112 45.9569L33.743 45.7579C31.0715 46.6276 28.8887 47.9918 27.3654 49.1912C26.8481 49.6004 26.4843 49.9642 26.2399 50.3166C25.9955 50.669 25.8818 51.0101 25.8818 51.3512C25.8818 51.8741 26.149 52.3345 26.5128 52.8234L26.6833 52.6983L26.5696 52.5221C26.5696 52.5221 26.4957 52.5676 26.365 52.6415C25.9841 52.8575 25.1088 53.3065 24.5346 53.3861L24.5688 53.5907L24.637 53.3918C23.9776 53.1701 23.3523 52.7381 22.8464 52.3061C22.801 52.2663 22.7328 52.2493 22.6759 52.2549C21.2321 52.4709 19.2881 52.7779 18.1911 53.028H18.1343C18.0717 53.0337 17.9978 53.0109 17.9126 52.9598C17.7875 52.8802 17.6625 52.7324 17.5715 52.5733C17.4806 52.4141 17.4294 52.2379 17.4294 52.1185C17.4294 52.0389 17.4465 51.9935 17.4692 51.9707C18.913 50.1973 20.1521 49.1116 21.8574 48.0884C24.3471 46.5992 27.0698 45.6556 29.1673 45.0815C30.2188 44.7973 31.1113 44.604 31.7365 44.479C32.0491 44.4164 32.2992 44.3767 32.4698 44.3482C32.6403 44.3198 32.7256 44.3084 32.7256 44.3084L32.6971 44.1038L32.7085 44.0981Z" fill="#602229"/>
<path d="M28.3483 45.5248C29.4681 45.1553 30.4515 45.1042 30.4856 45.2974C30.5254 45.485 29.6614 45.8374 28.57 46.1955C27.4786 46.5479 26.5521 46.7469 26.4782 46.565C26.4043 46.3831 27.2285 45.8886 28.3483 45.5248Z" fill="#FEFEFE"/>
<path d="M41.0976 18.7006C39.0456 20.1671 37.7041 24.237 37.7041 24.237C37.7041 24.237 40.7963 21.3835 49.0781 20.4911C46.543 19.1042 42.8824 18.6494 41.0976 18.7006Z" fill="#9C3D39"/>
<path d="M15.4168 37.5052C14.2914 36.0614 13.1489 34.9189 13.092 35.0212C11.1821 38.6875 11.3527 41.6888 11.3527 41.6945C11.3527 41.6945 12.5236 39.7221 15.4168 37.5052Z" fill="#9C3D39"/>
<path d="M37.7273 61.7476C38.3184 61.867 34.8966 60.1333 34.402 59.94C33.8848 59.7354 30.6846 60.1731 31.7134 60.4345C33.7086 60.9461 37.2271 61.6453 37.7216 61.7476H37.7273Z" fill="#9F4940"/>
<path d="M66.819 68.4498C62.823 63.1692 62.5047 62.6633 59.5944 59.8723C54.0921 54.6031 43.2807 66.6024 43.9287 69.4786C44.4233 71.667 44.9974 72.423 45.6283 80.847C46.2706 89.5154 37.4829 105.732 43.4285 108.944C44.4858 109.518 45.8159 110.115 47.3336 110.695C49.63 111.104 51.5853 111.053 53.5464 112.548C53.5748 112.57 53.5919 112.587 53.6146 112.61C63.5676 114.981 76.4934 115.026 81.9275 105.352C82.297 91.5731 73.4808 77.2546 66.819 68.4498Z" fill="url(#paint8_linear_1_121)"/>
<path d="M59.6 59.8721C54.831 55.3077 46.4752 62.7995 44.2527 67.8982C44.2129 68.8588 44.2243 69.8251 44.2698 70.7914C44.4062 71.303 44.5426 71.8487 44.6904 72.582L45.8841 74.5771C46.5207 70.2458 47.7712 65.7496 51.0738 62.9359C53.7851 60.6224 57.6163 60.2473 61.0836 61.3159C60.663 60.8839 60.1855 60.4235 59.6114 59.8721H59.6Z" fill="#9C3D39"/>
<path d="M46.4579 91.9998C42.4505 87.7594 18.5542 86.9295 40.552 107.984C42.5017 109.104 44.5366 110.11 46.7591 110.581C49.2488 111.11 51.3235 110.94 53.3926 112.44C63.6355 113.793 65.0963 112.156 65.0963 112.156L46.4579 92.0055V91.9998Z" fill="url(#paint9_radial_1_121)"/>
<path d="M75.402 93.5905C76.3797 86.2125 89.0952 83.2112 86.8955 94.2328C84.7298 105.107 76.9254 110.677 76.9254 110.677L75.3964 93.5905H75.402Z" fill="url(#paint10_radial_1_121)"/>
<path d="M86.202 96.933C83.9511 101.514 80.1995 105.408 75.5726 107.767C69.1836 111.024 61.2768 111.314 54.6548 108.523C51.2272 107.079 48.1975 104.891 45.003 103.009C41.763 101.1 37.7614 98.9907 33.8904 99.7012C38.9096 101.401 42.8715 105.067 46.7935 108.409C48.334 109.722 49.9369 111.03 51.6251 112.184C51.8809 112.223 52.131 112.258 52.3754 112.297C59.1282 114.076 67.5408 114.872 74.0663 112.172C77.1812 110.979 78.8921 109.217 79.6084 108.466C80.2905 107.756 80.91 106.96 81.4728 106.079C83.2064 103.828 85.0311 100.764 86.202 96.9273V96.933Z" fill="#9C3D39"/>
<path d="M74.1686 113.092C72.9863 109.96 68.0353 107.687 64.5907 109.966C63.5392 110.66 63.3288 111.791 62.5331 112.632C62.9423 112.831 63.2606 113.019 63.289 113.354C63.4255 114.798 59.8217 116.207 46.1001 117.293C30.5425 118.521 22.7267 123.165 20.6463 129.054C18.6568 134.692 23.4372 140.843 32.6229 143.787C34.5612 144.407 42.5816 145.703 47.0209 144.23C49.5617 141.474 52.7676 140.337 50.3746 132.248C37.5852 132.089 37.1986 130.06 37.966 128.32C38.6765 126.706 50.5849 125.461 58.8781 124.063C69.661 122.244 75.3566 118.089 74.5381 113.706C74.3903 113.524 74.2595 113.331 74.1743 113.092H74.1686Z" fill="url(#paint11_linear_1_121)"/>
<path d="M74.3903 113.035C74.0038 111.739 72.4861 109.915 71.6732 109.176C69.8429 107.351 66.0459 105.669 63.2777 110.159C62.9878 110.637 61.7259 112.041 61.7316 112.7C62.3569 113.257 63.1072 113.496 63.2834 113.979C64.4486 110.33 67.0065 109.471 69.2461 110.045C72.9294 110.995 74.1061 113.57 74.4869 115.656C74.6859 114.797 74.6574 113.916 74.3903 113.03V113.035Z" fill="#9C3D39"/>
<path d="M70.9797 119.425C71.2696 118.635 71.3094 117.771 71.0252 116.975C70.3374 115.02 68.041 113.616 65.6082 113.377C64.8408 113.303 64.0394 113.354 63.2834 113.519C63.2208 114.161 62.3682 114.792 60.1855 115.389C60.1514 115.434 60.1116 115.474 60.0832 115.525C62.3 114.985 64.8408 115.463 66.5631 116.748C67.4385 117.401 68.0922 118.254 68.4616 119.175C68.5924 119.493 68.6322 120.533 68.8993 121.09C69.536 120.778 70.1214 120.454 70.6557 120.113C70.8149 119.817 70.9343 119.556 70.9854 119.43L70.9797 119.425Z" fill="#9C3D39"/>
<path d="M50.6307 118.697C52.2222 120.067 53.1203 121.977 53.0692 123.881C55.7976 122.494 57.1845 117.265 54.4675 116.44C52.6429 116.685 50.4829 116.918 47.9307 117.14C48.9368 117.509 49.869 118.032 50.6363 118.691L50.6307 118.697Z" fill="#9C3D39"/>
<path d="M37.3635 127.155C38.5004 125.796 38.722 123.54 38.3185 121.954C38.0058 120.732 37.1873 119.572 36.0334 118.782C32.2534 119.663 29.201 120.834 26.8194 122.233C28.0585 121.852 29.4057 121.71 30.7187 121.863C32.5547 122.079 34.2713 122.869 35.5332 123.995C36.6814 125.018 36.6928 126.041 37.3635 127.161V127.155Z" fill="#9C3D39"/>
<path d="M37.9092 129.94C37.7102 129.594 37.6932 129.235 37.7727 128.877C36.886 127.849 35.4309 127.115 33.9359 126.746C30.4458 125.893 26.4442 126.689 23.801 128.764C22.0162 130.162 20.9021 132.106 20.6122 134.124C21.1522 135.778 22.2094 137.375 23.7385 138.83C23.352 137.779 23.2212 136.67 23.3861 135.579C23.8067 132.845 26.0747 130.367 29.1271 129.298C31.9465 128.315 35.3286 128.576 37.9035 129.935L37.9092 129.94Z" fill="#9C3D39"/>
<path d="M41.1722 117.833C40.0013 117.998 38.8872 118.186 37.8242 118.396C42.7979 118.175 42.5876 125.524 40.9846 127.013C41.5644 126.871 42.2067 126.735 42.9059 126.593C46.4756 123.017 43.6562 118.589 41.1779 117.833H41.1722Z" fill="#9C3D39"/>
<g style="mix-blend-mode:screen" opacity="0.25">
<path d="M32.2989 129.372C31.6793 128.78 31.236 128.041 31.236 127.297C31.236 125.478 32.0431 124.466 32.8105 123.579C34.1349 122.056 33.0549 121.988 31.236 122.386C28.1438 123.056 25.3699 124.773 24.125 126.848C22.8234 129.013 23.2554 131.742 24.5741 133.532C25.0288 134.146 25.9554 134.891 27.257 135.607C27.996 133.032 29.7581 130.889 32.3046 129.372H32.2989Z" fill="#FFF64D"/>
</g>
<path d="M48.0953 62.5211C44.9974 65.0108 43.6502 68.2224 43.9344 69.4786C44.3551 71.3373 44.8325 72.1672 45.3498 77.5217C45.6226 75.5209 46.4412 73.5257 46.1683 71.5249C45.4066 65.9089 47.4188 63.5614 48.0953 62.5211Z" fill="#E9A075"/>
<path d="M73.4349 78.2717C69.9164 77.0326 65.2895 76.1515 61.3674 76.9246C57.3885 77.7147 54.2963 79.2096 52.0055 81.1877C50.2377 82.7168 49.8512 86.9572 49.6182 89.8959C51.0165 86.5195 53.0514 83.9048 55.7912 82.9839C59.8781 81.6084 64.8575 80.9547 69.5981 81.398C71.7922 81.6027 73.992 82.0745 75.9075 82.7623C75.1174 81.2162 74.2875 79.7155 73.4349 78.2661V78.2717Z" fill="#9C3D39"/>
<path d="M53.2963 95.3291C58.9236 96.7956 64.7215 98.1882 70.5364 97.671C76.3513 97.1537 82.2743 94.3514 84.7753 89.4175C83.5134 96.2329 77.3461 102.002 70.0589 103.19C63.8518 104.202 57.5765 102.144 51.79 99.8082C46.0035 97.4777 38.1138 94.3741 33.8905 94.4594C37.9717 90.7931 53.2906 95.3234 53.2906 95.3234L53.2963 95.3291Z" fill="#9C3D39"/>
<path d="M66.8189 68.4491C65.6139 66.8575 64.7499 65.7093 64.045 64.7884C64.0337 64.7884 64.0223 64.7884 64.0109 64.7828C63.1526 64.1404 61.1973 64.6236 60.6345 65.3341C63.6926 65.6752 64.9602 67.4145 66.7848 69.3301C67.9387 70.5408 68.9789 71.8653 70.1385 73.076C69.0073 71.4105 67.8876 69.8587 66.8189 68.4491Z" fill="#9C3D39"/>
<path d="M47.874 82.9885C49.6816 81.5959 50.6024 79.3222 51.1595 77.094C51.7222 74.8658 51.1652 72.4273 52.2111 70.3867C54.6553 65.612 57.6679 65.6972 57.6679 65.6972C56.0422 64.5945 53.9902 65.2311 52.393 66.385C50.7957 67.5332 49.8805 69.409 49.3121 71.3075C48.6641 73.4675 49.4315 75.2808 49.2326 77.2475C49.0393 79.2199 48.738 81.2151 47.874 82.9942V82.9885Z" fill="#9C3D39"/>
<path d="M55.2459 91.2086C59.1964 91.7373 62.9139 89.3783 66.8758 88.935C70.3033 88.5484 73.7082 89.6057 76.9766 90.6459C69.8372 93.5335 61.5213 93.7893 54.1887 91.3507L55.2403 91.2086H55.2459Z" fill="#9C3D39"/>
<g style="mix-blend-mode:screen" opacity="0.15">
<path d="M54.9958 90.9635C53.211 93.4362 50.7952 96.0395 51.3693 98.9726C51.9605 102.031 55.5188 103.707 58.7588 104.384C61.4644 104.952 65.1648 105.35 66.5802 103.122C73.2819 92.5551 62.0044 71.8817 57.5821 67.7437C54.9788 65.3108 57.5821 70.4323 58.4689 81.596C58.7701 85.4215 57.2979 87.7804 54.9958 90.9579V90.9635Z" fill="#FFF64D"/>
</g>
<g style="mix-blend-mode:screen" opacity="0.19">
<path d="M49.3742 63.1856C48.9649 63.7426 48.7091 64.4645 48.5216 65.1921C47.919 67.4999 47.9077 70.0805 48.5443 72.3769C48.7375 73.0817 49.1127 73.8662 49.6868 73.8605C50.1643 73.8548 50.5167 73.2864 50.7725 72.7521C51.8639 70.4386 52.5005 67.6931 52.5289 64.9704C52.5516 62.7536 50.6702 61.4405 49.3799 63.1913L49.3742 63.1856Z" fill="#FFF64D"/>
</g>
<path style="mix-blend-mode:multiply" d="M49.323 94.2438C54.3535 89.8954 48.4135 72.0926 43.9856 69.7109C44.4687 71.7288 45.0258 72.7292 45.6283 80.8405C45.8272 83.5348 45.1167 86.9624 44.2186 90.5036C46.1342 91.4245 47.9474 92.692 49.323 94.2438Z" fill="url(#paint12_linear_1_121)"/>
<g style="mix-blend-mode:multiply" opacity="0.45">
<path d="M78.5284 88.5369C77.7497 86.5815 76.8743 84.6716 75.9364 82.8243C77.6587 89.5998 79.4549 105.419 59.5375 107.596C48.2317 108.835 40.9161 106.493 36.2665 103.52C37.392 104.828 38.7448 106.243 40.3364 107.778C39.6884 109.136 39.461 110.762 39.893 111.092C43.8833 111.922 49.0559 112.28 53.1201 112.251C53.2622 112.342 53.4043 112.445 53.5407 112.547C53.5634 112.564 53.5805 112.587 53.6032 112.609C56.65 113.331 59.9695 113.832 63.2777 113.905C63.5676 112.666 64.4771 111.512 65.5514 110.876C66.3586 110.393 67.359 110.194 68.2798 110.455C69.428 110.779 70.2011 111.723 70.508 112.82C70.508 112.837 70.508 112.854 70.5194 112.871C70.9286 113.951 70.7808 115.292 69.3712 116.543C65.7788 119.726 52.2447 121.329 46.481 122.568C39.0176 124.171 34.2372 125.956 37.6932 129.366C37.75 129.281 37.625 129.003 37.9774 128.269C38.7277 126.701 52.6483 125.183 60.0264 123.785C69.6156 121.966 75.26 118.1 74.5381 113.712C74.4074 113.53 74.2937 113.337 74.2141 113.098C74.1175 112.808 73.981 112.53 73.8333 112.263C74.9133 111.836 75.9478 111.325 76.9084 110.7V110.751C76.9084 110.751 77.0448 110.654 77.2779 110.466C78.9036 109.341 80.3246 107.897 81.4728 106.09C83.5987 103.333 85.878 99.3709 86.9012 94.2381C88.4643 86.3883 82.4675 85.6493 78.5341 88.5426L78.5284 88.5369Z" fill="#D15853"/>
</g>
<path d="M56.11 137.176C56.11 141.837 50.386 144.594 42.7635 144.969C39.8077 145.117 35.1922 144.725 33.0037 143.838C29.2749 142.326 28.4621 140.109 28.4621 137.176C28.4621 132.515 34.6522 128.741 42.286 128.741C49.9199 128.741 56.11 132.521 56.11 137.176Z" fill="#FFD09C"/>
<g style="mix-blend-mode:screen" opacity="0.38">
<path d="M41.3876 129.48C40.0064 129.48 38.6763 129.611 37.4201 129.844C33.7936 130.861 30.8094 132.902 29.934 136.256C29.8885 136.432 29.8544 136.608 29.8203 136.79C33.3047 138.12 38.1476 139.012 43.5249 138.222C46.6569 137.762 49.7718 136.278 50.8006 133.863C51.0678 133.232 51.1758 132.544 51.0507 131.89C48.5554 130.401 45.1505 129.486 41.3876 129.486V129.48Z" fill="#FFF64D"/>
</g>
<path d="M41.8261 47.6055C41.5873 47.884 41.3884 48.2023 41.1894 48.5547C40.3311 50.061 39.4273 52.2381 35.8463 54.8016C35.437 55.0972 35.0334 55.3416 34.6412 55.5463C32.5836 56.4046 31.0147 56.6149 29.2015 56.0124C28.8888 55.8873 28.5933 55.7452 28.3261 55.5804C27.5246 55.0972 26.9448 54.4777 26.6663 53.9888C26.5867 53.8524 26.4105 53.8012 26.2627 53.8751C26.115 53.949 26.0638 54.1139 26.1377 54.2503C26.3764 54.6709 26.78 55.1256 27.3029 55.5463C27.6099 55.9953 27.7463 56.4216 27.7577 56.8082C27.7293 57.0924 27.6326 57.3538 27.4848 57.5812C27.3143 57.8484 27.087 58.0701 26.888 58.2122C26.1945 58.7067 25.1771 58.9227 24.1766 58.9227C23.5628 58.9227 22.9545 58.8431 22.4373 58.7067C21.9257 58.5703 21.5051 58.377 21.2777 58.1837C21.1527 58.0814 20.9651 58.0928 20.8571 58.2065C20.7605 58.3088 21.9428 59.1898 23.6026 59.4286C25.2794 59.7128 27.1324 59.4399 28.0874 58.7181C29.3549 57.7574 28.7524 56.632 28.7524 56.632C30.02 57.1378 31.9469 58.0416 35.5621 56.2397C38.2166 54.9153 40.6892 50.5726 40.8199 50.2941C41.6669 48.532 41.8317 48.2819 41.9682 48.0943C41.8772 47.9067 41.934 47.7931 41.8317 47.6112L41.8261 47.6055Z" fill="#76262C"/>
<path d="M41.7289 47.4407C41.9961 47.6396 42.1666 47.8954 42.2235 48.1001C42.286 48.299 42.2576 48.4354 42.2007 48.4525C42.07 48.4809 41.8597 48.1001 41.4334 47.7931C41.0184 47.4748 40.5694 47.3725 40.5694 47.2417C40.5694 47.1849 40.7058 47.1281 40.9275 47.1394C41.1492 47.1508 41.4561 47.2417 41.7233 47.4407H41.7289Z" fill="#76262C"/>
<defs>
<radialGradient id="paint0_radial_1_121" cx="0" cy="0" r="1" gradientUnits="userSpaceOnUse" gradientTransform="translate(7.48653 38.0194) rotate(-4.53) scale(8.44505 8.61228)">
<stop stop-color="#FFD4A7"/>
<stop offset="0.95" stop-color="#FFB96D"/>
</radialGradient>
<linearGradient id="paint1_linear_1_121" x1="1.65709" y1="37.5777" x2="17.5461" y2="35.4187" gradientUnits="userSpaceOnUse">
<stop stop-color="#76262C"/>
<stop offset="0.18" stop-color="#7B292C"/>
<stop offset="0.41" stop-color="#8B352C"/>
<stop offset="0.67" stop-color="#A6472D"/>
<stop offset="0.95" stop-color="#CB612D"/>
<stop offset="1" stop-color="#D3672E"/>
</linearGradient>
<linearGradient id="paint2_linear_1_121" x1="32.7195" y1="17.0243" x2="47.2824" y2="52.5562" gradientUnits="userSpaceOnUse">
<stop stop-color="#FE9128"/>
<stop offset="0.26" stop-color="#FE8B2A"/>
<stop offset="0.59" stop-color="#FE7B30"/>
<stop offset="0.96" stop-color="#FE603A"/>
<stop offset="0.99" stop-color="#FF5E3B"/>
</linearGradient>
<linearGradient id="paint3_linear_1_121" x1="47.8057" y1="43.0369" x2="45.4103" y2="34.4161" gradientUnits="userSpaceOnUse">
<stop stop-color="#FDA80D"/>
<stop offset="0.99" stop-color="#AE1702"/>
</linearGradient>
<linearGradient id="paint4_linear_1_121" x1="21.2112" y1="52.285" x2="19.2964" y2="45.4214" gradientUnits="userSpaceOnUse">
<stop stop-color="#FDA80D"/>
<stop offset="0.99" stop-color="#AE1702"/>
</linearGradient>
<radialGradient id="paint5_radial_1_121" cx="0" cy="0" r="1" gradientUnits="userSpaceOnUse" gradientTransform="translate(29.4966 50.9594) scale(24.6637 24.6637)">
<stop stop-color="#FFEBD6"/>
<stop offset="0.19" stop-color="#FFE2C3"/>
<stop offset="0.41" stop-color="#FFDAB2"/>
<stop offset="0.47" stop-color="#FFD8AE"/>
<stop offset="0.75" stop-color="#FFD2A0"/>
<stop offset="1" stop-color="#FFD09C"/>
</radialGradient>
<radialGradient id="paint6_radial_1_121" cx="0" cy="0" r="1" gradientUnits="userSpaceOnUse" gradientTransform="translate(63.3405 11.3968) rotate(-7.35) scale(11.7748 11.4251)">
<stop stop-color="#FFD4A7"/>
<stop offset="0.95" stop-color="#FFB96D"/>
</radialGradient>
<linearGradient id="paint7_linear_1_121" x1="69.982" y1="7.96119" x2="55.5941" y2="18.1984" gradientUnits="userSpaceOnUse">
<stop stop-color="#76262C"/>
<stop offset="0.18" stop-color="#7B292C"/>
<stop offset="0.41" stop-color="#8B352C"/>
<stop offset="0.67" stop-color="#A6472D"/>
<stop offset="0.95" stop-color="#CB612D"/>
<stop offset="1" stop-color="#D3672E"/>
</linearGradient>
<linearGradient id="paint8_linear_1_121" x1="59.5091" y1="63.8683" x2="61.7202" y2="105.499" gradientUnits="userSpaceOnUse">
<stop stop-color="#FE9128"/>
<stop offset="0.26" stop-color="#FE8B2A"/>
<stop offset="0.59" stop-color="#FE7B30"/>
<stop offset="0.96" stop-color="#FE603A"/>
<stop offset="0.99" stop-color="#FF5E3B"/>
</linearGradient>
<radialGradient id="paint9_radial_1_121" cx="0" cy="0" r="1" gradientUnits="userSpaceOnUse" gradientTransform="translate(57.6807 68.8757) scale(40.6388 37.9295)">
<stop stop-color="#FE9128"/>
<stop offset="0.26" stop-color="#FE8B2A"/>
<stop offset="0.59" stop-color="#FE7B30"/>
<stop offset="0.96" stop-color="#FE603A"/>
<stop offset="0.99" stop-color="#FF5E3B"/>
</radialGradient>
<radialGradient id="paint10_radial_1_121" cx="0" cy="0" r="1" gradientUnits="userSpaceOnUse" gradientTransform="translate(57.681 68.9249) scale(40.5612 37.8571)">
<stop stop-color="#FE9128"/>
<stop offset="0.26" stop-color="#FE8B2A"/>
<stop offset="0.59" stop-color="#FE7B30"/>
<stop offset="0.96" stop-color="#FE603A"/>
<stop offset="0.99" stop-color="#FF5E3B"/>
</radialGradient>
<linearGradient id="paint11_linear_1_121" x1="20.1972" y1="126.979" x2="74.6119" y2="126.979" gradientUnits="userSpaceOnUse">
<stop stop-color="#FE9128"/>
<stop offset="0.13" stop-color="#FE842C"/>
<stop offset="0.49" stop-color="#FE6837"/>
<stop offset="0.69" stop-color="#FF5E3B"/>
<stop offset="0.79" stop-color="#F95938"/>
<stop offset="0.9" stop-color="#E94A30"/>
<stop offset="1" stop-color="#D73B27"/>
</linearGradient>
<linearGradient id="paint12_linear_1_121" x1="52.9495" y1="72.1153" x2="42.3599" y2="89.003" gradientUnits="userSpaceOnUse">
<stop stop-color="white"/>
<stop offset="0.46" stop-color="#F0C1B7"/>
<stop offset="0.82" stop-color="#E69785"/>
<stop offset="1" stop-color="#E38772"/>
</linearGradient>
</defs>
</svg>
