<svg width="146" height="133" viewBox="0 0 146 133" fill="none" xmlns="http://www.w3.org/2000/svg">
<path d="M50.5357 106.43C46.1393 110.986 42.7933 118.277 35.2736 121.734C33.138 122.645 30.8494 123.174 28.5538 123.271C22.9122 123.306 17.1107 120.475 13.9178 115.856C10.6135 110.75 11.4691 103.675 14.2099 97.7278C11.6917 97.4913 9.14573 97.4496 6.54408 97.6582C4.61023 97.8113 3.53896 96.3783 1.53555 96.6357C1.09035 97.1087 -0.35656 103.035 0.0816861 107.133C0.144293 107.752 0.213846 108.378 0.311234 108.99C1.56337 116.851 6.09887 123.974 12.3665 128.363C14.8082 130.228 17.7854 131.521 20.9575 132.259C21.0619 132.287 21.1662 132.308 21.2775 132.335C21.5697 132.398 21.8688 132.461 22.161 132.516C22.2931 132.537 22.4183 132.565 22.5505 132.586C27.1625 133.372 32.0459 133.038 36.1779 131.591C46.4036 128.016 49.2627 122.743 55.6138 117.414C54.7234 114.186 51.433 109.658 50.5426 106.43H50.5357Z" fill="url(#paint0_linear_1_328)"/>
<path d="M10.37 108.831C10.8987 108.518 11.3787 108.108 11.7891 107.642C11.803 106.772 11.8796 105.896 12.0048 105.019C9.83441 106.863 6.59972 107.461 3.96329 106.341C2.27291 105.624 0.985996 104.268 0.17211 102.661C0.00515862 104.177 -0.0643971 105.757 0.0816851 107.134C0.130379 107.607 0.192986 108.08 0.255592 108.553C1.4799 109.339 2.96159 109.729 4.41545 109.889C6.45365 110.104 8.60314 109.889 10.37 108.838V108.831Z" fill="#9C3D39"/>
<path d="M16.7696 118.988C15.6844 118.07 14.7175 117.026 13.9175 115.865C13.5905 115.364 13.3192 114.835 13.0758 114.299C13.4166 115.753 12.8184 117.757 10.7315 120.031C9.31938 121.576 6.16122 121.437 4.51953 120.073C6.58555 123.343 9.26372 126.188 12.3662 128.358C12.3941 128.379 12.4219 128.393 12.4427 128.414C17.7643 127.69 18.1817 120.198 16.7696 118.974V118.988Z" fill="#9C3D39"/>
<path d="M30.5851 124.038C30.4251 123.732 30.2094 123.433 29.959 123.155C29.4929 123.21 29.0199 123.259 28.5538 123.28C27.0791 123.287 25.5974 123.099 24.1505 122.737C24.3453 122.939 24.5331 123.134 24.6792 123.349C25.4792 124.504 25.9313 125.902 25.8618 127.314C25.7505 129.485 24.4218 131.502 22.5575 132.594C24.0114 132.845 25.4861 132.963 26.9539 132.991C27.0026 132.97 27.0513 132.949 27.093 132.928C29.0617 131.864 30.5155 129.902 30.9677 127.711C31.2251 126.487 31.1625 125.158 30.5851 124.045V124.038Z" fill="#9C3D39"/>
<path d="M45.2143 121.708C44.4769 119.809 42.6683 118.32 40.6649 118.111C39.1137 119.517 37.3537 120.776 35.2738 121.736C34.4251 122.097 33.5486 122.383 32.6582 122.619L32.7069 122.821C35.2181 121.311 38.905 122.334 40.2823 124.922C41.0962 126.459 40.9988 128.351 40.2267 129.902C42.0701 129.005 43.6352 128.038 45.0265 127.016C45.7221 125.325 45.8682 123.398 45.2143 121.701V121.708Z" fill="#9C3D39"/>
<path style="mix-blend-mode:multiply" opacity="0.81" d="M36.171 131.591C46.3967 128.016 49.2558 122.743 55.6069 117.414C54.7165 114.187 51.4261 109.658 50.5357 106.43C46.7237 110.382 43.6907 116.392 38.0422 120.176C38.6196 120.552 39.1135 121.053 39.4474 121.665C40.8387 124.252 39.7674 127.619 37.7153 129.72C36.7553 130.701 35.6284 131.466 34.425 132.12C35.0232 131.96 35.6075 131.786 36.1779 131.591H36.171Z" fill="url(#paint1_linear_1_328)"/>
<path d="M42.766 95.371C42.3486 91.872 41.9382 88.3799 41.5208 84.8809C41.173 81.9244 40.5052 78.502 37.8409 77.1663C36.1575 76.3246 34.0636 76.6307 32.422 77.5559C30.7803 78.4811 29.4238 79.8932 28.4012 81.4793C23.6153 88.9294 22.8153 98.3761 22.6553 104.887C22.5927 107.447 22.5719 109.423 23.031 111.099C23.1701 111.885 23.3371 112.497 23.4623 112.643C24.0535 113.374 37.1592 115.969 40.9643 111.099C40.9921 110.466 41.5208 110.278 41.9799 110.529C44.1085 105.785 43.3781 100.526 42.766 95.364V95.371Z" fill="url(#paint2_linear_1_328)"/>
<path d="M80.4752 18.246C78.9657 14.0235 77.4631 9.80799 75.9536 5.58552C75.1745 3.39429 74.1101 0.931762 71.8493 0.194395C69.999 -0.403847 67.9191 0.444822 66.6252 1.83608C65.3313 3.22734 64.6774 5.0638 64.1626 6.87244C63.2583 10.0306 62.674 13.3696 63.3001 16.6113C63.9261 19.8529 65.9574 22.9902 69.0808 24.3188C72.2041 25.6475 76.371 24.6527 77.9083 21.738L80.4752 18.2529V18.246Z" fill="#FFBA68"/>
<path d="M70.5071 13.2237C70.5071 13.2237 65.8673 9.92641 61.9648 10.469C64.803 11.6794 66.9525 14.2602 66.9525 14.2602L63.7526 14.5523C63.7526 14.5523 66.5907 16.2358 67.7455 18.8166C69.0811 21.8147 71.9471 17.5227 71.9471 17.5227L70.5001 13.2237H70.5071Z" fill="url(#paint3_linear_1_328)"/>
<path d="M75.954 5.58552C75.1749 3.39429 74.1106 0.931762 71.8498 0.194394C69.9994 -0.403847 67.9195 0.444822 66.6257 1.83608C65.777 2.74735 65.2066 3.84645 64.7683 5.00815C64.9005 5.12641 65.0257 5.25162 65.1509 5.37683C69.9786 10.1767 70.7994 17.6547 75.2028 22.8232C75.4671 23.1293 75.7593 23.4354 76.0793 23.7136C76.8375 23.2058 77.4705 22.5519 77.9018 21.738L80.4687 18.2529C78.9592 14.0305 77.4566 9.81496 75.9471 5.59249L75.954 5.58552Z" fill="url(#paint4_linear_1_328)"/>
<path d="M57.485 32.1035C58.5702 32.8826 61.6936 32.2218 63.1127 31.7001C65.3595 30.8723 69.2342 28.1176 68.6708 19.7005C67.0778 17.0988 65.4848 16.2988 62.9249 16.2014C60.5319 16.4449 57.0885 18.0518 53.9443 25.6689C53.2139 27.4358 52.8382 29.2862 52.8104 30.9488C52.8104 30.9488 53.7495 29.4114 57.485 32.0966V32.1035Z" fill="#CC402F"/>
<path d="M80.8025 61.8975C80.0095 56.1725 76.7887 50.7466 72.0793 47.1989C71.9263 47.0876 71.7732 46.9693 71.6202 46.8441C72.9766 44.9589 73.8949 42.726 74.347 40.4304C75.0913 36.6392 74.6044 32.4654 72.3993 29.1821C70.1941 25.8987 66.0969 23.7075 62.2153 24.3127L55.2868 24.4448C53.4851 27.0047 52.706 29.3281 52.713 32.0202C52.7269 35.5471 53.346 38.2183 54.0973 41.0773C55.3355 45.7867 57.5615 49.7031 59.558 52.7778C62.1666 56.8055 63.1474 62.5723 61.9161 65.48C61.4988 66.4678 64.1213 69.2503 64.9421 69.9877C65.3595 70.3633 65.9369 70.5024 66.4864 70.6207C68.8585 71.1355 71.2724 71.6433 73.6723 71.4555C76.0722 71.2676 78.4999 70.259 79.8077 68.3043C81.032 66.4747 81.1155 64.0957 80.8094 61.8906L80.8025 61.8975Z" fill="url(#paint5_linear_1_328)"/>
<path d="M64.3857 67.1142C59.8919 70.008 53.9095 67.9141 50.1183 71.5175C41.8264 79.385 36.004 91.1551 40.7691 102.682C44.5255 111.767 44.755 118.73 59.6971 118.605C63.3144 118.577 68.3995 119.265 76.5801 110.821C83.585 103.593 80.5312 89.7778 106.179 64.2551C106.68 63.7543 84.9624 63.1073 84.9624 63.1073C79.8356 62.1404 69.4499 65.7229 64.3857 67.1142Z" fill="url(#paint6_linear_1_328)"/>
<path d="M68.3164 90.6886C72.6432 97.304 75.1127 104.072 75.4188 111.968C75.8014 111.599 76.184 111.224 76.5805 110.813C78.5839 108.74 79.7665 106.132 81.0325 102.855C78.9874 96.6014 73.6449 91.0712 68.3164 90.6816V90.6886Z" fill="#9C3D39"/>
<path d="M59.1198 63.7119C56.3512 64.2336 54.3825 64.2893 52.3652 63.9902C52.6922 64.498 53.1513 64.9988 53.7286 65.2701C53.1165 65.7223 52.5669 65.6806 51.8504 65.4162C51.7531 65.9936 51.7739 66.717 51.9061 67.4822C49.2349 69.3187 46.515 71.6908 43.7533 74.7168C38.8283 80.1218 36.9431 85.5825 37.1031 93.7075C37.2631 101.888 38.8909 109.185 46.6402 115.599C48.6784 117.289 43.6698 100.893 45.7637 102.521C48.2401 104.441 51.4818 105.164 54.6399 105.234C55.2729 105.248 62.1597 101.137 62.7927 101.102C65.763 92.984 65.2552 75.8298 87.5223 67.0579C79.1191 63.4128 69.5403 59.9416 59.1128 63.7189L59.1198 63.7119Z" fill="url(#paint7_radial_1_328)"/>
<path style="mix-blend-mode:multiply" opacity="0.81" d="M45.7706 102.514C48.2471 104.434 51.4887 105.158 54.6469 105.227C55.1547 105.241 59.6763 102.605 61.7771 101.541C61.4084 100.288 61.0745 99.0224 60.8032 97.7424C49.6244 97.7702 42.4873 92.9008 39.5865 80.6925C37.75 84.3933 37.0057 88.5044 37.1101 93.7077C37.2701 101.888 38.8978 109.185 46.6471 115.599C48.6853 117.29 43.6768 100.894 45.7706 102.521V102.514Z" fill="url(#paint8_linear_1_328)"/>
<path d="M72.8723 52.2412C76.7887 56.6932 75.001 45.9805 80.4199 48.0396C86.0893 50.196 91.9187 51.9003 98.0263 51.9351C109.428 52.0116 121.448 49.5352 132.196 44.5823C129.093 40.7703 127.062 35.9704 125.371 31.3306C122.895 24.5204 120.586 17.2789 115.285 12.2008C110.144 7.27572 102.694 5.10536 95.6403 5.481C88.5796 5.85663 81.8807 8.56959 75.9818 12.2495C73.2619 13.9468 70.3333 15.4494 68.316 17.8841C60.4623 27.3794 58.8971 36.5408 60.8032 45.9597C62.0762 53.0968 68.2394 46.9614 72.8723 52.2342V52.2412Z" fill="url(#paint9_radial_1_328)"/>
<path d="M126.353 33.9256C126.012 33.063 125.678 32.2004 125.365 31.3378C125.1 30.6074 124.836 29.877 124.572 29.1396C123.862 28.5414 123.89 27.0806 123.89 27.0806C123.814 27.4145 120.328 29.1814 118.109 35.1499C119.744 34.3847 124.064 33.3273 126.353 33.9256Z" fill="#9C3D39"/>
<path d="M63.7943 28.11L61.777 29.0631C60.3509 33.0768 59.8779 37.0767 60.1492 41.1044C62.0831 42.6696 66.1038 41.7235 66.1038 41.7235L63.7943 28.1031V28.11Z" fill="#9C3D39"/>
<path d="M128.836 39.3997C124.85 40.0676 115.904 42.1684 108.69 48.2482C109.922 49.1803 111.195 49.9872 112.495 50.6968C119.243 49.5072 125.935 47.469 132.196 44.5891C130.909 43.0031 129.81 41.2431 128.843 39.4067L128.836 39.3997Z" fill="#9C3D39"/>
<path d="M89.6093 40.2492C91.1883 34.8442 94.7708 30.1 99.5568 27.0531C101.24 25.9819 103.104 25.1054 105.115 24.7854C107.132 24.4654 109.323 24.7506 111.097 25.8427C114.193 27.7487 115.389 31.7278 114.902 35.1642C114.408 38.6006 109.483 47.1499 107.668 50.0854L90.0197 45.063L89.6093 40.2492Z" fill="#FFB980"/>
<path d="M69.9155 19.9985C68.9624 19.7828 68.0442 19.8733 67.1747 20.1724C62.027 26.6974 61.7488 32.3668 62.5487 39.0587C64.7608 39.2605 71.6893 41.1804 73.4771 40.7909C77.9152 39.8309 75.3553 27.6713 74.3327 24.7775C73.5953 22.6767 72.1693 20.5133 69.9085 19.9985H69.9155Z" fill="#FFB980"/>
<path d="M131.91 44.2195C131.91 44.2195 130.811 44.3169 130.783 44.3238C123.159 46.7516 111.521 46.8837 98.1372 42.863C84.7533 38.8353 68.3156 37.2701 61.9993 37.611C60.0167 37.7223 58.2777 37.3814 56.7264 36.7275C57.0116 37.9797 57.3386 39.197 57.6934 40.4074C57.0603 40.0248 56.4621 39.6631 56.1143 38.9396C56.5525 41.1935 57.2481 43.6838 58.5629 45.9516C63.7036 54.8069 65.5818 55.9965 66.8269 57.4225C67.5921 58.306 68.3921 59.1407 69.2338 59.9407C70.0338 60.532 70.8546 61.0885 71.6824 61.6241C81.8804 66.9944 94.04 69.1091 105.302 65.8396C105.859 65.6796 106.367 65.6727 106.826 65.777C110.248 64.9492 113.622 63.9197 116.912 62.6536C120.523 61.2693 123.82 59.3285 127.284 57.6938C127.507 57.4921 127.743 57.2973 127.966 57.0886C130.985 54.2783 133.496 51.2384 135.597 47.9759C134.206 46.8768 132.988 45.6107 131.896 44.2195H131.91Z" fill="url(#paint10_radial_1_328)"/>
<path style="mix-blend-mode:multiply" opacity="0.37" d="M84.0715 61.8537C67.8494 54.5704 60.8722 43.4334 59.5714 37.5066C58.5558 37.3606 57.6167 37.0962 56.7333 36.7275C57.0185 37.9797 57.3454 39.197 57.7002 40.4074C57.0671 40.0248 56.4689 39.6631 56.1211 38.9396C56.7054 41.7708 57.3663 44.3516 59.3766 47.7254C61.38 51.0992 64.26 55.0226 66.0825 56.7617C67.2442 57.8747 68.0929 58.8416 69.2407 59.9407C70.0406 60.532 70.8615 61.0885 71.6893 61.6241C81.8872 66.9944 94.0468 69.1091 105.309 65.8396C105.866 65.6796 106.373 65.6727 106.832 65.777C110.255 64.9492 113.629 63.9197 116.919 62.6536C120.529 61.2693 123.827 59.3285 127.291 57.6938C127.514 57.4921 127.75 57.2973 127.973 57.0886C130.929 54.3339 133.399 51.3566 135.472 48.1776C122.776 47.6628 106.109 51.9827 84.0645 61.8606L84.0715 61.8537Z" fill="url(#paint11_linear_1_328)"/>
<path d="M143.131 12.7993C142.532 12.4584 141.948 12.1176 141.364 11.8184C137.906 10.0307 134.741 8.50028 130.721 9.09156C125.656 9.83589 120.808 15.1087 118.874 20.5277C120.057 22.3711 121.121 24.2841 122.018 26.3223C122.839 28.2005 123.465 30.1274 123.994 32.0891C128.703 32.4786 133.447 32.103 137.955 30.9482C140.091 30.3987 142.282 29.6126 143.618 27.9222C144.8 26.4197 145.134 24.4232 145.218 22.4894C145.357 19.2199 144.71 15.7139 143.124 12.7993H143.131Z" fill="url(#paint12_linear_1_328)"/>
<path d="M133.58 34.7953C130.61 33.2371 127.354 32.4371 124.015 32.145C123.716 30.872 122.596 27.2825 121.323 24.8617C121.768 24.2983 122.346 22.4966 122.499 22.3644C125.664 20.1175 129.559 22.3366 130.86 22.8792C129.309 23.0879 127.368 24.2635 125.977 25.1887C130.255 25.8426 134.199 27.046 137.496 29.5503C134.06 29.1885 130.596 29.3068 127.285 29.8981C130.902 31.0459 132.787 32.2145 133.573 34.7884L133.58 34.7953Z" fill="url(#paint13_linear_1_328)"/>
<path d="M102.784 34.1823C104.224 34.4466 105.414 35.2258 106.228 36.0883C107.063 36.9509 107.556 37.9387 107.814 38.7665C108.308 40.4638 108.029 41.5212 107.779 41.5351C107.48 41.5699 107.216 40.5891 106.492 39.33C106.123 38.7039 105.63 38.0291 104.934 37.4379C104.245 36.8466 103.383 36.3596 102.416 36.1857C101.449 36.0049 100.454 36.137 99.6054 36.4292C98.7637 36.7144 98.0263 37.1874 97.4211 37.6187C96.2107 38.5161 95.3899 39.163 95.1742 38.9613C94.9794 38.7804 95.3551 37.8483 96.4472 36.5544C97.0107 35.9214 97.7898 35.1979 98.8958 34.6832C99.981 34.1823 101.365 33.904 102.791 34.1684L102.784 34.1823Z" fill="#602229"/>
<path d="M70.5143 31.1222C71.4952 31.1778 72.316 31.623 72.8934 32.1656C73.4846 32.7082 73.8464 33.3691 74.0412 33.9464C74.4238 35.1221 74.2777 35.9151 74.1107 35.9429C73.9229 35.9916 73.7212 35.3099 73.1994 34.4542C72.9351 34.0299 72.5803 33.5778 72.0864 33.216C71.5995 32.8473 70.9874 32.5691 70.3195 32.5343C69.6448 32.4926 68.9631 32.6943 68.3857 32.9865C67.8153 33.2786 67.3214 33.696 66.9179 34.0716C66.1179 34.8507 65.5823 35.4003 65.4362 35.282C65.311 35.1777 65.5475 34.4682 66.264 33.4317C66.6327 32.9239 67.1475 32.3326 67.8848 31.8595C68.6083 31.4004 69.5335 31.0665 70.5074 31.1291L70.5143 31.1222Z" fill="#602229"/>
<path d="M95.6403 5.48054C93.9082 5.57097 92.2039 5.80748 90.5205 6.1553C87.4249 10.9969 85.818 16.7915 86.1241 22.5791C86.138 22.8782 86.5415 22.9478 86.6528 22.6695C88.4197 18.1966 90.5761 13.835 93.7691 10.2526C95.4247 8.39522 97.4072 6.76745 99.5984 5.53619C98.2768 5.43184 96.9481 5.41097 95.6403 5.48054Z" fill="#9C3D39"/>
<path d="M107.646 7.39404C103.153 10.6496 99.4796 14.9973 97.1075 19.9849C97.031 20.1519 97.2536 20.2841 97.3579 20.1449C100.982 15.3242 106.081 11.6304 111.806 9.50875C110.491 8.674 109.093 7.97142 107.639 7.39404H107.646Z" fill="#9C3D39"/>
<path d="M81.7486 15.8101C81.992 16.1232 82.4929 15.9284 82.472 15.5388C82.326 13.1807 82.5416 10.8155 83.0842 8.52689C81.7903 9.07644 80.5243 9.68164 79.286 10.3425C79.6547 12.3111 80.4964 14.2102 81.7486 15.8101Z" fill="#9C3D39"/>
<path d="M95.1328 73.4028C95.6545 76.9783 97.2684 79.9557 99.8353 80.7139C105.588 82.4112 117.887 74.2445 121.636 70.6273C125.386 67.01 128.822 61.3823 128.593 56.0121L120.69 48.1167L102.59 67.2952C102.59 67.2952 100.913 68.5752 96.7814 68.6517C94.8476 68.6865 95.1398 73.4098 95.1398 73.4098L95.1328 73.4028Z" fill="url(#paint14_linear_1_328)"/>
<path d="M72.3085 106.932C72.872 105.27 75.098 100.887 73.8111 97.0751C72.8929 94.3483 70.0686 91.0301 67.1609 90.8771C58.9038 90.4388 55.7317 102.8 46.7998 106.466C46.7998 106.466 50.6188 115.774 60.5733 115.113C70.5277 114.452 72.3085 106.939 72.3085 106.939V106.932Z" fill="#FF5E3B"/>
<path d="M56.3299 102.577C58.1386 100.859 59.7316 98.8976 61.6376 97.2907C63.5506 95.6768 65.8809 94.3968 68.3852 94.3829C70.8825 94.369 73.4981 95.9203 74.0963 98.348C74.0963 98.3411 74.0963 98.3271 74.1033 98.3202C74.0407 97.9028 73.9502 97.4854 73.8111 97.082C72.8929 94.3551 69.5469 90.4109 66.6322 90.3274C56.003 90.0352 51.7388 102.285 46.7998 106.473L49.311 106.522L49.9232 106.285C52.3788 105.833 54.5143 104.31 56.323 102.584L56.3299 102.577Z" fill="url(#paint15_linear_1_328)"/>
<path d="M110.067 54.0905C108.662 59.0782 106.777 64.4484 102.52 67.4327C102.13 67.704 98.2971 70.5491 98.0606 70.9595C97.6432 71.683 97.8797 73.6516 98.7284 73.7768C107.535 75.0568 111.118 73.6099 114.505 72.0238C120.126 69.4013 124.334 64.2954 124.808 60.5668C125.614 54.1462 116.655 51.7949 113.636 52.7201L110.067 54.0905Z" fill="url(#paint16_linear_1_328)"/>
<path d="M109.678 57.5564C109.588 57.3755 108.871 57.0416 108.711 56.9234C108.342 58.1894 108.036 60.3181 105.129 63.7614C100.531 69.2012 99.6541 69.5908 99.4315 69.883C99.6471 70.0708 100.823 69.2917 100.983 69.2012C103.063 67.9282 104.725 66.05 106.207 64.151C109.296 60.1859 109.755 57.7164 109.678 57.5564Z" fill="#CC402F"/>
<path d="M128.487 58.3002C129.26 54.3908 128.599 51.3091 124.557 48.0049C121.385 45.4102 117.128 44.2485 113.093 44.6798C110.478 44.958 107.744 46.0084 106.478 48.2553C105.149 50.6135 105.504 53.4447 107.159 55.6846C108.453 56.9854 112.885 60.0114 114.686 61.1662C116.669 62.1818 118.303 62.947 120.446 62.4809C121.441 62.2653 122.721 61.4096 123.43 60.3801C124.182 59.2949 124.446 57.8411 123.451 56.3802C123.451 56.3802 124.342 55.8377 126.234 55.942C128.126 56.0464 128.474 58.3071 128.474 58.3071L128.487 58.3002Z" fill="url(#paint17_linear_1_328)"/>
<path d="M107.389 53.0472C107.271 54.5845 107.855 55.8158 107.647 55.9479C107.549 56.0175 107.243 55.781 106.958 55.2523C106.68 54.7306 106.415 53.9167 106.492 52.9776C106.555 52.0316 107.021 51.2246 107.48 50.8212C107.946 50.4177 108.328 50.3342 108.384 50.4246C108.461 50.5359 108.231 50.8072 107.967 51.2316C107.702 51.6629 107.445 52.2889 107.389 53.0472Z" fill="#9C3D39"/>
<path d="M111.041 55.44C110.763 56.1704 110.679 56.8939 110.651 57.4295C110.624 57.9721 110.651 58.2921 110.519 58.3964C110.387 58.5077 110.004 58.1877 109.81 57.5547C109.601 56.9286 109.552 55.9687 109.914 55.0087C110.283 54.0487 110.957 53.367 111.5 53.0331C112.043 52.6853 112.453 52.6296 112.537 52.7549C112.745 53.0609 111.591 53.9653 111.041 55.433V55.44Z" fill="#9C3D39"/>
<path d="M115.354 58.9328C114.492 59.6145 113.915 60.3519 113.595 60.2336C113.448 60.171 113.407 59.858 113.553 59.4267C113.699 58.9954 114.054 58.4458 114.589 58.0076C115.132 57.5693 115.737 57.3259 116.196 57.2772C116.662 57.2215 116.954 57.3398 116.982 57.4928C117.024 57.8267 116.189 58.2232 115.354 58.9328Z" fill="#9C3D39"/>
<path d="M122.026 26.3219C122.054 26.3776 122.075 26.4402 122.095 26.5028C123.633 23.8803 125.421 21.4316 127.64 19.3517C131.932 15.3101 138.151 12.8615 143.813 14.211C142.77 11.7207 141.121 9.53637 138.777 8.09642C134.074 5.20956 127.041 5.55042 123.654 9.58507C120.155 13.7519 118.262 16.4788 117.936 19.0943C119.501 21.369 120.892 23.755 122.019 26.3289L122.026 26.3219Z" fill="url(#paint18_linear_1_328)"/>
<path d="M80.8654 33.2991C83.2653 32.9861 85.6444 33.466 87.933 34.1269C90.2216 34.7877 92.3433 36.179 93.5467 38.245C93.9989 39.0172 93.7415 42.1475 92.8511 42.7666C91.1468 43.9492 91.0772 41.8623 90.1312 41.6188C85.0113 40.2902 80.7054 37.9668 75.363 38.1059C74.4169 38.1337 71.8153 38.6485 70.9527 38.6346C70.6049 37.6259 70.3892 37.8972 71.057 37.3824C73.0117 35.8799 78.5072 33.6121 80.8584 33.2991H80.8654Z" fill="#FE9E2E"/>
<path opacity="0.3" d="M88.0448 34.7734C90.1108 35.4552 91.989 36.7421 93.1298 38.5855C91.6064 40.4428 89.8256 42.1262 89.8256 42.1262L80.1494 37.6116C80.1494 37.6116 84.1493 35.9282 88.0448 34.7734Z" fill="white"/>
<path d="M71.2171 37.1944C73.0605 36.2622 75.69 35.6848 77.6934 35.7266C88.0722 35.97 91.6895 39.5665 92.1138 40.2482C92.5382 40.9299 92.1486 42.6063 91.4252 42.9959C88.9626 41.7646 84.441 40.116 82.1663 40.4012C81.0046 40.5473 80.3507 41.7229 80.3994 42.7455C79.0847 42.4394 77.1717 42.0429 77.1717 42.0429C77.1717 42.0429 76.5248 40.7629 76.5526 39.5595C74.3544 39.3369 72.4275 39.3438 70.8415 39.6708C69.7911 39.3786 70.4241 37.6535 71.2102 37.1944H71.2171Z" fill="#76262C"/>
<path opacity="0.16" d="M71.2168 37.1944C72.4898 36.5544 74.1315 36.0814 75.6897 35.8657C75.3975 36.8883 75.3836 38.1613 75.648 39.4899C73.8324 39.3578 72.2115 39.3926 70.8481 39.6708C69.7977 39.3787 70.4307 37.6535 71.2168 37.1944Z" fill="white"/>
<path d="M70.104 39.2609C70.1945 39.5601 70.431 39.8174 70.7857 39.9079H70.904C72.3996 39.6088 74.2291 39.5879 76.316 39.7896C76.3369 40.2974 76.4482 40.7913 76.5734 41.1948C76.7473 41.7513 76.949 42.1408 76.949 42.1548C76.9838 42.2243 77.0464 42.273 77.1229 42.2869C77.1229 42.2869 77.6029 42.3843 78.2429 42.5234C78.8829 42.6626 79.6898 42.8365 80.3437 42.9895C80.4202 43.0104 80.5037 42.9895 80.5663 42.9339C80.6289 42.8852 80.6637 42.8087 80.6567 42.7252C80.6359 42.3148 80.7472 41.8695 80.9698 41.4939C81.1924 41.1252 81.5193 40.8331 81.9297 40.7009C82.0202 40.6731 82.1106 40.6522 82.208 40.6383C83.2653 40.4992 84.9557 40.8331 86.66 41.3617C88.3643 41.8904 90.1034 42.6069 91.3207 43.2121C91.3973 43.2469 91.4807 43.2469 91.5503 43.2121C91.9816 42.9756 92.2459 42.4817 92.4059 41.96C92.559 41.4313 92.6076 40.8609 92.4616 40.3948C92.4268 40.2974 92.385 40.2 92.3363 40.1096C92.2042 39.894 91.8842 39.5392 91.3068 39.087C90.7294 38.6349 89.8947 38.1062 88.7469 37.5914C86.4583 36.5619 82.9245 35.595 77.7073 35.4698C76.2812 35.435 74.5769 35.7132 73.0257 36.1932C72.3439 36.4089 71.6901 36.6662 71.1057 36.9584H71.0918C70.737 37.181 70.4518 37.5497 70.264 37.9671C70.0762 38.3844 69.9788 38.8436 70.104 39.254V39.2609ZM70.584 39.1149C70.5075 38.8923 70.5632 38.5236 70.7162 38.1897C70.8692 37.8488 71.1196 37.5497 71.3353 37.4175C71.8848 37.1393 72.5109 36.8958 73.1648 36.6871C74.6604 36.2141 76.3299 35.9497 77.6794 35.9845C85.4218 36.1654 89.3451 38.2245 90.9799 39.4975C91.5224 39.9218 91.8146 40.2627 91.8911 40.3948C91.919 40.4435 91.9468 40.4992 91.9677 40.5618C92.0651 40.8678 92.0442 41.3826 91.9051 41.8278C91.7938 42.2174 91.5851 42.5513 91.3903 42.7113C90.1521 42.1061 88.4686 41.4174 86.7922 40.8957C85.0531 40.36 83.3418 40.0053 82.1315 40.1583C82.0062 40.1722 81.881 40.2 81.7628 40.2348C81.2132 40.4087 80.7958 40.7913 80.5245 41.2504C80.3089 41.6122 80.1837 42.0226 80.1489 42.433C79.0707 42.1895 77.742 41.9113 77.3455 41.8209C77.3247 41.7791 77.3107 41.7443 77.2829 41.6887C77.2134 41.5356 77.1299 41.3131 77.0464 41.0487C76.9073 40.6105 76.789 40.0748 76.8029 39.567C76.8029 39.4349 76.7055 39.3236 76.5734 39.3096C74.3961 39.087 72.4761 39.094 70.8692 39.414C70.6953 39.3514 70.6257 39.2609 70.5701 39.1149H70.584Z" fill="#602229"/>
<path d="M86.4999 37.501C85.1365 37.0489 83.947 37.1115 83.9261 37.341C83.9052 37.5706 84.9626 37.8836 86.2356 38.308C87.5155 38.7114 88.5172 39.1357 88.6494 38.934C88.7816 38.7462 87.8772 37.9323 86.4999 37.501Z" fill="#FEFEFE"/>
<path d="M94.2004 45.5988C93.7552 45.4597 93.3169 45.6545 93.303 45.8075C93.296 45.891 93.4074 46.0997 93.5604 46.1136C93.623 46.1205 93.6856 46.1345 93.7413 46.1484C94.096 46.2318 94.583 46.3501 94.8264 46.6214C94.6108 46.7605 94.2421 46.9831 94.0265 47.1222C90.7987 49.063 86.8684 49.8074 84.0929 48.9796C81.1295 48.0892 79.5226 45.3067 79.5226 45.3067C79.4669 45.1884 79.3417 45.1119 79.2096 45.1328C79.0774 45.1536 78.98 45.258 78.9661 45.3901C78.3192 47.2057 75.9471 48.1657 73.5958 46.7675C72.775 46.2805 72.1907 45.7032 71.7733 45.1675C71.3768 44.5762 71.0498 43.9224 70.7924 43.2615C70.7368 43.1085 70.5629 43.0389 70.4168 43.0946C70.3751 43.6163 71.1542 45.418 71.8498 46.2458C72.1628 46.6214 72.5246 46.9623 72.9072 47.2614C72.9419 47.2892 72.9767 47.317 73.0115 47.3518C73.721 47.9501 74.5836 48.4718 75.5436 48.6248C77.5818 48.9518 79.2026 47.9083 79.3556 46.7744C79.6548 47.2614 81.3451 49.6126 83.9746 50.2456C89.6579 51.7412 95.1325 47.0944 95.3134 47.004C95.3134 47.004 95.6542 47.3727 95.856 47.8527C95.9186 47.9987 96.0577 48.0961 96.2177 48.0544C96.3707 48.0126 96.1412 46.211 94.2073 45.6127L94.2004 45.5988Z" fill="#602229"/>
<path d="M76.9209 51.9913C76.9209 51.9913 79.1261 55.0242 83.9677 57.1737C82.3121 57.5911 80.0652 56.5268 79.0635 55.7338C78.2496 55.0868 77.1783 53.5704 76.9209 51.9913Z" fill="#9F4940"/>
<g style="mix-blend-mode:screen" opacity="0.21">
<path d="M95.6403 5.48084C89.5536 5.80083 83.7381 7.86684 78.4652 10.7885C77.6931 11.5467 77.0462 12.4163 76.6079 13.418C75.2653 16.4927 76.2045 20.1864 78.187 22.9481C78.6948 23.6576 79.3417 24.3602 80.2043 24.5063C81.3452 24.6941 82.3538 23.8455 83.1955 23.0803C87.4249 19.2126 92.1205 15.8318 97.1499 13.0215C100.997 10.872 106.27 8.7016 110.868 8.93115C106.304 6.3295 100.871 5.20954 95.6403 5.48779V5.48084Z" fill="#FFF64D"/>
</g>
<path d="M113.42 24.3328C106.45 19.6095 102.186 20.806 100.85 20.7573C102.005 19.0321 105.393 17.5156 107.459 17.1748C110.888 19.3382 112.426 22.399 113.42 24.3328Z" fill="#9C3D39"/>
<path d="M73.123 15.8737C74.1943 16.2563 75.7734 18.7397 75.9403 20.1866C74.5073 19.5536 70.57 19.4701 67.0293 20.764C68.4971 18.8441 72.5178 15.7415 73.123 15.8737Z" fill="#9C3D39"/>
<path d="M62.9183 16.208C62.2505 16.2776 61.4922 16.4584 60.6853 16.848C53.9655 21.3348 52.7551 28.9589 54.6055 31.7484C56.4628 34.5378 61.687 32.2214 63.1061 31.7066C65.0747 30.9832 68.4763 28.6737 68.9146 22.4756C68.9772 21.5922 68.9146 20.5974 68.8381 19.5401C67.2451 16.9384 65.4782 16.3054 62.9183 16.208Z" fill="url(#paint19_linear_1_328)"/>
<path d="M88.7953 70.3346C90.6248 74.4736 90.6804 78.9882 90.27 83.4611C91.4804 81.5829 92.8508 79.6073 94.4299 77.5274C93.3934 74.7448 90.8613 71.9415 88.7883 70.3346H88.7953Z" fill="#9C3D39"/>
<path d="M84.0864 95.0839C84.9489 93.0805 85.9646 90.9101 87.2445 88.5589C87.1332 87.8493 86.8619 87.0911 86.3541 86.2494C83.989 82.2982 79.9195 79.3209 75.4258 78.3262C79.4396 83.2304 82.396 88.9832 84.0864 95.0908V95.0839Z" fill="#9C3D39"/>
<path d="M63.2515 98.2515C64.3853 102.397 65.5262 106.683 64.921 110.933C64.5036 113.854 63.0358 116.776 60.7959 118.606C62.9663 118.613 65.6305 118.55 69.0669 116.741C69.6582 115.287 69.8669 113.632 69.8252 112.053C69.693 106.808 67.2444 101.66 63.2515 98.2515Z" fill="#9C3D39"/>
<path d="M115.507 75.2878C114.13 75.2461 112.78 75.0374 111.89 74.8217C108.968 74.1261 106.255 72.4774 104.419 70.0845C103.814 72.1366 104.968 74.2652 106.213 75.9973C107.006 77.1034 107.897 78.2025 109.073 78.8703C111.278 77.8616 113.504 76.5817 115.507 75.2878Z" fill="#9C3D39"/>
<path d="M119.911 66.4668C117.087 66.7173 114.256 66.1051 111.557 65.2425C112.649 67.3712 114.485 69.1033 116.663 70.0702C117.713 70.5363 119.417 71.0163 121.052 71.1623C121.261 70.9745 121.462 70.7937 121.636 70.6267C123.709 68.6233 125.685 66.0077 127 63.1626C125.226 65.1451 122.568 66.2303 119.911 66.4668Z" fill="#9C3D39"/>
<g style="mix-blend-mode:screen" opacity="0.21">
<path d="M117.33 53.5555C122.61 55.6285 128.495 53.6112 125.629 48.9644C125.302 48.6513 124.947 48.3313 124.558 48.0113C121.386 45.4166 117.128 44.2549 113.094 44.6862C111.278 44.881 109.414 45.4445 108.016 46.5157C107.236 47.2948 110.916 51.0443 117.33 53.5555Z" fill="#FFF64D"/>
</g>
<g style="mix-blend-mode:screen" opacity="0.21">
<path d="M98.8193 33.6693C99.988 33.4954 101.115 33.5233 102.2 33.6972C104.426 31.3042 107.139 27.4852 105.476 27.3252C103.536 27.1374 100.878 27.36 97.9776 30.859C97.0455 31.9859 96.2803 33.3354 96.009 34.525C96.8716 34.1006 97.8315 33.8154 98.8193 33.6693Z" fill="#FFF64D"/>
</g>
<g style="mix-blend-mode:screen" opacity="0.21">
<path d="M70.4304 26.2386C70.2774 27.0734 70.2565 27.9847 70.6947 28.7151C71.133 29.4455 72.1486 29.8629 72.8721 29.4177C73.6303 28.9446 73.679 27.8664 73.5329 26.983C73.2964 25.5917 72.7816 24.2491 72.0304 23.0596C71.8843 22.83 71.6825 22.5796 71.4113 22.5866C71.1817 22.5935 71.0008 22.7953 70.9382 23.0179C70.66 23.9848 70.6252 25.223 70.4374 26.2386H70.4304Z" fill="#FFF64D"/>
</g>
<path d="M55.7038 96.2817C55.3073 95.4608 48.7197 91.7323 45.0955 92.2888C43.0016 92.6088 41.4782 93.36 40.4139 94.6748C39.3009 96.4834 41.0608 108.518 48.1493 117.874C48.838 118.785 50.2223 119.411 51.7109 119.077C53.0535 118.771 54.3195 116.921 54.1178 116.302C52.8517 107.843 57.3664 99.7042 55.7038 96.2886V96.2817Z" fill="url(#paint20_linear_1_328)"/>
<g style="mix-blend-mode:screen" opacity="0.23">
<path d="M48.8384 97.5331C51.0922 100.267 54.2226 100.114 56.0729 98.187C56.0729 97.4497 55.9616 96.8027 55.7043 96.281C55.3634 95.5854 50.6123 92.8237 46.9532 92.3229C47.1063 94.208 47.6071 96.0375 48.8384 97.5331Z" fill="#FFF64D"/>
</g>
<path d="M40.4215 97.3591C40.3797 101.602 41.2215 109.178 46.863 117.185C48.1221 118.972 50.0351 119.244 51.9202 118.583C49.0751 106.59 54.821 104.155 52.0315 100.336C49.7081 97.1574 41.3606 94.4027 40.5954 95.7661L40.4284 97.3591H40.4215Z" fill="#FFC281"/>
<path d="M52.2678 118.5C51.28 114.347 51.3426 111.376 51.7043 109.095C52.0939 106.66 52.8452 105.011 53.0956 103.481C53.2834 102.347 53.1443 101.248 52.3165 100.121C51.4052 98.8828 49.7427 97.7837 47.941 96.9003C46.1393 96.0238 44.1985 95.3838 42.7307 95.1473C42.1673 95.0569 41.6734 95.0221 41.2629 95.0708C41.0543 95.0917 40.8664 95.1404 40.6995 95.2169C40.5325 95.2934 40.3725 95.4186 40.2751 95.5925L40.2334 95.7316L40.0665 97.3246V97.3594C40.0178 101.651 40.8803 109.31 46.5706 117.394C47.3149 118.458 48.3166 119.042 49.3879 119.216C50.2505 119.355 51.1548 119.237 52.0382 118.924C52.2121 118.861 52.3095 118.68 52.2678 118.507V118.5ZM47.148 116.976C41.569 109.053 40.7343 101.575 40.776 97.3803L40.929 95.9055C40.929 95.9055 40.9638 95.8777 40.9986 95.8638C41.1099 95.8151 41.3186 95.7664 41.5968 95.7664C41.8751 95.7664 42.2229 95.7942 42.6125 95.8568C43.9829 96.0725 45.875 96.6986 47.621 97.5472C49.367 98.3959 50.96 99.4811 51.7322 100.545C52.4487 101.54 52.5461 102.347 52.3861 103.37C52.1704 104.747 51.3983 106.458 50.9948 108.983C50.6261 111.286 50.5705 114.277 51.4956 118.333C50.8 118.534 50.1253 118.604 49.4922 118.507C48.5949 118.36 47.7949 117.894 47.141 116.976H47.148Z" fill="#FF5E3B"/>
<path d="M44.9081 94.6955C44.2403 95.9337 44.3098 96.7545 44.1846 97.1163C43.969 96.5597 43.6212 94.5146 44.0455 94.0833C45.1724 92.9564 46.5219 93.0885 46.9045 93.0538C46.4106 93.3042 45.4228 93.819 44.9081 94.6955Z" fill="#9C3D39"/>
<path d="M48.4554 95.6275C48.984 94.9388 50.8066 94.4519 51.1683 94.4797C51.0292 94.7858 50.1179 95.2727 49.2205 96.4692C48.2954 97.6448 48.1354 98.1874 47.9197 98.5283C47.8502 98.2013 47.9336 96.3162 48.4554 95.6275Z" fill="#9C3D39"/>
<path d="M42.2719 101.305C42.0632 101.117 41.152 98.3691 41.3815 97.4231C41.472 97.0405 43.7258 97.3118 43.6145 98.4109C43.5588 98.9465 43.2875 102.209 42.2719 101.305Z" fill="#FF836F"/>
<path d="M44.8872 101.714C44.755 101.213 44.4489 99.2095 44.7202 98.9173C45.8402 97.686 46.4593 98.8616 46.5845 100.009C46.5775 100.489 46.2854 101.345 46.1463 101.804C45.7985 102.924 45.2141 102.924 44.8872 101.714Z" fill="#FF836F"/>
<path d="M47.7737 100.957C47.3841 101.416 47.5024 102.48 47.7111 103.523C47.7459 103.704 48.0519 103.809 48.2119 103.677C48.3511 103.558 49.1371 102.598 49.2136 102.153C49.3249 101.548 48.2119 100.435 47.7667 100.957H47.7737Z" fill="#FF836F"/>
<path d="M37.3879 105.61C36.7201 105.221 35.6071 104.824 34.3063 104.421C33.5619 104.288 32.8593 104.191 32.2541 104.115C27.7395 103.829 23.3779 105.005 22.8145 109.269C22.9049 110.772 23.2597 112.393 23.4614 112.65C24.0527 113.38 25.3744 113.867 26.0074 114.18C26.6474 114.5 29.3742 115.335 31.162 115.704C33.9932 116.281 36.5183 116.852 40.3095 115.613C40.5669 115.307 41.1512 112.97 41.1512 112.775C41.1373 109.937 39.4609 106.828 37.3809 105.61H37.3879Z" fill="#D24A38"/>
<path d="M33.8614 113.812C33.7084 114.34 33.3884 115.585 33.1797 116.378C33.284 116.399 33.3884 116.413 33.4997 116.434C33.9101 115.871 34.4805 115.029 34.8492 114.25C35.2666 112.274 33.9518 109.916 33.9518 109.916C33.9518 109.916 33.931 112.935 33.8614 113.812Z" fill="#9C3D39"/>
<path d="M29.0608 110.236C29.0608 110.236 29.5199 111.927 29.5617 112.601C29.353 113.471 28.7408 115.043 28.7408 115.043L28.5947 112.56L29.0608 110.236Z" fill="#9C3D39"/>
<path d="M38.5635 113.707C38.4452 114.208 37.7705 115.717 37.374 116.587C37.52 116.573 37.6661 116.545 37.8052 116.524C38.4383 115.877 39.3009 114.848 39.6348 113.777C39.5652 112.427 38.2435 109.971 38.2435 109.971C38.2435 109.971 38.5635 112.636 38.5635 113.707Z" fill="#9C3D39"/>
<path d="M30.0281 115.09C26.703 114.207 24.31 113.059 23.2736 112.162C23.3431 112.398 23.4127 112.579 23.4683 112.649C24.0596 113.379 25.4578 114.172 26.0978 114.485C26.7378 114.805 29.4647 115.64 31.2524 116.008C34.0906 116.586 37.5827 117.281 40.3165 115.605C40.386 115.528 40.4695 115.313 40.5669 115.041C38.5844 116.231 34.0071 116.141 30.0351 115.09H30.0281Z" fill="#9C3D39"/>
<path d="M29.6321 91.3291C29.7016 87.3014 26.8913 83.5171 23.1836 81.952C19.4759 80.3799 15.0865 80.8668 11.5179 82.745C7.95627 84.6232 5.17375 87.7744 3.22599 91.2943C2.1895 93.1725 1.47301 95.6002 1.04868 97.9236C1.04868 97.9236 1.04868 97.9375 1.04868 97.9445C2.85731 101.603 8.81885 104.442 12.8952 101.151C12.9578 100.964 13.0274 100.776 13.097 100.581C13.883 99.454 15.2326 99.1062 16.2343 99.0297C18.2446 98.8767 20.2341 99.5792 22.2445 99.461C26.2652 99.2175 29.5625 95.3568 29.639 91.3291H29.6321Z" fill="#FFD09C"/>
<path d="M37.3883 105.611C36.7205 105.221 35.6075 104.825 34.3066 104.421C33.5623 104.289 32.8597 104.192 32.2545 104.115C29.9729 103.969 27.7399 104.206 26.0078 105.013C26.7173 106.223 29.8059 106.947 33.6945 107.204C36.5814 107.399 38.5987 107.913 39.9482 108.407C39.2734 107.204 38.383 106.188 37.3883 105.611Z" fill="url(#paint21_linear_1_328)"/>
<path d="M52.8938 97.6931C52.8938 97.6931 51.6834 99.9957 50.9461 100.538C51.7252 100.462 53.1582 99.46 52.8938 97.6931Z" fill="#9C3D39"/>
<path d="M43.4403 106.819C43.4751 105.595 43.9272 103.932 45.3115 104.155C46.9602 104.426 49.5549 108.774 48.1845 109.532C47.4958 109.908 46.2367 108.447 45.8332 107.967C45.3463 107.404 44.7411 107.32 44.5046 107.904C44.289 108.426 43.4055 108.377 43.4472 106.819H43.4403Z" fill="#FF836F"/>
<path d="M49.2418 104.072C49.1374 104.266 49.1235 104.503 49.1374 104.725C49.1513 105.039 49.207 105.372 49.4157 105.609C49.6244 105.845 50.0209 105.936 50.2504 105.727C50.4035 105.588 50.4452 105.359 50.4382 105.15C50.4174 104.712 49.7287 103.195 49.2418 104.079V104.072Z" fill="#FF836F"/>
<path d="M63.864 26.6977C64.7961 26.9064 65.4709 27.5116 65.777 28.0124C66.097 28.5272 66.1109 28.9098 66.0135 28.9446C65.9022 28.9933 65.6935 28.722 65.3179 28.3881C64.9492 28.0542 64.3788 27.6716 63.6762 27.5116C62.9736 27.3585 62.2919 27.4698 61.8188 27.6159C61.3389 27.755 61.0397 27.915 60.9563 27.8246C60.8797 27.7481 61.0606 27.4072 61.5615 27.0733C62.0554 26.7464 62.9179 26.482 63.8501 26.6907L63.864 26.6977Z" fill="#9C3D39"/>
<path d="M68.6012 23.463C68.1838 22.8022 67.5299 22.2109 66.7299 21.8075C65.0952 21.0005 63.377 21.2231 62.3544 21.6892C61.304 22.1622 60.8936 22.7744 60.9701 22.8509C61.0675 22.9622 61.6101 22.5866 62.577 22.3292C63.53 22.0787 64.977 22.0092 66.2986 22.6631C67.523 23.2613 68.2742 24.3395 68.462 25.2439C68.5803 24.7847 68.6916 24.3048 68.7681 23.783C68.7125 23.6787 68.6638 23.5674 68.5942 23.463H68.6012Z" fill="#9C3D39"/>
<path d="M67.829 18.1351C67.516 17.9542 67.1613 17.8012 66.7717 17.7107C65.6587 17.4603 64.6292 17.6968 63.9753 17.9681C63.3144 18.2464 62.9736 18.5316 63.0083 18.6011C63.0501 18.6777 63.4536 18.5316 64.1074 18.3716C64.7544 18.2185 65.6796 18.0794 66.6395 18.2951C67.5925 18.5177 68.3856 19.1229 68.796 19.6585C68.8655 19.7489 68.4621 18.629 67.829 18.1351Z" fill="#9C3D39"/>
<path d="M72.3154 61.2836C74.7919 62.7096 77.2266 63.6696 78.9726 64.3861C80.7256 65.0956 81.8247 65.527 81.783 65.6591C81.7482 65.7635 80.5865 65.5478 78.757 64.9844C76.9344 64.4139 74.4232 63.5305 71.8563 62.0627C69.2895 60.5949 67.3 58.7376 66.0687 57.2698C64.8235 55.802 64.1975 54.8003 64.2879 54.7238C64.3922 54.6404 65.1922 55.5029 66.5348 56.8316C67.8634 58.1672 69.832 59.8576 72.3085 61.2766L72.3154 61.2836Z" fill="#A3442E"/>
<g style="mix-blend-mode:multiply" opacity="0.28">
<path d="M13.9177 115.863C11.2256 111.703 11.2952 106.25 12.8951 101.151C12.9577 100.963 13.0273 100.775 13.0899 100.587C13.876 99.4602 15.2255 99.1123 16.2272 99.0358C16.7489 98.9941 17.2776 99.015 17.7993 99.0637C17.5837 98.9802 17.368 98.8967 17.1663 98.7993C14.3351 97.4011 12.2621 94.5699 11.7891 91.4535C8.72829 94.8829 7.01009 99.481 7.0727 104.079C7.1353 108.677 8.98568 113.227 12.1438 116.566C13.0342 117.512 14.0638 118.381 15.295 118.792C15.775 118.952 16.2898 119.028 16.8046 119.014C15.7055 118.089 14.7246 117.032 13.9107 115.863H13.9177Z" fill="#D87146"/>
</g>
<path d="M29.7784 91.2449C29.7854 95.9682 25.9664 99.8011 21.243 99.815C16.5197 99.822 12.6868 96.003 12.6729 91.2797C12.659 86.5563 16.4849 82.7234 21.2083 82.7095C25.9316 82.6956 29.7645 86.5216 29.7784 91.2449Z" fill="#FFD09C"/>
<g style="mix-blend-mode:screen" opacity="0.45">
<path d="M23.1835 81.952C19.4758 80.3799 15.0864 80.8668 11.5178 82.745C9.23618 83.9484 7.28146 85.6736 5.65369 87.684C5.56326 88.0248 5.47978 88.3726 5.41022 88.7205C6.14758 86.5153 9.26401 85.9936 11.3092 87.0996C13.3543 88.2057 14.5856 90.3413 15.8168 92.3168C17.0481 94.2924 18.5368 96.3306 20.7558 97.0263C22.5018 97.5758 24.4496 97.1654 26.0426 96.268C27.4617 95.475 28.6303 94.2716 29.4442 92.8664C29.5555 92.3655 29.6181 91.8508 29.6251 91.3291C29.6946 87.3014 26.8843 83.5171 23.1766 81.952H23.1835Z" fill="#FFF64D"/>
</g>
<defs>
<linearGradient id="paint0_linear_1_328" x1="4.28698" y1="118.343" x2="50.4787" y2="104.907" gradientUnits="userSpaceOnUse">
<stop stop-color="#FE9128"/>
<stop offset="0.13" stop-color="#FE842C"/>
<stop offset="0.49" stop-color="#FE6837"/>
<stop offset="0.69" stop-color="#FF5E3B"/>
<stop offset="0.79" stop-color="#F95938"/>
<stop offset="0.9" stop-color="#E94A30"/>
<stop offset="1" stop-color="#D73B27"/>
</linearGradient>
<linearGradient id="paint1_linear_1_328" x1="24.4241" y1="126.193" x2="45.7977" y2="118.092" gradientUnits="userSpaceOnUse">
<stop stop-color="white"/>
<stop offset="0.14" stop-color="#F7EDEC"/>
<stop offset="0.53" stop-color="#E5C2C0"/>
<stop offset="0.83" stop-color="#DAA7A5"/>
<stop offset="1" stop-color="#D69E9B"/>
</linearGradient>
<linearGradient id="paint2_linear_1_328" x1="10.8561" y1="81.3261" x2="35.9348" y2="98.5113" gradientUnits="userSpaceOnUse">
<stop stop-color="#FA7C30"/>
<stop offset="0.16" stop-color="#F66B36"/>
<stop offset="0.38" stop-color="#F3593D"/>
<stop offset="0.49" stop-color="#ED563C"/>
<stop offset="0.63" stop-color="#DD4F3A"/>
<stop offset="0.79" stop-color="#C24336"/>
<stop offset="0.96" stop-color="#9D3331"/>
<stop offset="1" stop-color="#932F30"/>
</linearGradient>
<linearGradient id="paint3_linear_1_328" x1="72.4643" y1="12.449" x2="64.534" y2="15.5971" gradientUnits="userSpaceOnUse">
<stop stop-color="#FFF0DE"/>
<stop offset="0.2" stop-color="#FFE5C8"/>
<stop offset="0.5" stop-color="#FFD9B0"/>
<stop offset="0.78" stop-color="#FFD2A1"/>
<stop offset="1" stop-color="#FFD09C"/>
</linearGradient>
<linearGradient id="paint4_linear_1_328" x1="67.2924" y1="-1.63535" x2="76.5805" y2="18.9637" gradientUnits="userSpaceOnUse">
<stop stop-color="#76262C"/>
<stop offset="0.18" stop-color="#7B292C"/>
<stop offset="0.41" stop-color="#8B352C"/>
<stop offset="0.67" stop-color="#A6472D"/>
<stop offset="0.95" stop-color="#CB612D"/>
<stop offset="1" stop-color="#D3672E"/>
</linearGradient>
<linearGradient id="paint5_linear_1_328" x1="33.157" y1="-11.9488" x2="63.2841" y2="40.8699" gradientUnits="userSpaceOnUse">
<stop stop-color="#FF5E3B"/>
<stop offset="0.26" stop-color="#F95A39"/>
<stop offset="0.59" stop-color="#E95135"/>
<stop offset="0.97" stop-color="#CE412F"/>
<stop offset="1" stop-color="#CC402F"/>
</linearGradient>
<linearGradient id="paint6_linear_1_328" x1="61.2889" y1="64.7297" x2="79.0869" y2="94.2231" gradientUnits="userSpaceOnUse">
<stop stop-color="#FE9128"/>
<stop offset="0.26" stop-color="#FE8B2A"/>
<stop offset="0.59" stop-color="#FE7B30"/>
<stop offset="0.96" stop-color="#FE603A"/>
<stop offset="0.99" stop-color="#FF5E3B"/>
</linearGradient>
<radialGradient id="paint7_radial_1_328" cx="0" cy="0" r="1" gradientUnits="userSpaceOnUse" gradientTransform="translate(59.74 59.206) rotate(-0.12) scale(29.8773 29.8773)">
<stop stop-color="#FFF7ED"/>
<stop offset="0.01" stop-color="#FFF6EB"/>
<stop offset="0.29" stop-color="#FFE5C8"/>
<stop offset="0.56" stop-color="#FFD9B0"/>
<stop offset="0.8" stop-color="#FFD2A1"/>
<stop offset="1" stop-color="#FFD09C"/>
</radialGradient>
<linearGradient id="paint8_linear_1_328" x1="53.5795" y1="87.0932" x2="43.7787" y2="100.692" gradientUnits="userSpaceOnUse">
<stop stop-color="white"/>
<stop offset="0.59" stop-color="#E5C2C1"/>
<stop offset="1" stop-color="#D69E9B"/>
</linearGradient>
<radialGradient id="paint9_radial_1_328" cx="0" cy="0" r="1" gradientUnits="userSpaceOnUse" gradientTransform="translate(95.7061 11.586) rotate(13.49) scale(34.1137 34.1137)">
<stop stop-color="#FE9128"/>
<stop offset="0.33" stop-color="#FE8E29"/>
<stop offset="0.58" stop-color="#FE842C"/>
<stop offset="0.79" stop-color="#FE7432"/>
<stop offset="0.99" stop-color="#FF5E3B"/>
</radialGradient>
<radialGradient id="paint10_radial_1_328" cx="0" cy="0" r="1" gradientUnits="userSpaceOnUse" gradientTransform="translate(81.1622 44.545) rotate(-0.12) scale(23.7836 23.7836)">
<stop stop-color="#FFF7ED"/>
<stop offset="0.01" stop-color="#FFF6EB"/>
<stop offset="0.29" stop-color="#FFE5C8"/>
<stop offset="0.56" stop-color="#FFD9B0"/>
<stop offset="0.8" stop-color="#FFD2A1"/>
<stop offset="1" stop-color="#FFD09C"/>
</radialGradient>
<linearGradient id="paint11_linear_1_328" x1="97.4856" y1="36.4763" x2="90.3969" y2="66.2642" gradientUnits="userSpaceOnUse">
<stop offset="0.15" stop-color="white"/>
<stop offset="0.31" stop-color="#F8E6DF"/>
<stop offset="0.65" stop-color="#E6A88E"/>
<stop offset="1" stop-color="#D46436"/>
</linearGradient>
<linearGradient id="paint12_linear_1_328" x1="120.341" y1="34.9438" x2="139.401" y2="14.2066" gradientUnits="userSpaceOnUse">
<stop stop-color="#FFD4A7"/>
<stop offset="0.95" stop-color="#FFB96D"/>
</linearGradient>
<linearGradient id="paint13_linear_1_328" x1="139.664" y1="23.8772" x2="124.205" y2="30.0193" gradientUnits="userSpaceOnUse">
<stop stop-color="#FFF0DE"/>
<stop offset="0.2" stop-color="#FFE5C8"/>
<stop offset="0.5" stop-color="#FFD9B0"/>
<stop offset="0.78" stop-color="#FFD2A1"/>
<stop offset="1" stop-color="#FFD09C"/>
</linearGradient>
<linearGradient id="paint14_linear_1_328" x1="84.6127" y1="20.5857" x2="114.762" y2="70.5472" gradientUnits="userSpaceOnUse">
<stop stop-color="#FE9128"/>
<stop offset="0.26" stop-color="#FE8B2A"/>
<stop offset="0.59" stop-color="#FE7B30"/>
<stop offset="0.96" stop-color="#FE603A"/>
<stop offset="0.99" stop-color="#FF5E3B"/>
</linearGradient>
<linearGradient id="paint15_linear_1_328" x1="67.6316" y1="90.744" x2="57.6484" y2="106.952" gradientUnits="userSpaceOnUse">
<stop stop-color="#FF9F2F"/>
<stop offset="0.37" stop-color="#FF8A32"/>
<stop offset="0.99" stop-color="#FF5E3B"/>
</linearGradient>
<linearGradient id="paint16_linear_1_328" x1="102.829" y1="77.6124" x2="116.831" y2="59.1168" gradientUnits="userSpaceOnUse">
<stop stop-color="#FF5E3B"/>
<stop offset="0.3" stop-color="#F95938"/>
<stop offset="0.69" stop-color="#E94A30"/>
<stop offset="1" stop-color="#D73B27"/>
</linearGradient>
<linearGradient id="paint17_linear_1_328" x1="107.36" y1="36.9301" x2="125.153" y2="66.4151" gradientUnits="userSpaceOnUse">
<stop stop-color="#FE9128"/>
<stop offset="0.26" stop-color="#FE8B2A"/>
<stop offset="0.59" stop-color="#FE7B30"/>
<stop offset="0.96" stop-color="#FE603A"/>
<stop offset="0.99" stop-color="#FF5E3B"/>
</linearGradient>
<linearGradient id="paint18_linear_1_328" x1="119.054" y1="14.2467" x2="142.452" y2="19.8597" gradientUnits="userSpaceOnUse">
<stop stop-color="#76262C"/>
<stop offset="0.18" stop-color="#7B292C"/>
<stop offset="0.41" stop-color="#8B352C"/>
<stop offset="0.67" stop-color="#A6472D"/>
<stop offset="0.95" stop-color="#CB612D"/>
<stop offset="1" stop-color="#D3672E"/>
</linearGradient>
<linearGradient id="paint19_linear_1_328" x1="76.4842" y1="35.9653" x2="57.6042" y2="22.3914" gradientUnits="userSpaceOnUse">
<stop stop-color="#FE9128"/>
<stop offset="0.26" stop-color="#FE8B2A"/>
<stop offset="0.59" stop-color="#FE7B30"/>
<stop offset="0.96" stop-color="#FE603A"/>
<stop offset="0.99" stop-color="#FF5E3B"/>
</linearGradient>
<linearGradient id="paint20_linear_1_328" x1="51.6682" y1="94.7214" x2="45.3569" y2="110.421" gradientUnits="userSpaceOnUse">
<stop stop-color="#FE9D29"/>
<stop offset="0.52" stop-color="#FF7B33"/>
<stop offset="0.99" stop-color="#FF5E3B"/>
</linearGradient>
<linearGradient id="paint21_linear_1_328" x1="28.284" y1="125.824" x2="35.4435" y2="96.6414" gradientUnits="userSpaceOnUse">
<stop stop-color="#FA7C30"/>
<stop offset="0.42" stop-color="#F66B36"/>
<stop offset="1" stop-color="#F3593D"/>
</linearGradient>
</defs>
</svg>
