<svg width="99" height="140" viewBox="0 0 99 140" fill="none" xmlns="http://www.w3.org/2000/svg">
<path d="M0.242818 125.277C0.796946 123.166 2.20406 121.354 3.95361 120.04C6.13899 118.409 8.90341 117.531 11.674 117.531C12.4212 117.531 13.1683 117.593 13.9092 117.73C17.0285 118.291 19.6248 119.891 22.1153 121.591C24.6058 123.297 26.9966 125.108 29.6739 126.198C31.6164 126.995 33.7396 127.381 35.8751 127.381C36.3732 127.312 36.8838 127.219 37.413 127.088C44.1933 125.438 50.7183 121.31 56.1226 116.759C56.2596 116.641 56.4401 116.591 56.6207 116.622C56.8012 116.653 56.9507 116.759 57.0441 116.915C57.7289 118.092 58.4076 119.274 59.0676 120.47C59.3789 121.03 59.684 121.597 59.989 122.17C60.126 122.425 60.0638 122.742 59.8458 122.929C52.8352 128.807 44.3614 133.763 35.9249 134.435C35.9125 134.435 35.9063 134.435 35.8938 134.435C34.7171 134.597 33.5341 134.678 32.3449 134.678C27.9492 134.678 23.5473 133.582 19.7556 131.459C17.62 130.257 15.7148 128.813 13.5357 128.19C13.2928 128.122 13.0251 128.072 12.801 128.072C12.6578 128.072 12.5395 128.091 12.4585 128.122C12.3714 128.153 12.3216 128.184 12.2842 128.234C12.2344 128.296 12.1908 128.383 12.1721 128.558C12.1472 128.732 12.1535 128.969 12.141 129.236C12.0787 130.413 11.5308 131.484 10.7277 132.306C9.91827 133.134 8.84114 133.719 7.6644 133.931C7.32819 133.993 6.98575 134.018 6.64331 134.018C4.63849 134.018 2.69592 133.053 1.48182 131.528C0.491864 130.276 0.0186768 128.726 0.0186768 127.188C0.0186768 126.54 0.0996166 125.899 0.267723 125.27L0.242818 125.277Z" fill="url(#paint0_linear_1_213)"/>
<path d="M44.8785 129.268C44.4302 127.294 44.8785 124.778 46.6716 123.346C48.2095 122.493 49.7038 121.56 51.1545 120.557C51.4969 120.582 51.8393 120.651 52.1631 120.787C53.6947 121.41 54.4917 123.104 54.8528 124.71C54.9898 125.326 55.0769 125.974 55.0583 126.609C52.4495 128.439 49.71 130.077 46.8895 131.378C46.4973 131.378 45.2147 130.756 44.8785 129.268Z" fill="#9C3D39"/>
<path d="M82.2227 93.461C78.7796 95.441 74.8945 95.8955 72.8087 94.2642L73.1263 68.077C73.5372 68.5439 85.8837 70.7231 88.8286 80.7783C88.9096 81.2578 88.9469 81.7185 88.9718 82.1792C88.3803 86.3134 85.3295 90.46 82.2289 93.461H82.2227Z" fill="url(#paint1_linear_1_213)"/>
<path d="M85.4853 74.9374C86.3756 75.9087 87.1788 77.0107 87.8201 78.2622C86.9173 80.1923 84.7568 81.8236 81.8056 82.3715C82.9139 81.7426 85.3732 78.3245 85.4853 74.9374Z" fill="#9C3D39"/>
<path d="M82.2477 93.4355C81.5006 93.8714 80.7285 94.2387 79.9627 94.5189C79.7697 94.1515 79.6701 93.8838 79.6887 93.8402C79.7821 93.5538 79.9752 89.6002 82.2913 86.8047C83.4556 88.5916 84.7818 89.1146 86.0083 89.0461C84.8876 90.6587 83.5801 92.153 82.2477 93.4355Z" fill="#9C3D39"/>
<path d="M73.1263 68.0267V68.071C73.1263 68.071 73.1073 68.0394 73.1263 68.0267Z" fill="#9C3D39"/>
<path d="M73.1262 68.0771C73.313 68.2951 76.0401 68.8741 79.2092 70.4244C80.5229 73.2449 79.9127 77.4787 79.2714 79.857C78.0449 82.2168 75.5108 80.2555 73.0204 76.5572L73.12 68.0771H73.1262Z" fill="#9C3D39"/>
<path style="mix-blend-mode:multiply" opacity="0.81" d="M39.7482 132.213C43.0107 130.7 43.6644 127.954 43.378 125.003C47.9792 122.936 52.325 119.953 56.123 116.759C56.26 116.641 56.4405 116.591 56.6211 116.622C56.8016 116.653 56.9511 116.759 57.0445 116.915C57.7293 118.092 58.408 119.275 59.068 120.47C59.3793 121.03 59.6843 121.597 59.9894 122.17C60.1264 122.425 60.0641 122.743 59.8462 122.929C52.8356 128.807 44.3618 133.763 35.9253 134.435C35.9129 134.435 35.9066 134.435 35.8942 134.435C34.7175 134.597 33.5345 134.678 32.3453 134.678C31.1997 134.678 30.0541 134.591 28.9209 134.442C29.5248 134.392 34.1571 134.803 39.7544 132.206L39.7482 132.213Z" fill="url(#paint2_linear_1_213)"/>
<path d="M61.9313 69.4144L61.8878 69.458C61.9376 69.2463 61.95 69.2525 61.9313 69.4144Z" fill="#FFD09C"/>
<path d="M78.9722 95.0048C78.6235 96.0819 76.6373 109.593 75.7781 112.594C73.8792 119.212 71.6502 128.819 73.1569 133.943C74.1033 137.162 72.9764 136.913 71.8308 137.312C67.5534 138.8 67.597 139.958 64.3469 137.212C64.0854 136.988 61.4455 128.346 61.9934 127.094C64.7143 120.831 60.7171 113.739 59.8516 111.218L78.9846 95.0048H78.9722Z" fill="#B13C34"/>
<path d="M49.9836 113.82C49.4917 109.069 50.0147 104.287 50.463 99.5493C52.8663 74.1901 44.4672 74.5637 44.7287 71.8802C44.4299 62.0429 71.221 64.5458 71.221 64.5458C73.5122 68.6862 78.4309 72.7768 83.2749 86.3685C83.4305 92.9122 75.3863 111.267 72.6717 113.602C72.0429 113.888 71.1899 114.778 68.4317 116.752C64.0236 120.015 57.2433 126.895 58.5944 135.468C58.8123 136.863 59.4909 136.589 58.4449 137.348C58.0278 137.653 57.4114 138.351 56.9195 138.432C53.794 138.917 53.5823 139.241 50.5937 138.164C49.9213 136.701 47.9912 128.756 47.9725 125.313C50.1392 121.833 50.4817 117.86 49.9774 113.813L49.9836 113.82Z" fill="url(#paint3_linear_1_213)"/>
<path d="M59.2357 109.673C53.8625 108.945 50.9736 105.265 50.1828 102.563C49.8778 105.906 49.6661 109.256 49.8902 112.606C52.5114 112.855 56.7141 111.79 59.2357 109.679V109.673Z" fill="#9C3D39"/>
<path d="M56.9138 67.0177C57.4119 66.5631 67.2679 64.6704 72.2613 65.9032C74.6708 68.5306 78.2508 72.7084 80.8845 78.0566C81.9056 79.2458 83.6925 81.0203 85.7285 81.5744C84.944 81.9293 83.761 82.0414 83.4497 82.0414C83.6925 82.7262 83.6116 83.2243 84.807 84.675C84.4895 84.5879 84.1719 84.482 83.8606 84.37C83.7859 85.8393 83.3065 89.6435 82.715 91.723C80.4051 99.8295 74.9323 111.902 72.7158 113.764C70.8044 113.963 65.4436 117.281 62.617 119.274C62.4551 119.386 62.2372 119.342 62.1375 119.18C60.7055 116.783 60.6495 114.237 60.6931 112.581C63.8497 103.229 62.2123 89.8988 57.2998 83.3551C60.2635 75.8899 56.8079 68.0387 56.9013 67.0177H56.9138Z" fill="url(#paint4_linear_1_213)"/>
<path d="M66.5949 139.098C66.5949 139.098 71.5323 139.054 73.2756 138.37C73.8048 137.921 74.7138 136.06 74.5893 134.771C74.5893 134.771 73.7052 132.847 70.9906 132.224C68.2137 131.583 64.3971 132.399 63.4943 134.777L63.2452 137.317C64.3286 138.612 65.798 139.098 66.5949 139.098Z" fill="#C84637"/>
<path d="M52.1068 139.865C52.9286 140.089 57.1313 140.107 58.9992 139.354C59.5221 138.918 60.1883 137.231 60.0576 136.017C59.8584 135.008 59.3665 134.068 58.6629 133.402C58.196 132.96 51.4344 132.026 49.7844 135.444C49.5852 135.768 49.6412 136.951 49.6412 136.951C49.8342 138.327 51.2787 139.64 52.1006 139.858L52.1068 139.865Z" fill="#C84637"/>
<path d="M72.4414 70.9527C63.4197 71.7247 55.307 70.6974 53.5574 70.7223C53.5823 70.7099 53.6135 70.6974 53.6384 70.6912C53.7318 70.6538 53.8189 70.6165 53.9123 70.5853C54.0182 70.5417 54.124 70.5044 54.2299 70.467C54.3108 70.4359 54.398 70.4048 54.4789 70.3799C54.5847 70.3425 54.6906 70.3052 54.7964 70.274C54.8712 70.2491 54.9396 70.2242 55.0144 70.2055C55.1264 70.1682 55.2385 70.1371 55.3443 70.1059C55.4004 70.0935 55.4564 70.0748 55.5062 70.0561C55.6619 70.0125 55.8175 69.9752 55.9607 69.9503C55.9794 69.4584 55.9856 68.979 55.9794 68.5058L71.9184 65.6853C71.9557 65.7414 71.9931 65.7974 72.0304 65.8597C72.1052 65.8784 72.1861 65.8908 72.2608 65.9095C72.4351 66.0963 72.6157 66.2955 72.8025 66.501C72.8149 66.5134 72.8212 66.5259 72.8336 66.5321C73.2321 66.9742 73.6555 67.466 74.0913 67.9766C74.1411 68.3813 73.1947 70.2118 72.4476 70.9589L72.4414 70.9527Z" fill="#BE5C3F"/>
<path d="M73.232 17.445C73.5122 14.4689 73.7923 11.4928 74.0663 8.51665C74.2842 6.16316 74.6329 3.5544 76.3762 2.04144C78.6363 0.0864263 82.0856 0.951865 84.657 2.45237C87.2284 3.95287 89.6006 6.10712 90.6528 8.97738C92.284 13.4229 90.2419 18.7026 86.6182 21.5854C83.0008 24.4681 78.1693 25.265 73.6242 24.8416L73.2258 17.445H73.232Z" fill="url(#paint5_linear_1_213)"/>
<path d="M72.4476 18.0248C72.7278 15.0487 73.0079 12.0726 73.2819 9.09652C73.4998 6.74303 73.8485 4.13427 75.5918 2.62132C77.8519 0.666303 81.3012 1.53174 83.8726 3.03225C86.444 4.53275 88.8161 6.687 89.8684 9.55726C91.4996 14.0027 89.4574 19.2825 85.8338 22.1652C82.2102 25.0479 77.3849 25.8449 72.8398 25.4215L72.4413 18.0248H72.4476Z" fill="url(#paint6_linear_1_213)"/>
<path d="M77.9017 17.9181C78.0449 17.7127 78.4621 14.556 78.4434 14.4688C81.4008 10.7207 84.9746 12.1216 85.479 12.022C84.4703 12.5263 83.4243 13.5225 82.6585 14.6183C86.0455 13.5847 88.7601 15.3405 91.4623 16.8223C88.5983 16.7912 86.4129 17.2706 84.3894 18.8707C87.3904 19.1385 88.1313 20.0226 89.1088 22.1893C87.3717 21.411 83.9037 22.4944 82.8391 22.8617C81.1954 21.3487 77.2044 20.6514 76.6565 20.1222C76.862 19.4435 77.6527 18.3726 77.9017 17.9181Z" fill="#FFD7AB"/>
<path d="M75.0746 1.13297C77.3347 -0.822046 80.784 0.0433925 83.3554 1.5439C84.0652 1.96105 84.7625 2.42801 85.4163 2.94478C84.7937 3.70437 84.2644 4.56358 83.7975 5.43525C82.2721 8.29305 81.1887 11.3999 80.5972 14.6126C80.124 17.1778 79.819 20.0978 77.839 21.698C76.2514 22.9868 74.122 22.9121 72.2168 22.0778L71.918 16.5365C72.1981 13.5604 72.4783 10.5843 72.7523 7.60817C72.9702 5.25468 73.3189 2.64592 75.0622 1.13297H75.0746Z" fill="url(#paint7_linear_1_213)"/>
<path d="M47.836 8.02563C53.4894 6.6372 58.1154 5.43555 62.2496 1.43213C62.1189 3.34356 61.7826 4.96237 60.4938 6.30099C61.49 6.38193 63.2147 5.72818 63.9493 5.01839C64.0365 6.64965 63.7128 7.96337 63.0403 9.45143C56.671 8.36807 50.009 9.0405 43.9883 11.3691C44.2685 11.1948 44.5549 11.0142 44.835 10.8399L47.836 8.02563Z" fill="#9C3D39"/>
<path d="M97.6383 32.6253C94.9735 33.3911 92.3087 32.4012 90.3537 30.3901C88.4298 28.404 87.253 25.789 85.8459 23.3733C83.287 18.9838 79.5264 15.3851 75.1556 12.6331C69.1287 8.84141 61.2464 6.88639 54.4599 7.08563C37.313 7.58372 33.5649 18.9215 31.9896 23.9398C31.4604 25.6147 30.9125 27.3331 30.2339 29.064C27.7559 35.3773 23.9828 41.977 18.0431 44.399C18.3544 46.1859 19.3879 47.3191 20.4277 48.8881H17.2648C17.2274 48.8881 17.1838 48.9005 17.1465 48.9005C19.4128 52.1941 22.2084 55.1267 25.3526 57.6171C30.2775 61.5272 36.0429 63.725 41.6526 66.3275C48.0967 67.9339 54.8147 68.3199 61.3709 67.3175C70.8471 65.8668 79.8377 61.5334 87.2032 55.2076C90.9451 51.9949 92.62 49.218 95.3906 45.0714C96.7417 43.0479 97.6383 37.7681 96.6732 35.5641C96.9845 34.5741 97.3768 33.6153 97.632 32.6129L97.6383 32.6253Z" fill="url(#paint8_radial_1_213)"/>
<path d="M54.5847 7.06595C57.5048 6.97879 60.4311 7.23406 63.5255 7.92517C66.5327 10.9075 68.8239 16.069 67.5725 23.0236C65.7482 16.3678 57.6916 7.95007 49.4294 7.6014C51.1541 7.22161 52.7542 7.12199 54.5847 7.06595Z" fill="#9C3D39"/>
<path d="M75.1621 12.6391C75.2182 12.6702 75.268 12.7076 75.3178 12.7449C74.3465 14.9988 72.7775 17.5204 70.9034 18.2551C71.6506 15.5965 71.277 12.0663 71.0466 10.4599C72.4849 11.1012 73.8671 11.8235 75.1621 12.6391Z" fill="#9C3D39"/>
<path d="M35.4269 16.3183C37.0395 13.9088 39.3494 11.5366 42.7551 9.79331C46.7025 9.94896 53.2337 13.5726 55.363 17.4764C51.6273 15.6646 39.7043 12.5204 35.4269 16.3183Z" fill="#9C3D39"/>
<path d="M30.9315 27.7185C30.9315 27.7185 34.3061 33.5275 36.2673 35.302C32.5192 35.769 27.5569 32.961 26.9032 32.3072C26.2494 31.6535 30.9315 27.7185 30.9315 27.7185Z" fill="#9C3D39"/>
<path d="M25.7637 37.7551C23.927 40.395 21.7043 42.624 19.0146 43.9751C23.9582 46.2289 30.6451 50.3942 41.2233 50.002C36.1427 45.6561 29.3313 39.486 25.7637 37.7551Z" fill="#9C3D39"/>
<path d="M85.6844 40.6073C89.0092 36.7284 89.9494 32.6441 90.1984 30.2097C90.2544 30.2657 90.298 30.328 90.3541 30.384C92.3029 32.395 94.9739 33.385 97.6387 32.6192C97.3834 33.6154 96.9912 34.5804 96.6798 35.5704C96.8417 35.9502 96.9538 36.4171 97.0161 36.9464C94.0898 39.1878 89.6567 40.1715 85.6844 40.6073Z" fill="#9C3D39"/>
<path d="M63.8185 52.0375C63.5009 50.2568 61.7576 37.7858 61.1537 36.0051C59.8773 32.2507 56.8888 29.2995 53.6823 27.6185C50.37 25.8814 46.5284 25.9125 43.434 27.3009C39.7979 28.9322 36.8218 33.6578 38.0546 37.3935C40.1217 43.6446 42.6184 46.2098 45.2085 51.6016L63.8122 52.0499L63.8185 52.0375Z" fill="#FFB980"/>
<path d="M61.4152 50.9859C61.1661 49.4978 58.713 40.0901 58.2398 38.5958C57.2437 35.4454 55.1641 31.7907 52.6674 30.3773C47.811 28.3912 43.1227 30.3586 40.8626 33.2476C39.6797 37.6059 42.7429 45.1022 46.3728 48.6075L61.409 50.9921L61.4152 50.9859Z" fill="#76262C"/>
<path d="M61.4153 50.9856C61.1849 49.5723 61.0977 45.3198 58.8563 38.4586C57.885 35.4887 55.8927 33.2037 53.5827 31.8464C50.9802 30.3148 44.4739 31.0619 42.936 33.4092C40.2899 37.2631 45.5572 48.3208 46.9208 50.0205L61.4153 50.9856Z" fill="#FDE6E9"/>
<path d="M45.4266 34.642C46.9644 32.2947 52.5368 32.5313 55.7558 35.1463C56.9761 36.1363 57.9474 37.1449 58.7319 38.1411C58.7692 38.2532 58.819 38.3528 58.8564 38.4649C61.0978 45.3261 61.1788 49.5786 61.4153 50.9919L48.191 50.1078C45.2709 45.5814 43.2101 37.8734 45.4328 34.642H45.4266Z" fill="white"/>
<path d="M84.9933 43.1221C86.1701 41.3041 89.1649 29.7795 82.3348 23.7276C77.192 19.1701 75.2992 35.6258 72.429 45.4383L84.9933 43.1221Z" fill="#FFB980"/>
<path d="M77.055 27.6624C79.9751 26.2989 83.6049 26.8157 84.1964 27.6873C86.6682 30.9062 84.6571 39.2555 83.4306 41.939L72.429 45.4381C74.0664 40.0213 75.3428 32.7492 77.055 27.6686V27.6624Z" fill="#76262C"/>
<path d="M76.6133 29.1384C77.734 27.6192 82.5344 28.3726 83.0823 28.9765C86.0397 32.2515 84.01 40.6257 82.8457 43.2718L72.4355 45.4323C73.9361 40.3081 75.0505 33.945 76.6195 29.1384H76.6133Z" fill="#FDE6E9"/>
<path d="M76.6129 29.1381C76.862 28.8019 77.2916 28.584 77.8146 28.4408C84.5326 31.5352 82.6461 40.4075 81.3199 43.4645L72.429 45.432C73.9295 40.3079 75.0439 33.9447 76.6129 29.1381Z" fill="white"/>
<path d="M45.1143 44.2243C45.1143 47.3 47.6109 49.7967 50.6867 49.7967C53.7624 49.7967 56.2591 47.3 56.2591 44.2243C56.2591 41.1485 53.7624 38.6519 50.6867 38.6519C47.6109 38.6519 45.1143 41.1485 45.1143 44.2243Z" fill="url(#paint9_linear_1_213)"/>
<path d="M50.6864 48.134C52.8458 48.134 54.5964 46.3834 54.5964 44.224C54.5964 42.0645 52.8458 40.314 50.6864 40.314C48.5269 40.314 46.7764 42.0645 46.7764 44.224C46.7764 46.3834 48.5269 48.134 50.6864 48.134Z" fill="#76262C"/>
<g style="mix-blend-mode:overlay" opacity="0.26">
<path d="M45.6182 46.5338C46.7887 44.9088 48.6378 44.1866 50.0325 44.9212C51.5019 45.6933 51.9315 47.804 51.091 49.7839C50.954 49.7963 50.8232 49.8025 50.6863 49.8025C48.4324 49.8025 46.4961 48.4639 45.6182 46.5338Z" fill="white"/>
</g>
<path d="M51.4774 39.903C50.942 40.8307 51.1101 41.9265 51.851 42.3561C52.5919 42.7857 53.6255 42.3811 54.1609 41.4534C54.6964 40.5257 54.5283 39.4298 53.7873 39.0002C53.0464 38.5706 52.0129 38.9753 51.4774 39.903Z" fill="white"/>
<mask id="mask0_1_213" style="mask-type:luminance" maskUnits="userSpaceOnUse" x="72" y="28" width="12" height="18">
<path d="M82.6646 43.0787C86.556 34.6049 77.8207 24.6928 76.314 29.7983C74.9193 34.5115 73.7675 40.7501 72.3915 45.4633L82.6709 43.0849L82.6646 43.0787Z" fill="white"/>
</mask>
<g mask="url(#mask0_1_213)">
<path d="M73.008 39.4549C72.7278 42.5181 74.6952 45.2078 77.4036 45.4506C80.112 45.6935 82.534 43.4147 82.8079 40.3452C83.0881 37.2819 81.1206 34.5922 78.4123 34.3494C75.7039 34.1004 73.2819 36.3854 73.008 39.4549Z" fill="url(#paint10_linear_1_213)"/>
<path d="M74.4711 39.5852C74.2781 41.7332 75.654 43.6197 77.553 43.794C79.452 43.9684 81.1517 42.362 81.3447 40.214C81.5377 38.066 80.1618 36.1795 78.2628 36.0051C76.3638 35.8308 74.6641 37.4371 74.4711 39.5852Z" fill="#76262C"/>
<g style="mix-blend-mode:overlay" opacity="0.26">
<path d="M73.2441 41.7902C74.4208 40.2648 76.1143 39.6982 77.2724 40.5325C78.4927 41.4166 78.6795 43.5522 77.7643 45.4574C77.646 45.4574 77.5277 45.4574 77.4094 45.4449C75.4295 45.2644 73.848 43.7763 73.2503 41.7902H73.2441Z" fill="white"/>
</g>
<path d="M78.9979 35.6574C78.4438 36.5353 78.4936 37.6435 79.1037 38.1292C79.7139 38.6148 80.6603 38.2973 81.2206 37.4132C81.7748 36.5353 81.7249 35.427 81.1148 34.9414C80.5046 34.4557 79.5582 34.7733 78.9979 35.6574Z" fill="white"/>
</g>
<path d="M98.5847 35.8626C98.3232 35.8501 97.7005 35.9809 96.8849 35.5762C97.2647 34.6796 97.5636 33.8951 97.6321 32.625C97.439 32.681 97.2523 32.7246 97.0592 32.762C91.711 38.0044 84.9307 41.4786 77.7083 43.7947C73.3749 45.1832 68.5185 41.4848 64.0855 42.1697C61.4767 42.5744 58.7933 47.2253 58.1271 48.4457C54.9081 50.2201 47.4056 49.4979 41.9826 48.6947C34.6295 47.6114 27.3512 45.5194 21.0627 42.7301C20.1288 43.4149 19.114 43.9753 18.0431 44.4111C18.3544 46.198 19.3879 47.3374 20.4277 48.9002H17.2648C17.2274 48.9002 17.1838 48.9126 17.1465 48.9126C19.4128 52.2063 22.2084 55.1388 25.3526 57.6292C31.5538 62.5541 39.0937 64.7582 45.9674 68.4752C46.3908 68.7056 46.6398 69.0293 46.7581 69.378C51.8636 70.4863 57.0499 70.7664 62.0745 69.9944C71.5507 68.5437 78.0508 65.6983 85.4163 59.3663C89.1582 56.1537 92.6075 52.7853 95.0918 48.4581C96.4864 46.0237 99.0454 37.388 98.5784 35.8564L98.5847 35.8626Z" fill="url(#paint11_radial_1_213)"/>
<path d="M73.7239 39.5354C71.6381 38.0411 62.0872 39.7969 61.6452 41.6336C61.6016 42.5115 61.2716 45.7615 61.4522 47.1998C61.9253 48.1959 63.0087 49.161 64.1356 49.3914C68.3383 50.2506 76.6502 47.6169 80.1555 45.0704C80.61 44.7404 75.8097 41.0296 73.7239 39.5354Z" fill="#FE9E2E"/>
<path d="M79.9626 45.2075C79.9626 45.2075 79.9501 45.2137 79.9439 45.22C79.9439 45.22 79.9563 45.2137 79.9626 45.2075ZM80.0061 45.1764C80.0061 45.1764 79.9875 45.1888 79.9812 45.1951C79.9875 45.1888 79.9999 45.1826 80.0061 45.1764ZM80.0435 45.1515C80.0435 45.1515 80.0248 45.1639 80.0124 45.1702C80.0248 45.1639 80.031 45.1577 80.0435 45.1515ZM80.0809 45.1266C80.0809 45.1266 80.0559 45.139 80.0497 45.1515C80.0622 45.1452 80.0746 45.139 80.0809 45.1266ZM80.1182 45.1017C80.1182 45.1017 80.0995 45.1141 80.0871 45.1266C80.0995 45.1203 80.1058 45.1141 80.1182 45.1017ZM80.1556 45.0705C80.1556 45.0705 80.1307 45.0892 80.1244 45.0954C80.1369 45.0892 80.1493 45.0768 80.1556 45.0705ZM73.6866 39.5106C73.6866 39.5106 73.7115 39.5292 73.7239 39.5355C73.7115 39.5292 73.699 39.5168 73.6866 39.5106Z" fill="white"/>
<path d="M70.8097 38.9755C72.0674 38.9755 73.1196 39.1312 73.68 39.511C73.6924 39.5172 73.7049 39.5296 73.7173 39.5359C75.7097 40.9679 80.1801 44.4109 80.1801 45.0087C80.1801 45.0336 80.1676 45.0585 80.1489 45.0709C80.1489 45.0709 80.124 45.0896 80.1178 45.0958C80.1053 45.102 80.0991 45.1083 80.0867 45.1207C80.0742 45.1269 80.0618 45.1332 80.0555 45.1456C80.0431 45.1519 80.0369 45.1581 80.0244 45.1643C80.0244 45.1643 80.0244 45.1643 80.0182 45.1643C80.012 45.1705 79.9995 45.1768 79.9933 45.183L79.9808 45.1954C79.9808 45.1954 79.9684 45.2017 79.9621 45.2079C79.9497 45.2141 79.9435 45.2203 79.931 45.2266C79.0656 45.8181 77.9573 46.4095 76.7059 46.9574C76.4879 46.9574 76.27 46.9574 76.0521 46.9574C75.8155 46.9574 75.5852 46.9574 75.3486 46.9574C79.3084 45.6686 73.5741 40.9554 70.8159 38.9568H70.8284L70.8097 38.9755Z" fill="#FEBB6D"/>
<path d="M63.1275 47.3683C64.435 47.5239 71.1593 47.8104 74.6646 47.0321C79.3031 46.011 79.3031 44.8903 79.6891 44.7533C80.4487 44.4856 80.6043 46.341 79.907 46.8827C79.5085 47.1877 75.7542 49.7031 75.7542 49.7031L74.2848 51.82C74.2848 51.82 72.4543 52.399 71.6013 52.3741C71.8192 51.8325 71.9375 51.2721 71.9002 50.7927C69.472 50.4689 65.0701 49.6284 64.0552 49.5101C63.7439 49.3856 62.8162 47.4243 63.1213 47.3683H63.1275Z" fill="#76262C"/>
<path opacity="0.16" d="M76.395 46.5902C79.3026 45.7123 79.3586 44.878 79.6886 44.7597C80.4482 44.492 80.6101 46.3474 79.9066 46.889C79.3711 47.3 75.4548 49.7904 73.9979 50.631C75.1435 49.1554 75.9031 47.7669 76.395 46.5964V46.5902Z" fill="white"/>
<path d="M19.8241 8.74131C20.3409 8.55452 20.8701 8.44868 21.3931 8.39265C24.2198 8.99036 26.5608 11.0948 28.3041 13.2989C30.7261 16.3559 32.4694 20.1103 33.2228 24.0078C32.8306 24.6367 32.4694 25.2593 32.1332 25.8632C30.9067 28.0673 29.9665 30.3959 29.319 32.8054C26.2744 33.3969 23.1302 33.4592 20.0669 32.9486C17.6761 32.5501 15.2043 31.7283 13.6229 29.8169C10.9456 26.573 11.8297 21.6419 13.1808 17.6198C14.4136 13.9526 16.2877 10.0052 19.8179 8.74131H19.8241Z" fill="url(#paint12_linear_1_213)"/>
<path d="M18.0376 10.895C24.0894 11.2188 29.7179 16.069 32.7936 21.8344C30.3778 25.4207 28.5224 29.2933 27.5574 33.4213C25.4343 33.5956 23.2925 33.5209 21.188 33.1722C18.7972 32.7737 16.3254 31.9519 14.7439 30.0405C12.0667 26.7966 12.9508 21.8655 14.3019 17.8434C15.1424 15.3467 16.2818 12.7193 18.0314 10.9013L18.0376 10.895Z" fill="url(#paint13_linear_1_213)"/>
<path d="M26.8908 30.9003C24.3817 30.589 21.2686 31.0497 19.6809 31.9027C22.0655 29.6239 24.3692 27.0899 28.3602 26.8097C27.1585 26.0999 25.216 25.3652 23.8773 25.4462C25.3218 24.6679 28.3353 23.3479 32.5255 25.029C30.8755 28.0674 30.6265 29.3251 29.3875 32.7806C28.3851 33.1915 25.3156 34.6671 24.4377 35.9559C24.4377 34.0383 24.6743 32.1331 26.8846 30.8941L26.8908 30.9003Z" fill="#FFD7AB"/>
<path d="M19.824 8.74096C23.3729 7.47082 27.3141 9.47564 29.9914 12.2338C31.9588 14.2573 33.5091 16.6669 35.24 18.9145C35.5762 19.3503 35.7319 20.5831 35.184 21.2618C33.8204 22.9553 33.0359 24.2628 32.1456 25.8691C31.9401 26.2302 31.7596 26.6038 31.5666 26.9712C30.3462 26.2116 29.238 25.1718 28.3103 24.0635C26.3179 21.6851 24.7614 18.8771 22.3954 16.9035C20.0295 14.9298 16.4246 14.027 14.0337 15.9509C13.9777 15.8886 13.9341 15.8201 13.8781 15.7578C15.1046 12.6946 16.8915 9.79318 19.8303 8.74096H19.824Z" fill="url(#paint14_linear_1_213)"/>
<path d="M87.8698 26.9837C87.4402 28.1355 86.9172 29.3247 86.3755 30.0719C86.3506 27.9425 85.7965 24.6053 85.0743 22.1522C85.342 22.5569 85.6035 22.9616 85.8463 23.3788C86.5374 24.5617 87.1725 25.8007 87.8698 26.9837Z" fill="#9C3D39"/>
<path d="M45.5008 19.9859C48.3088 20.0918 52.5052 23.2547 52.5052 23.2547C52.5052 23.2547 47.7796 22.4515 40.2459 27.0339C41.2981 23.9831 43.9816 21.1129 45.5008 19.9859Z" fill="#9C3D39"/>
<path d="M1.46315 131.534C0.473188 130.282 0 128.732 0 127.194C0 126.546 0.0809404 125.905 0.249047 125.276C0.803175 123.166 2.21029 121.354 3.95984 120.04C6.14522 118.409 8.90963 117.531 11.6803 117.531C12.4274 117.531 13.1746 117.593 13.9155 117.73C15.9888 118.104 17.8255 118.938 19.5564 119.947C20.9386 121.304 21.3121 122.674 20.372 125.09C19.3011 127.829 16.904 129.13 15.5156 128.993C14.8681 128.67 14.2081 128.389 13.5294 128.19C13.2866 128.122 13.0189 128.072 12.7948 128.072C12.6516 128.072 12.5333 128.091 12.4523 128.122C12.3652 128.153 12.3153 128.184 12.278 128.234C12.2282 128.296 12.1846 128.383 12.1659 128.558C12.141 128.732 12.1472 128.968 12.1348 129.236C12.0725 130.413 11.5246 131.484 10.7214 132.306C9.91204 133.134 8.83492 133.719 7.65818 133.931C7.32196 133.993 6.97952 134.018 6.63708 134.018C4.63226 134.018 2.6897 133.053 1.4756 131.527L1.46315 131.534Z" fill="#FFD09C"/>
<path d="M21.2001 126.123C22.078 124.23 21.7667 122.655 21.2562 121.005C21.5426 121.198 21.829 121.385 22.1154 121.584C22.8314 122.07 23.535 122.568 24.2385 123.053C24.5311 124.747 24.1389 126.565 23.2112 127.96C22.1839 129.504 20.5588 130.525 18.8404 130.849C18.8031 130.855 18.7595 130.861 18.7159 130.867C17.9501 130.407 17.2092 129.94 16.462 129.516C18.4233 129.361 20.3036 128.066 21.2001 126.129V126.123Z" fill="#9C3D39"/>
<path d="M37.4064 127.088C38.8446 126.74 40.2766 126.267 41.6837 125.712C41.0362 126.46 40.3887 127.406 40.0213 128.464C39.517 129.909 39.1061 132.549 40.2455 133.725C39.8906 133.813 39.5419 133.894 39.187 133.968C37.9294 133.626 36.6841 132.767 36.0615 131.752C34.698 129.523 35.607 127.381 35.8685 127.381C36.3666 127.313 36.8771 127.219 37.4064 127.088Z" fill="#9C3D39"/>
<path d="M30.7634 129.224C29.8918 131.223 28.4784 132.312 26.3927 133.091C26.7974 130.513 27.6877 126.447 25.8946 124.162C27.1149 124.947 28.3602 125.657 29.6739 126.198C30.2529 126.435 30.8444 126.628 31.4483 126.796C31.3549 127.537 31.1495 128.34 30.7634 129.23V129.224Z" fill="#9C3D39"/>
<path d="M51.0233 135.438C51.5525 134.572 52.3495 134.074 53.19 133.732C55.4314 133.171 56.8884 133.339 58.3515 133.532C58.8683 134.018 59.466 134.416 59.5967 135.307C59.6403 135.593 58.3079 136.359 54.0181 136.378C51.9386 136.384 50.8801 135.668 51.0295 135.438H51.0233Z" fill="url(#paint15_linear_1_213)"/>
<path d="M64.8326 133.563C66.3705 132.224 68.5496 132.069 70.6043 132.38C72.4161 132.654 73.817 133.993 74.2279 134.503C73.4621 134.958 71.3203 135.325 68.5994 135.356C64.9571 135.4 64.5836 134.335 64.8326 133.557V133.563Z" fill="url(#paint16_linear_1_213)"/>
<path d="M72.4852 134.535C72.4852 134.535 73.0767 135.506 73.2012 135.842C73.0518 136.334 72.4541 137.255 72.4541 137.255L72.4915 134.535H72.4852Z" fill="#932F30"/>
<path d="M69.3406 134.615L70.1562 136.085L69.2534 138.089L69.1476 135.935L69.3406 134.615Z" fill="#932F30"/>
<path d="M56.3712 135.25L57.1557 136.956L56.558 139.029L56.0039 136.919L56.3712 135.25Z" fill="#932F30"/>
<path d="M52.9596 135.792L53.5573 137.087L53.4888 138.7C53.4888 138.7 52.8787 137.461 52.804 137.212C52.7604 136.975 52.9596 135.786 52.9596 135.786V135.792Z" fill="#932F30"/>
<path d="M58.6505 135.475C58.6505 135.475 59.161 136.06 59.2917 136.62C59.1548 137.087 58.6505 137.828 58.6505 137.828V135.475Z" fill="#932F30"/>
<path d="M48.8006 131.334C48.427 129.503 48.1282 127.66 48.0223 126.241C49.2862 128.046 52.4927 130.244 57.0254 130.138C54.4415 131.888 51.2786 131.932 48.8006 131.334Z" fill="#9C3D39"/>
<path d="M67.5479 129.796C71.9062 129.061 72.6907 125.961 72.9646 125.425C72.7218 127.337 72.6097 129.173 72.6844 130.805C71.545 131.11 70.0694 131.11 67.5541 129.796H67.5479Z" fill="#9C3D39"/>
<path d="M50.1953 116.728C50.7245 119.349 53.7878 121.727 59.1423 122.512C56.3779 123.757 52.6796 123.832 49.4855 122.014C50.0085 120.314 50.214 118.539 50.1953 116.728Z" fill="#9C3D39"/>
<path d="M66.6074 121.671C70.1874 121.441 72.9145 119.156 74.5893 117.033C74.1472 118.813 73.7425 120.675 73.4125 122.518C71.5447 123.358 68.8986 123.626 66.6074 121.671Z" fill="#9C3D39"/>
<path d="M79.408 45.4383C79.489 45.5192 79.3395 46.4096 78.3309 47.0384C77.6398 47.4742 76.6312 47.3995 76.4631 47.2065C76.3136 47.0322 76.986 46.478 78.1005 45.9052C79.0469 45.4134 79.3582 45.3885 79.408 45.4383Z" fill="#FEFEFE"/>
<g style="mix-blend-mode:screen" opacity="0.45">
<path d="M0.0253906 126.777C0.0565214 126.272 0.118783 125.768 0.243306 125.282C0.797435 123.172 2.20455 121.36 3.9541 120.046C4.91293 119.33 5.98383 118.77 7.11699 118.353C8.53655 119.143 9.78178 120.37 10.3982 121.484C11.7243 123.888 11.4566 127.138 9.57632 129.136C7.69602 131.135 4.27786 131.546 2.10493 129.877C1.10252 129.105 0.411413 127.984 0.0253906 126.777Z" fill="#FFF64D"/>
</g>
<path style="mix-blend-mode:multiply" opacity="0.81" d="M79.5889 100.633C78.7359 102.75 77.8394 104.83 76.9552 106.692C75.2804 110.247 73.6865 113.03 72.7152 113.845C70.8038 114.045 65.4431 117.382 62.6164 119.387C62.4545 119.499 62.2366 119.455 62.137 119.293C61.7385 118.621 61.4459 117.936 61.2342 117.264C65.5801 109.568 75.9279 101.269 79.5889 100.64V100.633Z" fill="url(#paint17_linear_1_213)"/>
<path style="mix-blend-mode:multiply" opacity="0.37" d="M98.5847 35.8626C98.3232 35.8501 97.7005 35.9809 96.8849 35.5762C97.2647 34.6796 97.5636 33.8951 97.6321 32.625C97.439 32.681 97.2523 32.7246 97.0592 32.762C96.6047 33.2103 86.3565 41.0241 85.8833 41.4475C87.197 51.3222 72.9391 59.9703 69.2657 65.5116C48.7131 67.423 34.6233 51.9946 35.3144 48.6325C30.788 47.8168 23.8209 44.5668 21.1499 42.7114C20.3716 43.4274 19.1077 44.0189 18.0431 44.4298C18.3544 46.2105 19.3879 47.3436 20.4277 48.9064H17.2648C17.2274 48.9064 17.1838 48.9189 17.1465 48.9189C19.4128 52.2125 22.2084 55.145 25.3526 57.6355C31.5538 62.5604 39.0937 64.7644 45.9674 68.4814C46.3908 68.7118 46.6398 69.0356 46.7581 69.3842C51.8636 70.4925 57.0499 70.7727 62.0745 70.0006C71.5507 68.5499 78.0508 65.7046 85.4163 59.3726C89.1582 56.1599 92.6075 52.7915 95.0918 48.4643C96.4864 46.0299 99.0454 37.3942 98.5784 35.8626H98.5847Z" fill="url(#paint18_linear_1_213)"/>
<g style="mix-blend-mode:screen" opacity="0.19">
<path d="M65.6798 11.0446C69.6272 11.7482 73.4936 12.9996 76.0526 14.8737C78.6115 16.7478 79.6077 19.313 77.8706 21.1933C77.0301 22.1023 75.3801 22.8494 73.4313 22.7125C72.1488 22.6191 70.9845 22.1708 69.8887 21.7349C61.5643 18.4413 53.2399 15.1414 44.9155 11.8478C44.5171 11.6921 44.0937 11.5116 43.9629 11.2563C43.745 10.8143 44.5482 10.5092 45.2642 10.3535C51.1168 9.08961 59.3976 9.9177 65.6736 11.0384L65.6798 11.0446Z" fill="#FFF64D"/>
</g>
<path d="M63.2452 137.318L63.2701 137.057C63.513 137.281 64.8267 138.24 66.3272 138.464C69.1601 138.725 73.1324 138.115 73.7612 137.723C73.6243 137.935 73.3939 138.265 73.2756 138.364C71.5323 139.055 66.5949 139.093 66.5949 139.093C65.798 139.093 64.3286 138.607 63.2452 137.312V137.318Z" fill="#932F30"/>
<path d="M71.8494 55.1949C71.4323 55.7366 69.5084 57.6916 68.0016 57.841C66.8623 58.0278 63.0083 56.6331 61.8938 55.5249C61.651 55.3754 63.3445 57.3554 63.8861 57.7165C65.1501 58.5383 67.3043 59.3415 68.3814 59.2045C69.0103 59.0738 71.3887 57.6916 71.3887 57.6916C71.7436 58.0153 72.3786 58.4325 72.8954 58.3765C73.3624 58.1772 74.5702 57.6729 75.747 56.2969C76.5377 55.3692 76.849 54.5723 76.7245 54.7092C76.5377 54.9147 75.0248 56.4899 73.518 57.0005C72.7896 57.2495 72.3226 57.1063 72.1109 56.7701C71.7249 56.1599 71.8432 55.5373 71.8432 55.1949H71.8494Z" fill="#76262C"/>
<path d="M62.7468 47.4931C62.7468 47.6612 62.7966 47.8168 62.8527 48.0099C62.9149 48.1966 62.9959 48.3959 63.0893 48.6013C63.2823 49.006 63.494 49.3983 63.6994 49.6287C63.7617 49.6971 63.8177 49.7594 63.9423 49.8092L64.017 49.8279C64.5026 49.8839 65.8661 50.1267 67.3915 50.3945C68.8111 50.6435 70.3863 50.9112 71.5817 51.0731C71.5693 51.4342 71.4759 51.8514 71.3078 52.2561C71.2704 52.3495 71.2767 52.4616 71.3389 52.5487C71.395 52.6359 71.4946 52.6919 71.5942 52.6919H71.6565C72.1546 52.6919 72.8145 52.5487 73.3749 52.4055C73.9352 52.2623 74.3773 52.1253 74.3773 52.1253C74.4458 52.1067 74.5018 52.0631 74.5392 52.0008L75.9774 49.9337C76.2887 49.7283 78.1441 48.4768 79.2648 47.711C79.6758 47.4308 79.9808 47.2191 80.0929 47.132C80.3108 46.9639 80.4478 46.7273 80.5412 46.4844C80.6284 46.2354 80.6719 45.9677 80.6719 45.7124C80.6719 45.4945 80.6408 45.2766 80.5785 45.0773C80.5163 44.8843 80.4229 44.6975 80.2548 44.5606C80.1427 44.4672 79.9933 44.4111 79.8314 44.4111C79.7442 44.4111 79.6633 44.4298 79.5824 44.4547C79.4703 44.4983 79.3893 44.5606 79.3271 44.6228C79.2648 44.6851 79.215 44.7411 79.1528 44.8096C79.0345 44.9404 78.8788 45.1022 78.5862 45.2952C78.0071 45.6875 76.8864 46.2105 74.589 46.721C72.8332 47.1071 70.1933 47.2316 67.8772 47.2316C65.6856 47.2316 63.7617 47.1257 63.1515 47.051H63.0519C62.9274 47.0759 62.8153 47.1818 62.778 47.2689C62.7406 47.3561 62.7344 47.4246 62.7344 47.4869L62.7468 47.4931ZM63.4815 47.8729C63.4628 47.8168 63.4442 47.767 63.4317 47.7172C64.2847 47.7857 65.972 47.8667 67.8896 47.8667C70.2307 47.8667 72.8892 47.7484 74.7384 47.3437C76.3883 46.9825 77.4655 46.6027 78.2002 46.2541C78.9286 45.9054 79.3209 45.5754 79.5512 45.3326C79.6944 45.1769 79.7878 45.0711 79.8065 45.0587H79.8376H79.8625C79.8812 45.0711 79.9123 45.1085 79.9373 45.1645C79.9995 45.2828 80.0431 45.4883 80.0369 45.7062C80.0369 45.8992 80.0057 46.0984 79.9435 46.2665C79.8812 46.4346 79.8003 46.5592 79.7069 46.6276C79.6259 46.6899 79.3084 46.9078 78.9037 47.188C78.499 47.4682 77.9885 47.8106 77.4966 48.1406C76.5066 48.8068 75.5727 49.4356 75.5727 49.4356L75.4855 49.5166L74.0784 51.5463C74.0349 51.5588 73.9726 51.5774 73.8979 51.6023C73.7235 51.6522 73.4807 51.7206 73.213 51.7891C72.8394 51.8825 72.4036 51.9759 72.0487 52.0257C72.1546 51.6708 72.2168 51.3222 72.2168 50.9797C72.2168 50.9112 72.2168 50.8365 72.2106 50.768C72.1981 50.6186 72.0861 50.5003 71.9366 50.4816C70.735 50.3198 69.029 50.0334 67.4974 49.7656C66.0342 49.5104 64.7516 49.2862 64.1726 49.2053L64.1104 49.1306C64.0481 49.0496 63.9672 48.9251 63.8924 48.7819C63.7368 48.5017 63.5687 48.1468 63.4691 47.8667L63.4815 47.8729Z" fill="#602229"/>
<path style="mix-blend-mode:screen" opacity="0.7" d="M58.2024 72.8889C64.8333 74.128 70.58 72.6773 75.6543 69.8755C77.435 72.1418 79.3215 74.8938 80.8843 78.0567C81.8556 79.1898 83.518 80.8273 85.4232 81.4686C81.6626 82.1348 77.6467 82.5084 73.7055 82.3963C74.4215 83.0314 75.2247 83.5419 76.0839 83.8968C66.5704 83.4859 60.3504 78.9034 58.165 76.9795C51.584 71.1954 57.0443 72.671 58.2024 72.8889Z" fill="url(#paint19_linear_1_213)"/>
<path d="M81.5 16.5615C78.5986 17.3087 75.9961 20.1229 75.9961 20.1229C75.9961 20.1229 80.2423 19.4878 86.0638 22.1588C85.1112 19.494 82.7951 17.3273 81.5 16.5615Z" fill="#9C3D39"/>
<path d="M52.1065 139.864C51.5897 139.727 50.8239 139.148 50.2822 138.401C50.6682 138.65 51.7703 139.341 52.2746 139.422C56.1037 139.839 58.6128 139.08 59.4969 138.631C59.3351 138.955 59.1607 139.216 58.9988 139.347C57.131 140.101 52.9283 140.076 52.1065 139.858V139.864Z" fill="#932F30"/>
<g style="mix-blend-mode:screen" opacity="0.22">
<path d="M11.7981 119.224C11.5989 118.845 11.518 118.384 11.6051 117.967C12.2589 117.979 12.9126 118.035 13.5601 118.154C16.6795 118.714 19.2758 120.314 21.7662 122.014C24.2567 123.72 26.6475 125.532 29.3248 126.621C30.5389 127.119 31.8215 127.455 33.129 127.636C31.6907 127.898 30.0968 127.779 28.6586 127.518C23.0426 126.497 17.6756 124.112 13.1492 120.632C12.6324 120.233 12.1095 119.804 11.8044 119.224H11.7981Z" fill="#FFF64D"/>
</g>
<path d="M53.1037 70.2934C50.744 67.2613 46.2798 61.5831 44.331 54.0681C44.3186 54.0307 44.2688 53.8751 44.2003 53.6696C44.2003 53.6572 44.2003 53.6385 44.1941 53.626C43.9326 52.2189 44.935 50.8865 45.1155 50.2577C45.1902 49.9962 44.3497 47.8731 41.8032 47.1695C40.5829 46.8333 40.1035 47.3625 39.7922 47.6987C39.6614 47.8419 39.431 47.7921 39.3875 47.6116C39.2069 46.9329 38.9703 46.4037 38.5158 45.8869C38.1547 45.4698 37.4138 45.0277 35.8199 45.3639C34.4563 45.6565 33.0181 46.3663 32.6009 46.964C32.1278 47.6489 32.2647 48.4334 32.4827 49.1307C32.5947 49.4981 32.1776 49.8281 31.8476 49.6351C31.474 49.4109 31.1378 49.2304 30.7642 49.193C30.0171 49.1245 29.1267 49.6662 27.5329 51.7333C26.2938 53.3334 26.3935 54.2051 26.9102 54.7841C27.2963 55.2137 27.7445 55.5063 28.1243 55.7242C28.28 55.8176 28.2675 56.048 28.1057 56.1414C27.8504 56.2908 27.5391 56.4901 27.2278 56.7329C26.7608 57.1002 26.3499 57.6855 26.0573 58.6692C25.802 59.5222 25.8891 60.4312 26.2565 61.2033C27.4955 63.8058 27.6823 62.0376 30.1976 62.9715C30.5152 63.0898 30.9074 63.2268 31.3557 63.3762C32.3581 64.0175 34.4812 65.7484 35.0478 66.427C36.6293 68.3073 39.9042 72.3045 41.4359 74.1163C43.8516 76.9679 50.9183 76.9056 53.7886 80.853C58.3523 80.9776 55.5132 72.2049 53.0975 70.2748L53.1037 70.2934Z" fill="url(#paint20_linear_1_213)"/>
<path d="M26.088 59.7461C26.032 59.659 25.9884 59.5656 25.9386 59.4784C25.9573 59.2169 25.9884 58.9492 26.0693 58.6877C26.362 57.6977 26.7729 57.1187 27.2399 56.7514C27.5449 56.5085 27.8625 56.3093 28.1178 56.1599C28.2796 56.0665 28.2921 55.8299 28.1364 55.7427C27.7566 55.5186 27.3084 55.226 26.9223 54.8026C26.3993 54.2235 26.3059 53.3519 27.5449 51.7518C29.1388 49.6847 30.0292 49.1492 30.7763 49.2115C31.1499 49.2426 31.4861 49.4294 31.8597 49.6535C32.1897 49.8465 32.6068 49.5166 32.4885 49.1492C32.2768 48.4519 32.1336 47.6674 32.6068 46.9825C33.024 46.3786 34.4622 45.6688 35.8257 45.3824C37.4134 45.04 38.1543 45.4882 38.5217 45.9054C38.9762 46.4222 39.2128 46.9514 39.3933 47.63C39.4431 47.8106 39.6673 47.8604 39.798 47.7172C40.1093 47.381 40.595 46.8518 41.8091 47.188C43.3158 47.6051 44.2248 48.5142 44.698 49.2488C43.2847 51.3782 42.6994 54.0617 43.1539 56.5833C43.3407 57.6043 43.6831 58.613 43.6209 59.6465C43.4839 62.0747 41.0931 63.8803 38.6898 64.2227C36.2865 64.559 33.8769 63.7931 31.567 63.0273C29.5062 62.3487 27.2959 61.558 26.0818 59.7586L26.088 59.7461Z" fill="#FA7C30"/>
<path d="M45.0903 50.0455C44.698 48.6633 43.5151 47.3246 41.89 46.8701C41.5912 46.7892 41.3297 46.7518 41.0869 46.7518C40.6759 46.7518 40.346 46.8639 40.1031 47.0196C39.9039 47.1441 39.7607 47.2873 39.6486 47.4056C39.4618 46.758 39.2066 46.2102 38.7521 45.6872C38.4345 45.3136 37.8306 44.9338 36.8531 44.94C36.5293 44.94 36.1682 44.9774 35.7573 45.0645C35.0475 45.214 34.3253 45.4755 33.7213 45.7743C33.1112 46.0794 32.6193 46.4094 32.3453 46.7954C32.0714 47.1877 31.9718 47.6235 31.9718 48.0344C31.9718 48.4578 32.0714 48.8625 32.1835 49.2298V49.261L32.1399 49.3481L32.0465 49.3917L31.9967 49.3793C31.6169 49.1551 31.2433 48.9372 30.7826 48.8936H30.6331C30.1849 48.8874 29.7117 49.0742 29.1824 49.4913C28.6532 49.9085 28.0431 50.5622 27.2772 51.5522C26.5426 52.5048 26.2312 53.2395 26.225 53.8745C26.225 54.3353 26.4118 54.7213 26.6671 55.0077C27.0531 55.4311 27.4827 55.7237 27.8501 55.9479C27.601 56.0973 27.3146 56.2841 27.0282 56.5082C26.5052 56.9191 26.0569 57.5729 25.7518 58.6002C25.7207 58.706 25.7207 58.787 25.7207 58.8928C25.7207 59.1792 25.7705 59.5964 25.8577 60.0322C25.9511 60.4681 26.0818 60.9039 26.306 61.2276C26.4056 61.3708 26.5986 61.402 26.7418 61.3086C26.885 61.209 26.9161 61.0159 26.8227 60.8727C26.6858 60.686 26.555 60.2937 26.4741 59.9015C26.3869 59.5092 26.3495 59.1107 26.3495 58.8928V58.7994V58.7745C26.6297 57.8282 27.0095 57.3176 27.4142 56.9939C27.7068 56.7635 28.0119 56.5705 28.2547 56.4273C28.4415 56.3214 28.5412 56.1284 28.5412 55.9354C28.5412 55.7611 28.454 55.5743 28.2734 55.4684C27.9061 55.2505 27.4827 54.9766 27.134 54.5843C26.9535 54.3789 26.8539 54.1734 26.8476 53.8683C26.8476 53.4574 27.0718 52.8286 27.7691 51.932C28.5162 50.9669 29.1015 50.3443 29.5685 49.9832C30.0354 49.6159 30.3654 49.51 30.6394 49.51H30.7328C31.0192 49.5349 31.318 49.6906 31.6854 49.9147C31.7974 49.9832 31.9282 50.0143 32.0527 50.0143C32.2582 50.0143 32.4387 49.9272 32.5757 49.7964C32.7127 49.6657 32.8061 49.4789 32.8061 49.261C32.8061 49.1925 32.7936 49.1178 32.7749 49.0493C32.6691 48.7068 32.5882 48.3582 32.5882 48.0344C32.5882 47.7169 32.6566 47.4305 32.8497 47.1503C32.9929 46.9324 33.4287 46.6086 33.989 46.3347C34.5494 46.0607 35.228 45.8179 35.8818 45.6747C36.2554 45.5938 36.5791 45.5626 36.8468 45.5626C37.6749 45.5626 38.0485 45.849 38.2726 46.0981C38.6898 46.5775 38.9015 47.0445 39.0758 47.6982C39.1381 47.9472 39.3747 48.1029 39.5988 48.0967C39.7482 48.0967 39.9039 48.0344 40.0097 47.9161C40.128 47.7854 40.2526 47.6546 40.4144 47.555C40.5763 47.4554 40.7756 47.3807 41.0744 47.3807C41.2487 47.3807 41.4604 47.4056 41.7095 47.4741C43.0979 47.8539 44.1501 49.0431 44.4739 50.2136C44.5175 50.3817 44.6918 50.4751 44.8599 50.4315C45.028 50.3879 45.1214 50.2136 45.0778 50.0455H45.0903Z" fill="#F3593D"/>
<path d="M40.1966 48.5445C39.5615 49.1546 39.356 49.6963 39.1257 50.1321C39.0385 49.6278 38.7645 48.862 38.503 48.1958C36.959 48.0651 35.3215 48.4573 33.6342 49.5718C33.7774 50.3065 33.9579 51.0785 34.1821 51.7883C33.5532 51.3712 32.7936 51.0163 32.1274 50.7361C30.8075 51.8817 29.5934 53.3013 28.8027 54.8453C29.5249 55.4119 30.2783 56.0159 30.7951 56.4704C29.5062 56.3894 28.5723 56.7568 27.9746 57.1179C27.9061 57.4105 27.8501 57.7156 27.8065 58.0331C27.794 58.5935 27.8189 59.1601 27.8999 59.708C28.124 61.2085 29.0144 60.9906 30.1413 61.1026C31.6169 61.2521 33.1983 61.9805 34.6179 62.3852C35.5767 62.6592 36.5667 62.9394 37.5816 62.8273C38.8143 61.1836 41.199 59.104 42.2574 59.1165C43.1104 57.4292 42.1329 55.5738 42.245 53.7246C42.3819 51.5455 42.8427 50.7548 43.2038 50.0201C42.3695 48.7437 41.2737 48.5881 40.1966 48.5569V48.5445Z" fill="#FFC281"/>
<path d="M33.6341 54.2611C33.6528 54.1055 33.6217 53.9436 33.5781 53.7942C33.4473 53.3085 33.2107 52.8602 32.8807 52.4867C32.7126 52.2936 32.5009 52.1193 32.2394 52.0944C31.2059 52.001 30.3031 53.8875 30.8946 54.6347C31.4612 55.3445 33.4971 55.5562 33.6279 54.2673L33.6341 54.2611Z" fill="#FF836F"/>
<path d="M29.6245 59.5152C29.8923 59.6023 30.1973 59.5152 30.4464 59.3595C30.6954 59.2039 30.8884 58.9797 31.0877 58.7556C31.1873 58.6435 31.2869 58.5315 31.3492 58.3945C31.4114 58.2575 31.4239 58.0956 31.3492 57.9711C31.2807 57.8528 31.1499 57.7968 31.013 57.7781C30.876 57.7656 30.739 57.7905 30.602 57.8155C30.2907 57.8715 29.9732 57.9337 29.6992 58.1018C29.1949 58.4069 28.9521 59.2973 29.6245 59.509V59.5152Z" fill="#FF836F"/>
<path d="M35.6082 51.9255C35.7265 52.1248 35.8635 52.324 36.044 52.461C36.2308 52.598 36.4736 52.6789 36.7102 52.6166C36.9531 52.5482 37.1461 52.3365 37.2581 52.1061C37.3702 51.8757 37.4013 51.6205 37.4387 51.3652C37.4885 51.0103 37.5383 50.6492 37.5881 50.2943C37.6193 50.0515 37.6504 49.7837 37.4947 49.6032C37.2893 49.3604 36.897 49.4351 36.5795 49.5285C36.2682 49.6219 35.9569 49.709 35.6456 49.8024C35.4899 49.846 35.3343 49.8958 35.2035 49.983C34.5809 50.4001 35.3592 51.5022 35.6082 51.9255Z" fill="#FF836F"/>
<path d="M40.1778 51.7768C40.1778 51.9636 40.2089 52.1877 40.3833 52.2375C40.5389 52.2873 40.7008 52.1566 40.8253 52.0445C41.0744 51.8141 41.3296 51.5775 41.5787 51.3472C41.7904 51.1542 42.0083 50.9363 42.0768 50.6623C42.1515 50.3572 42.0083 50.0272 41.7592 49.8529C40.5763 48.9812 40.1902 50.9612 40.1716 51.783L40.1778 51.7768Z" fill="#FF836F"/>
<path d="M44.8534 65.6235C42.9793 67.8774 38.9821 69.0355 35.9375 67.4976C36.9461 68.7117 38.2287 70.2683 39.3806 71.6567C42.724 71.6754 44.5234 69.5398 44.8596 65.6298L44.8534 65.6235Z" fill="#9C3D39"/>
<path d="M50.6253 70.686C50.7685 72.448 49.4797 75.119 46.8025 75.8101C45.4887 76.1525 44.0256 75.6544 43.0792 75.3867C44.5797 76.2086 46.5721 76.7565 48.5084 77.4725C52.6862 77.927 51.6962 74.0917 50.6253 70.686Z" fill="#9C3D39"/>
<path d="M33.5532 58.1712C36.1184 54.1117 40.8502 54.0557 40.5078 55.7492C40.128 57.6731 37.183 62.0003 36.5729 61.1473C36.5729 61.1473 33.0489 58.9619 33.5532 58.165V58.1712Z" fill="#FF836F"/>
<defs>
<linearGradient id="paint0_linear_1_213" x1="21.2872" y1="125.65" x2="48.8691" y2="125.65" gradientUnits="userSpaceOnUse">
<stop stop-color="#FA7C30"/>
<stop offset="0.23" stop-color="#F66B36"/>
<stop offset="0.55" stop-color="#F3593D"/>
<stop offset="0.64" stop-color="#ED563C"/>
<stop offset="0.76" stop-color="#DD4F39"/>
<stop offset="0.9" stop-color="#C24336"/>
<stop offset="1" stop-color="#AB3933"/>
</linearGradient>
<linearGradient id="paint1_linear_1_213" x1="81.6748" y1="69.0607" x2="79.5579" y2="89.4887" gradientUnits="userSpaceOnUse">
<stop stop-color="#F3593D"/>
<stop offset="0.21" stop-color="#ED563C"/>
<stop offset="0.48" stop-color="#DD4F39"/>
<stop offset="0.78" stop-color="#C24336"/>
<stop offset="1" stop-color="#AB3933"/>
</linearGradient>
<linearGradient id="paint2_linear_1_213" x1="60.0641" y1="125.65" x2="28.9147" y2="125.65" gradientUnits="userSpaceOnUse">
<stop stop-color="white"/>
<stop offset="0.21" stop-color="#F0DDDC"/>
<stop offset="0.56" stop-color="#D69E9B"/>
<stop offset="0.65" stop-color="#DCADAA"/>
<stop offset="0.84" stop-color="#EDD5D4"/>
<stop offset="1" stop-color="#FEFDFD"/>
</linearGradient>
<linearGradient id="paint3_linear_1_213" x1="64.0049" y1="94.5746" x2="64.0049" y2="140.044" gradientUnits="userSpaceOnUse">
<stop stop-color="#FA7C30"/>
<stop offset="0.16" stop-color="#F66B36"/>
<stop offset="0.38" stop-color="#F3593D"/>
<stop offset="0.49" stop-color="#ED563C"/>
<stop offset="0.63" stop-color="#DD4F3A"/>
<stop offset="0.79" stop-color="#C24336"/>
<stop offset="0.96" stop-color="#9D3331"/>
<stop offset="1" stop-color="#932F30"/>
</linearGradient>
<linearGradient id="paint4_linear_1_213" x1="71.3211" y1="86.5802" x2="71.3211" y2="102.314" gradientUnits="userSpaceOnUse">
<stop offset="0.02" stop-color="#FFD09C"/>
<stop offset="1" stop-color="#F9BD8A"/>
</linearGradient>
<linearGradient id="paint5_linear_1_213" x1="86.1699" y1="0.789983" x2="78.3437" y2="22.0212" gradientUnits="userSpaceOnUse">
<stop stop-color="#76262C"/>
<stop offset="0.18" stop-color="#7B292C"/>
<stop offset="0.41" stop-color="#8B342C"/>
<stop offset="0.6" stop-color="#9F422D"/>
<stop offset="0.8" stop-color="#B6532D"/>
<stop offset="1" stop-color="#D3672E"/>
</linearGradient>
<linearGradient id="paint6_linear_1_213" x1="76.2082" y1="22.7318" x2="83.4492" y2="7.61469" gradientUnits="userSpaceOnUse">
<stop stop-color="#FFD4A7"/>
<stop offset="0.95" stop-color="#FFB96D"/>
</linearGradient>
<linearGradient id="paint7_linear_1_213" x1="81.1265" y1="-1.07109" x2="73.2939" y2="20.1601" gradientUnits="userSpaceOnUse">
<stop stop-color="#76262C"/>
<stop offset="0.18" stop-color="#7B292C"/>
<stop offset="0.41" stop-color="#8B342C"/>
<stop offset="0.6" stop-color="#9F422D"/>
<stop offset="0.8" stop-color="#B6532D"/>
<stop offset="1" stop-color="#D3672E"/>
</linearGradient>
<radialGradient id="paint8_radial_1_213" cx="0" cy="0" r="1" gradientUnits="userSpaceOnUse" gradientTransform="translate(55.9977 17.8693) scale(28.2792 28.2792)">
<stop stop-color="#FE9128"/>
<stop offset="0.22" stop-color="#FE8B2A"/>
<stop offset="0.51" stop-color="#FE7B30"/>
<stop offset="0.84" stop-color="#FE603A"/>
<stop offset="0.87" stop-color="#FF5E3B"/>
</radialGradient>
<linearGradient id="paint9_linear_1_213" x1="53.7562" y1="48.0409" x2="48.3705" y2="41.3416" gradientUnits="userSpaceOnUse">
<stop stop-color="#FDA80D"/>
<stop offset="0.99" stop-color="#AE1702"/>
</linearGradient>
<linearGradient id="paint10_linear_1_213" x1="80.4841" y1="43.8207" x2="75.9431" y2="36.9742" gradientUnits="userSpaceOnUse">
<stop stop-color="#FDA80D"/>
<stop offset="0.99" stop-color="#AE1702"/>
</linearGradient>
<radialGradient id="paint11_radial_1_213" cx="0" cy="0" r="1" gradientUnits="userSpaceOnUse" gradientTransform="translate(47.3558 46.2852) scale(24.942 24.942)">
<stop stop-color="white"/>
<stop offset="0.04" stop-color="#FFFBF7"/>
<stop offset="0.19" stop-color="#FFEDDA"/>
<stop offset="0.35" stop-color="#FFE3C4"/>
<stop offset="0.53" stop-color="#FFDBB4"/>
<stop offset="0.73" stop-color="#FFD7AA"/>
<stop offset="1" stop-color="#FFD6A8"/>
</radialGradient>
<linearGradient id="paint12_linear_1_213" x1="12.6703" y1="15.6088" x2="33.173" y2="29.4744" gradientUnits="userSpaceOnUse">
<stop stop-color="#76262C"/>
<stop offset="0.18" stop-color="#7B292C"/>
<stop offset="0.41" stop-color="#8B352C"/>
<stop offset="0.67" stop-color="#A6472D"/>
<stop offset="0.95" stop-color="#CB612D"/>
<stop offset="1" stop-color="#D3672E"/>
</linearGradient>
<linearGradient id="paint13_linear_1_213" x1="35.8942" y1="32.3441" x2="16.4624" y2="19.593" gradientUnits="userSpaceOnUse">
<stop stop-color="#FFD4A7"/>
<stop offset="0.95" stop-color="#FFB96D"/>
</linearGradient>
<linearGradient id="paint14_linear_1_213" x1="16.3996" y1="10.1045" x2="36.809" y2="23.9079" gradientUnits="userSpaceOnUse">
<stop stop-color="#76262C"/>
<stop offset="0.18" stop-color="#7B292C"/>
<stop offset="0.41" stop-color="#8B352C"/>
<stop offset="0.67" stop-color="#A6472D"/>
<stop offset="0.95" stop-color="#CB612D"/>
<stop offset="1" stop-color="#D3672E"/>
</linearGradient>
<linearGradient id="paint15_linear_1_213" x1="55.2567" y1="137.49" x2="55.2883" y2="133.375" gradientUnits="userSpaceOnUse">
<stop stop-color="#FE7831"/>
<stop offset="0.22" stop-color="#FE7532"/>
<stop offset="0.36" stop-color="#FE6C35"/>
<stop offset="0.47" stop-color="#FF5E3B"/>
<stop offset="0.6" stop-color="#F95B3A"/>
<stop offset="0.77" stop-color="#E95439"/>
<stop offset="0.96" stop-color="#CE4837"/>
<stop offset="1" stop-color="#C84637"/>
</linearGradient>
<linearGradient id="paint16_linear_1_213" x1="69.496" y1="136.608" x2="69.496" y2="132.305" gradientUnits="userSpaceOnUse">
<stop stop-color="#FE7931"/>
<stop offset="0.32" stop-color="#FE6737"/>
<stop offset="0.47" stop-color="#FF5E3B"/>
<stop offset="0.6" stop-color="#F95B3A"/>
<stop offset="0.77" stop-color="#E95439"/>
<stop offset="0.96" stop-color="#CE4837"/>
<stop offset="1" stop-color="#C84637"/>
</linearGradient>
<linearGradient id="paint17_linear_1_213" x1="68.9982" y1="99.4318" x2="71.937" y2="119.219" gradientUnits="userSpaceOnUse">
<stop stop-color="white"/>
<stop offset="0.59" stop-color="#E5C2C1"/>
<stop offset="1" stop-color="#D69E9B"/>
</linearGradient>
<linearGradient id="paint18_linear_1_213" x1="58.7995" y1="47.3187" x2="63.0831" y2="70.1625" gradientUnits="userSpaceOnUse">
<stop offset="0.15" stop-color="white"/>
<stop offset="0.31" stop-color="#F8E6DF"/>
<stop offset="0.65" stop-color="#E6A88E"/>
<stop offset="1" stop-color="#D46436"/>
</linearGradient>
<linearGradient id="paint19_linear_1_213" x1="69.2165" y1="72.8018" x2="73.1203" y2="90.8576" gradientUnits="userSpaceOnUse">
<stop/>
<stop offset="0.09" stop-color="#1D1D1D"/>
<stop offset="0.4" stop-color="#7C7C7C"/>
<stop offset="0.64" stop-color="#C2C2C2"/>
<stop offset="0.82" stop-color="#EEEEEE"/>
<stop offset="0.91" stop-color="white"/>
</linearGradient>
<linearGradient id="paint20_linear_1_213" x1="54.1061" y1="81.3013" x2="31.418" y2="49.6537" gradientUnits="userSpaceOnUse">
<stop stop-color="#FA7C30"/>
<stop offset="0.42" stop-color="#F66B36"/>
<stop offset="1" stop-color="#F3593D"/>
</linearGradient>
</defs>
</svg>
