<svg width="105" height="137" viewBox="0 0 105 137" fill="none" xmlns="http://www.w3.org/2000/svg">
<path d="M21.5289 27.3427C19.9612 23.3702 17.904 19.3622 14.3854 16.9503C10.8598 14.5384 5.51815 14.3326 2.68062 17.5319C0.949727 19.4827 0.481533 22.2352 0.332563 24.8386C0.176499 27.5342 1.52432 32.1452 3.64538 33.94C5.97215 35.912 10.3349 34.7558 12.1367 35.0821C14.0236 35.4226 13.676 37.6784 15.5843 37.6217C17.4996 37.5649 19.4788 36.9052 20.7131 35.4368L21.5289 27.3427Z" fill="#FFBC73"/>
<path d="M4.89342 28.0303C6.50372 28.236 7.94376 28.6971 9.32706 29.4136C8.17077 29.2292 6.99319 29.6193 5.94331 30.1372C3.85772 31.1587 2.02751 32.7122 0.679688 34.6063C3.23346 33.1804 6.36184 32.8258 9.17099 33.6344C7.87992 34.0033 6.73781 34.8617 6.02843 36.0038C7.73804 35.4292 9.68175 35.6065 11.2495 36.4933C12.0014 34.9752 12.7605 33.45 13.5124 31.9319C14.1154 30.7189 15.4277 29.3072 13.9593 28.5198C12.6966 27.8388 10.9657 27.5621 9.56115 27.4912C8.11401 27.4203 6.50372 27.8175 4.89342 28.0303Z" fill="#FFD7AB"/>
<path d="M2.68023 17.5312C5.51066 14.339 10.8594 14.5447 14.385 16.9495C17.9107 19.3614 19.9608 23.3694 21.5285 27.342L20.7624 34.9749C17.5985 32.5488 14.4702 30.0376 14.4702 30.0376C10.3628 25.1074 4.60265 24.4902 4.60265 24.4902C2.26169 24.1356 1.58778 24.5186 0.34636 24.6747C-0.760276 22.8374 0.991898 19.4394 2.68732 17.5312H2.68023Z" fill="url(#paint0_linear_1_427)"/>
<path d="M48.1016 106.836C47.4915 109.595 47.6263 112.504 48.4776 115.2C46.3353 117.952 44.5405 120.953 43.1572 124.116C44.5051 125.131 51.0526 125.847 55.6069 125.677C58.3451 125.571 61.6154 126.252 63.4385 124.301C65.1339 122.485 64.7863 119.676 64.0556 117.335C63.3037 114.909 62.2396 112.532 60.5868 110.56C58.9268 108.588 56.6284 107.035 54.025 106.566C51.4215 106.098 48.5273 106.836 46.7751 108.737L48.1016 106.843V106.836Z" fill="#932F30"/>
<path d="M34.73 90.4063C34.5314 91.4349 34.8223 110.985 31.8641 117.107C30.268 117.178 27.9554 118.583 27.3241 120.818C26.7069 122.988 28.5939 124.293 28.5939 124.293C28.5939 124.293 33.2474 125.358 36.2339 124.293L48.6623 92.4706L34.73 90.4063Z" fill="#932F30"/>
<path opacity="0.39" d="M27.6436 120.002C28.5374 118.25 30.4669 117.172 31.8573 117.108C32.9639 114.817 33.6166 110.653 34.0067 106.276C36.0497 112.114 35.2552 120.825 33.347 121.109C31.9779 121.308 28.9701 120.4 27.6436 120.002Z" fill="url(#paint1_linear_1_427)"/>
<path d="M33.7511 86.6396C39.8163 80.4963 41.1429 74.8142 39.9156 71.8419C40.8591 73.133 42.5545 74.9206 44.6117 74.7007C46.598 74.4879 49.0737 69.4655 51.0387 69.352C53.2733 69.2172 56.0115 68.6142 56.0257 69.4584C56.0683 72.53 54.5856 78.6591 61.6582 82.433C73.817 78.6165 85.0749 85.6677 85.2806 99.5078C85.3941 106.864 83.3866 111.766 82.1594 115.781C85.1529 115.483 100.972 114.724 104.583 123.457C105.924 126.698 103.59 130.494 102.065 130.933C98.0353 131.692 96.4037 128.536 96.3612 128.628C100.05 121.697 79.6198 123.485 75.4415 124.301C74.0937 124.549 72.0223 123.464 71.7811 122.974L73.0225 117.363C73.0225 117.363 62.8783 119.179 51.5282 111.816C40.1781 104.452 32.687 96.6774 33.7582 86.6538L33.7511 86.6396Z" fill="url(#paint2_linear_1_427)"/>
<path d="M43.307 98.0889C43.307 98.0889 45.2153 99.4438 48.2089 102.054C52.0395 105.388 58.0835 103.955 62.5951 109.453C66.3478 115.816 64.6878 120.285 64.6878 120.285C64.6878 120.285 53.0965 117.512 41.1576 104.942C39.8594 103.58 33.7233 96.5424 33.2764 94.3008C35.5606 93.1587 43.307 98.0818 43.307 98.0818V98.0889Z" fill="#DDA078"/>
<path d="M27.7782 91.8108C28.9558 91.6761 30.0908 91.1724 30.9775 90.385C31.1052 91.4349 30.8995 92.5202 30.4029 93.4566C32.5949 93.8113 34.8578 92.6692 36.2269 90.917C37.596 89.1648 38.1636 86.9019 38.2487 84.6816C38.2983 83.4756 38.2132 82.2342 37.7521 81.1205C36.4539 77.9637 31.7365 77.46 31.467 81.3191C31.1974 85.1001 30.4668 88.9378 27.7853 91.8179L27.7782 91.8108Z" fill="#FFD09C"/>
<path d="M45.91 102.757C47.116 99.8695 46.0093 100.281 47.0095 97.3441C45.3354 94.9748 43.6258 92.194 41.8878 88.8883C42.583 82.4967 55.5079 76.3393 59.8139 71.5226L45.6972 70.0116C39.7738 72.1043 32.7935 71.934 31.0484 84.1638C30.5944 87.3276 31.1123 90.1936 32.2544 92.8254C34.5031 98.0109 38.7381 100.295 43.9663 103.282L45.91 102.757Z" fill="#FFD09C"/>
<path d="M43.7323 105.97C43.7323 105.97 43.7039 106.041 43.6897 106.076C43.7039 106.041 43.7181 106.006 43.7323 105.97Z" fill="#F5B995"/>
<path d="M57.6219 118.094C54.5786 113.937 54.2026 110.95 55.3802 108.751C56.955 104.644 62.5804 102.806 67.9717 104.722C73.8454 106.481 78.6692 111.922 79.1161 114.802C79.7617 118.987 68.8939 123.946 65.645 126.429C63.2473 124.343 62.6656 124.244 61.1262 122.52L60.2678 121.108C59.523 120.222 58.2248 119.023 57.6219 118.094Z" fill="url(#paint3_linear_1_427)"/>
<g style="mix-blend-mode:multiply" opacity="0.28">
<path d="M54.9758 109.759C55.2808 111.596 56.047 113.355 57.3877 114.965C58.5865 116.405 60.0762 117.711 61.6936 118.753C61.9632 118.988 62.247 119.229 62.5449 119.463C63.382 120.151 64.2687 120.761 65.2051 121.258C65.9357 121.69 66.7161 122.109 67.5744 122.52C67.8085 123.62 67.8795 124.414 67.8582 124.975C67.4822 125.202 67.1275 125.422 66.8083 125.635C65.8719 124.982 63.5877 123.627 61.2396 122.286C60.7218 121.754 60.2252 121.229 59.7783 120.726L59.6648 120.846C58.92 119.959 58.2389 119.03 57.6289 118.101C55.0254 114.547 54.3799 111.844 54.9829 109.766L54.9758 109.759Z" fill="#D87146"/>
</g>
<path d="M67.3758 123.194C62.7577 122.435 58.317 120.25 55.7845 120.25C55.0183 120.25 52.1879 121.016 51.4643 121.498C49.9746 122.889 49.3007 125.542 49.6696 126.379C50.0527 127.252 52.9327 129.536 55.7064 129.642C57.9906 129.734 72.7174 127.67 76.7113 127.195C81.1591 126.663 79.8254 123.797 77.9811 120.321L67.3758 123.194Z" fill="#FF5E3B"/>
<path d="M64.2053 128.635C62.0913 128.891 60.0766 129.132 58.2393 129.316C56.4304 129.529 54.7563 129.451 53.4865 128.983C52.2025 128.522 51.2945 127.827 50.6986 127.344C50.0956 126.855 49.7906 126.55 49.7551 126.585C49.7339 126.606 49.9892 126.961 50.5567 127.507C51.1242 128.046 52.011 128.813 53.3517 129.352C54.6924 129.898 56.4375 130.011 58.289 129.827C60.1334 129.671 62.1551 129.444 64.2762 129.189C68.5112 128.678 72.3348 128.124 75.0943 127.663C76.4705 127.429 77.5984 127.252 78.3503 126.954C79.1307 126.663 79.3151 126.159 79.2867 126.167C79.2442 126.124 79.0172 126.543 78.2723 126.748C77.5416 126.968 76.4137 127.089 75.0304 127.273C72.2567 127.621 68.4332 128.103 64.2053 128.635Z" fill="#932F30"/>
<path d="M51.4639 121.499C52.1803 121.016 55.0179 120.25 55.784 120.25C58.1888 120.25 60.4872 121.513 64.6797 122.293C64.8499 122.946 64.5307 123.605 63.5092 124.23C57.1247 125.336 51.3007 121.662 51.471 121.506L51.4639 121.499Z" fill="url(#paint4_linear_1_427)"/>
<path d="M41.0362 6.52196C35.7938 5.92608 33.2188 5.15285 31.3176 3.37939C31.6369 4.635 33.1053 7.30937 34.5666 8.0826C33.9565 8.24576 32.0909 8.66429 29.6719 7.69953C29.9769 10.2107 31.2467 11.8849 32.4101 12.0764C36.7302 11.4451 38.2554 10.8137 42.5755 10.1895C44.5973 9.89862 46.6261 9.60777 48.6691 9.48718C49.946 9.41624 52.4076 9.99793 51.9252 8.43729C51.3435 6.56452 43.0366 6.75606 41.0291 6.52905L41.0362 6.52196Z" fill="#9C3D39"/>
<path d="M80.4642 30.8754C80.4642 30.8754 80.2585 37.3733 84.7915 38.3593C87.2672 43.2825 81.6986 69.0827 50.5709 78.7303C19.4432 88.3779 11.8173 72.2323 9.13585 67.5079C10.7816 67.5079 13.2574 65.1456 13.2574 65.1456C13.2574 65.1456 3.97864 49.2342 9.95873 34.0321C15.2223 20.6461 32.2192 4.2948 49.5352 7.0543C75.5057 11.19 80.4572 30.8825 80.4572 30.8825L80.4642 30.8754Z" fill="url(#paint5_linear_1_427)"/>
<path d="M9.90135 67.3656C11.4549 66.8619 13.2638 65.1381 13.2638 65.1381C13.2638 65.1381 8.61737 57.1575 8.02148 47.1056C12.1856 40.4445 20.9677 50.2553 25.7773 61.7331L17.2647 72.8349C17.2647 72.8349 13.1432 71.3594 9.90135 67.3656Z" fill="#FFAE7A"/>
<path d="M84.9119 45.1122C84.7913 45.7507 84.6352 46.4175 84.4508 47.1056C80.5208 52.8161 64.5171 56.3063 60.9064 54.2774C60.9064 54.2774 72.8453 43.1118 84.9119 45.1122Z" fill="#9C3D39"/>
<path d="M60.2824 55.9726C60.2824 55.9726 63.6733 45.112 60.857 37.8196C57.5655 29.2999 43.9028 19.6381 37.9511 47.4955C33.3543 68.9969 40.3772 76.9349 40.3772 76.9349L60.2824 55.9726Z" fill="#FFAE7A"/>
<path d="M63.2473 46.5241C65.5315 40.0971 72.4977 34.4363 80.4853 31.7335C80.6059 33.5283 81.2727 37.593 84.7842 38.3521C84.8126 38.4088 84.8338 38.4726 84.8551 38.5365C77.4917 39.2672 68.8089 41.4237 63.2402 46.5241H63.2473Z" fill="#9C3D39"/>
<path d="M12.533 65.7766C12.9728 65.4149 13.2636 65.1453 13.2636 65.1453C13.2636 65.1453 9.79475 60.811 8.75195 52.6247C9.03571 51.7663 9.52518 51.0073 10.2984 50.4114C16.4346 45.6727 24.6847 59.6476 24.6847 60.2505L25.5501 73.2606L14.2142 68.3659C14.2142 68.3659 13.4764 67.3444 12.533 65.7766Z" fill="#76262C"/>
<path d="M24.9406 60.6198C24.9406 60.031 17.187 46.2548 11.7603 51.0573C7.70259 54.6468 15.7541 67.0397 15.7541 67.0397L25.7351 73.2539L24.9406 60.6127V60.6198Z" fill="#FEE8EA"/>
<path d="M15.1871 50.1497C17.301 50.6179 19.4363 52.4481 21.3942 54.3847C23.7848 56.754 25.4235 59.9746 25.9484 61.8119L25.6008 71.0906L22.5646 72.325C19.9754 71.949 8.63946 54.2499 15.1871 50.1426V50.1497Z" fill="white"/>
<path d="M57.7212 55.6114C61.2965 45.5595 61.3319 34.3229 52.564 33.9043C43.796 33.4858 36.766 45.6659 39.5823 64.0531L57.7212 55.6114Z" fill="#76262C"/>
<path d="M57.0048 55.8736C59.2748 47.0773 59.6437 37.0253 51.4007 36.6422C43.1576 36.2592 36.4114 48.0491 39.0645 64.7764L57.0048 55.8736Z" fill="#FEE8EA"/>
<path d="M48.8613 40.5081C46.038 40.3804 43.3849 41.6786 41.2283 44.1118C38.781 49.1129 37.7169 56.3061 39.0576 64.769L55.1322 56.7955C56.7071 48.8434 56.1892 40.8486 48.8542 40.5081H48.8613Z" fill="white"/>
<path d="M43.1218 53.8876C42.611 57.5125 44.7321 60.7757 47.8534 61.173C50.9747 61.5702 53.9186 58.9526 54.4223 55.3276C54.933 51.7027 52.812 48.4395 49.6907 48.0423C46.5694 47.645 43.6255 50.2627 43.1218 53.8876Z" fill="url(#paint6_linear_1_427)"/>
<path d="M44.9731 54.299C44.6326 56.7393 46.0585 58.9313 48.1582 59.2009C50.258 59.4704 52.2372 57.7112 52.5777 55.2709C52.9182 52.8306 51.4923 50.6386 49.3926 50.3691C47.2928 50.0995 45.3136 51.8588 44.9731 54.299Z" fill="#76262C"/>
<g style="mix-blend-mode:overlay" opacity="0.23">
<path d="M48.251 54.5542C49.691 55.8027 49.8684 58.5834 48.8114 61.2011C48.4992 61.2223 48.18 61.2223 47.8537 61.1798C45.2999 60.8535 43.4201 58.6118 43.0938 55.8169C44.7608 53.9512 46.8677 53.3553 48.2439 54.5542H48.251Z" fill="white"/>
</g>
<path d="M20.486 56.7605C21.4153 56.3419 22.5078 56.4767 23.5648 57.0371C24.7707 58.8035 25.6078 60.6124 25.9554 61.8184L25.7568 67.1245C25.7213 67.1458 25.6858 67.1671 25.6504 67.1813C23.6783 68.0751 20.9259 66.4648 19.5 63.5918C18.0741 60.7117 18.514 57.6543 20.486 56.7605Z" fill="url(#paint7_linear_1_427)"/>
<path d="M21.5926 58.0579C22.5431 57.6252 23.7491 58.0224 24.7351 58.9659C25.3168 60.0442 25.7283 61.0515 25.9482 61.8176L25.8347 64.8893C25.6573 65.0879 25.4587 65.2581 25.2104 65.3716C23.8271 66.003 21.8976 64.868 20.8974 62.8533C19.8971 60.8316 20.2093 58.6893 21.5926 58.0579Z" fill="#76262C"/>
<g style="mix-blend-mode:overlay" opacity="0.23">
<path d="M19.4996 63.5919C19.2655 63.1095 19.0811 62.6271 18.9463 62.1518C19.8401 61.3361 21.5284 61.18 22.4932 61.3999C23.8127 61.6978 25.1321 63.7976 25.7989 65.9399L25.7564 67.075C25.43 67.1956 24.9619 67.3445 24.8554 67.3942C24.8342 67.4013 24.8129 67.4084 24.7916 67.4155C22.9401 67.6141 20.7268 66.0818 19.4996 63.599V63.5919Z" fill="white"/>
</g>
<path d="M54.6988 70.7144C47.3142 73.3036 41.3057 85.8242 41.5753 89.9102C43.7672 93.5636 42.9089 110.099 35.4817 120.116C34.5949 120.13 32.6087 120.208 31.8851 121.613C30.5231 124.635 30.9487 125.826 30.9487 125.826C30.9487 125.826 34.4956 129.047 40.043 127.401C41.8945 126.848 54.4789 115.817 53.5142 113.27C52.294 110.05 52.9254 100.792 52.9254 100.792L54.6988 70.7144Z" fill="url(#paint8_linear_1_427)"/>
<path d="M57.0968 78.1341C57.7637 79.3756 58.7852 80.5744 60.3458 81.6385C59.4378 83.2133 57.409 84.8094 56.1817 85.8593C52.8831 88.6827 48.9389 90.754 44.7323 91.8039C50.0527 88.5621 54.4012 83.7453 57.0968 78.127V78.1341Z" fill="#9C3D39"/>
<path style="mix-blend-mode:multiply" opacity="0.83" d="M31.0488 84.157C31.5241 80.8087 32.3967 78.3968 33.5317 76.6092C40.9305 74.3817 53.1106 73.2325 58.509 72.814C57.7854 73.4595 56.9555 74.1263 56.0546 74.8073C56.239 76.141 56.6504 77.5243 57.523 78.8437C55.9765 78.5032 46.258 83.8874 42.0088 90.0945C37.2772 91.0735 30.9921 84.6181 31.0559 84.1641L31.0488 84.157Z" fill="url(#paint9_linear_1_427)"/>
<path d="M13.2643 65.1377C13.2643 65.1377 13.2076 65.0242 13.1154 64.8256C20.5639 68.1881 24.9266 70.905 33.5952 67.1098C39.2348 61.2361 55.0895 55.632 60.9136 54.1707C66.8298 52.6881 69.1495 52.2837 70.4689 50.9217C71.1145 49.6306 71.76 48.6162 71.76 48.6162C71.76 48.6162 73.0511 50.7302 71.7955 55.2915C72.9731 55.4121 74.6614 55.2915 76.1227 54.1139C73.725 70.3091 61.0625 75.1187 50.5708 78.7224C19.7765 89.2922 11.8172 72.2245 9.13574 67.5C10.7815 67.5 13.2573 65.1377 13.2573 65.1377H13.2643Z" fill="url(#paint10_radial_1_427)"/>
<path d="M38.7096 81.6807C17.6126 84.6601 11.441 71.5507 9.14258 67.5002C10.2918 67.5002 11.8453 66.351 12.6753 65.6558C14.8247 66.7482 17.1089 67.4576 19.4641 67.6562C19.5705 67.6917 19.6769 67.7343 19.7762 67.7697C19.8613 67.8052 20.9041 68.1386 20.9893 68.1741C20.9183 70.8414 23.3444 74.2393 25.4938 75.8141C28.8989 76.7009 31.3321 76.7434 31.1618 76.7505C32.4103 79.3894 36.1771 81.1132 38.7025 81.6807H38.7096Z" fill="#F5BCA1"/>
<path d="M27.09 76.1831C27.4943 76.2753 30.2609 76.5733 30.4808 76.5804C31.2257 76.6158 32.2188 76.6868 32.4316 75.5163C32.5451 74.9062 31.7293 73.9982 31.474 73.2321C31.8003 73.3881 32.5451 74.2465 34.1129 74.6792C35.1982 74.9771 36.4751 74.9771 37.4682 74.4096C38.8799 73.608 39.6815 72.7213 40.171 71.9765C40.3058 71.7707 40.4264 72.6717 38.9154 74.6012C37.7733 76.0625 35.3046 76.4456 33.5808 75.8284C33.3893 76.7577 32.5238 77.389 31.6158 77.2968C30.2042 77.155 27.2531 76.3817 27.0829 76.176L27.09 76.1831Z" fill="#76262C"/>
<path d="M37.348 66.2803C38.3624 64.4217 39.5684 62.556 39.0576 60.7329C38.327 58.1365 37.4544 56.8809 32.8647 57.6896C27.3102 58.6686 26.1256 60.0803 23.9691 62.1375C21.9615 64.0457 19.1453 66.7272 19.9752 67.9189C21.6068 68.4581 27.3528 69.1958 31.524 68.1317C35.6881 67.0677 37.348 66.2732 37.348 66.2732V66.2803Z" fill="#FE9E2E"/>
<path opacity="0.3" d="M36.5607 58.7962C35.6527 57.647 31.9001 58.0585 29.0342 58.6118C30.0344 58.2855 31.2687 57.9875 32.8719 57.6896C37.4475 56.8454 38.7243 58.172 39.1784 60.7329C39.5543 62.8255 38.32 64.4146 37.3127 66.2731C37.3127 66.2731 36.6529 66.6136 35.0356 67.1386C34.1063 66.7981 32.2406 66.4221 32.2406 66.4221C32.2406 66.4221 38.1781 60.8393 36.5607 58.8033V58.7962Z" fill="white"/>
<path d="M52.1522 7.52941C55.7771 8.29555 58.9551 9.36671 61.743 10.6436C61.3883 10.6223 61.7288 11.2253 61.3741 11.1898C53.6986 10.374 45.03 11.204 38.4469 28.7612C38.2128 29.3784 37.8297 29.35 37.8794 28.7116C38.8512 15.6518 43.4126 7.49394 52.1522 7.52941Z" fill="#9C3D39"/>
<path d="M25.1322 37.6001C22.4223 25.7179 24.0823 17.0209 28.0619 12.417C32.8928 9.16092 38.6317 6.72774 44.2145 6.75611C41.072 7.54353 37.5393 9.01195 33.2546 14.6799C29.4949 19.6527 26.1253 26.6827 25.7209 37.6072C25.6926 38.3236 25.2953 38.3236 25.1322 37.593V37.6001Z" fill="#9C3D39"/>
<path d="M18.3077 20.9297C17.35 24.7816 17.194 30.1304 17.9814 34.7981C18.0381 35.1528 17.5203 35.2025 17.2082 34.8052C15.6191 32.7693 14.4274 29.5416 13.7889 26.775C15.1013 24.7816 16.6194 22.8095 18.3006 20.9226L18.3077 20.9297Z" fill="#9C3D39"/>
<g style="mix-blend-mode:screen" opacity="0.15">
<path d="M49.0596 8.97644C52.4221 9.51557 55.4298 10.3101 58.1255 11.2961C58.4731 11.7147 58.7427 12.1758 58.9271 12.6723C60.885 17.8934 52.9328 25.3845 41.1642 29.3996C29.4026 33.4147 18.2795 32.4357 16.3287 27.2076C16.0591 26.484 15.9811 25.7179 16.0733 24.9234C23.9333 15.1481 36.4042 6.96179 49.0596 8.96934V8.97644Z" fill="#FFF64D"/>
</g>
<path d="M38.1 63.7979C38.1 63.7979 38.0361 66.3658 37.348 66.5857C34.6878 67.4228 32.6945 68.2031 31.07 69.707C30.7862 70.239 30.9423 70.7356 31.1125 71.1471C30.9778 71.4663 29.3675 71.7926 29.3675 71.7926L27.594 70.7143C23.813 70.6079 21.8906 69.6715 21.8906 69.6715C21.8906 69.6715 20.6137 68.8628 19.9043 67.7278C25.5368 69.402 33.5954 66.2665 38.107 63.7979H38.1Z" fill="#76262C"/>
<path opacity="0.16" d="M24.7778 68.139C25.5723 69.0257 26.4235 69.877 27.3102 70.7069C23.7137 70.5651 21.8906 69.6712 21.8906 69.6712C21.8906 69.6712 20.6137 68.8626 19.9043 67.7275C21.394 68.1744 23.061 68.2738 24.7778 68.139Z" fill="white"/>
<path d="M38.1 63.7972H38.3483C38.3483 63.7972 38.3341 64.457 38.2277 65.1451C38.178 65.4927 38.1 65.8474 37.9865 66.1453C37.9298 66.2943 37.8659 66.429 37.7737 66.5496C37.6886 66.6631 37.5751 66.7696 37.419 66.8192C34.7659 67.6492 32.8151 68.4224 31.2332 69.8837L31.0629 69.7064L31.2829 69.8199C31.1906 69.9972 31.1552 70.1604 31.1552 70.3236C31.1552 70.5647 31.2403 70.813 31.3396 71.0471C31.368 71.111 31.368 71.1748 31.3396 71.2387C31.2899 71.3522 31.2119 71.4089 31.141 71.4657C31.0062 71.5579 30.843 71.6288 30.6586 71.6927C30.1195 71.8913 29.4243 72.0261 29.4172 72.0261L29.2398 71.9977L27.4664 70.9194L27.5941 70.7066V70.9549C23.7634 70.8485 21.8055 69.8979 21.7842 69.8837L21.7629 69.8696C21.7629 69.8696 20.4506 69.0467 19.6986 67.8478C19.6419 67.7627 19.649 67.6492 19.7128 67.5712C19.7767 67.4931 19.8831 67.4577 19.9753 67.486C21.0536 67.8052 22.224 67.9471 23.4513 67.9471C28.4808 67.9471 34.3899 65.5494 37.9865 63.5773C38.0645 63.5348 38.1568 63.5348 38.2348 63.5773C38.3128 63.6199 38.3554 63.705 38.3554 63.7901H38.1071L38.2277 64.003C34.5744 65.9963 28.6369 68.4295 23.4584 68.4366C22.1957 68.4366 20.9755 68.2876 19.8405 67.9542L19.9115 67.7201L20.1172 67.5924C20.4506 68.1245 20.9259 68.5998 21.3231 68.9332C21.5218 69.1034 21.6991 69.2311 21.8268 69.3233C21.8906 69.3659 21.9403 69.4014 21.9758 69.4297L22.0254 69.4652L21.8906 69.6709L21.997 69.451H22.0112C22.2099 69.5503 24.0826 70.3732 27.5941 70.4725L27.7147 70.508L29.4881 71.5863L29.3604 71.7991L29.3108 71.5579C29.3108 71.5579 29.4101 71.5366 29.5591 71.5011C29.7861 71.4515 30.1266 71.3663 30.4174 71.267C30.5593 71.2174 30.6941 71.1677 30.7792 71.1181L30.8785 71.0542L30.8927 71.04L30.9423 71.0826L30.8785 71.0542V71.04L30.9423 71.0826L30.8785 71.0542L31.1055 71.1464L30.8785 71.2387C30.7721 70.9833 30.6586 70.6712 30.6586 70.3236C30.6586 70.0895 30.7083 69.8341 30.843 69.5858L30.8927 69.522C32.5597 67.9755 34.6028 67.181 37.2629 66.3439C37.2842 66.3439 37.3197 66.3155 37.3694 66.2517C37.4545 66.1382 37.5467 65.9183 37.6105 65.6629C37.7099 65.2728 37.7737 64.8046 37.8021 64.4286C37.8163 64.2441 37.8305 64.081 37.8305 63.9675C37.8305 63.854 37.8375 63.7901 37.8375 63.7901H38.0858L38.2064 64.0101L38.0858 63.7972H38.1Z" fill="#602229"/>
<path d="M34.3253 65.9394C33.3818 66.3934 32.6228 66.7339 32.6512 66.9751C32.6795 67.2233 33.6727 67.2304 34.6871 66.741C35.7086 66.2728 36.3612 65.613 36.2335 65.4073C36.0988 65.2016 35.2759 65.4995 34.3182 65.9394H34.3253Z" fill="white"/>
<path d="M70.795 110.56C73.6609 109.808 76.697 109.631 79.3927 108.411C81.4215 107.495 83.1666 105.977 84.4009 104.133C84.7273 103.651 84.9685 103.154 85.1955 102.65C84.9614 106.063 84.2874 108.893 83.5568 111.354C80.2723 111.851 76.917 111.73 73.6041 112.057C70.1424 112.404 66.5671 113.341 64.0204 115.717C64.9922 112.922 67.9433 111.319 70.8021 110.567L70.795 110.56Z" fill="#9C3D39"/>
<g style="mix-blend-mode:screen" opacity="0.22">
<path d="M67.3049 114.575C65.9926 115.462 63.9424 115.696 62.9138 116.817C61.6369 116.363 60.6935 114.823 59.8564 112.645C58.4234 108.914 58.9768 104.466 64.0276 104.75C66.1273 104.871 71.1285 105.899 75.0159 110.56C78.7331 115.724 69.7736 112.915 67.3049 114.582V114.575Z" fill="#FFF64D"/>
</g>
<path d="M96.0991 124.627C97.2767 128.238 85.1321 128.5 83.1316 128.323C77.1941 127.776 71.4197 126.911 72.3065 120.3C73.0868 114.468 70.1499 109.34 62.368 115.192C57.8492 118.59 59.1403 124.854 62.3396 128.741C70.0577 138.133 86.785 138.282 97.3193 134.509C101.866 132.884 106.754 128.528 103.973 123.229C102.902 121.186 101.356 120.505 99.192 121.094C97.674 121.506 95.4749 122.704 96.0991 124.627Z" fill="url(#paint11_radial_1_427)"/>
<path d="M17.8467 58.5271C17.8467 59.0875 18.3007 59.5415 18.8611 59.5415C19.4215 59.5415 19.8755 59.0875 19.8755 58.5271C19.8755 57.9667 19.4215 57.5127 18.8611 57.5127C18.3007 57.5127 17.8467 57.9667 17.8467 58.5271Z" fill="white"/>
<path d="M44.9806 50.0782C44.9806 50.9153 45.6261 51.5963 46.4206 51.5963C47.2151 51.5963 47.8607 50.9153 47.8607 50.0782C47.8607 49.2411 47.2151 48.5601 46.4206 48.5601C45.6261 48.5601 44.9806 49.2411 44.9806 50.0782Z" fill="white"/>
<path d="M68.0784 117.484C69.8873 116.342 72.1644 115.881 74.3351 115.611C77.2365 115.256 80.2869 115.086 82.7768 113.554C82.8123 113.533 82.8548 113.497 82.8903 113.469C82.6278 114.277 82.3795 115.044 82.1525 115.774C82.0887 115.973 81.8759 116.491 81.7907 116.64C79.1802 118.293 76.0093 118.959 72.9164 118.846C72.8383 118.846 71.0507 119.052 70.9727 119.044L71.1784 117.697C71.1784 117.697 71.1216 117.69 68.0713 117.484H68.0784Z" fill="#9C3D39"/>
<path d="M62.3673 115.185C70.1492 109.34 73.0861 114.461 72.3057 120.293C72.0291 122.378 72.4121 123.889 73.2492 124.996C72.5966 124.804 71.9156 124.705 71.2275 124.733C69.1986 124.818 67.1911 126.06 66.4462 127.954C65.7014 129.848 66.4462 132.281 68.2339 133.232C68.1842 133.281 68.1275 133.324 68.0707 133.374C65.8716 132.182 63.9137 130.657 62.3318 128.734C59.1325 124.84 57.8414 118.576 62.3602 115.185H62.3673Z" fill="#FFD09C"/>
<path d="M94.0982 123.4C93.0341 121.208 93.5945 118.428 95.2119 116.633C97.1627 117.101 99.071 117.81 100.695 118.882C99.6952 118.718 98.6241 118.832 97.7019 119.187C95.9 119.875 94.4955 121.513 94.0911 123.4H94.0982Z" fill="#9C3D39"/>
<path d="M84.082 119.86C83.5216 118.569 83.5074 117.001 83.9614 115.653C84.834 115.618 85.9122 115.597 87.1182 115.632C85.9264 117.1 85.9761 120.569 86.6713 122.811C85.6356 122.073 84.6495 121.137 84.0891 119.86H84.082Z" fill="#9C3D39"/>
<path d="M95.8154 125.28C95.638 125.145 95.4394 125.024 95.2266 124.904C96.5744 122.151 99.9227 120.619 102.739 121.577C103.157 121.718 103.555 121.917 103.924 122.158C104.172 122.563 104.392 122.988 104.583 123.442C105.151 124.811 105.059 126.273 104.647 127.55C104.427 128.578 103.938 129.536 103.271 130.394C104.073 128.528 103.711 126.081 102.228 124.719C100.426 123.066 97.3476 123.35 95.8154 125.272V125.28Z" fill="#9C3D39"/>
<path d="M91.9564 131.678C91.4101 129.912 90.2184 128.77 88.4023 128.181C89.587 128.075 90.8213 127.919 91.9493 127.685C93.1055 128.195 94.0916 128.997 94.5669 129.933C95.3756 131.522 95.8012 133.338 95.6026 135.062C94.1129 135.509 92.5309 135.885 90.8852 136.169C91.8428 134.842 92.4175 133.147 91.9634 131.678H91.9564Z" fill="#9C3D39"/>
<path d="M83.202 136.807C81.5137 136.8 79.8254 136.693 78.1583 136.474C78.1725 134.643 79.3855 130.408 82.2727 128.231C82.4288 128.245 82.5778 128.259 82.7338 128.273C82.0457 131.167 82.0528 134.019 83.2091 136.807H83.202Z" fill="#9C3D39"/>
<path d="M31.949 121.648C33.1833 119.91 34.6801 120.115 35.4463 120.115C37.6099 120.626 40.114 121.832 40.6957 123.393C38.4044 124.599 31.722 121.974 31.949 121.648Z" fill="url(#paint12_linear_1_427)"/>
<g style="mix-blend-mode:multiply" opacity="0.28">
<path d="M62.3673 115.185C63.3179 114.468 64.1975 113.922 65.0062 113.511C64.5664 113.929 59.9341 116.348 62.5375 124.698C63.3675 127.372 65.7298 129.302 67.9359 131.018C73.7954 135.573 82.9252 136.63 89.8984 136.324C80.0735 137.793 68.4041 136.133 62.3318 128.734C59.1325 124.84 57.8414 118.576 62.3602 115.185H62.3673Z" fill="#D87146"/>
</g>
<path style="mix-blend-mode:multiply" opacity="0.4" d="M84.7911 38.3593C86.827 42.417 83.4078 60.6481 64.7155 72.3387C62.4739 73.8355 60.0691 75.0486 57.6288 76.0913C55.4368 77.0632 53.0888 77.9499 50.5704 78.7302C46.0942 80.2696 42.1004 81.2131 38.5322 81.7097C41.2208 80.3618 42.9091 78.1415 43.6327 77.3824C62.6299 72.3245 70.5396 60.9957 71.9512 48.7092C72.8734 40.7357 71.8661 31.8613 66.6025 25.03C68.5178 23.8099 73.5048 22.2918 75.7251 21.7739C78.2505 25.1506 79.5416 28.1867 80.102 29.7474C80.1517 29.8893 80.1943 30.017 80.2368 30.1375C80.2723 30.251 80.3078 30.3575 80.3361 30.4426C80.3361 30.4426 80.3361 30.4426 80.3361 30.4497C80.4213 30.7121 80.4567 30.8611 80.4567 30.8611C80.4567 30.8611 80.251 37.3591 84.784 38.3451L84.7911 38.3593Z" fill="url(#paint13_linear_1_427)"/>
<path d="M63.8786 4.45061C67.4184 0.910787 73.1289 0.0666226 76.1793 0.00277822C80.3079 -0.0894415 84.2449 2.12383 86.8413 5.20255C91.0125 10.1469 91.4948 20.6884 88.409 26.2996C85.0607 32.3861 76.08 32.9465 73.207 32.9536C69.2699 25.1291 59.8847 24.1572 59.8847 24.1572C59.5301 18.1701 60.6154 7.72086 63.8857 4.4577L63.8786 4.45061Z" fill="url(#paint14_linear_1_427)"/>
<path d="M64.1056 25.2706C63.7935 21.9649 64.7228 18.2265 66.3685 15.3393C68.0143 12.445 70.3978 10.1892 72.9942 8.73493C74.874 7.67795 76.9454 7.01822 78.8891 7.3942C81.5209 7.89786 83.6136 10.2814 84.6919 13.1828C86.4015 17.7654 85.4084 24.0008 81.7338 28.5409C80.4498 29.5056 78.6621 30.7754 72.7104 32.0665C71.242 29.5979 69.2344 27.8457 67.2056 26.7036C65.3115 25.6324 64.1056 25.2777 64.1056 25.2777V25.2706Z" fill="url(#paint15_linear_1_427)"/>
<path d="M39.1355 113.576C42.9307 112.547 46.5415 117.371 46.9671 121.96C46.4989 122.4 46.0307 122.833 45.5625 123.244C45.1156 120.4 40.0365 117.371 37.4756 117.009C38.0927 115.902 38.639 114.753 39.1355 113.576Z" fill="#9C3D39"/>
<path d="M30.8926 125.535C31.4175 126.096 33.1839 127.174 35.2269 127.514C36.6882 127.699 39.4406 127.543 39.9585 127.429C39.4761 127.649 37.4544 128.217 35.2127 128.089C33.8862 127.926 31.5523 126.479 30.9848 125.961C30.928 125.833 30.8926 125.62 30.8926 125.535Z" fill="#932F30"/>
<path d="M82.8049 136.573C79.2438 136.445 76.0516 135.87 73.7816 135.324C72.6466 135.055 71.7386 134.792 71.1072 134.601C70.4829 134.409 70.1353 134.303 70.1283 134.324C70.1141 134.352 70.4404 134.516 71.0575 134.75C71.6747 134.984 72.5756 135.296 73.7106 135.601C75.9807 136.225 79.1942 136.849 82.7907 136.984C86.4015 137.098 89.6363 136.566 91.9276 136.083C93.0768 135.835 93.999 135.594 94.6303 135.409C95.2617 135.225 95.6022 135.09 95.5951 135.062C95.588 135.033 95.2333 135.111 94.5949 135.253C93.9564 135.395 93.0271 135.594 91.8779 135.8C89.5795 136.204 86.366 136.686 82.812 136.573H82.8049Z" fill="#932F30"/>
<path d="M71.6601 134.963C71.4756 133.572 71.7948 132.054 72.4617 130.806C73.4264 129.004 75.0438 127.755 76.8882 127.287C77.4486 127.464 78.0445 127.606 78.6617 127.734C76.8527 128.153 75.207 129.089 74.15 130.713C73.2845 132.047 72.7738 134.005 73.3555 135.495C72.7809 135.332 72.2205 135.154 71.6601 134.963Z" fill="#9C3D39"/>
<g style="mix-blend-mode:screen" opacity="0.27">
<path d="M69.4398 127.103C69.4398 127.103 69.4115 127.053 69.3973 127.025C68.8723 126.152 68.2339 125.237 68.2906 124.166C68.3261 123.57 68.5602 123.222 68.9149 123.038C69.3121 123.066 69.7023 123.024 70.0641 122.91C70.6316 122.988 71.2417 123.222 71.7666 123.492C72.3696 127.209 78.1511 128.862 84.4433 128.862C91.2959 128.862 94.9776 127.28 95.7934 127.28C98.0138 127.28 92.2607 132.026 83.9325 131.863C78.1865 131.749 72.7527 130.21 69.4398 127.096V127.103Z" fill="#FFF68D"/>
</g>
<g style="mix-blend-mode:screen" opacity="0.45">
<path d="M70.5538 121.115C68.7662 122.215 66.4962 121.016 65.9074 119.143C65.7088 115.611 67.1985 113.752 68.8017 113.752C69.8728 113.752 71.7527 114.49 71.6676 119.917C71.398 120.392 71.0362 120.817 70.5467 121.115H70.5538Z" fill="#FFF64D"/>
</g>
<path d="M77.9243 95.5284C79.9886 93.8826 82.0245 92.0666 82.7764 89.6618C83.6064 91.1231 84.2519 92.7547 84.6776 94.5565C83.7909 97.0181 80.7334 98.8696 77.8604 99.813C74.7462 100.835 71.6959 101.508 69.44 102.58C69.213 102.686 68.9931 102.416 69.1492 102.225C71.2277 99.7208 75.4556 97.5005 77.9172 95.5355L77.9243 95.5284Z" fill="#9C3D39"/>
<path d="M65.4956 92.4776C66.3824 89.7323 67.3755 87.0154 68.8439 84.5325C69.4469 83.5181 70.1279 82.5463 70.8231 81.5957C72.6959 81.8653 74.4622 82.4186 76.0796 83.2344C75.3277 84.5184 73.4194 85.8307 72.5398 86.5685C70.4826 88.2994 67.5245 90.2218 65.8361 92.655C65.375 93.3147 65.2474 93.2296 65.4956 92.4705V92.4776Z" fill="#9C3D39"/>
<path d="M41.5397 105.857C43.604 105.956 45.6045 106.829 47.2148 108.141C49.0095 109.61 50.3361 111.582 51.3221 113.674C49.1939 111.113 45.647 110.283 42.3342 109.9C41.6887 109.822 41.0502 109.787 40.4473 109.971C40.88 108.602 41.2418 107.219 41.5397 105.857Z" fill="#9C3D39"/>
<path d="M52.493 97.7911C49.7619 99.0183 46.3781 99.0538 43.8953 97.3868C44.5692 97.8408 47.882 96.4362 48.6339 96.1737C50.3152 95.5849 51.9468 94.833 53.4861 93.9392C56.5577 92.1586 59.0689 89.8389 61.4028 87.1929C60.0408 91.6266 56.7989 95.8616 52.493 97.7911Z" fill="#9C3D39"/>
<g style="mix-blend-mode:multiply" opacity="0.45">
<path d="M89.3382 118.527C95.3041 120.215 96.2689 123.812 95.9497 125.401C93.2966 123.131 84.9471 123.279 79.5345 123.769C79.2224 123.095 78.7968 122.315 78.7117 121.953C80.2014 119.115 81.4215 117.782 81.4215 117.782C81.4215 117.782 85.4153 117.42 89.3453 118.527H89.3382Z" fill="#9C5E3C"/>
</g>
<path d="M35.1837 123.599C34.8502 124.046 34.5878 126.585 34.5949 126.77C34.5949 126.954 35.4107 124.585 35.6802 123.953C35.8859 123.542 36.7869 122.79 36.9784 122.605C36.6237 122.747 35.6306 123.145 35.1837 123.599Z" fill="#932F30"/>
<path d="M32.2758 122.811C32.1482 123.273 32.063 124.684 32.0914 125.039C32.5383 122.946 33.1058 122.279 33.2903 121.981C33.0136 122.194 32.5383 122.464 32.2758 122.811Z" fill="#932F30"/>
<g style="mix-blend-mode:screen" opacity="0.18">
<path d="M67.2126 81.4258C74.7108 81.0782 81.1733 84.9868 83.8973 92.0452C84.5712 94.7054 84.7273 96.9399 84.0746 98.2523C83.344 99.7065 71.3057 86.3276 68.0284 83.6319C66.4536 82.3338 66.4961 81.7024 67.2126 81.4258Z" fill="#FFF64D"/>
</g>
<path opacity="0.68" d="M42.5263 81.0286C37.8515 81.9366 33.4675 82.1211 33.127 82.1636C33.1057 82.3623 40.2421 83.9584 43.7748 83.0574C46.13 81.4897 48.5986 79.9149 50.8687 78.6735C50.9751 78.6167 44.9737 80.6526 42.5192 81.0215L42.5263 81.0286Z" fill="#9A332F"/>
<path d="M64.1056 25.2993C68.2484 19.8158 74.2143 19.4611 75.1932 19.3547C73.888 19.8441 72.1925 20.9579 71.1214 22.1638C74.8953 22.0858 78.6763 23.1357 81.8685 25.1503C78.8678 25.3844 75.9026 26.1151 73.1431 27.3139C77.747 28.2219 80.3504 30.3075 82.5424 33.2373C80.8967 32.5705 79.2296 31.9036 77.4704 31.6412C75.9097 31.4142 74.2569 31.556 72.8594 32.2583C70.7809 29.0094 68.823 27.2785 64.1056 25.2922V25.2993Z" fill="#FFD7AB"/>
<path d="M40.0791 34.4295C40.0791 34.4295 43.775 27.1654 48.542 25.1011C52.2947 25.3139 56.0402 30.6343 56.0402 30.6343C53.6496 29.6695 49.8686 29.861 48.8542 29.7546C47.3219 29.8185 40.0791 34.4224 40.0791 34.4224V34.4295Z" fill="#9C3D39"/>
<path d="M8.64618 38.4018C11.0439 38.9551 15.4704 43.9421 15.4704 43.9421C15.4704 43.9421 9.55419 43.0341 7.98645 43.8073C8.05029 42.0409 8.25601 40.2249 8.65327 38.4018H8.64618Z" fill="#9C3D39"/>
<path d="M51.7694 103.736C51.812 106.176 52.7342 109.681 52.8689 109.659C52.8122 108.56 52.7838 106.935 52.8548 103.793C52.8973 100.643 53.0037 99.6855 53.025 99.4726C52.8122 99.7493 51.8333 103.218 51.7694 103.736Z" fill="#B2392D"/>
<defs>
<linearGradient id="paint0_linear_1_427" x1="5.37588" y1="19.5884" x2="13.8885" y2="24.8308" gradientUnits="userSpaceOnUse">
<stop stop-color="#76262C"/>
<stop offset="0.18" stop-color="#7B292C"/>
<stop offset="0.41" stop-color="#8B352C"/>
<stop offset="0.67" stop-color="#A6472D"/>
<stop offset="0.95" stop-color="#CB612D"/>
<stop offset="1" stop-color="#D3672E"/>
</linearGradient>
<linearGradient id="paint1_linear_1_427" x1="50.0175" y1="114.349" x2="32.2474" y2="113.661" gradientUnits="userSpaceOnUse">
<stop stop-color="#FE9128"/>
<stop offset="0.26" stop-color="#FE8B2A"/>
<stop offset="0.59" stop-color="#FE7B30"/>
<stop offset="0.96" stop-color="#FE603A"/>
<stop offset="0.99" stop-color="#FF5E3B"/>
</linearGradient>
<linearGradient id="paint2_linear_1_427" x1="78.5415" y1="83.7098" x2="64.8859" y2="117.938" gradientUnits="userSpaceOnUse">
<stop stop-color="#FE9128"/>
<stop offset="0.26" stop-color="#FE8B2A"/>
<stop offset="0.59" stop-color="#FE7B30"/>
<stop offset="0.96" stop-color="#FE603A"/>
<stop offset="0.99" stop-color="#FF5E3B"/>
</linearGradient>
<linearGradient id="paint3_linear_1_427" x1="61.1546" y1="108.056" x2="73.1219" y2="121.116" gradientUnits="userSpaceOnUse">
<stop stop-color="#FE7E2F"/>
<stop offset="0.99" stop-color="#FF5E3B"/>
</linearGradient>
<linearGradient id="paint4_linear_1_427" x1="53.897" y1="126.705" x2="58.8485" y2="121.541" gradientUnits="userSpaceOnUse">
<stop stop-color="#FE9128"/>
<stop offset="0.26" stop-color="#FE8B2A"/>
<stop offset="0.59" stop-color="#FE7B30"/>
<stop offset="0.96" stop-color="#FE603A"/>
<stop offset="0.99" stop-color="#FF5E3B"/>
</linearGradient>
<linearGradient id="paint5_linear_1_427" x1="41.6539" y1="10.5445" x2="48.3576" y2="62.8685" gradientUnits="userSpaceOnUse">
<stop stop-color="#FE9128"/>
<stop offset="0.26" stop-color="#FE8B2A"/>
<stop offset="0.59" stop-color="#FE7B30"/>
<stop offset="0.96" stop-color="#FE603A"/>
<stop offset="0.99" stop-color="#FF5E3B"/>
</linearGradient>
<linearGradient id="paint6_linear_1_427" x1="47.9101" y1="59.1087" x2="49.8893" y2="48.773" gradientUnits="userSpaceOnUse">
<stop stop-color="#FDA80D"/>
<stop offset="0.99" stop-color="#AE1702"/>
</linearGradient>
<linearGradient id="paint7_linear_1_427" x1="21.7133" y1="65.4646" x2="23.4016" y2="58.2289" gradientUnits="userSpaceOnUse">
<stop stop-color="#FDA80D"/>
<stop offset="0.99" stop-color="#AE1702"/>
</linearGradient>
<linearGradient id="paint8_linear_1_427" x1="61.0833" y1="72.7787" x2="40.3338" y2="115.342" gradientUnits="userSpaceOnUse">
<stop stop-color="#FE9128"/>
<stop offset="0.26" stop-color="#FE8B2A"/>
<stop offset="0.59" stop-color="#FE7B30"/>
<stop offset="0.96" stop-color="#FE603A"/>
<stop offset="0.99" stop-color="#FF5E3B"/>
</linearGradient>
<linearGradient id="paint9_linear_1_427" x1="44.5129" y1="81.6387" x2="43.6404" y2="92.3078" gradientUnits="userSpaceOnUse">
<stop stop-color="#D87146"/>
<stop offset="0.59" stop-color="#EFC7B6"/>
<stop offset="1" stop-color="white"/>
</linearGradient>
<radialGradient id="paint10_radial_1_427" cx="0" cy="0" r="1" gradientUnits="userSpaceOnUse" gradientTransform="translate(29.5092 66.6132) rotate(180) scale(26.4812 26.4812)">
<stop stop-color="#FFEBD6"/>
<stop offset="0.19" stop-color="#FFE2C3"/>
<stop offset="0.41" stop-color="#FFDAB2"/>
<stop offset="0.47" stop-color="#FFD8AE"/>
<stop offset="0.75" stop-color="#FFD2A0"/>
<stop offset="1" stop-color="#FFD09C"/>
</radialGradient>
<radialGradient id="paint11_radial_1_427" cx="0" cy="0" r="1" gradientUnits="userSpaceOnUse" gradientTransform="translate(70.3415 109.943) rotate(180) scale(24.0126)">
<stop stop-color="#FE9128"/>
<stop offset="0.26" stop-color="#FE8B2A"/>
<stop offset="0.59" stop-color="#FE7B30"/>
<stop offset="0.96" stop-color="#FE603A"/>
<stop offset="0.99" stop-color="#FF5E3B"/>
</radialGradient>
<linearGradient id="paint12_linear_1_427" x1="35.7087" y1="124.592" x2="36.9431" y2="120.378" gradientUnits="userSpaceOnUse">
<stop stop-color="#FE9128"/>
<stop offset="0.26" stop-color="#FE8B2A"/>
<stop offset="0.59" stop-color="#FE7B30"/>
<stop offset="0.96" stop-color="#FE603A"/>
<stop offset="0.99" stop-color="#FF5E3B"/>
</linearGradient>
<linearGradient id="paint13_linear_1_427" x1="45.5977" y1="45.2048" x2="72.1782" y2="60.265" gradientUnits="userSpaceOnUse">
<stop stop-color="white"/>
<stop offset="0.26" stop-color="#F3D4C7"/>
<stop offset="0.62" stop-color="#E49F82"/>
<stop offset="0.87" stop-color="#DB7D56"/>
<stop offset="1" stop-color="#D87146"/>
</linearGradient>
<linearGradient id="paint14_linear_1_427" x1="87.3095" y1="12.8497" x2="60.1047" y2="20.9934" gradientUnits="userSpaceOnUse">
<stop stop-color="#76262C"/>
<stop offset="0.18" stop-color="#7B292C"/>
<stop offset="0.41" stop-color="#8B352C"/>
<stop offset="0.67" stop-color="#A6472D"/>
<stop offset="0.95" stop-color="#CB612D"/>
<stop offset="1" stop-color="#D3672E"/>
</linearGradient>
<linearGradient id="paint15_linear_1_427" x1="70.3836" y1="34.1024" x2="78.1514" y2="10.778" gradientUnits="userSpaceOnUse">
<stop stop-color="#FFD4A7"/>
<stop offset="0.95" stop-color="#FFB96D"/>
</linearGradient>
</defs>
</svg>
