<svg width="145" height="166" viewBox="0 0 145 166" fill="none" xmlns="http://www.w3.org/2000/svg">
<path d="M127.715 136.908C125.735 126.565 116.23 118.067 107.756 112.467C99.5038 107.016 94.3615 100.519 88.7061 92.5021C80.8173 81.3212 65.6369 79.7749 54.8197 87.8829C47.9697 93.0154 44.561 100.993 37.9512 106.249C31.4129 111.447 23.4331 114.65 17.7259 120.906C15.6936 123.134 14.1742 125.74 12.9406 128.481C11.7134 131.21 10.785 134.069 10.2785 137.025C8.65529 146.49 12.603 155.709 22.1345 158.886C30.4584 161.66 40.8016 160.27 48.9502 157.418C54.2419 155.566 59.2739 152.773 64.8188 151.974C73.2076 150.765 80.5381 154.339 88.1283 157.256C95.1081 159.939 102.867 161.056 110.308 160.01C117.203 159.036 124.105 155.073 126.605 148.569C128.176 144.483 128.417 140.585 127.715 136.914V136.908Z" fill="url(#paint0_linear_2021_3)"/>
<path d="M36.9642 76.819C36.3149 74.2787 35.2241 71.8619 33.9125 69.601C32.4127 67.0153 30.5492 64.6505 28.3351 62.6365C27.2508 61.649 26.0821 60.7719 24.8485 59.9793C23.6083 59.1802 22.3227 58.4461 20.9073 57.9978C19.9528 57.6989 18.9334 57.4975 17.9076 57.4455C16.8947 57.3351 15.8363 57.4455 14.8624 57.6729C13.5833 57.9718 12.3756 58.5305 11.2848 59.2646C9.05125 60.7719 7.33063 62.9743 6.07101 65.3391C5.40224 66.593 4.85684 67.9119 4.33741 69.2372C3.77902 70.66 3.27258 72.1023 2.81807 73.5641C0.94812 79.5736 -0.17515 85.934 0.0261296 92.2553C0.0715799 93.7821 0.201438 95.3023 0.422196 96.8161C0.623476 98.1609 0.876698 99.4927 1.33769 100.773C2.12333 102.962 3.42191 104.918 5.15551 106.464C8.57078 109.498 13.3236 110.55 17.7842 110.005C22.5824 109.42 27.0041 106.958 30.3025 103.462C33.5814 99.9865 35.802 95.5622 36.9187 90.9365C38.0355 86.3303 38.1459 81.4252 36.9642 76.819Z" fill="url(#paint1_linear_2021_3)"/>
<path d="M64.6556 44.9786C63.8829 38.6312 61.1949 32.4203 56.6888 28.1584C54.6501 26.2288 52.1698 24.8125 49.4752 24.2473C47.2936 23.7861 45.0276 23.955 42.9888 24.949C37.3205 27.7231 34.1065 35.8571 32.2366 41.7432C28.646 53.0541 31.7886 66.0412 39.645 74.513C41.8396 76.8778 44.5341 78.9633 47.6442 79.3011C51.6633 79.7429 55.5461 77.0987 57.9095 73.6229C62.3182 67.1456 64.7725 57.1146 64.8764 49.208C64.8958 47.8047 64.8179 46.3884 64.6491 44.9786H64.6556Z" fill="url(#paint2_linear_2021_3)"/>
<path d="M97.8479 90.9363C98.9711 95.562 101.185 99.9928 104.464 103.462C107.762 106.957 112.184 109.42 116.982 110.004C121.443 110.55 126.196 109.498 129.611 106.464C131.351 104.917 132.643 102.962 133.429 100.772C133.89 99.4925 134.143 98.1542 134.344 96.8159C134.565 95.3086 134.695 93.7819 134.74 92.2551C134.942 85.9337 133.818 79.5734 131.936 73.5574C131.481 72.1021 130.975 70.6533 130.416 69.2305C129.897 67.9052 129.351 66.5863 128.683 65.3324C127.423 62.9741 125.709 60.7652 123.469 59.2579C122.378 58.5238 121.17 57.9716 119.891 57.6662C118.917 57.4388 117.859 57.3349 116.846 57.4389C115.82 57.4973 114.801 57.6922 113.846 57.9911C112.437 58.4329 111.145 59.1735 109.905 59.9726C108.672 60.7652 107.503 61.6423 106.418 62.6298C104.211 64.6438 102.341 67.0086 100.841 69.5943C99.5295 71.8552 98.4387 74.2785 97.7894 76.8123C96.6077 81.4185 96.7181 86.3236 97.8349 90.9298L97.8479 90.9363Z" fill="url(#paint3_linear_2021_3)"/>
<path d="M69.8825 49.208C69.9864 57.1146 72.4472 67.1456 76.8493 73.6229C79.2127 77.0987 83.0955 79.7429 87.1146 79.3011C90.2247 78.9633 92.9257 76.8778 95.1138 74.513C102.97 66.0412 106.113 53.0541 102.522 41.7432C100.652 35.8571 97.4448 27.7231 91.77 24.949C89.7312 23.955 87.4652 23.7861 85.2836 24.2473C82.5955 24.8125 80.1088 26.2288 78.07 28.1584C73.5639 32.4203 70.8759 38.6312 70.1032 44.9786C69.9344 46.3884 69.8565 47.8047 69.876 49.208H69.8825Z" fill="url(#paint4_linear_2021_3)"/>
<path d="M73.4858 129.657C69.7534 132.366 65.2257 132.287 62.3122 131.318C58.7137 129.113 56.1388 119.097 55.312 116.94C55.1624 115.404 56.3278 106.695 56.7845 104.64C59.1546 93.9785 64.4068 99.585 70.9739 116.46C72.3519 119.995 79.7222 125.137 73.4858 129.657Z" fill="#A63D37"/>
<path d="M67.0921 84.3562C58.1942 86.7736 48.8239 87.3326 39.9023 85.6082C38.2487 85.2853 36.6266 84.8995 35.0203 84.4428C33.4769 79.3009 35.0675 71.6629 41.5717 67.7966C34.4848 57.8751 35.8628 43.4652 38.9338 32.4018C40.2803 27.5434 43.4772 19.0865 41.0441 15.0785C39.4929 12.5272 36.729 11.5351 34.7132 12.7477C29.6815 15.7793 33.8628 19.1022 34.8234 21.6299C36.603 26.2914 35.5164 30.4412 29.8312 32.2916C25.0594 33.8428 20.9018 31.0632 18.9332 25.8032C15.3032 16.0943 22.7837 3.51908 32.3824 0.739472C43.8552 -2.57559 51.3043 5.8971 52.1232 15.8423C53.1075 27.7875 44.8395 38.3312 45.186 50.2685C45.3513 55.8671 47.3278 61.9224 51.7846 65.5761C55.8635 68.9148 61.4778 69.4345 65.6118 73.0409C67.9583 75.0803 67.1315 77.7497 67.1079 80.7419C67.1 81.9467 67.0921 83.1514 67.0843 84.364L67.0921 84.3562Z" fill="url(#paint5_radial_2021_3)"/>
<path d="M111.227 99.1438C111.668 99.6556 112.101 100.16 112.535 100.671C118.322 107.498 122.385 113.727 124.818 122.452C125.078 123.373 125.33 124.341 125.551 125.326C124.393 127.153 122.929 128.845 121.259 130.389C117.842 133.546 103.511 139.515 101.385 141.405C97.6286 141.649 94.4552 142.098 90.2976 141.051C86.5101 140.098 83.0455 137.854 79.6044 136.082C79.0453 135.791 78.4784 135.546 77.9036 135.326C82.0297 121.861 85.4077 108.286 90.6441 95.2539C97.5577 96.3642 104.495 97.4981 111.235 99.1359L111.227 99.1438Z" fill="#EEAC76"/>
<path d="M85.1321 110.964L125.338 124.421C125.409 124.72 125.488 125.019 125.559 125.326C124.401 127.153 122.936 128.846 121.267 130.389C119.598 131.933 119.086 131.421 115.007 133.453C108.424 135.051 98.0301 138.949 92.7072 141.343C92.0063 141.658 90.4945 140.815 89.7622 140.894C86.1873 139.87 82.8801 137.776 79.6044 136.083C79.0453 135.791 78.4784 135.547 77.9036 135.327C80.3918 127.193 82.6124 119.027 85.1321 110.956V110.964Z" fill="#C9764C"/>
<path d="M139.756 146.95C129.102 133.894 120.322 126.209 120.322 126.209C120.322 126.209 119.078 132.335 103.313 139.934C108.282 140.257 115.463 140.335 124.684 151.84C125.094 152.257 125.472 152.706 125.842 153.17C127.7 156.667 128.787 160.32 128.787 161.478C129.133 162.722 130.039 163.69 131.566 164.194C131.566 164.218 131.582 164.234 131.582 164.257C131.645 164.281 131.708 164.305 131.779 164.328C136.811 165.816 140.693 163.966 142 162.36C142.763 162.171 143.764 161.564 144.393 160.289C144.378 159.698 144.283 159.005 144.134 158.249C142.323 154.627 140.842 150.879 139.756 146.966V146.95Z" fill="url(#paint6_linear_2021_3)"/>
<g style="mix-blend-mode:multiply" opacity="0.83">
<path d="M104.101 139.54C103.912 139.674 103.708 139.808 103.519 139.942C108.479 140.257 115.582 140.485 124.685 151.832C125.094 152.249 125.472 152.698 125.842 153.163C127.7 156.659 128.787 160.312 128.787 161.47C129.133 162.714 130.039 163.683 131.567 164.187C131.567 164.21 131.582 164.226 131.582 164.25C131.645 164.273 131.708 164.297 131.779 164.32C136.811 165.809 140.693 163.958 142 162.352C142.764 162.163 143.764 161.556 144.394 160.281C144.394 159.982 144.354 159.659 144.315 159.312C142.016 161.47 137.748 163.454 131.102 161.95C130.897 160.69 129.771 154.659 129.771 154.659C129.771 154.659 128.48 151.21 116.298 142.658C117.22 138.257 119.259 133.674 125.393 131.626C122.472 128.5 120.322 126.209 120.322 126.209C120.322 126.209 119.11 132.123 104.101 139.548V139.54Z" fill="#EAB29B"/>
</g>
<path d="M71.6586 129.61C71.572 128.838 71.4381 128.114 71.257 127.429L93.8325 132.972C92.3679 134.059 88.7142 136.311 98.1161 146.185C98.1555 146.264 98.2106 146.351 98.2893 146.421C99.5965 147.681 101.179 148.469 102.88 149.004C103.817 150.926 104.392 153.028 104.431 155.162C104.384 155.327 104.384 155.54 104.297 155.603C100.817 158.367 90.5253 158.981 89.045 158.233C86.3284 156.871 84.6905 154.8 83.785 153.154C79.0289 147.996 71.3594 139.35 71.1468 136.996C71.131 136.846 71.1232 136.689 71.1074 136.531C71.8948 134.413 71.9106 131.972 71.6507 129.602L71.6586 129.61Z" fill="url(#paint7_linear_2021_3)"/>
<path d="M74.1155 136.02C76.0919 132.556 83.3913 132.926 90.927 138.493C81.533 134.414 75.3517 137.871 76.2179 144.588C75.0289 143.154 73.9501 141.784 73.0918 140.587C73.1075 139.028 73.3595 137.351 74.1155 136.028V136.02Z" fill="#9C3D39"/>
<path d="M80.5732 149.618C80.841 148.185 81.4237 146.657 82.408 145.208C84.7151 141.807 95.3532 143.232 96.3296 144.224C96.4241 144.334 96.8966 144.87 96.9989 144.98C84.7309 145.681 83.1088 149.161 83.7938 153.161C82.8174 152.098 81.715 150.894 80.5811 149.618H80.5732Z" fill="#9C3D39"/>
<g style="mix-blend-mode:multiply" opacity="0.83">
<path d="M71.6587 129.61C71.5721 128.838 71.4382 128.114 71.2571 127.429L93.8326 132.972C92.5727 133.901 89.7144 135.689 94.8169 142.382C93.5491 141.004 84.5016 134.035 78.9896 144.445C81.4385 146.862 84.5174 150.366 86.2024 150.933C89.8404 152.146 98.6989 151.225 103.14 149.571C103.92 151.343 104.384 153.209 104.423 155.138C104.368 155.241 104.313 155.941 104.234 156.004C100.754 158.768 90.5333 158.973 89.045 158.233C86.3284 156.871 84.6906 154.8 83.785 153.154C81.8322 151.036 79.3833 148.327 77.1628 145.705C76.8163 145.288 76.5171 144.91 76.2494 144.571C76.2336 144.571 76.2258 144.571 76.21 144.571C73.454 141.248 71.2492 138.24 71.139 136.988C71.1232 136.838 71.1154 136.681 71.0996 136.523C71.887 134.405 71.9028 131.964 71.6429 129.594L71.6587 129.61Z" fill="#EAB29B"/>
</g>
<path d="M59.8088 94.0493C59.6829 94.6477 56.9899 107.373 56.8009 107.932C55.1788 112.845 51.3047 116.247 46.1706 117.349C48.1392 123.389 51.1629 126.586 51.6669 127.617C52.1708 128.649 52.5567 131.247 51.1157 133.176C50.2338 134.358 39.8712 136.649 36.6585 133.68C34.6034 131.783 33.3671 118.318 33.5561 111.908C35.1388 108.798 36.816 111.018 35.0364 98.0573C33.3041 85.4427 32.1466 74.907 40.3201 68.8359C40.3201 68.8359 36.1703 77.474 59.7931 94.0493H59.8088Z" fill="#A63D37"/>
<path d="M34.0514 83.4432C34.6498 78.5691 35.3743 72.6476 39.965 68.8995C50.1385 60.6 52.3984 75.6871 55.0835 80.2935C56.5481 82.8133 56.8159 84.4984 57.9498 88.0261C57.9498 88.0261 57.4458 110.468 52.1543 113.365C49.3038 114.924 44.5793 114.46 41.8863 110.964C36.5082 103.979 33.327 89.341 34.0514 83.4353V83.4432Z" fill="url(#paint8_radial_2021_3)"/>
<path d="M40.3983 79.2296C41.3432 72.9775 46.4221 67.3946 54.7531 67.4655C57.6036 68.9301 60.7769 69.8357 63.5801 71.5523C47.6584 67.8828 42.2015 78.4107 42.0362 92.1434C42.0362 92.1434 39.4534 85.4739 40.3983 79.2218V79.2296Z" fill="#9C3D39"/>
<path d="M126.527 65.8748C128.165 64.174 132.882 60.9062 135.41 60.9298C138.669 60.9613 141.063 63.5598 142.197 66.1819C144.473 71.4419 143.457 77.7177 139.599 82.3557C137.473 84.899 134.323 87.033 130.724 87.2849C125.11 87.6787 123.803 81.7493 124.134 77.2768C124.456 73.0404 124.134 68.3631 126.527 65.8748Z" fill="url(#paint9_linear_2021_3)"/>
<path d="M140.055 65.3002C140.055 64.623 140.189 63.9379 140.299 63.2607C141.11 64.1269 141.756 65.1506 142.197 66.1821C144.472 71.4421 143.457 77.7179 139.598 82.3558C137.583 84.7653 134.645 86.8048 131.291 87.23C131.275 87.1749 131.252 87.1197 131.244 87.0646C130.968 85.6551 131.716 84.1118 132.882 83.159C137.378 79.4738 140.094 74.8044 140.063 65.3081L140.055 65.3002Z" fill="url(#paint10_radial_2021_3)"/>
<path d="M134.236 82.0095C134.795 81.3323 135.244 80.9465 136.079 79.9622C137.859 79.3874 140.536 78.5055 141.103 77.5605C140.733 78.7338 140.048 79.8126 139.111 80.6158C141.237 80.8992 143.229 79.6393 145 78.4425C144.229 80.4189 141.93 82.9623 140.205 84.4269C138.481 85.8915 136.378 87.0096 134.118 87.1514C133.992 85.7655 133.858 84.3796 133.732 82.9938C134 82.7024 133.977 82.3166 134.229 82.0095H134.236Z" fill="#FFD7AB"/>
<path d="M80.4551 60.0795C85.7308 56.2211 92.9515 54.662 99.2667 54.977C99.3376 54.977 99.3297 55.0714 99.2667 55.0793C93.5578 55.7723 88.0852 57.3707 83.3764 60.2921C82.5575 60.2291 81.274 60.0637 80.4551 60.0716V60.0795Z" fill="#9C3D39"/>
<path d="M59.4538 77.3083C59.7215 76.6626 62.7452 69.8041 70.7612 64.7174C73.8479 61.0558 87.1791 57.2604 93.6045 56.3785C97.266 55.8746 100.943 56.2132 103.644 55.1816C102.581 56.8116 100.668 58.5912 97.4235 59.4337C101.573 58.6384 104.943 59.2605 108.896 60.7251C107.833 60.7487 106.778 60.8511 105.731 61.0243C125.172 66.1741 140.535 81.71 141.984 101.663C142.519 102.364 143.047 124.168 115.849 131.633C88.6516 139.098 69.6982 130.255 60.3121 118.136C58.4302 112.703 55.3356 102.742 55.7214 94.545C56.501 87.6314 59.4617 77.3083 59.4617 77.3083H59.4538Z" fill="url(#paint11_radial_2021_3)"/>
<path d="M141.976 101.656C141.559 95.9472 140 90.5927 137.535 85.75C138.102 88.4902 138.74 93.6872 136.826 98.3724C137.677 103.239 141.039 109.711 141.039 109.711C142.378 105.27 142.181 101.924 141.976 101.656Z" fill="#9C3D39"/>
<path d="M62.3674 98.3408C62.3674 98.3408 70.5172 108.829 73.8874 111.357C71.8244 104.239 69.3912 97.6873 65.3675 93.0021C61.3437 88.3169 62.3674 98.3408 62.3674 98.3408Z" fill="#9C3D39"/>
<path d="M55.7142 94.5374C55.7615 94.1201 55.8166 93.687 55.8796 93.2539C56.4072 93.4429 56.7536 93.561 56.7536 93.561C56.7536 93.561 63.0373 113.073 85.8962 124.578C77.1873 123.152 64.431 117.869 57.8718 110.191C56.5725 105.278 55.4937 99.5769 55.7221 94.5374H55.7142Z" fill="#9C3D39"/>
<path d="M108.534 131.854C112.117 132.311 116.03 121.483 105.455 107.192C96.5494 95.1598 85.368 95.8527 79.5962 100.546C73.7771 105.278 75.7929 127.358 95.9431 129.948C101.424 131.492 108.542 131.854 108.542 131.854H108.534Z" fill="#FFB980"/>
<path d="M107.18 127.625C110.078 127.814 111.944 118.57 102.881 108.294C95.2505 99.6482 86.5967 99.6797 82.132 103.444C77.6279 107.247 77.8011 122.861 96.9671 126.736C101.44 127.657 107.18 127.625 107.18 127.625Z" fill="#9C3D39"/>
<path d="M108.456 128.467C111.18 128.648 112.92 119.829 104.393 110.026C97.2191 101.774 89.0929 101.797 84.9038 105.38C80.6753 109.002 80.8485 123.325 98.857 127.042C103.054 127.924 108.456 128.467 108.456 128.467Z" fill="#FDE6E9"/>
<path d="M98.385 105.017C94.7392 104.269 91.4635 105.159 89.2745 107.041C85.6681 110.128 85.2744 120.986 96.3849 126.428C97.1724 126.656 97.9834 126.861 98.8574 127.042C103.054 127.924 108.456 128.467 108.456 128.467C111.181 128.648 112.921 119.829 104.393 110.025C102.432 107.766 100.393 106.128 98.385 105.017Z" fill="white"/>
<path d="M133.96 119.563C133.96 119.563 144.725 104.68 139 94.9792C136.236 90.2862 131.126 90.357 127.086 97.8691C124.181 103.271 123.322 110.255 122.85 124.689C122.031 126.618 133.96 119.563 133.96 119.563Z" fill="#FFB980"/>
<path d="M132.96 117.671C132.96 117.671 143.314 107.175 137.503 99.1984C134.842 95.5447 130.298 95.5605 126.952 102.096C124.841 106.222 132.96 117.671 132.96 117.671Z" fill="#9C3D39"/>
<path d="M132.055 117.995C132.055 117.995 141.669 108.089 136.268 100.561C133.921 97.2932 129.771 97.2302 126.535 102.569C124.204 106.412 123.141 112.963 122.771 123.223C122.118 124.593 132.055 117.995 132.055 117.995Z" fill="#FDE6E9"/>
<path d="M135.212 102.978C132.866 99.7102 128.716 99.6472 125.48 104.986C125.377 105.159 125.275 105.34 125.181 105.521C123.779 109.49 123.062 115.222 122.771 123.223C122.118 124.593 132.055 117.994 132.055 117.994C132.055 117.994 134.362 115.616 136.079 112.301C137.126 109.333 137.362 105.962 135.212 102.978Z" fill="white"/>
<mask id="mask0_2021_3" style="mask-type:luminance" maskUnits="userSpaceOnUse" x="122" y="95" width="17" height="28">
<path d="M132.613 116.949C132.613 116.949 142.228 106.389 136.834 98.3734C134.487 94.893 130.338 94.8221 127.101 100.515C124.771 104.61 123.117 111.429 122.747 122.358C122.093 123.815 132.621 116.949 132.621 116.949H132.613Z" fill="white"/>
</mask>
<g mask="url(#mask0_2021_3)">
<path d="M123.511 113.515C122.763 116.319 123.975 119.082 126.227 119.689C128.479 120.295 130.913 118.508 131.661 115.704C132.409 112.901 131.196 110.137 128.944 109.531C126.692 108.925 124.259 110.712 123.511 113.515Z" fill="url(#paint12_linear_2021_3)"/>
<path d="M124.353 114.381C123.825 116.35 124.683 118.287 126.258 118.712C127.841 119.137 129.55 117.885 130.077 115.916C130.605 113.948 129.746 112.011 128.172 111.586C126.589 111.16 124.88 112.412 124.353 114.381Z" fill="#76262C"/>
</g>
<path d="M96.6365 120.491C96.7388 123.539 99.7625 125.909 103.393 125.791C107.023 125.665 109.873 123.098 109.771 120.043C109.668 116.995 106.645 114.625 103.015 114.743C99.3846 114.869 96.5341 117.436 96.6365 120.491Z" fill="url(#paint13_linear_2021_3)"/>
<path d="M98.8727 120.704C98.9435 122.845 101.07 124.507 103.613 124.42C106.156 124.334 108.164 122.53 108.093 120.389C108.023 118.247 105.897 116.585 103.353 116.672C100.81 116.759 98.8018 118.562 98.8727 120.704Z" fill="#76262C"/>
<g style="mix-blend-mode:overlay" opacity="0.26">
<path d="M97.3057 122.759C98.6285 121.106 100.786 120.311 102.455 120.98C104.211 121.681 104.794 123.76 103.865 125.752C103.707 125.767 103.55 125.783 103.392 125.791C100.739 125.886 98.4081 124.634 97.3057 122.759Z" fill="white"/>
</g>
<path d="M73.3206 128.989C70.7143 127.934 68.037 127.217 65.2574 127.335C65.1944 127.32 65.1235 127.296 65.0605 127.28C65.9188 126.367 67.2338 125.761 68.9425 125.556C66.3362 122.438 65.5645 119.658 65.3913 118.634C66.9976 119.768 70.9662 121.375 72.5647 121.627C71.3914 120.335 70.541 119.012 70.0213 117.973C75.1475 120.697 80.25 122.54 86.9746 123.934C94.2031 125.43 107.322 128.564 109.826 121.335C121.818 119.926 125.96 119.107 125.96 119.107C125.96 119.107 128.645 121.516 132.496 116.485C134.771 113.508 138.212 109.036 142 101.374C142 101.469 142 101.563 141.984 101.658C142.52 102.358 144.968 101.398 144.968 101.398C144.968 101.398 144.37 117.556 128.748 126.501C128.283 127.643 127.11 129.091 124.212 130.839C122.661 131.777 121.086 132.036 119.653 131.737C118.22 133.265 115.511 132.871 114.605 133.036C100.581 135.564 87.3683 134.737 76.9271 130.902C75.7774 130.194 74.612 129.509 73.3285 128.981L73.3206 128.989Z" fill="url(#paint14_radial_2021_3)"/>
<path d="M144.961 101.398C144.961 101.398 142.512 102.358 141.977 101.658C141.977 101.563 141.977 101.469 141.993 101.374C140.851 103.681 139.748 105.689 138.693 107.469C137.197 111.76 134.528 117.422 129.811 121.886C129.764 121.918 129.276 124.217 128.74 126.501C144.363 117.556 144.961 101.398 144.961 101.398Z" fill="#F3AD8C"/>
<path d="M110.613 129.791C110.66 129.697 110.597 129.933 111.81 130.909C112.849 131.744 114.369 131.98 115.684 132.083C117.212 132.201 118.857 132.028 120.188 131.201C120.314 131.122 120.708 130.752 120.857 130.736C121.101 131.24 121.629 131.595 122.33 131.398C123.283 131.122 125.834 129.657 126.873 128.878C126.094 129.949 123.18 131.886 121.873 132.138C121.55 132.201 121.094 131.996 120.826 132.051C120.566 132.106 120.109 132.476 119.881 132.587C119.243 132.878 118.55 133.059 117.849 133.154C116.298 133.351 114.668 133.162 113.211 132.595C112.298 132.24 110.203 130.587 110.621 129.791H110.613Z" fill="#76262C"/>
<path d="M93.6047 56.3799C94.6756 56.2854 95.7387 56.1594 96.7859 56.1042C97.6127 56.8995 98.5025 57.7815 99.4317 58.7185C98.8254 58.9941 98.1639 59.2382 97.4316 59.4351C98.2663 59.2776 105.629 63.4746 111.093 73.3331C113.054 76.8687 115.779 82.9082 115.448 89.499C115.416 90.0659 114.637 90.1761 114.44 89.6407C109.7 76.5537 97.5261 65.3565 81.7146 59.2461C86.3447 57.3799 90.0141 56.6948 93.6047 56.3799Z" fill="#9C3D39"/>
<path d="M121.803 68.2688C122.252 72.5524 121.763 77.4265 120.378 81.5369C120.141 82.2456 119.149 82.1432 119.023 81.3952C118.007 75.1351 115.574 68.3869 112.086 63.1348C115.527 64.5206 118.787 66.2451 121.803 68.2688Z" fill="#9C3D39"/>
<path d="M97.991 83.9547C92.6759 79.4743 81.8172 74.7655 74.0532 70.3716C70.1319 68.1511 69.4941 66.403 69.0059 65.9227C69.5649 65.5132 70.1397 65.1117 70.7618 64.7179C71.2973 64.088 72.1319 63.4502 73.1871 62.8281C73.9115 62.9384 74.6281 63.1431 75.2816 63.3478C79.7463 64.7416 84.5733 67.6708 88.1718 70.6473C90.1955 72.3166 92.0538 74.1985 93.6365 76.2852C96.9122 80.5924 98.2981 84.2146 97.991 83.9626V83.9547Z" fill="#9C3D39"/>
<path opacity="0.65" d="M37.3505 125.176C37.697 125.278 38.0592 125.381 38.4293 125.46C41.7837 126.176 45.1854 125.751 47.7367 124.263C47.902 124.389 48.0516 124.53 48.1776 124.696C49.4611 126.373 50.4927 127.601 50.6265 128.326C46.9256 130.751 38.9096 130.263 37.0198 129.027C36.7285 128.68 36.5316 128.05 36.382 127.342C36.2009 126.483 36.6182 125.696 37.3505 125.176Z" fill="#E84A30"/>
<path d="M26.4292 3.88086C27.2481 4.08559 28.0434 4.38482 28.7836 4.78641C32.2167 6.64473 33.4688 9.68419 34.2404 13.0544C29.9568 15.9993 33.894 19.1884 34.8231 21.6294C36.6027 26.291 35.5161 30.4407 29.8308 32.2912C25.059 33.8424 20.9014 31.0628 18.9329 25.8028C16.106 18.2435 20.0195 8.93613 26.4213 3.88086H26.4292Z" fill="#FFD09C"/>
<path d="M45.5634 53.9146C44.3665 51.2137 39.3113 51.8201 37.138 57.0171C36.9647 56.1352 36.8309 55.2375 36.7285 54.3398C37.1537 52.3634 37.8545 50.8515 39.264 49.9854C41.0594 48.883 43.6972 48.1507 45.2091 48.8436C45.1933 49.316 45.1933 49.7885 45.2091 50.261C45.2406 51.4657 45.3666 52.6862 45.5792 53.9067L45.5634 53.9146Z" fill="#9C3D39"/>
<path d="M42.5405 34.6066C39.7687 34.772 38.7608 35.7799 37.7529 37.2839C38.0994 35.6067 38.501 33.9688 38.9341 32.4018C39.0128 32.1026 39.1073 31.7955 39.2018 31.4727C40.8633 29.3624 42.2019 28.4411 46.1154 29.3309C47.5879 29.6695 48.706 30.4018 49.399 31.5672C48.8241 33.2995 48.2257 35.0318 47.6587 36.7721C46.8241 35.646 45.0681 34.4492 42.5405 34.5988V34.6066Z" fill="#9C3D39"/>
<path d="M40.4851 0.370342C40.8788 1.01603 41.1623 1.75621 41.3513 2.48852C42.1938 5.70909 41.8552 9.22888 40.4063 12.229C40.2016 12.6542 39.9575 13.0715 39.6662 13.4573C39.4142 13.2447 39.1465 13.0558 38.8709 12.8983C39.2094 12.0951 39.4142 11.2289 39.548 10.3706C40.0362 7.22882 39.674 3.85076 37.9811 1.15777C37.7921 0.858546 37.2724 0.449078 36.8157 0.0317428C38.1071 -0.0076285 39.3276 0.118361 40.4772 0.378212L40.4851 0.370342Z" fill="#9C3D39"/>
<path d="M41.5878 16.3782C41.4933 16.0474 41.3673 15.7403 41.2256 15.449C41.2256 15.449 41.2335 15.4411 41.2413 15.4333C42.6193 15.2128 43.6115 14.9529 44.643 14.4568C45.6824 13.9529 46.6352 13.2757 47.462 12.4725C48.6195 11.3465 49.5093 9.98427 50.155 8.50391C51.0999 10.4331 51.7298 12.5828 52.0212 14.8348C50.533 15.9529 48.7061 16.6301 46.8478 16.8349C45.4777 16.9845 44.0918 16.8979 42.7453 16.6301C42.4303 16.5671 41.9815 16.4884 41.5957 16.386L41.5878 16.3782Z" fill="#9C3D39"/>
<g style="mix-blend-mode:multiply" opacity="0.45">
<path d="M36.6895 54.0571C36.1856 49.4349 36.4927 44.6316 37.2407 40.0566C36.4848 44.6316 36.1856 49.4349 36.6895 54.0571Z" fill="#CA5E3C"/>
</g>
<g style="mix-blend-mode:multiply" opacity="0.45">
<path d="M38.5082 34.0244C38.4924 34.0874 38.4767 34.1504 38.4609 34.2213C38.4767 34.1583 38.4924 34.0953 38.5082 34.0244Z" fill="#CA5E3C"/>
</g>
<g style="mix-blend-mode:multiply" opacity="0.45">
<path d="M38.1308 35.5918C37.8001 37.0092 37.5088 38.4659 37.2646 39.9384C37.5088 38.458 37.8001 37.0013 38.1308 35.5918Z" fill="#CA5E3C"/>
</g>
<g style="mix-blend-mode:multiply" opacity="0.45">
<path d="M38.3826 34.5137C38.3196 34.7735 38.2566 35.0334 38.1936 35.2932C38.2566 35.0334 38.3196 34.7656 38.3826 34.5137Z" fill="#CA5E3C"/>
</g>
<g style="mix-blend-mode:screen" opacity="0.45">
<path d="M20.2166 28.3938C19.7284 27.6143 19.2954 26.7481 18.941 25.7953C15.311 16.0863 22.7915 3.51116 32.3902 0.731545C38.5479 -1.04804 43.5402 0.56619 46.9812 3.98362C46.8237 3.87338 46.6741 3.77101 46.5245 3.68439C43.8 2.18828 40.4771 1.06227 37.3589 1.8497C35.8234 2.23554 34.4375 3.07807 33.1855 4.05448C30.6973 5.99942 28.6657 8.51919 27.2956 11.3697C26.4294 13.1807 25.8231 15.2753 26.4216 17.1887C27.3743 20.1967 31.0044 21.9212 31.4847 25.0394C31.9335 27.9528 29.0516 30.6222 26.1066 30.7325C23.9333 30.8112 21.8781 29.8269 20.2088 28.378L20.2166 28.3938Z" fill="#FFF64D"/>
</g>
<path d="M95.7623 60.1671L91.2109 56.7733C92.0771 56.6079 92.8882 56.4662 93.6047 56.3717C97.2662 55.8677 100.944 56.2063 103.644 55.1748C102.581 56.8048 100.668 58.5844 97.4237 59.4269C98.0301 59.3088 95.7623 60.1671 95.7623 60.1671Z" fill="#9C3D39"/>
<path d="M130.102 121.31C130.102 121.31 125.976 113.097 117.346 113.853C113.44 114.192 110.92 116.664 109.637 118.357C109.503 118.31 109.337 121.743 109.526 123.743C110.282 125.649 111.668 126.665 112.023 126.704C126.621 127.153 130.11 121.31 130.11 121.31H130.102Z" fill="#FE9E2E"/>
<path d="M125.401 116.868C127.267 118.317 129.487 121.309 129.487 121.309C129.487 121.309 128.731 123.16 124.535 124.475C120.338 125.79 114.81 125.183 114.81 125.183C114.211 122.364 119.054 115.75 125.409 116.868H125.401Z" fill="url(#paint15_linear_2021_3)"/>
<g style="mix-blend-mode:multiply" opacity="0.47">
<path d="M110.865 116.947C111.133 118.396 112.086 122.932 113.944 125.64C113.732 126.003 113.519 126.365 113.306 126.719C112.889 126.719 112.456 126.711 112.015 126.696C111.661 126.648 110.283 125.64 109.519 123.735C109.33 121.735 109.495 118.31 109.629 118.349C109.96 117.916 110.369 117.435 110.857 116.947H110.865Z" fill="#D67D25"/>
</g>
<path d="M112.298 126.908C111.274 126.641 111.014 125.231 111.235 124.522C118.944 126.042 126.716 125.074 130.109 121.176C130.109 121.176 129.716 122.963 129.306 123.507C128.661 124.373 127.039 125.719 125.259 126.641C124.802 127.302 124.117 127.948 123.534 128.853C123.227 129.381 121.582 129.641 121.534 129.554C121.755 128.979 121.645 128.074 121.267 127.719C121.267 127.719 115.085 127.641 112.306 126.908H112.298Z" fill="#76262C"/>
<path opacity="0.16" d="M112.298 126.909C111.274 126.642 111.014 125.232 111.235 124.523C112.944 124.862 114.652 125.067 116.314 125.153C116.771 125.996 117.29 126.807 117.849 127.587C115.952 127.476 113.692 127.272 112.29 126.901L112.298 126.909Z" fill="white"/>
<path d="M110.889 125.059C110.889 125.46 110.975 125.909 111.188 126.303C111.393 126.696 111.739 127.043 112.235 127.177C113.668 127.555 115.912 127.752 117.818 127.87C119.409 127.964 120.747 127.996 121.141 128.004C121.275 128.177 121.385 128.531 121.377 128.886C121.377 129.098 121.346 129.303 121.283 129.46C121.251 129.531 121.259 129.618 121.298 129.689C121.346 129.775 121.409 129.807 121.44 129.823L121.527 129.846H121.637C121.81 129.846 122.078 129.815 122.393 129.744C122.7 129.673 123.039 129.563 123.322 129.413C123.503 129.311 123.669 129.193 123.787 129.012C124.338 128.161 124.984 127.539 125.464 126.862C127.259 125.925 128.866 124.594 129.551 123.681C129.685 123.507 129.787 123.279 129.881 123.019C129.984 122.767 130.07 122.484 130.141 122.224C130.291 121.696 130.393 121.248 130.393 121.248C130.417 121.122 130.362 120.996 130.244 120.94C130.133 120.885 129.992 120.909 129.905 121.003C127.621 123.641 123.141 124.941 118.023 124.941C115.857 124.941 113.574 124.712 111.298 124.263C111.156 124.232 111.023 124.318 110.975 124.452C110.92 124.641 110.889 124.846 110.889 125.074V125.059ZM111.448 125.059C111.448 124.98 111.448 124.909 111.464 124.846C113.684 125.263 115.905 125.492 118.023 125.492C122.755 125.492 126.999 124.421 129.59 122.098C129.519 122.342 129.44 122.594 129.354 122.814C129.267 123.043 129.165 123.248 129.094 123.342C128.496 124.153 126.881 125.5 125.141 126.397L125.039 126.484C124.606 127.114 123.913 127.767 123.306 128.704C123.283 128.76 123.196 128.846 123.054 128.917C122.913 128.996 122.732 129.067 122.543 129.122C122.322 129.193 122.094 129.24 121.913 129.264C121.928 129.138 121.944 129.012 121.944 128.878C121.944 128.366 121.818 127.846 121.472 127.515C121.424 127.468 121.354 127.445 121.283 127.445C121.283 127.445 120.897 127.445 120.275 127.421C119.653 127.405 118.794 127.366 117.85 127.311C115.968 127.2 113.723 126.996 112.377 126.641C112.062 126.555 111.841 126.342 111.684 126.051C111.526 125.759 111.448 125.381 111.448 125.067V125.059Z" fill="#602229"/>
<path d="M127.803 123.491C127.322 123.916 126.889 124.231 126.944 124.475C126.984 124.711 127.74 124.711 128.37 124.16C128.992 123.625 129.157 122.947 128.952 122.829C128.748 122.711 128.299 123.073 127.803 123.491Z" fill="#FEFEFE"/>
<g style="mix-blend-mode:screen" opacity="0.21">
<path d="M109.967 65.7504C118.133 68.9867 134.448 78.7744 125.794 89.1606C118.203 98.2711 104.66 96.5781 95.6358 91.3653C87.9584 86.9321 73.3753 72.8372 77.5723 66.4118C80.4464 62.018 92.9035 58.9943 109.959 65.7504H109.967Z" fill="#FFF64D"/>
</g>
<g style="mix-blend-mode:multiply" opacity="0.42">
<path d="M74.7456 122.137C76.226 121.578 76.9504 121.334 76.2339 120.467C67.4541 109.814 71.9109 96.6163 74.1078 91.7579C72.4857 90.7657 70.6825 90.0098 68.6116 89.6161C65.7768 89.0806 59.8711 88.3089 56.3199 89.9153C56.0206 91.5138 55.7608 93.0807 55.6033 94.5138C55.0915 101.372 58.2412 112.499 60.194 118.105C62.32 120.845 64.9343 123.412 68.021 125.672C66.706 125.956 65.6666 126.499 64.95 127.255C65.013 127.271 65.076 127.294 65.1469 127.31C67.9344 127.2 70.6116 127.909 73.2101 128.964C74.4936 129.483 75.6512 130.168 76.7929 130.877C85.2577 133.987 95.384 135.247 106.526 134.161C106.565 134.161 106.605 134.145 106.652 134.137C92.5493 134.011 80.0922 127.066 74.7456 122.137Z" fill="#D87146"/>
</g>
<path d="M49.9651 77.9141C50.5084 78.5913 49.6816 94.4658 73.0996 94.1508C72.076 95.8438 70.3909 97.4108 67.5246 98.3636C61.4457 99.5526 59.1543 97.9305 55.2408 95.332C50.8785 92.4421 48.6737 86.7412 48.965 81.5205C49.0831 79.4181 49.9651 77.9141 49.9651 77.9062V77.9141Z" fill="url(#paint16_radial_2021_3)"/>
<path d="M58.3994 94.4358C59.864 95.5776 61.7853 96.113 63.6279 95.8926C59.3836 97.617 54.5252 97.7666 50.1865 96.302C53.8874 99.5541 58.9742 101.168 63.8641 100.641C63.5806 101.405 62.9192 102.011 62.1318 102.231C66.502 102.003 69.9666 99.058 72.3919 95.4122C74.9117 91.6169 71.6045 92.1287 69.1241 92.9712C67.4233 93.546 65.6122 93.8138 63.8326 94.05C62.8641 94.176 59.1553 95.0421 58.3836 94.4437L58.3994 94.4358Z" fill="#FFD7AB"/>
<path d="M73.1943 83.7342C75.3204 87.2777 75.8165 91.0573 72.8321 94.7661C66.3201 95.1283 54.9261 92.5928 50.8551 84.002C46.7841 75.4112 53.4772 73.7812 58.816 74.6867C64.1547 75.5923 69.9423 78.301 73.1943 83.7264V83.7342Z" fill="url(#paint17_linear_2021_3)"/>
<path d="M49.0363 111.562C42.1306 109.751 37.2958 101.498 35.3981 97.0336C34.1382 92.0886 33.7445 85.7577 33.9335 82.7733C34.2878 77.222 35.3745 72.647 39.9652 68.8989C39.9888 68.8753 40.0124 68.8595 40.036 68.8438C35.406 73.6943 34.9256 82.7418 36.9887 90.9862C38.9336 98.7738 44.737 107.719 49.0363 111.569V111.562Z" fill="#9C3D39"/>
<path d="M127.834 111.136C127.834 112.167 128.464 113.002 129.243 113.002C130.023 113.002 130.653 112.167 130.653 111.136C130.653 110.104 130.023 109.27 129.243 109.27C128.464 109.27 127.834 110.104 127.834 111.136Z" fill="white"/>
<path d="M100.188 118.365C100.966 118.365 101.597 117.53 101.597 116.499C101.597 115.468 100.966 114.633 100.188 114.633C99.4091 114.633 98.7781 115.468 98.7781 116.499C98.7781 117.53 99.4091 118.365 100.188 118.365Z" fill="white"/>
<path d="M98.3447 146.476C99.636 147.704 101.195 148.476 102.872 149.004C102.967 149.208 103.069 149.413 103.164 149.618C96.943 153.248 90.2578 152.019 90.2578 152.019C90.2578 152.019 86.7695 151.405 86.7695 151.035C89.1082 147.917 97.5572 146.358 98.3447 146.476Z" fill="url(#paint18_linear_2021_3)"/>
<path d="M140.449 149.256C139.992 148.516 139.48 147.799 138.905 147.146C137.527 145.571 135.275 145.933 133.748 147.106C131.811 148.587 131.582 152.571 132.378 160.768C137.134 162.107 142.535 159.736 143.464 158.39C143.52 158.051 143.464 157.366 143.283 156.469C142.189 154.122 141.236 151.728 140.441 149.264L140.449 149.256Z" fill="url(#paint19_linear_2021_3)"/>
<path d="M136.999 143.641C136.015 142.476 135.047 141.366 134.11 140.311C131.826 141.476 129.322 143.948 129.109 148.933C130.661 145.382 133.881 144.051 136.999 143.641Z" fill="#9C3D39"/>
<path d="M125.306 130.948C122.385 133.759 120.944 137.413 121.283 141.516C122.432 138.382 126.086 136.35 129.354 135.106C127.85 133.515 126.488 132.129 125.306 130.948Z" fill="#9C3D39"/>
<path d="M97.8333 150.373C98.0853 150.649 99.8649 151.672 99.9672 152.019C100.227 152.767 100.227 156.405 100.227 156.405L97.8254 150.373H97.8333Z" fill="#9A332F"/>
<path d="M92.0533 151.681C92.0533 151.681 93.8486 156.767 94.2108 157.445C93.3053 156.815 91.7147 154.964 91.4469 154.287C91.3603 153.098 92.0533 151.689 92.0533 151.689V151.681Z" fill="#9A332F"/>
<path d="M82.2969 96.136C83.6197 95.7896 88.5333 95.388 88.5333 95.388C88.5333 95.388 95.9272 97.2936 98.4942 97.9077C96.1634 94.5612 90.6436 90.7579 89.1475 90.1988C88.549 89.9626 84.2497 91.6005 82.2969 96.1282V96.136Z" fill="#9C3D39"/>
<path d="M135.22 88.6412C134.803 88.6412 132.062 89.4365 132.062 89.4365C132.062 89.4365 128.157 92.6571 126.85 93.602C127.361 90.783 129.787 83.4993 130.779 82.8379C133.779 83.3655 134.952 87.9404 135.22 88.6412Z" fill="#9C3D39"/>
<path d="M39.3516 63.9696C41.9186 58.9615 45.5329 57.7174 47.2337 59.4734C48.1392 61.4734 49.3676 63.316 50.9503 64.8279C48.9345 63.1664 43.5092 66.45 41.5406 67.7413C40.6902 66.5445 39.9658 65.2767 39.3516 63.9617V63.9696Z" fill="#9C3D39"/>
<path d="M83.7935 153.162C83.6203 153.162 86.6204 157.658 89.337 159.162C92.1639 160.202 100.416 158.469 104.282 156.39L104.393 155.327C103.511 156.02 97.4239 158.721 90.2583 158.06C86.3369 156.674 83.7935 153.154 83.7935 153.154V153.162Z" fill="#9A332F"/>
<path d="M133.834 164.752C134.464 164.831 135.062 164.863 135.637 164.855C136.543 163.886 137.291 162.65 137.188 162.272C136.984 161.524 135.913 159.484 135.338 158.225C135.338 159.24 136.133 162.146 136.039 162.39C135.763 163.059 134.81 164.004 133.834 164.76V164.752Z" fill="#9A332F"/>
<path d="M140.921 157.09C141.055 157.578 141.795 160.688 141.913 161.366C141.929 161.657 141.811 162.192 141.535 162.814C141.708 162.657 141.866 162.499 141.992 162.35C142.149 162.31 142.307 162.255 142.48 162.184C142.582 162.074 142.811 160.964 142.826 160.681C142.425 159.925 141.362 157.767 140.921 157.098V157.09Z" fill="#9A332F"/>
<path d="M125.834 153.162C125.834 153.162 128.645 156.965 129.236 161.777C129.976 164.367 133.976 164.517 136.645 164.218C139.315 163.918 141.992 162.344 141.992 162.344C141.992 162.344 138.685 166.674 130.283 164.714C128.433 163.753 127.81 162.147 127.81 162.147C127.724 160.178 126.944 155.58 125.826 153.154L125.834 153.162Z" fill="#9A332F"/>
<defs>
<linearGradient id="paint0_linear_2021_3" x1="69.0064" y1="82.7744" x2="69.0064" y2="160.398" gradientUnits="userSpaceOnUse">
<stop stop-color="#16215E"/>
<stop offset="1" stop-color="#9175B5"/>
</linearGradient>
<linearGradient id="paint1_linear_2021_3" x1="18.9037" y1="57.4023" x2="18.9037" y2="110.142" gradientUnits="userSpaceOnUse">
<stop stop-color="#16215E"/>
<stop offset="1" stop-color="#9175B5"/>
</linearGradient>
<linearGradient id="paint2_linear_2021_3" x1="47.8195" y1="24.0029" x2="47.8195" y2="79.3494" gradientUnits="userSpaceOnUse">
<stop stop-color="#16215E"/>
<stop offset="1" stop-color="#9175B5"/>
</linearGradient>
<linearGradient id="paint3_linear_2021_3" x1="115.856" y1="57.3984" x2="115.856" y2="110.142" gradientUnits="userSpaceOnUse">
<stop stop-color="#16215E"/>
<stop offset="1" stop-color="#9175B5"/>
</linearGradient>
<linearGradient id="paint4_linear_2021_3" x1="86.9361" y1="24.0029" x2="86.9361" y2="79.3494" gradientUnits="userSpaceOnUse">
<stop stop-color="#16215E"/>
<stop offset="1" stop-color="#9175B5"/>
</linearGradient>
<radialGradient id="paint5_radial_2021_3" cx="0" cy="0" r="1" gradientUnits="userSpaceOnUse" gradientTransform="translate(50.8712 3.10175) rotate(-180) scale(100.932 100.932)">
<stop stop-color="#FE7F2E"/>
<stop offset="0.33" stop-color="#FE6737"/>
<stop offset="0.44" stop-color="#FF5E3B"/>
<stop offset="0.61" stop-color="#F95938"/>
<stop offset="0.82" stop-color="#E94A30"/>
<stop offset="1" stop-color="#D73B27"/>
</radialGradient>
<linearGradient id="paint6_linear_2021_3" x1="123.85" y1="161.903" x2="123.85" y2="132.115" gradientUnits="userSpaceOnUse">
<stop stop-color="#FE852D"/>
<stop offset="0.99" stop-color="#FF5E3B"/>
</linearGradient>
<linearGradient id="paint7_linear_2021_3" x1="119.503" y1="163.69" x2="83.4306" y2="140.5" gradientUnits="userSpaceOnUse">
<stop stop-color="#FE852D"/>
<stop offset="0.99" stop-color="#FF5E3B"/>
</linearGradient>
<radialGradient id="paint8_radial_2021_3" cx="0" cy="0" r="1" gradientUnits="userSpaceOnUse" gradientTransform="translate(49.107 -2.89798) rotate(-180) scale(108.854 108.854)">
<stop stop-color="#FE7F2E"/>
<stop offset="0.33" stop-color="#FE6737"/>
<stop offset="0.44" stop-color="#FF5E3B"/>
<stop offset="0.61" stop-color="#F95938"/>
<stop offset="0.82" stop-color="#E94A30"/>
<stop offset="1" stop-color="#D73B27"/>
</radialGradient>
<linearGradient id="paint9_linear_2021_3" x1="139.874" y1="53.1264" x2="131.102" y2="81.5682" gradientUnits="userSpaceOnUse">
<stop stop-color="#76262C"/>
<stop offset="0.18" stop-color="#7B292C"/>
<stop offset="0.41" stop-color="#8B352C"/>
<stop offset="0.67" stop-color="#A6472D"/>
<stop offset="0.95" stop-color="#CB612D"/>
<stop offset="1" stop-color="#D3672E"/>
</linearGradient>
<radialGradient id="paint10_radial_2021_3" cx="0" cy="0" r="1" gradientUnits="userSpaceOnUse" gradientTransform="translate(134.023 76.4782) rotate(176.47) scale(10.1657 9.35241)">
<stop stop-color="#FFE499"/>
<stop offset="0.26" stop-color="#FFD689"/>
<stop offset="0.76" stop-color="#FFB25F"/>
<stop offset="1" stop-color="#FFA04A"/>
</radialGradient>
<radialGradient id="paint11_radial_2021_3" cx="0" cy="0" r="1" gradientUnits="userSpaceOnUse" gradientTransform="translate(101.471 73.9066) scale(41.4737)">
<stop stop-color="#FE9128"/>
<stop offset="0.22" stop-color="#FE8B2A"/>
<stop offset="0.51" stop-color="#FE7B30"/>
<stop offset="0.84" stop-color="#FE603A"/>
<stop offset="0.87" stop-color="#FF5E3B"/>
</radialGradient>
<linearGradient id="paint12_linear_2021_3" x1="129.401" y1="119.538" x2="125.274" y2="113.613" gradientUnits="userSpaceOnUse">
<stop stop-color="#FDA80D"/>
<stop offset="0.99" stop-color="#AE1702"/>
</linearGradient>
<linearGradient id="paint13_linear_2021_3" x1="106.685" y1="124.638" x2="100.687" y2="117.673" gradientUnits="userSpaceOnUse">
<stop stop-color="#FDA80D"/>
<stop offset="0.99" stop-color="#AE1702"/>
</linearGradient>
<radialGradient id="paint14_radial_2021_3" cx="0" cy="0" r="1" gradientUnits="userSpaceOnUse" gradientTransform="translate(120.102 124.209) scale(21.0872 21.0873)">
<stop stop-color="#FFEBD6"/>
<stop offset="0.18" stop-color="#FFE2C4"/>
<stop offset="0.47" stop-color="#FFD8AE"/>
<stop offset="0.75" stop-color="#FFD2A0"/>
<stop offset="1" stop-color="#FFD09C"/>
</radialGradient>
<linearGradient id="paint15_linear_2021_3" x1="122.842" y1="124.884" x2="119.944" y2="118.144" gradientUnits="userSpaceOnUse">
<stop stop-color="#FFE4C5"/>
<stop offset="0.11" stop-color="#FEDAAF"/>
<stop offset="0.41" stop-color="#FEC078"/>
<stop offset="0.67" stop-color="#FEAD4F"/>
<stop offset="0.88" stop-color="#FEA237"/>
<stop offset="1" stop-color="#FE9E2E"/>
</linearGradient>
<radialGradient id="paint16_radial_2021_3" cx="0" cy="0" r="1" gradientUnits="userSpaceOnUse" gradientTransform="translate(61.0126 88.3396) rotate(180) scale(11.2838 11.2838)">
<stop stop-color="#FFE499"/>
<stop offset="0.26" stop-color="#FFD689"/>
<stop offset="0.76" stop-color="#FFB25F"/>
<stop offset="1" stop-color="#FFA04A"/>
</radialGradient>
<linearGradient id="paint17_linear_2021_3" x1="48.9023" y1="74.797" x2="73.4069" y2="92.3487" gradientUnits="userSpaceOnUse">
<stop stop-color="#76262C"/>
<stop offset="0.18" stop-color="#7B292C"/>
<stop offset="0.41" stop-color="#8B352C"/>
<stop offset="0.67" stop-color="#A6472D"/>
<stop offset="0.95" stop-color="#CB612D"/>
<stop offset="1" stop-color="#D3672E"/>
</linearGradient>
<linearGradient id="paint18_linear_2021_3" x1="95.1241" y1="150.697" x2="92.0846" y2="143.98" gradientUnits="userSpaceOnUse">
<stop stop-color="#FF9F2F"/>
<stop offset="0.99" stop-color="#FF5E3B"/>
</linearGradient>
<linearGradient id="paint19_linear_2021_3" x1="137.685" y1="158.17" x2="130.409" y2="135.602" gradientUnits="userSpaceOnUse">
<stop stop-color="#FF9F2F"/>
<stop offset="0.99" stop-color="#FF5E3B"/>
</linearGradient>
</defs>
</svg>
