<svg width="170" height="140" viewBox="0 0 170 140" fill="none" xmlns="http://www.w3.org/2000/svg">
<path d="M127.715 112.908C125.735 102.565 116.23 94.067 107.756 88.4667C99.5038 83.0159 94.3615 76.5192 88.7061 68.5021C80.8173 57.3212 65.6369 55.7749 54.8197 63.8829C47.9697 69.0154 44.561 76.9934 37.9512 82.2493C31.4129 87.4467 23.4331 90.6497 17.7259 96.9061C15.6936 99.1345 14.1742 101.74 12.9406 104.481C11.7134 107.21 10.785 110.069 10.2785 113.025C8.65529 122.49 12.603 131.709 22.1345 134.886C30.4584 137.66 40.8016 136.27 48.9502 133.418C54.2419 131.566 59.2739 128.773 64.8188 127.974C73.2076 126.765 80.5381 130.339 88.1283 133.256C95.1081 135.939 102.867 137.056 110.308 136.01C117.203 135.036 124.105 131.073 126.605 124.569C128.176 120.483 128.417 116.585 127.715 112.914V112.908Z" fill="url(#paint0_linear_22_1044)"/>
<path d="M36.9642 52.819C36.3149 50.2787 35.2241 47.8619 33.9125 45.601C32.4127 43.0153 30.5492 40.6505 28.3351 38.6365C27.2508 37.649 26.0821 36.7719 24.8485 35.9793C23.6083 35.1802 22.3227 34.4461 20.9073 33.9978C19.9528 33.6989 18.9334 33.4975 17.9076 33.4455C16.8947 33.3351 15.8363 33.4455 14.8624 33.6729C13.5833 33.9718 12.3756 34.5305 11.2848 35.2646C9.05125 36.7719 7.33063 38.9743 6.07101 41.3391C5.40224 42.593 4.85684 43.9119 4.33741 45.2372C3.77902 46.66 3.27258 48.1023 2.81807 49.5641C0.94812 55.5736 -0.17515 61.934 0.0261296 68.2553C0.0715799 69.7821 0.201438 71.3023 0.422196 72.8161C0.623476 74.1609 0.876698 75.4927 1.33769 76.7726C2.12333 78.962 3.42191 80.9176 5.15551 82.4638C8.57078 85.4978 13.3236 86.5503 17.7842 86.0045C22.5824 85.4198 27.0041 82.9575 30.3025 79.4623C33.5814 75.9865 35.802 71.5622 36.9187 66.9365C38.0355 62.3303 38.1459 57.4252 36.9642 52.819Z" fill="url(#paint1_linear_22_1044)"/>
<path d="M64.6556 20.9786C63.8829 14.6312 61.1949 8.42029 56.6888 4.1584C54.6501 2.22885 52.1698 0.81255 49.4752 0.247329C47.2936 -0.213942 45.0276 -0.045026 42.9888 0.948982C37.3205 3.72311 34.1065 11.8571 32.2366 17.7432C28.646 29.0541 31.7886 42.0412 39.645 50.513C41.8396 52.8778 44.5341 54.9633 47.6442 55.3011C51.6633 55.7429 55.5461 53.0987 57.9095 49.6229C62.3182 43.1456 64.7725 33.1146 64.8764 25.208C64.8958 23.8047 64.8179 22.3884 64.6491 20.9786H64.6556Z" fill="url(#paint2_linear_22_1044)"/>
<path d="M97.8479 66.9363C98.9711 71.562 101.185 75.9928 104.464 79.4621C107.762 82.9573 112.184 85.4196 116.982 86.0043C121.443 86.5501 126.196 85.4976 129.611 82.4636C131.351 80.9174 132.643 78.9618 133.429 76.7724C133.89 75.4925 134.143 74.1542 134.344 72.8159C134.565 71.3086 134.695 69.7819 134.74 68.2551C134.942 61.9337 133.818 55.5734 131.936 49.5574C131.481 48.1021 130.975 46.6533 130.416 45.2305C129.897 43.9052 129.351 42.5863 128.683 41.3324C127.423 38.9741 125.709 36.7652 123.469 35.2579C122.378 34.5238 121.17 33.9716 119.891 33.6662C118.917 33.4388 117.859 33.3349 116.846 33.4389C115.82 33.4973 114.801 33.6922 113.846 33.9911C112.437 34.4329 111.145 35.1735 109.905 35.9726C108.672 36.7652 107.503 37.6423 106.418 38.6298C104.211 40.6438 102.341 43.0086 100.841 45.5943C99.5295 47.8552 98.4387 50.2785 97.7894 52.8123C96.6077 57.4185 96.7181 62.3236 97.8349 66.9298L97.8479 66.9363Z" fill="url(#paint3_linear_22_1044)"/>
<path d="M69.8825 25.208C69.9864 33.1146 72.4472 43.1456 76.8493 49.6229C79.2127 53.0987 83.0955 55.7429 87.1146 55.3011C90.2247 54.9633 92.9257 52.8778 95.1138 50.513C102.97 42.0412 106.113 29.0541 102.522 17.7432C100.652 11.8571 97.4448 3.72311 91.77 0.948982C89.7312 -0.045026 87.4652 -0.213942 85.2836 0.247329C82.5955 0.81255 80.1088 2.22885 78.07 4.1584C73.5639 8.42029 70.8759 14.6312 70.1032 20.9786C69.9344 22.3884 69.8565 23.8047 69.876 25.208H69.8825Z" fill="url(#paint4_linear_22_1044)"/>
<path d="M91.9079 63.2526C89.8771 62.8111 78.3808 40.1363 57.1629 40.3306C42.4526 40.4719 30.5236 50.9351 30.2588 69.2833C30.091 81.0533 33.1637 88.9029 35.0533 95.3221C30.4618 94.8453 6.16242 93.6268 0.617355 107.604C-1.43997 112.796 2.1449 118.871 4.48478 119.569C10.6656 120.787 13.1732 115.736 13.2439 115.878C7.58401 104.788 38.9472 107.648 45.3664 108.955C47.4414 109.344 50.6113 107.613 50.991 106.836C50.991 106.836 84.3143 115.975 101.744 104.187C106.848 100.735 91.7931 82.0157 95.6959 78.3691C85.0737 65.7072 103.139 75.3316 91.9167 63.2526H91.9079Z" fill="url(#paint5_linear_22_1044)"/>
<path d="M72.7383 44.3919C72.7383 44.3919 79.3253 55.3319 78.6719 71.0312C80.3848 69.3624 86.4155 55.3496 86.9188 49.5043C83.8814 45.9724 72.7383 44.3831 72.7383 44.3831V44.3919Z" fill="#9C3D39"/>
<path opacity="0.63" d="M93.515 108.002C93.5504 106.704 93.2766 105.38 92.9764 104.099C91.5283 97.8921 89.5505 91.7114 86.0627 86.5106C82.575 81.3099 77.4008 77.1599 71.476 76.2505C65.5601 75.341 58.9996 78.2019 56.2448 83.8794L54.9998 84.2767C53.8431 92.1617 57.163 99.923 60.3947 107.119C60.6596 107.711 60.9333 108.311 61.2071 108.903C70.0015 110.28 82.8929 111.269 93.515 107.993V108.002Z" fill="#AD3A34"/>
<path d="M83.8721 106.899L84.3931 109.927L86.4327 109.662L83.8633 106.899H83.8721Z" fill="#9C3D39"/>
<path d="M75.2013 98.5457C80.2255 91.6409 80.8435 86.6786 78.901 83.0319C76.3051 76.2066 67.0162 73.1691 58.1158 76.339C48.4208 79.2528 40.4564 88.3033 39.7235 93.0802C38.6551 100.029 56.5971 108.267 61.9567 112.382C65.9213 108.912 66.8749 108.762 69.4179 105.892L70.8306 103.552C72.058 102.078 74.2036 100.082 75.2013 98.5369V98.5457Z" fill="url(#paint6_linear_22_1044)"/>
<path d="M59.6437 105.185C66.734 103.975 71.661 102.491 75.5461 102.491C76.7293 102.491 81.0735 103.719 82.1772 104.487C84.4641 106.712 85.4972 110.959 84.9321 112.301C84.3493 113.696 79.9168 117.352 75.6609 117.528C72.1466 117.67 49.5425 114.376 43.4147 113.608C36.5805 112.76 38.629 108.169 41.4633 102.606L59.6526 105.185H59.6437Z" fill="url(#paint7_linear_22_1044)"/>
<path d="M63.0959 115.754C66.257 116.142 69.2679 116.531 72.0051 116.822C74.6893 117.158 77.1705 116.999 79.0689 116.266C80.9938 115.551 82.38 114.465 83.316 113.714C84.2519 112.955 84.7464 112.469 84.817 112.549C84.8612 112.602 84.4815 113.202 83.6074 114.112C82.7421 115.003 81.3734 116.257 79.3514 117.149C78.3449 117.582 77.1793 117.917 75.9167 118.041C75.2898 118.111 74.6364 118.138 73.983 118.147C73.2943 118.147 72.6232 118.094 71.9256 118.041C69.1619 117.811 66.1422 117.467 62.9723 117.078C56.6414 116.284 50.9197 115.41 46.7962 114.65C44.7389 114.271 43.0701 113.962 41.9222 113.608C40.7655 113.273 40.2004 112.805 40.2534 112.725C40.2976 112.646 40.8715 112.937 42.0194 113.105C43.1584 113.29 44.836 113.467 46.911 113.723C51.0522 114.244 56.7827 114.968 63.1047 115.763L63.0959 115.754Z" fill="#932F30"/>
<path d="M82.1778 104.497C81.074 103.728 76.721 102.581 75.5466 102.501C69.1098 102.077 68.3239 104.523 61.887 105.768C61.6221 106.81 62.1166 107.861 63.6883 108.867C66.0547 108.708 69.6925 109.035 73.6394 110.006C80.7032 106.969 82.3544 104.664 82.1778 104.497Z" fill="url(#paint8_linear_22_1044)"/>
<path d="M54.7165 86.8194C48.9684 85.1859 42.5933 84.7974 38.4345 82.899C32.5274 80.1972 30.735 75.1466 30.3906 74.3342C30.7526 79.791 31.7857 84.3295 32.9071 88.2587C39.2557 90.7752 45.9751 89.3448 51.061 89.8481C55.7143 90.3072 58.1689 90.4132 60.8973 92.0467C62.5838 93.0532 59.0961 88.0733 54.7077 86.8283L54.7165 86.8194Z" fill="#9C3D39"/>
<g style="mix-blend-mode:screen" opacity="0.13">
<path d="M60.5002 92.5758C62.6635 94.0416 66.0453 94.4301 67.7406 96.302C69.8509 95.5426 71.4049 92.9908 72.7912 89.3706C75.1487 83.1722 74.2481 75.7905 65.904 76.2585C62.4339 76.4527 54.1869 78.1745 47.7677 85.9005C41.6399 94.4742 56.4209 89.8033 60.5002 92.5758Z" fill="#FFF64D"/>
</g>
<path d="M13.6405 109.495C11.8392 115.269 30.4788 115.702 33.5515 115.402C42.6638 114.528 51.5377 113.141 50.1779 102.563C48.9771 93.2302 53.4891 85.0274 65.4445 94.3869C72.3847 99.826 70.398 109.839 65.4887 116.073C53.6392 131.101 27.9535 131.339 11.7774 125.3C4.80196 122.695 -2.70331 115.728 1.56145 107.252C3.20378 103.985 5.57897 102.899 8.89895 103.826C11.2212 104.479 14.6118 106.404 13.6493 109.486L13.6405 109.495Z" fill="url(#paint9_radial_22_1044)"/>
<path d="M51.1755 126.032C51.458 123.807 50.9724 121.379 49.9481 119.384C48.4736 116.496 45.9836 114.51 43.1492 113.75C42.2928 114.033 41.3745 114.262 40.4297 114.457C43.2022 115.119 45.7364 116.629 47.361 119.225C48.6943 121.361 49.4713 124.487 48.5795 126.88C49.4537 126.624 50.3278 126.341 51.1755 126.024V126.032Z" fill="#9C3D39"/>
<path d="M56.6681 98.059C53.8867 96.2312 50.4078 95.0657 47.0614 95.0657C42.5582 95.0657 36.9955 94.8891 34.1611 92.3108C34.6821 94.3505 36.863 100.054 37.3752 100.222C41.2161 101.467 46.0989 99.0302 50.2842 98.8801C50.4078 98.8801 52.0943 100.567 52.2179 100.567L51.9001 98.4033C51.9001 98.4033 51.9884 98.3857 56.6681 98.059Z" fill="#9C3D39"/>
<path d="M65.4361 94.3959C53.4895 85.0364 48.9775 93.2393 50.1695 102.572C50.5933 105.901 50.0106 108.32 48.7214 110.104C49.728 109.804 50.7699 109.645 51.8295 109.689C54.9464 109.83 57.9926 111.835 59.1758 114.846C60.5533 118.351 59.0522 121.83 56.677 123.516C60.0588 121.609 63.0609 119.163 65.4803 116.091C70.3896 109.857 72.3763 99.8439 65.4361 94.4048V94.3959Z" fill="#FFD09C"/>
<path d="M16.7137 107.534C18.3383 104.02 17.4819 99.5698 15.0007 96.709C12.0074 97.4507 9.07596 98.5986 6.57715 100.303C8.11352 100.038 9.75585 100.223 11.1686 100.788C13.9323 101.883 16.0956 104.514 16.7137 107.534Z" fill="#9C3D39"/>
<path d="M32.0947 101.864C32.96 99.8072 32.9688 97.2907 32.2889 95.1362C30.9468 95.0744 29.2956 95.0479 27.4414 95.1009C29.2692 97.4496 29.1897 102.995 28.1301 106.58C29.7195 105.396 31.2382 103.904 32.0947 101.856V101.864Z" fill="#9C3D39"/>
<path d="M14.0824 110.545C14.3473 110.333 14.6564 110.13 14.9831 109.944C12.9169 105.538 7.76918 103.084 3.44261 104.629C2.79804 104.859 2.19762 105.176 1.62369 105.556C1.24401 106.201 0.899651 106.881 0.60827 107.613C-0.257043 109.803 -0.115768 112.152 0.511142 114.183C0.855502 115.825 1.60603 117.361 2.63028 118.739C1.39412 115.754 1.95922 111.843 4.23729 109.662C7.00982 107.013 11.7249 107.472 14.0824 110.545Z" fill="#9C3D39"/>
<path d="M19.4775 120.539C19.866 117.113 23.1153 115.462 25.4729 115.188C23.6539 115.021 21.7644 114.765 20.0338 114.394C17.5173 114.703 15.3363 115.78 14.3297 118.252C13.2525 120.892 13.8265 123.833 14.418 126.199C16.7049 126.914 19.1331 127.515 21.6673 127.965C20.0338 126.623 19.1949 122.994 19.4775 120.53V120.539Z" fill="#9C3D39"/>
<path d="M33.4463 128.991C36.0422 128.982 38.6382 128.806 41.19 128.461C42.2407 126.492 42.6469 119.128 34.8767 115.27C34.6383 115.296 34.4087 115.323 34.1703 115.34C35.2211 119.976 35.2211 124.532 33.4463 128.991Z" fill="#9C3D39"/>
<g style="mix-blend-mode:multiply" opacity="0.28">
<path d="M65.4359 94.3944C63.9702 93.2465 62.6192 92.3724 61.3831 91.719C62.063 92.3901 62.6546 93.1494 63.1225 93.9882C65.2682 97.8733 65.0121 102.844 63.2285 106.924C61.4449 111.003 58.328 114.288 54.9374 117.034C45.9399 124.318 34.5407 128.283 23.1592 128.221C38.2492 130.57 56.1559 127.912 65.4889 116.08C70.3982 109.846 72.3849 99.8335 65.4447 94.3944H65.4359Z" fill="#D87146"/>
</g>
<path d="M34.0464 128.312C39.4855 128.1 44.3684 127.226 47.8561 126.405C51.3527 125.592 53.4542 124.851 53.516 125.018C53.5866 125.177 51.5558 126.228 48.068 127.279C44.5891 128.329 39.6356 129.371 34.0906 129.583C28.5102 129.76 23.5302 128.877 20.0071 128.056C16.4753 127.208 14.3738 126.378 14.4268 126.21C14.4709 126.043 16.643 126.564 20.1749 127.173C23.7068 127.764 28.625 128.497 34.0464 128.321V128.312Z" fill="#932F30"/>
<path d="M41.5517 62.9354C38.3818 60.2953 35.2561 57.3991 34.0994 53.5405C32.8279 55.8716 31.839 58.494 31.1768 61.3725C32.5454 65.3106 37.2339 68.2685 41.64 69.7784C46.4169 71.4119 49.7192 71.147 54.5667 74.2109C54.9022 74.4228 56.8095 76.5773 55.0082 73.637C51.6882 68.2155 45.322 66.0788 41.5429 62.9354H41.5517Z" fill="#9C3D39"/>
<path d="M62.3631 62.4484C61.6391 57.3978 59.9084 49.6011 56.041 44.2326C54.9638 42.7316 53.348 41.2923 52.4473 40.6389C49.5688 41.0716 46.8581 41.9546 44.377 43.2702C45.5336 45.3275 47.9353 46.9257 49.4099 47.8793C56.9858 52.7886 60.1822 59.6317 61.8422 63.6227C62.3366 64.8235 62.575 63.9582 62.3631 62.4484Z" fill="#9C3D39"/>
<g style="mix-blend-mode:multiply" opacity="0.45">
<path d="M24.0251 99.7289C14.8599 102.431 13.3765 108.188 13.8709 110.731C17.9503 107.102 30.7622 107.331 39.071 108.117C39.5478 107.04 40.2012 105.786 40.3424 105.212C37.9408 101.168 36.3514 98.6163 36.3514 98.6163C36.3514 98.6163 30.047 97.9541 24.0251 99.7289Z" fill="#9C5E3C"/>
</g>
<path d="M78.063 115.138C78.0012 115.279 77.4361 110.696 77.4361 110.696C77.4361 110.696 75.2728 107.376 75.5289 107.376C76.3236 107.968 78.1601 109.398 78.3985 110.105C78.5663 110.581 78.1248 114.996 78.063 115.138Z" fill="#932F30"/>
<path d="M82.9726 107.738C83.4936 109.469 83.008 113.151 82.9108 113.371C82.8137 111.429 82.5223 109.062 82.2751 108.338C82.0279 107.614 79.582 104.886 79.582 104.886C79.582 104.886 82.4782 106.829 82.9638 107.738H82.9726Z" fill="#932F30"/>
<g style="mix-blend-mode:screen" opacity="0.18">
<path d="M30.2588 69.2923C30.2588 69.2923 30.2588 69.3276 30.2588 69.3365C30.7533 70.0428 31.2919 70.5285 31.8393 70.6962C50.0815 76.2325 50.6113 48.0303 67.1847 44.0834C68.7741 43.7037 69.3392 43.2623 69.2067 42.8031C65.613 41.2579 61.6043 40.2866 57.163 40.3308C42.4526 40.4721 30.5237 50.9353 30.2588 69.2835V69.2923Z" fill="#FFF64D"/>
</g>
<path d="M109.47 103.482C100.747 100.356 92.7205 94.5285 87.9171 90.1137C86.2924 86.6701 83.5729 79.3237 83.3168 77.9993C83.3168 77.9993 78.8048 95.7117 80.7474 102.458C81.6304 103.87 88.1379 113.38 90.672 114.334C91.5638 114.669 100.941 116.1 109.47 117.362V103.473V103.482Z" fill="url(#paint10_linear_22_1044)"/>
<path d="M111.66 104.206C102.106 101.337 97.2674 90.785 92.0667 86.0081C90.442 82.5645 83.8109 76.7192 83.5548 75.3948C83.5548 75.3948 78.8133 95.7208 80.747 102.467C81.63 103.879 88.1375 113.389 90.6716 114.343C97.338 119.111 102.627 116.365 111.66 117.689V104.206Z" fill="url(#paint11_linear_22_1044)"/>
<path d="M91.8894 90.8202C90.459 89.1073 84.9227 86.3789 80.7109 90.9527C82.2826 81.3106 88.1632 80.6396 91.0329 81.7168C93.9026 82.794 91.8805 90.8202 91.8805 90.8202H91.8894Z" fill="#9C3D39"/>
<path d="M110.494 117.485C104.366 113.626 105.24 105.326 107.977 102.916C106.043 102.148 104.216 103.569 102.397 102.598C91.7657 104.885 91.5715 112.152 96.7369 117.034C96.9311 117.061 100.384 118.138 100.587 118.165C103.606 118.615 107.606 117.061 110.494 117.485Z" fill="#9C3D39"/>
<path d="M82.1595 104.479C82.8659 105.309 83.6076 106.254 84.5171 108.382C86.804 111.11 89.3469 113.83 90.6802 114.333C90.7509 114.359 90.8833 114.395 91.0511 114.43C84.1286 105.812 88.7995 100.718 98.2297 98.1216C96.9758 97.3269 95.413 96.0643 94.2739 95.2519C92.5345 95.2343 90.8039 95.5521 89.1792 96.2673C85.9034 97.7066 83.1661 100.612 81.6562 104.196C81.7887 104.267 81.9741 104.373 82.1507 104.47L82.1595 104.479Z" fill="#9C3D39"/>
<g style="mix-blend-mode:screen" opacity="0.16">
<path d="M49.1891 111.234V111.242C45.9574 114.695 38.9907 116.275 31.5384 116.275C21.0134 116.275 15.3624 113.75 14.1085 113.75C10.7003 113.75 19.5388 121.344 32.3243 121.087C40.633 120.92 48.5003 118.73 53.6481 114.306C56.2705 111.198 49.8513 111.048 49.1979 111.234H49.1891Z" fill="#FFF68D"/>
</g>
<g style="mix-blend-mode:screen" opacity="0.27">
<path d="M54.814 108.717C58.4342 109.185 60.9154 104.523 60.933 100.223C60.9418 97.0622 60.3856 92.868 58.3459 90.5282C51.7236 88.8947 49.2601 95.3845 50.1872 102.572C50.249 103.058 51.2027 108.249 54.8228 108.717H54.814Z" fill="#FFF68D"/>
</g>
<path d="M156.62 31.7831C153.865 38.2464 153.883 45.01 155.826 51.3586L155.931 51.4645C157.856 51.7736 159.887 50.8729 161.477 49.522C163.066 48.171 164.284 46.4051 165.485 44.6568C167.401 41.8754 169.406 38.8027 169.344 35.4651C169.291 32.5071 167.993 29.3107 165.812 27.5271C162.677 24.9665 157.9 28.781 156.629 31.7831H156.62Z" fill="#FFBF7A"/>
<path d="M161.812 50.8461C164.876 49.2391 167.56 46.9522 169.6 44.1885C168.179 44.8948 166.58 45.2304 164.982 45.1774C166.324 42.8375 166.598 39.9237 165.733 37.3454C165.256 38.714 164.346 39.9325 163.154 40.7714C163.843 37.4602 163.411 33.9107 161.945 30.8291C161.009 34.1756 159.022 37.2218 156.338 39.4469C159.384 43.5086 161.477 48.259 162.413 53.2124L161.803 50.8461H161.812Z" fill="#FFD6B1"/>
<path d="M159.844 23.8371C155.111 23.0248 150.696 27.3425 149.442 32.3136C148.189 37.2936 149.345 42.6356 150.89 47.5714L157.089 54.1319C158.025 49.4168 158.881 44.6576 158.881 44.6576C161.592 29.3115 165.883 29.0201 167.031 28.7376C165.045 26.4595 162.687 24.3316 159.853 23.8371H159.844Z" fill="#87322C"/>
<path d="M116.48 19.1124C125.107 14.5916 135.791 17.5231 144.833 14C143.014 15.9249 140.683 17.32 138.166 17.9822C139.499 18.097 140.842 18.2118 142.175 18.3177C141.106 20.3662 139.861 22.5648 137.769 23.3507C135.8 24.0924 133.637 23.3683 131.615 22.8121C125.725 21.2051 119.465 21.0991 113.531 22.5119C113.867 22.0439 114.211 21.5847 114.547 21.1168L116.48 19.1036V19.1124Z" fill="#9C3D39"/>
<path d="M151.764 105.201C157.972 102.658 162.996 97.5987 166.925 91.5062C165.601 90.7733 164.426 89.7138 164.426 89.7138C164.426 89.7138 171.799 64.6374 163.596 48.1258C161.036 42.9692 157.283 37.5389 152.762 32.7091C142.829 22.0869 129.09 14.5552 116.331 18.9259C109.046 21.4247 103.466 25.0625 99.0421 29.3626C86.5745 41.4947 83.9609 59.5073 82.3186 65.591C82.8307 73.0609 88.0491 96.601 111.156 108.406C124.048 111.894 139.827 110.084 151.756 105.192L151.764 105.201Z" fill="url(#paint12_radial_22_1044)"/>
<path d="M98.918 48.8148C98.918 48.8148 105.249 51.5432 109.372 57.4415C109.231 52.5498 106.344 43.1991 104.145 39.8968C101.947 36.5857 98.918 48.8148 98.918 48.8148Z" fill="#9C3D39"/>
<path d="M110.714 82.7303C102.776 64.0554 86.9978 54.1838 87.6158 55.5436C87.6158 55.5436 87.9514 53.6982 86 51.5967C85.3289 53.6452 84.7727 55.6054 84.3047 57.4066C93.0108 76.4435 101.796 81.9798 110.723 82.7391L110.714 82.7303Z" fill="#9C3D39"/>
<g style="mix-blend-mode:multiply" opacity="0.19">
<path d="M128.958 110.139C124.993 103.075 119.378 95.1992 111.404 91.0934C95.5462 82.9259 91.6435 67.315 93.7096 54.8209L87.3081 47.9072C84.4031 55.4213 83.2199 62.282 82.3281 65.5932C82.8402 73.0631 88.0586 96.6032 111.166 108.409C116.738 109.918 122.857 110.431 128.958 110.139Z" fill="#9C5E3C"/>
</g>
<path d="M159.958 87.2434C160.735 88.5149 161.592 89.7157 162.51 90.8636C163.164 90.5281 163.808 90.1572 164.426 89.7069C164.47 89.548 167.729 78.3519 167.446 66.0344C167.084 65.4958 166.731 65.0631 166.378 64.7188C164.779 66.935 161.68 71.6413 156.683 75.3939C156.373 76.2592 156.109 77.0716 155.853 77.8751C157.274 80.9655 158.148 84.2766 159.967 87.2346L159.958 87.2434Z" fill="#FFB980"/>
<path d="M119.103 78.5454C123.545 74.4749 129.01 72.7266 134.494 73.1681C134.423 73.0003 134.379 72.8944 134.37 72.8502C124.569 64.7357 122.918 59.9235 120.295 55.7559C119.439 55.7559 118.582 55.8265 117.726 55.9943C106.053 58.3253 108.411 74.6515 113.24 88.9998L114.565 89.8828C114.485 85.6886 115.783 81.6093 119.112 78.5631L119.103 78.5454Z" fill="#FFB980"/>
<path d="M124.216 81.8391C122.83 76.4176 122.256 70.7931 121.602 65.2392C121.541 64.6829 121.47 64.1355 121.417 63.5969C120.834 62.8375 120.269 62.0605 119.766 61.2217C119.739 61.2217 119.077 61.4512 119.051 61.4601C117.258 62.1311 113.285 65.3717 112.728 69.7865C112.093 74.8901 113.444 81.5212 115.527 87.702L127.43 90.969C126.07 88.0111 124.993 84.9207 124.207 81.8391H124.216Z" fill="#76262C"/>
<path d="M118.706 65.875C115.854 67.6233 114.909 71.27 115.112 75.729C115.307 80.0291 116.525 83.7111 119.289 88.2231C119.289 88.2231 143.323 100.046 136.595 77.9629C134.829 72.4796 120.366 67.2348 118.706 65.8838V65.875Z" fill="#FDE2E5"/>
<path d="M135.262 81.2908C134.105 79.5072 133.046 77.4764 132.587 75.3749C130.097 73.7591 127.465 72.3993 124.702 71.4104C123.563 71.0042 122.397 70.7481 121.231 70.5186C119.828 72.2845 119.148 74.4743 119.262 77.0349C119.483 81.9707 121.92 86.4562 125.196 88.3634C125.196 88.3634 140.268 100.601 137.876 85.017C136.948 83.7985 136.074 82.5358 135.262 81.2908Z" fill="white"/>
<path d="M166.554 78.1036C166.422 76.0993 165.565 73.212 164.382 71.9316C163.411 72.8234 162.43 73.7682 161.415 74.6953V93.017C162.227 92.6815 162.96 92.2577 163.658 91.7544C165.106 88.0371 166.836 82.5097 166.554 78.0948V78.1036Z" fill="#76262C"/>
<path d="M155.985 78.0324C154.837 79.7013 154.166 81.7762 153.945 84.6194C154.316 86.5355 154.537 87.7716 155.137 89.5994C155.508 90.7472 156.003 92.3719 156.691 93.767C157.371 93.82 158.051 93.82 158.731 93.7317C160.285 93.5198 161.592 93.0341 162.757 92.3366C164.338 87.2948 166.016 79.4893 162.793 75.9221C161.336 75.8515 158.713 75.0038 155.976 78.0236L155.985 78.0324Z" fill="#FDE0E4"/>
<path d="M160.311 78.166C158.104 80.1526 155.94 82.1835 153.945 84.3997C153.389 87.7021 153.839 90.2097 154.227 91.3929C154.607 92.5408 156.011 92.373 156.709 93.7769C157.389 93.8299 158.068 93.8299 158.748 93.7416C159.393 93.6533 159.993 93.5032 160.558 93.3266C161.795 89.989 164.143 82.6868 163.181 77.6008C163.101 77.1594 162.642 76.921 162.263 77.1241C161.618 77.4772 160.973 77.8216 160.329 78.1748L160.311 78.166Z" fill="white"/>
<mask id="mask0_22_1044" style="mask-type:luminance" maskUnits="userSpaceOnUse" x="119" y="72" width="21" height="24">
<path d="M133.469 73.583C127.827 69.6096 118.918 75.1458 119.059 78.1832C119.289 83.2692 121.841 87.8959 125.267 89.8561C125.267 89.8561 139.491 102.333 139.279 90.28C139.244 88.5405 138.953 77.4416 133.469 73.583Z" fill="white"/>
</mask>
<g mask="url(#mask0_22_1044)">
<path d="M138.282 78.9417C139.73 82.712 138.547 86.756 135.642 87.9657C132.737 89.1842 129.214 87.118 127.766 83.3477C126.318 79.5774 127.501 75.5334 130.406 74.3237C133.311 73.1052 136.834 75.1714 138.282 78.9417Z" fill="url(#paint13_linear_22_1044)"/>
<path d="M136.719 79.5947C137.735 82.2436 136.905 85.0779 134.865 85.9256C132.825 86.7821 130.353 85.3252 129.338 82.6851C128.322 80.045 129.152 77.2018 131.192 76.3542C133.232 75.4977 135.704 76.9546 136.719 79.5947Z" fill="#76262C"/>
<g style="mix-blend-mode:overlay" opacity="0.26">
<path d="M131.227 88.3982C133.293 87.1885 135.183 83.0915 134.282 81.5993C133.337 80.0276 129.726 81.6611 127.218 82.5176C127.201 82.6588 127.192 82.8001 127.183 82.9502C127.148 85.3431 128.808 87.4269 131.227 88.3982Z" fill="white"/>
</g>
</g>
<path d="M161.433 84.1074C161.38 87.4097 159.579 90.0586 157.407 90.0145C155.234 89.9703 153.513 87.2596 153.566 83.9484C153.619 80.6461 155.42 77.9972 157.592 78.0413C159.764 78.0855 161.486 80.7962 161.433 84.1074Z" fill="url(#paint14_linear_22_1044)"/>
<path d="M160.32 84.1859C160.285 86.5081 159.022 88.3623 157.495 88.327C155.967 88.3005 154.757 86.3933 154.793 84.0711C154.828 81.7489 156.091 79.8946 157.618 79.9299C159.146 79.9564 160.355 81.8637 160.32 84.1859Z" fill="#76262C"/>
<g style="mix-blend-mode:overlay" opacity="0.26">
<path d="M157.062 91.7537C158.405 88.628 158.166 84.9813 157.213 84.0101C156.453 83.2419 155.085 84.222 153.698 85.5729C153.592 86.1204 154.908 91.427 157.071 91.7537H157.062Z" fill="white"/>
</g>
<path d="M155.985 85.431C156.426 85.8195 156.267 86.7819 155.632 87.5854C155.499 87.7532 154.961 88.3801 154.81 88.5037C154.298 88.3448 153.98 87.5942 153.769 86.623C153.857 86.4552 153.901 86.3404 154.025 86.1815C154.66 85.378 155.543 85.0425 155.985 85.431Z" fill="white"/>
<path d="M137.822 114.853C149.91 113.078 163.552 104.239 167.446 91.7805C165.927 91.0653 164.426 89.7231 164.426 89.7231C164.426 89.7231 161.618 93.1579 156.002 93.5111C150.572 93.5111 147.614 88.743 141.124 86.3767C139.288 86.6945 138.537 90.8798 133.266 91.8776C125.999 88.5576 115.227 83.5953 110.724 82.7388C104.163 81.485 99.6863 77.4675 96.9844 74.5625C96.9844 78.9509 100.525 85.2994 100.525 85.2994C100.525 85.2994 97.1257 86.8799 94.6357 83.6748C95.8013 90.5884 99.2007 97.6522 102.017 102.5C106.741 106.244 112.428 109.484 119.209 111.753C124.825 112.663 132.162 113.881 137.283 114.87C137.469 114.87 137.645 114.87 137.822 114.87V114.853Z" fill="url(#paint15_radial_22_1044)"/>
<path d="M137.849 114.845C149.928 113.061 163.553 104.223 167.447 91.7727C167.438 91.7727 167.42 91.7639 167.411 91.755C167.358 91.7285 167.305 91.702 167.252 91.6755C167.173 91.6314 167.093 91.5961 167.014 91.5519C166.961 91.5254 166.917 91.499 166.864 91.4725C166.784 91.4283 166.705 91.3842 166.625 91.3312C166.581 91.3047 166.528 91.2782 166.484 91.2429C166.458 91.2252 166.422 91.2076 166.396 91.1899C164.127 92.691 157.584 95.1809 153.549 95.5783C150.423 98.0948 149.169 98.3773 138.724 107.666C137.611 107.86 132.543 112.372 116.534 103.322C106.027 97.3884 100.014 89.9891 96.747 85.3181C96.5793 85.2475 96.4027 85.168 96.2349 85.0709C96.2261 85.0709 96.2172 85.0621 96.1996 85.0532C96.0406 84.9649 95.8905 84.859 95.7404 84.7442C95.7139 84.7266 95.6875 84.7089 95.661 84.6912C95.5197 84.5853 95.3784 84.4617 95.246 84.3292C95.2106 84.2939 95.1753 84.2674 95.14 84.2321C94.9722 84.0643 94.8045 83.8701 94.6367 83.667C94.7603 84.3822 94.9104 85.1062 95.0782 85.8214C95.0959 85.9009 95.1135 85.9892 95.1312 86.0687C95.2989 86.7574 95.4844 87.4461 95.6786 88.1348C95.7051 88.232 95.7316 88.3291 95.7669 88.4262C95.97 89.1149 96.1907 89.8037 96.4292 90.4835C96.4556 90.5542 96.4733 90.616 96.4998 90.6866C96.747 91.4018 97.0119 92.1082 97.2856 92.7969C97.3386 92.9205 97.3828 93.0441 97.4357 93.1678C97.577 93.5209 97.7183 93.8741 97.8684 94.2185C97.8949 94.2803 97.9214 94.3333 97.939 94.3951C97.9744 94.4834 98.0185 94.5717 98.0538 94.6688C98.1951 94.9955 98.3364 95.3222 98.4865 95.6401C98.5395 95.7461 98.5836 95.8608 98.6366 95.9668C98.6454 95.9933 98.6542 96.0109 98.6631 96.0374C99.0692 96.9292 99.4931 97.7945 99.9169 98.6334C99.961 98.7217 100.005 98.81 100.049 98.8983C100.067 98.9336 100.085 98.9689 100.102 98.9954C100.252 99.2868 100.403 99.5781 100.561 99.8695C100.614 99.9666 100.659 100.055 100.712 100.152C100.738 100.196 100.756 100.24 100.782 100.276C100.932 100.549 101.074 100.814 101.215 101.07C101.25 101.132 101.285 101.203 101.321 101.265C101.347 101.318 101.383 101.371 101.409 101.424C101.612 101.794 101.815 102.148 102.018 102.492C102.707 103.031 103.413 103.56 104.138 104.081C104.394 104.267 104.65 104.443 104.915 104.62C105.391 104.947 105.877 105.273 106.371 105.591C106.698 105.803 107.034 106.015 107.369 106.218C107.811 106.492 108.27 106.757 108.72 107.022C109.374 107.401 110.045 107.772 110.733 108.125C111.175 108.355 111.607 108.584 112.058 108.805C112.596 109.07 113.144 109.317 113.7 109.565C114.009 109.706 114.318 109.847 114.627 109.98C115.21 110.227 115.802 110.474 116.402 110.704C116.685 110.818 116.976 110.924 117.267 111.03C117.912 111.269 118.548 111.507 119.21 111.728C124.808 112.628 132.101 113.847 137.222 114.827C137.434 114.827 137.646 114.827 137.849 114.827V114.845Z" fill="#F9BD8A"/>
<path d="M137.284 114.863C137.469 114.863 137.646 114.863 137.822 114.863C148.294 113.326 159.923 106.483 165.389 96.5762C156.7 102.686 144.038 110.245 136.727 113.185C120.754 109.609 105.823 101.238 98.627 95.9404C99.7395 98.3774 100.932 100.611 102.026 102.51C106.75 106.254 112.437 109.494 119.218 111.763C124.834 112.673 132.171 113.891 137.292 114.88L137.284 114.863Z" fill="#D7805C"/>
<path d="M106.76 40.2777C107.404 35.6332 106.018 31.033 103.298 27.5452C100.579 24.0575 96.5879 21.6558 92.1818 20.4108C89.0031 19.519 85.4801 19.2188 82.1336 20.3048C77.6039 21.7706 73.9484 25.6645 71.9882 29.9822C68.8449 36.9224 69.9044 45.1164 74.6195 50.2729C78.4781 54.4935 84.6236 56.4979 90.7073 55.765C92.0582 55.5973 93.9125 55.3323 95.7579 54.4229C99.6341 47.3591 106.742 40.2777 106.742 40.2777H106.76Z" fill="url(#paint16_linear_22_1044)"/>
<path d="M101.568 46.0863C99.8374 44.8413 98.9014 43.4462 94.8133 42.21C89.5243 40.603 83.5907 41.2476 82.8755 40.082C85.0917 43.6757 89.7008 45.3799 89.9393 45.8655C84.0322 46.9781 81.0565 48.5851 76.4121 50.6071C80.9771 50.4393 85.0123 51.2693 87.5729 52.426C86.8312 52.9734 84.8445 54.2449 84.1028 54.7835C89.4448 56.9468 94.8221 55.8696 95.7845 54.4215C97.4004 51.4724 99.5813 48.5233 101.577 46.0863H101.568Z" fill="url(#paint17_linear_22_1044)"/>
<path d="M92.1819 20.4196C89.0032 19.5278 85.4801 19.2276 82.1336 20.3136C77.604 21.7794 73.9485 25.6733 71.9883 29.991C70.6373 32.9755 70.0722 36.1895 70.2312 39.2975C71.1318 38.4146 71.953 37.461 72.4121 36.887C77.7364 32.7989 85.224 32.9401 90.6102 35.8274C95.2458 38.3086 98.5834 42.4498 101.276 46.9441L106.751 40.2953C107.395 35.6508 106.009 31.0506 103.29 27.5628C100.57 24.0751 96.5791 21.6734 92.173 20.4284L92.1819 20.4196Z" fill="url(#paint18_linear_22_1044)"/>
<path d="M139.624 94.8003C138.344 92.4869 137.726 87.5334 137.937 86.9065C138.882 85.5114 140.595 82.889 143.694 83.3746C149.769 84.3282 150.122 84.7962 152.436 87.4098C154.749 90.0234 157.795 94.0939 157.795 94.0939C157.795 94.0939 150.052 97.2196 145.725 96.4073C141.399 95.6038 139.624 94.7914 139.624 94.7914V94.8003Z" fill="#FE9E2E"/>
<path opacity="0.3" d="M142.855 93.458C142.97 93.4845 143.128 93.5287 143.323 93.5816C143.8 93.6964 144.285 93.8024 144.762 93.9083C145.822 94.1556 146.872 94.4205 147.923 94.6942C148.276 94.7825 148.629 94.8708 148.974 94.9503C149 93.6346 146.952 90.5354 140.144 86.0322C139.87 86.3236 139.623 86.6238 139.402 86.924C140.533 89.0255 141.583 91.1623 142.616 93.3168C142.696 93.3609 142.775 93.3962 142.855 93.4492V93.458Z" fill="white"/>
<path d="M114.141 19.7481C112.41 20.428 110.785 21.1785 109.249 21.982L107.121 23.174C106.697 23.4213 106.291 23.6861 105.885 23.9422C112.366 24.2866 123.138 27.6595 131.111 38.4318C131.235 38.5996 131.5 38.4759 131.456 38.264C128.462 22.6177 120.869 19.9865 114.132 19.7393L114.141 19.7481Z" fill="#9C3D39"/>
<path d="M146.89 51.9502C146.978 52.2946 147.464 52.2416 147.491 51.8796C148.55 36.2333 144.365 25.1785 140.436 22.6002C134.926 19.3156 128.966 17.1258 123.059 17.3553C122.706 17.373 120.339 17.7527 120.684 17.7968C121.982 17.9823 123.977 18.4767 124.454 18.6445C131.703 21.1168 140.833 29.0636 146.881 51.9502H146.89Z" fill="#9C3D39"/>
<path d="M152.779 32.6131C152.497 32.304 152.188 32.1098 151.896 31.8096C153.15 34.9088 154.457 39.5003 154.748 45.1601C154.757 45.4073 155.031 45.5133 155.172 45.319C156.885 42.9174 157.627 40.6393 157.971 38.997C156.391 36.8425 154.66 34.6174 152.779 32.6042V32.6131Z" fill="#9C3D39"/>
<path d="M146.802 101.422C147.173 101.422 148.117 101.325 148.85 101.246C150.722 99.0297 153.318 97.6257 155.985 96.522C156.294 96.1158 156.832 95.383 157.786 94.1026C155.773 94.9503 153.362 95.1269 150.899 94.9062C146.396 94.5 141.292 92.7694 138.316 91.3213C138.316 91.3213 138.387 94.4823 139.191 95.1357C142.643 96.0982 145.61 97.7758 147.067 99.0208C147.155 99.7802 147.155 100.707 146.784 101.422H146.802Z" fill="#76262C"/>
<path opacity="0.16" d="M148.982 101.105C150.846 98.9766 153.371 97.5991 155.984 96.5219C156.293 96.1157 156.832 95.3828 157.786 94.1025C156.223 94.7648 155.931 94.8001 155.013 94.8443C153.256 95.1974 148.947 99.1267 147.066 101.316C147.393 101.387 148.25 101.255 148.974 101.105H148.982Z" fill="white"/>
<path d="M158.166 93.8118C158.042 93.6352 157.821 93.5734 157.627 93.6529C156.206 94.2533 154.546 94.5094 152.788 94.5094C152.179 94.5094 151.57 94.4829 150.943 94.4211C146.519 94.0237 141.433 92.3019 138.52 90.8803C138.378 90.8097 138.211 90.8185 138.078 90.9157C137.946 91.0039 137.866 91.1629 137.866 91.3307C137.866 91.3395 137.884 92.143 138.007 93.0524C138.069 93.5027 138.158 93.9796 138.29 94.4122C138.431 94.8449 138.59 95.2334 138.926 95.5159L139.094 95.6042C142.369 96.5137 145.213 98.1031 146.643 99.2774C146.661 99.454 146.678 99.6306 146.678 99.816C146.678 100.328 146.599 100.831 146.405 101.211C146.325 101.361 146.334 101.538 146.413 101.688C146.493 101.829 146.643 101.917 146.811 101.917C147.235 101.917 148.162 101.82 148.912 101.741C149.027 101.732 149.133 101.67 149.212 101.582C151.005 99.454 153.53 98.0766 156.17 96.9905L156.365 96.8404C156.674 96.4342 157.212 95.7014 158.166 94.4211C158.289 94.2533 158.298 94.0061 158.166 93.8383V93.8118ZM155.702 96.1252C153.098 97.2024 150.546 98.5975 148.638 100.778C148.25 100.823 147.826 100.867 147.464 100.893C147.552 100.522 147.588 100.152 147.588 99.7984C147.588 99.507 147.57 99.2156 147.535 98.9507C147.517 98.8271 147.464 98.7123 147.367 98.6328C145.857 97.3525 142.908 95.6837 139.438 94.6948C139.358 94.5976 139.244 94.3857 139.155 94.1032C138.996 93.5822 138.89 92.867 138.837 92.2931C138.837 92.2136 138.829 92.1341 138.82 92.0635C141.893 93.4586 146.599 94.9861 150.855 95.3747C151.499 95.4365 152.144 95.463 152.78 95.463C154.078 95.463 155.331 95.3217 156.515 95.0126C156.144 95.5071 155.879 95.8691 155.693 96.1163L155.702 96.1252Z" fill="#602229"/>
<path d="M162.246 114.464C163.897 114.305 165.68 113.978 166.837 112.618C167.941 111.32 167.517 101.519 162.996 100.495C157.892 101.943 150.67 107.064 147.738 112.309C147.871 112.857 149.875 113.846 152.294 114.199C155.588 114.676 158.926 114.773 162.246 114.464Z" fill="#AD3A34"/>
<path opacity="0.47" d="M166.608 105.89C166.687 105.837 166.784 105.811 166.864 105.758C166.263 103.268 165.062 100.963 162.996 100.495C159.968 101.352 156.188 103.515 153.01 106.226C159.8 108.168 163.976 107.691 166.608 105.881V105.89Z" fill="url(#paint19_linear_22_1044)"/>
<path d="M124.393 105.714C124.313 105.608 124.234 105.511 124.163 105.423C124.137 105.388 124.101 105.343 124.075 105.317C121.806 103.807 112.19 103.224 108.861 104.266C107.713 104.628 106.68 105.026 105.727 105.441C105.621 105.441 105.506 105.458 105.4 105.467C105.4 105.467 102 106.871 99.1661 109.582C98.186 110.473 97.7357 111.083 97.7357 111.083C97.7357 111.083 97.7887 111.074 97.8681 111.056C96.888 113.025 98.186 117.793 99.5458 118.217C104.773 119.851 110.636 120.901 113.32 121.255C119.43 121.255 126.733 116.319 127.342 115.542C128.234 114.42 126.079 108.036 124.401 105.714H124.393Z" fill="url(#paint20_linear_22_1044)"/>
<path opacity="0.81" d="M124.074 105.317C121.805 103.807 112.19 103.224 108.861 104.266C100.914 106.756 97.7266 111.082 97.7266 111.082C97.7266 111.082 104.614 109.555 110.097 113.281C117.32 112.169 123.739 109.414 124.719 106.217C124.498 105.855 124.278 105.546 124.066 105.317H124.074Z" fill="url(#paint21_linear_22_1044)"/>
<path d="M104.358 87.4893C101.171 84.1516 98.2216 77.494 97.0472 74.6243C97.0295 74.5978 97.0031 74.5802 96.9766 74.5537C96.9766 78.9421 100.517 85.2907 100.517 85.2907H100.508C101.868 86.3414 103.29 87.1979 104.358 87.4893Z" fill="#F9BD8A"/>
<path d="M146.837 94.7478C147.906 95.2864 148.753 96.0458 148.692 96.5491C148.63 97.0347 147.685 97.07 146.564 96.5137C145.442 95.9663 144.621 94.9332 144.745 94.4741C144.868 94.0238 145.76 94.2268 146.829 94.7478H146.837Z" fill="#FEFEFE"/>
<path d="M113.505 119.807C105.558 118.818 97.8765 117.096 94.3623 116.248C100.19 119.003 109.682 120.778 113.32 121.255C119.43 121.255 126.732 116.319 127.341 115.542C127.659 115.145 127.589 114.067 127.288 112.752C126.238 114.226 121.717 118.491 113.514 119.807H113.505Z" fill="#932F30"/>
<path d="M118.389 117.087C118.353 117.246 114.945 112.478 114.945 112.478C114.945 112.478 112.482 110.217 112.746 110.146C113.718 110.491 116.208 111.074 116.632 111.683C116.923 112.098 118.415 116.928 118.38 117.087H118.389Z" fill="#932F30"/>
<path d="M122.282 108.787C122.935 110.12 122.758 113.573 122.705 113.758C122.396 112.195 121.478 110.209 121.178 109.652C120.878 109.096 118.803 107.33 118.803 107.33C118.803 107.33 121.752 108.125 122.282 108.787Z" fill="#932F30"/>
<path d="M166.837 112.628C166.925 112.522 167.005 112.346 167.075 112.134C160.797 113.255 154.052 112.107 151.703 111.268C151.217 110.624 151.261 109.07 151.403 107.692C149.902 109.158 148.621 110.739 147.738 112.328C147.871 112.875 149.875 113.864 152.294 114.218C155.588 114.694 158.926 114.791 162.246 114.482C163.897 114.324 165.68 113.997 166.837 112.637V112.628Z" fill="#932F30"/>
<path d="M161.884 103.48C161.884 103.48 162.679 107.569 162.679 107.904C162.679 108.24 162.837 111.913 162.837 111.913C162.837 111.913 164.753 108.24 164.753 107.569C164.753 106.898 161.875 103.48 161.875 103.48H161.884Z" fill="#932F30"/>
<path d="M156.797 104.506L157.407 107.181L156.683 111.552L155.641 107.376L156.797 104.506Z" fill="#932F30"/>
<path d="M141.866 61.5037C142.114 64.3028 141.575 66.678 139.615 69.371C134.308 65.3712 127.598 60.5854 127.598 60.5854C127.598 60.5854 134.458 59.1197 141.866 61.5037Z" fill="#9C3D39"/>
<path d="M157.6 64.3561C157.6 64.3561 157.777 67.6584 157 71.3139C159.128 70.5104 163.649 67.835 164.673 64.8947C160.753 64.0029 157.592 64.3561 157.592 64.3561H157.6Z" fill="#9C3D39"/>
<path d="M136.206 106.994C137.655 106.888 140.515 106.871 141.257 107.277C141.513 107.453 143.2 105.449 142.785 105.422C142.476 105.405 139.774 105.793 137.284 106.456C136.171 106.756 135.889 107.047 136.215 106.994H136.206Z" fill="#76262C"/>
<g style="mix-blend-mode:screen" opacity="0.21">
<path d="M113.532 22.5201C102.336 30.6788 126.582 49.3448 150.59 56.2938C174.607 63.2428 148.957 28.2682 137.77 23.3589C126.573 18.4496 117.479 19.6416 113.532 22.5201Z" fill="#FFF64D"/>
</g>
<path d="M130.811 83.4997C130.979 84.2502 130.149 85.1067 128.948 85.4069C127.747 85.7071 126.635 85.3362 126.458 84.5857C126.29 83.8352 127.12 82.9787 128.321 82.6785C129.522 82.3783 130.635 82.7491 130.811 83.4997Z" fill="white"/>
<path d="M118.706 65.8749C118.706 66.1398 131.226 74.3249 138.22 76.1174C137.01 74.6516 136.215 73.336 136.215 73.336C136.215 73.336 125.469 68.3207 119.862 61.2393C116.313 62.758 118.706 65.8749 118.706 65.8749Z" fill="#76262C"/>
<path d="M155.446 78.8895C155.446 78.8895 162.907 76.4613 163.985 75.1104C164.647 75.1104 164.303 72.1348 164.303 72.1348C164.303 72.1348 159.879 74.7837 156.188 76.6556C155.95 77.4856 155.446 78.8895 155.446 78.8895Z" fill="#76262C"/>
<defs>
<linearGradient id="paint0_linear_22_1044" x1="69.0064" y1="58.7744" x2="69.0064" y2="136.398" gradientUnits="userSpaceOnUse">
<stop stop-color="#16215E"/>
<stop offset="1" stop-color="#9175B5"/>
</linearGradient>
<linearGradient id="paint1_linear_22_1044" x1="18.9037" y1="33.4023" x2="18.9037" y2="86.1425" gradientUnits="userSpaceOnUse">
<stop stop-color="#16215E"/>
<stop offset="1" stop-color="#9175B5"/>
</linearGradient>
<linearGradient id="paint2_linear_22_1044" x1="47.8195" y1="0.00292969" x2="47.8195" y2="55.3494" gradientUnits="userSpaceOnUse">
<stop stop-color="#16215E"/>
<stop offset="1" stop-color="#9175B5"/>
</linearGradient>
<linearGradient id="paint3_linear_22_1044" x1="115.856" y1="33.3984" x2="115.856" y2="86.1422" gradientUnits="userSpaceOnUse">
<stop stop-color="#16215E"/>
<stop offset="1" stop-color="#9175B5"/>
</linearGradient>
<linearGradient id="paint4_linear_22_1044" x1="86.9361" y1="0.00292969" x2="86.9361" y2="55.3494" gradientUnits="userSpaceOnUse">
<stop stop-color="#16215E"/>
<stop offset="1" stop-color="#9175B5"/>
</linearGradient>
<linearGradient id="paint5_linear_22_1044" x1="35.4065" y1="46.9529" x2="48.8542" y2="94.0065" gradientUnits="userSpaceOnUse">
<stop stop-color="#FE9128"/>
<stop offset="0.26" stop-color="#FE8B2A"/>
<stop offset="0.59" stop-color="#FE7B30"/>
<stop offset="0.96" stop-color="#FE603A"/>
<stop offset="0.99" stop-color="#FF5E3B"/>
</linearGradient>
<linearGradient id="paint6_linear_22_1044" x1="69.409" y1="81.9105" x2="49.604" y2="103.517" gradientUnits="userSpaceOnUse">
<stop stop-color="#FE7E2F"/>
<stop offset="0.99" stop-color="#FF5E3B"/>
</linearGradient>
<linearGradient id="paint7_linear_22_1044" x1="62.381" y1="105.273" x2="61.5598" y2="115.268" gradientUnits="userSpaceOnUse">
<stop stop-color="#FF5E3B"/>
<stop offset="0.3" stop-color="#EA5439"/>
<stop offset="0.91" stop-color="#B53D34"/>
<stop offset="1" stop-color="#AD3A34"/>
</linearGradient>
<linearGradient id="paint8_linear_22_1044" x1="79.3169" y1="109.371" x2="68.9773" y2="104.956" gradientUnits="userSpaceOnUse">
<stop stop-color="#FE9128"/>
<stop offset="0.26" stop-color="#FE8B2A"/>
<stop offset="0.59" stop-color="#FE7B30"/>
<stop offset="0.96" stop-color="#FE603A"/>
<stop offset="0.99" stop-color="#FF5E3B"/>
</linearGradient>
<radialGradient id="paint9_radial_22_1044" cx="0" cy="0" r="1" gradientUnits="userSpaceOnUse" gradientTransform="translate(52.8512 86.2266) scale(36.808 38.4512)">
<stop stop-color="#FE9128"/>
<stop offset="0.26" stop-color="#FE8B2A"/>
<stop offset="0.59" stop-color="#FE7B30"/>
<stop offset="0.96" stop-color="#FE603A"/>
<stop offset="0.99" stop-color="#FF5E3B"/>
</radialGradient>
<linearGradient id="paint10_linear_22_1044" x1="78.3015" y1="90.1401" x2="106.371" y2="109.76" gradientUnits="userSpaceOnUse">
<stop stop-color="#FF5E3B"/>
<stop offset="0.3" stop-color="#EA5439"/>
<stop offset="0.91" stop-color="#B53D34"/>
<stop offset="1" stop-color="#AD3A34"/>
</linearGradient>
<linearGradient id="paint11_linear_22_1044" x1="84.3054" y1="80.463" x2="102.592" y2="115.605" gradientUnits="userSpaceOnUse">
<stop stop-color="#FF5E3B"/>
<stop offset="0.37" stop-color="#EA5439"/>
<stop offset="1" stop-color="#BE4136"/>
</linearGradient>
<radialGradient id="paint12_radial_22_1044" cx="0" cy="0" r="1" gradientUnits="userSpaceOnUse" gradientTransform="translate(135.05 39.6364) scale(46.0117 48.3123)">
<stop stop-color="#FFA83A"/>
<stop offset="0.21" stop-color="#FFA23A"/>
<stop offset="0.47" stop-color="#FF923A"/>
<stop offset="0.77" stop-color="#FF773A"/>
<stop offset="0.99" stop-color="#FF5E3B"/>
</radialGradient>
<linearGradient id="paint13_linear_22_1044" x1="128.958" y1="85.7847" x2="136.966" y2="76.646" gradientUnits="userSpaceOnUse">
<stop stop-color="#FDA80D"/>
<stop offset="0.99" stop-color="#AE1702"/>
</linearGradient>
<linearGradient id="paint14_linear_22_1044" x1="154.639" y1="86.6154" x2="159.875" y2="80.4645" gradientUnits="userSpaceOnUse">
<stop stop-color="#FDA80D"/>
<stop offset="0.99" stop-color="#AE1702"/>
</linearGradient>
<radialGradient id="paint15_radial_22_1044" cx="0" cy="0" r="1" gradientUnits="userSpaceOnUse" gradientTransform="translate(144.647 92.6868) scale(22.9396 24.0866)">
<stop stop-color="#FFF7ED"/>
<stop offset="0.01" stop-color="#FFF6EB"/>
<stop offset="0.29" stop-color="#FFE5C8"/>
<stop offset="0.56" stop-color="#FFD9B0"/>
<stop offset="0.8" stop-color="#FFD2A1"/>
<stop offset="1" stop-color="#FFD09C"/>
</radialGradient>
<linearGradient id="paint16_linear_22_1044" x1="106.389" y1="41.973" x2="73.3392" y2="34.662" gradientUnits="userSpaceOnUse">
<stop stop-color="#FFD4A7"/>
<stop offset="0.95" stop-color="#FFB96D"/>
</linearGradient>
<linearGradient id="paint17_linear_22_1044" x1="72.112" y1="48.0464" x2="117.364" y2="48.0464" gradientUnits="userSpaceOnUse">
<stop stop-color="#FFF5EB"/>
<stop offset="0.19" stop-color="#FFE7D1"/>
<stop offset="0.59" stop-color="#FFC590"/>
<stop offset="1" stop-color="#FFA04A"/>
</linearGradient>
<linearGradient id="paint18_linear_22_1044" x1="81.5067" y1="27.5805" x2="99.3251" y2="47.2178" gradientUnits="userSpaceOnUse">
<stop stop-color="#76262C"/>
<stop offset="0.18" stop-color="#7B292C"/>
<stop offset="0.41" stop-color="#8B352C"/>
<stop offset="0.67" stop-color="#A6472D"/>
<stop offset="0.95" stop-color="#CB612D"/>
<stop offset="1" stop-color="#D3672E"/>
</linearGradient>
<linearGradient id="paint19_linear_22_1044" x1="162.043" y1="110.552" x2="159.182" y2="104.009" gradientUnits="userSpaceOnUse">
<stop stop-color="#FE9128"/>
<stop offset="0.26" stop-color="#FE8B2A"/>
<stop offset="0.59" stop-color="#FE7B30"/>
<stop offset="0.96" stop-color="#FE603A"/>
<stop offset="0.99" stop-color="#FF5E3B"/>
</linearGradient>
<linearGradient id="paint20_linear_22_1044" x1="93.0824" y1="75.9846" x2="111.28" y2="110.959" gradientUnits="userSpaceOnUse">
<stop stop-color="#FF5E3B"/>
<stop offset="0.37" stop-color="#EA5439"/>
<stop offset="1" stop-color="#BE4136"/>
</linearGradient>
<linearGradient id="paint21_linear_22_1044" x1="114.715" y1="116.619" x2="110.3" y2="106.535" gradientUnits="userSpaceOnUse">
<stop stop-color="#FE9128"/>
<stop offset="0.26" stop-color="#FE8B2A"/>
<stop offset="0.59" stop-color="#FE7B30"/>
<stop offset="0.96" stop-color="#FE603A"/>
<stop offset="0.99" stop-color="#FF5E3B"/>
</linearGradient>
</defs>
</svg>
