<svg width="160" height="146" viewBox="0 0 160 146" fill="none" xmlns="http://www.w3.org/2000/svg">
<g clip-path="url(#clip0_22_1157)">
<path d="M127.715 118.909C125.735 108.566 116.23 100.068 107.756 94.4677C99.5038 89.0169 94.3615 82.5201 88.7061 74.5031C80.8173 63.3221 65.6369 61.7759 54.8197 69.8839C47.9697 75.0163 44.561 82.9944 37.9512 88.2503C31.4129 93.4477 23.4331 96.6506 17.7259 102.907C15.6936 105.135 14.1742 107.741 12.9406 110.482C11.7134 113.211 10.785 116.07 10.2785 119.026C8.65529 128.491 12.603 137.71 22.1345 140.887C30.4584 143.661 40.8016 142.271 48.9502 139.419C54.2419 137.567 59.2739 134.774 64.8188 133.975C73.2076 132.766 80.5381 136.34 88.1283 139.257C95.1081 141.94 102.867 143.057 110.308 142.011C117.203 141.037 124.105 137.074 126.605 130.57C128.176 126.484 128.417 122.586 127.715 118.915V118.909Z" fill="url(#paint0_linear_22_1157)"/>
<path d="M36.9642 58.8199C36.3149 56.2797 35.2241 53.8629 33.9125 51.602C32.4127 49.0163 30.5492 46.6515 28.3351 44.6375C27.2508 43.6499 26.0821 42.7729 24.8485 41.9803C23.6083 41.1812 22.3227 40.447 20.9073 39.9988C19.9528 39.6999 18.9334 39.4985 17.9076 39.4465C16.8947 39.3361 15.8363 39.4465 14.8624 39.6739C13.5833 39.9728 12.3756 40.5315 11.2848 41.2656C9.05125 42.7729 7.33063 44.9753 6.07101 47.3401C5.40224 48.594 4.85684 49.9128 4.33741 51.2382C3.77902 52.661 3.27258 54.1033 2.81807 55.565C0.94812 61.5746 -0.17515 67.9349 0.0261296 74.2563C0.0715799 75.783 0.201438 77.3033 0.422196 78.817C0.623476 80.1619 0.876698 81.4937 1.33769 82.7736C2.12333 84.963 3.42191 86.9185 5.15551 88.4648C8.57078 91.4988 13.3236 92.5513 17.7842 92.0055C22.5824 91.4208 27.0041 88.9585 30.3025 85.4633C33.5814 81.9875 35.802 77.5632 36.9187 72.9375C38.0355 68.3312 38.1459 63.4262 36.9642 58.8199Z" fill="url(#paint1_linear_22_1157)"/>
<path d="M64.6556 26.9796C63.8829 20.6322 61.1949 14.4213 56.6888 10.1594C54.6501 8.22983 52.1698 6.81353 49.4752 6.24831C47.2936 5.78703 45.0276 5.95595 42.9888 6.94996C37.3205 9.72409 34.1065 17.8581 32.2366 23.7442C28.646 35.0551 31.7886 48.0421 39.645 56.5139C41.8396 58.8788 44.5341 60.9642 47.6442 61.3021C51.6633 61.7439 55.5461 59.0997 57.9095 55.6239C62.3182 49.1466 64.7725 39.1156 64.8764 31.209C64.8958 29.8057 64.8179 28.3894 64.6491 26.9796H64.6556Z" fill="url(#paint2_linear_22_1157)"/>
<path d="M97.8479 72.9372C98.9711 77.563 101.185 81.9938 104.464 85.463C107.762 88.9583 112.184 91.4206 116.982 92.0053C121.443 92.551 126.196 91.4986 129.611 88.4646C131.351 86.9183 132.643 84.9628 133.429 82.7734C133.89 81.4935 134.143 80.1552 134.344 78.8168C134.565 77.3096 134.695 75.7828 134.74 74.2561C134.942 67.9347 133.818 61.5744 131.936 55.5583C131.481 54.1031 130.975 52.6543 130.416 51.2315C129.897 49.9061 129.351 48.5873 128.683 47.3334C127.423 44.9751 125.709 42.7662 123.469 41.2589C122.378 40.5248 121.17 39.9726 119.891 39.6672C118.917 39.4398 117.859 39.3359 116.846 39.4398C115.82 39.4983 114.801 39.6932 113.846 39.9921C112.437 40.4338 111.145 41.1745 109.905 41.9736C108.672 42.7662 107.503 43.6432 106.418 44.6308C104.211 46.6448 102.341 49.0096 100.841 51.5953C99.5295 53.8562 98.4387 56.2795 97.7894 58.8132C96.6077 63.4195 96.7181 68.3245 97.8349 72.9307L97.8479 72.9372Z" fill="url(#paint3_linear_22_1157)"/>
<path d="M69.8825 31.209C69.9864 39.1156 72.4472 49.1466 76.8493 55.6239C79.2127 59.0997 83.0955 61.7439 87.1146 61.3021C90.2247 60.9642 92.9257 58.8788 95.1138 56.5139C102.97 48.0421 106.113 35.0551 102.522 23.7442C100.652 17.8581 97.4448 9.72409 91.77 6.94996C89.7312 5.95595 87.4652 5.78703 85.2836 6.24831C82.5955 6.81353 80.1088 8.22983 78.07 10.1594C73.5639 14.4213 70.8759 20.6322 70.1032 26.9796C69.9344 28.3894 69.8565 29.8057 69.876 31.209H69.8825Z" fill="url(#paint4_linear_22_1157)"/>
</g>
<mask id="mask0_22_1157" style="mask-type:luminance" maskUnits="userSpaceOnUse" x="85" y="118" width="2" height="2">
<path d="M86.3645 119.011C84.4185 116.622 88.3105 121.4 86.3645 119.011V119.011Z" fill="white"/>
</mask>
<g mask="url(#mask0_22_1157)">
<path d="M88.3178 116.613H84.4258V121.391H88.3178V116.613Z" fill="#FF5E3B"/>
<path d="M86.3423 119.51C85.3475 119.234 84.6722 118.537 84.832 117.949C84.9917 117.361 85.9357 117.1 86.9305 117.376C87.9253 117.651 88.6006 118.349 88.4408 118.937C88.2811 119.525 87.3371 119.786 86.3423 119.51Z" fill="#FF5E3B"/>
<path d="M86.3506 119.488C85.3776 119.22 84.7096 118.53 84.8693 117.956C85.0291 117.375 85.9512 117.128 86.9243 117.39C87.8973 117.659 88.5653 118.348 88.4056 118.922C88.2458 119.503 87.3236 119.75 86.3506 119.488Z" fill="#FF5F3B"/>
<path d="M86.3495 119.467C85.391 119.205 84.7448 118.53 84.8973 117.964C85.0498 117.397 85.9574 117.15 86.9159 117.412C87.8744 117.673 88.5207 118.348 88.3682 118.915C88.2157 119.481 87.308 119.728 86.3495 119.467Z" fill="#FF603A"/>
<path d="M86.3568 119.445C85.4201 119.191 84.7811 118.53 84.9336 117.971C85.0861 117.412 85.972 117.172 86.9087 117.434C87.8454 117.688 88.4844 118.349 88.3319 118.908C88.1794 119.467 87.2935 119.706 86.3568 119.445Z" fill="#FF613A"/>
<path d="M86.3644 119.423C85.4494 119.169 84.825 118.523 84.9702 117.978C85.1227 117.434 85.9868 117.194 86.9017 117.448C87.8166 117.702 88.4411 118.349 88.2959 118.893C88.1434 119.438 87.2793 119.677 86.3644 119.423Z" fill="#FF6239"/>
<path d="M86.3719 119.402C85.4715 119.155 84.8615 118.523 85.0067 117.993C85.152 117.463 86.0015 117.231 86.9019 117.477C87.8023 117.724 88.4123 118.356 88.267 118.886C88.1218 119.416 87.2723 119.649 86.3719 119.402Z" fill="#FF6439"/>
<path d="M86.3794 119.387C85.5008 119.147 84.9053 118.53 85.0433 118.007C85.1885 117.484 86.0163 117.259 86.8949 117.499C87.7735 117.738 88.369 118.356 88.231 118.878C88.0858 119.401 87.258 119.626 86.3794 119.387Z" fill="#FF6538"/>
<path d="M86.3785 119.366C85.5216 119.126 84.9335 118.524 85.0787 118.015C85.2166 117.507 86.0299 117.282 86.8867 117.522C87.7436 117.761 88.3317 118.364 88.1865 118.872C88.0485 119.38 87.2353 119.606 86.3785 119.366Z" fill="#FF6638"/>
<path d="M86.3861 119.344C85.5438 119.111 84.9775 118.523 85.1154 118.022C85.2534 117.521 86.0449 117.311 86.8872 117.536C87.7295 117.768 88.2959 118.356 88.1579 118.857C88.0199 119.358 87.2284 119.569 86.3861 119.344Z" fill="#FF6738"/>
<path d="M86.3935 119.321C85.5729 119.096 85.0138 118.515 85.1518 118.029C85.2825 117.542 86.0594 117.332 86.88 117.557C87.7005 117.782 88.2596 118.363 88.1216 118.849C87.9909 119.336 87.214 119.546 86.3935 119.321Z" fill="#FF6837"/>
<path d="M86.4009 119.301C85.6022 119.083 85.0576 118.517 85.1883 118.045C85.319 117.573 86.0742 117.362 86.8729 117.58C87.6717 117.798 88.2163 118.364 88.0856 118.836C87.9549 119.308 87.1997 119.519 86.4009 119.301Z" fill="#FF6937"/>
<path d="M86.4085 119.278C85.6242 119.06 85.0942 118.516 85.2249 118.051C85.3556 117.586 86.089 117.383 86.8732 117.601C87.6574 117.819 88.1875 118.363 88.0568 118.828C87.9261 119.293 87.1927 119.496 86.4085 119.278Z" fill="#FF6A36"/>
<path d="M86.4081 119.256C85.6457 119.046 85.1302 118.508 85.2536 118.058C85.377 117.608 86.0959 117.412 86.8583 117.615C87.6208 117.826 88.1363 118.363 88.0129 118.813C87.8894 119.263 87.1706 119.459 86.4081 119.256Z" fill="#FF6B36"/>
<path d="M86.4155 119.235C85.6748 119.031 85.1665 118.509 85.29 118.066C85.4134 117.623 86.1105 117.434 86.8511 117.637C87.5918 117.841 88.1001 118.363 87.9766 118.806C87.8532 119.249 87.1561 119.438 86.4155 119.235Z" fill="#FF6C36"/>
<path d="M86.4222 119.219C85.6961 119.023 85.2096 118.515 85.3257 118.086C85.4419 117.658 86.1245 117.469 86.8506 117.673C87.5767 117.869 88.0632 118.377 87.9471 118.805C87.8309 119.234 87.1483 119.422 86.4222 119.219Z" fill="#FF6D35"/>
<path d="M86.4305 119.197C85.7261 119.001 85.2469 118.507 85.3631 118.093C85.4792 117.679 86.14 117.498 86.8444 117.687C87.5487 117.883 88.028 118.377 87.9118 118.79C87.7956 119.204 87.1348 119.386 86.4305 119.197Z" fill="#FF6E35"/>
<path d="M86.437 119.176C85.7544 118.988 85.2897 118.508 85.3986 118.102C85.5076 117.695 86.1538 117.521 86.8364 117.71C87.5189 117.898 87.9837 118.378 87.8747 118.784C87.7658 119.191 87.1196 119.365 86.437 119.176Z" fill="#FF7034"/>
<path d="M86.4377 119.155C85.7696 118.973 85.3194 118.501 85.4284 118.109C85.5373 117.717 86.1617 117.543 86.8298 117.724C87.4978 117.906 87.948 118.378 87.8391 118.77C87.7302 119.162 87.1057 119.336 86.4377 119.155Z" fill="#FF7134"/>
<path d="M86.4442 119.133C85.7979 118.958 85.3623 118.501 85.4639 118.116C85.5656 117.731 86.1755 117.564 86.8218 117.746C87.468 117.92 87.9037 118.377 87.8021 118.762C87.7004 119.147 87.0905 119.314 86.4442 119.133Z" fill="#FF7234"/>
<path d="M86.4515 119.111C85.827 118.937 85.3986 118.501 85.5003 118.131C85.6019 117.761 86.1901 117.601 86.8218 117.768C87.4463 117.942 87.8747 118.378 87.7731 118.748C87.6714 119.119 87.0832 119.278 86.4515 119.111Z" fill="#FF7333"/>
<path d="M86.4592 119.09C85.8493 118.923 85.4426 118.494 85.537 118.139C85.6387 117.775 86.2051 117.623 86.815 117.79C87.425 117.957 87.8316 118.385 87.7372 118.741C87.6355 119.104 87.0692 119.257 86.4592 119.09Z" fill="#FF7433"/>
<path d="M86.4587 119.068C85.8705 118.908 85.4712 118.494 85.5656 118.145C85.66 117.797 86.2118 117.644 86.8 117.804C87.3881 117.964 87.7875 118.378 87.6931 118.726C87.5987 119.075 87.0469 119.227 86.4587 119.068Z" fill="#FF7532"/>
<path d="M86.4668 119.053C85.9004 118.9 85.5155 118.501 85.6099 118.16C85.7043 117.826 86.2344 117.673 86.8081 117.833C87.3744 117.985 87.7593 118.385 87.6649 118.726C87.5705 119.06 87.0404 119.213 86.4668 119.053Z" fill="#FF7632"/>
<path d="M86.4731 119.032C85.9285 118.88 85.5509 118.495 85.6453 118.168C85.7325 117.841 86.248 117.703 86.7999 117.856C87.3517 118.008 87.7221 118.393 87.6277 118.72C87.5405 119.047 87.025 119.185 86.4731 119.039V119.032Z" fill="#FE7731"/>
<path d="M86.4808 119.009C85.9507 118.864 85.5949 118.493 85.6821 118.181C85.7692 117.869 86.263 117.731 86.793 117.876C87.3231 118.021 87.6789 118.392 87.5918 118.704C87.5047 119.016 87.0109 119.154 86.4808 119.009Z" fill="#FE7831"/>
<path d="M86.4881 118.987C85.9798 118.849 85.6313 118.486 85.7184 118.188C85.7983 117.883 86.2848 117.753 86.7931 117.898C87.3014 118.036 87.6499 118.399 87.5628 118.697C87.4829 119.002 86.9964 119.132 86.4881 118.987Z" fill="#FE7931"/>
<path d="M86.4878 118.966C86.0013 118.828 85.6673 118.487 85.7472 118.196C85.827 117.906 86.2918 117.782 86.7783 117.913C87.2648 118.044 87.5988 118.392 87.5189 118.683C87.439 118.973 86.9743 119.097 86.4878 118.966Z" fill="#FE7A30"/>
<path d="M86.4953 118.944C86.0233 118.813 85.7039 118.487 85.7837 118.204C85.8636 117.928 86.3065 117.804 86.7713 117.935C87.236 118.066 87.5627 118.392 87.4829 118.676C87.403 118.959 86.9601 119.075 86.4953 118.944Z" fill="#FE7B30"/>
<path d="M86.5018 118.922C86.0516 118.799 85.7467 118.479 85.8193 118.218C85.8919 117.949 86.3203 117.833 86.7705 117.956C87.2207 118.08 87.5257 118.399 87.4531 118.661C87.3805 118.929 86.952 119.045 86.5018 118.922Z" fill="#FE7C30"/>
<path d="M86.5101 118.9C86.0817 118.784 85.784 118.479 85.8566 118.225C85.9292 117.971 86.3359 117.855 86.7643 117.978C87.1927 118.094 87.4904 118.399 87.4178 118.653C87.3452 118.908 86.9385 119.024 86.5101 118.9Z" fill="#FE7D2F"/>
<path d="M86.5169 118.878C86.103 118.762 85.827 118.479 85.8924 118.232C85.9577 117.985 86.3498 117.884 86.7565 117.992C87.1704 118.109 87.4463 118.392 87.3809 118.639C87.3156 118.886 86.9235 118.987 86.5169 118.878Z" fill="#FE7E2F"/>
<path d="M86.5173 118.863C86.1252 118.754 85.8566 118.479 85.9219 118.246C85.9873 118.014 86.3576 117.912 86.7497 118.021C87.1418 118.13 87.4105 118.406 87.3451 118.638C87.2798 118.871 86.9094 118.972 86.5173 118.863Z" fill="#FE7F2E"/>
<path d="M86.5239 118.843C86.1535 118.741 85.8994 118.48 85.9575 118.254C86.0156 118.029 86.3714 117.935 86.7417 118.037C87.112 118.138 87.3662 118.4 87.3081 118.625C87.25 118.843 86.8942 118.944 86.5239 118.843Z" fill="#FE802E"/>
<path d="M86.5314 118.82C86.1756 118.726 85.9359 118.471 85.994 118.268C86.0521 118.065 86.3861 117.97 86.7347 118.065C87.0905 118.159 87.3301 118.413 87.272 118.617C87.2139 118.827 86.8799 118.914 86.5314 118.82Z" fill="#FE812E"/>
<path d="M86.5389 118.798C86.2049 118.704 85.9798 118.472 86.0306 118.276C86.0814 118.08 86.4009 117.992 86.7349 118.087C87.069 118.181 87.2941 118.414 87.2432 118.61C87.1924 118.806 86.8729 118.893 86.5389 118.798Z" fill="#FE822D"/>
<path d="M86.5462 118.777C86.2339 118.69 86.0161 118.472 86.0669 118.283C86.1178 118.094 86.4155 118.014 86.7277 118.101C87.04 118.189 87.2578 118.406 87.207 118.595C87.1561 118.784 86.8584 118.864 86.5462 118.777Z" fill="#FE832D"/>
<path d="M86.5461 118.756C86.2484 118.676 86.0523 118.465 86.0959 118.291C86.1395 118.117 86.4227 118.037 86.7204 118.124C87.0181 118.204 87.2141 118.415 87.1706 118.589C87.1197 118.763 86.8438 118.843 86.5534 118.756H86.5461Z" fill="#FE842C"/>
<path d="M86.553 118.734C86.2771 118.661 86.0883 118.465 86.1391 118.298C86.1827 118.138 86.4441 118.066 86.72 118.138C86.996 118.211 87.1848 118.407 87.1339 118.574C87.0904 118.734 86.829 118.806 86.553 118.734Z" fill="#FE852C"/>
<path d="M86.5605 118.713C86.3063 118.64 86.1321 118.466 86.1756 118.313C86.2192 118.161 86.4588 118.095 86.713 118.168C86.9671 118.241 87.1414 118.415 87.0978 118.567C87.0542 118.72 86.8146 118.785 86.5605 118.713Z" fill="#FE862C"/>
<path d="M86.568 118.697C86.3284 118.631 86.1687 118.464 86.2122 118.326C86.2485 118.188 86.4736 118.123 86.7133 118.188C86.9529 118.254 87.1126 118.421 87.0691 118.559C87.0328 118.697 86.8077 118.762 86.568 118.697Z" fill="#FE872B"/>
<path d="M86.5745 118.675C86.3567 118.617 86.2114 118.464 86.2477 118.334C86.2841 118.203 86.4874 118.152 86.7052 118.21C86.923 118.268 87.0683 118.421 87.032 118.551C86.9957 118.682 86.7923 118.733 86.5745 118.675Z" fill="#FE882B"/>
<path d="M86.575 118.653C86.379 118.602 86.241 118.457 86.2773 118.341C86.3063 118.224 86.4951 118.174 86.6912 118.225C86.8872 118.275 87.0252 118.421 86.9889 118.537C86.9599 118.653 86.7711 118.704 86.575 118.653Z" fill="#FE892B"/>
<path d="M86.5817 118.632C86.4002 118.581 86.284 118.458 86.313 118.349C86.3421 118.24 86.5091 118.197 86.6906 118.247C86.8721 118.298 86.9883 118.422 86.9593 118.531C86.9302 118.64 86.7632 118.683 86.5817 118.632Z" fill="#FE8A2A"/>
<path d="M86.59 118.61C86.4303 118.566 86.3214 118.457 86.3504 118.363C86.3794 118.269 86.5247 118.225 86.6844 118.269C86.8442 118.312 86.9531 118.421 86.924 118.516C86.895 118.61 86.7498 118.654 86.59 118.61Z" fill="#FE8B2A"/>
<path d="M86.5965 118.589C86.4586 118.553 86.3642 118.451 86.3859 118.371C86.4077 118.291 86.5384 118.255 86.6764 118.291C86.8144 118.328 86.9088 118.429 86.887 118.509C86.8652 118.589 86.7345 118.625 86.5965 118.589Z" fill="#FE8C2A"/>
<path d="M86.597 118.566C86.4808 118.53 86.3937 118.45 86.4155 118.378C86.4372 118.305 86.5462 118.276 86.6696 118.312C86.7858 118.349 86.8729 118.428 86.8511 118.501C86.8294 118.574 86.7204 118.603 86.597 118.566Z" fill="#FE8D29"/>
<path d="M86.6037 118.545C86.5021 118.516 86.4367 118.451 86.4512 118.386C86.4658 118.328 86.5602 118.299 86.6618 118.328C86.7635 118.357 86.8288 118.422 86.8143 118.487C86.7998 118.545 86.7054 118.574 86.6037 118.545Z" fill="#FE8E29"/>
<path d="M86.611 118.53C86.5311 118.508 86.4731 118.45 86.4876 118.407C86.5021 118.356 86.5747 118.341 86.6546 118.363C86.7345 118.385 86.7926 118.443 86.778 118.487C86.7635 118.537 86.6909 118.552 86.611 118.53Z" fill="#FE8E29"/>
<path d="M86.6186 118.508C86.5605 118.494 86.517 118.45 86.5242 118.414C86.5315 118.377 86.5896 118.363 86.6549 118.377C86.713 118.392 86.7566 118.435 86.7493 118.472C86.7421 118.508 86.684 118.523 86.6186 118.508Z" fill="#FE8F28"/>
<path d="M86.626 118.486C86.5825 118.472 86.5534 118.443 86.5607 118.421C86.5607 118.399 86.6043 118.385 86.6478 118.399C86.6914 118.414 86.7204 118.443 86.7132 118.465C86.7132 118.486 86.6696 118.501 86.626 118.486Z" fill="#FE9028"/>
<path d="M86.6264 118.464C86.6264 118.464 86.5898 118.442 86.5898 118.428C86.5898 118.413 86.6118 118.406 86.6337 118.413C86.6557 118.42 86.6703 118.435 86.6703 118.45C86.6703 118.464 86.6484 118.472 86.6264 118.464Z" fill="#FE9028"/>
<path d="M86.6333 118.45C86.6333 118.45 86.6114 118.435 86.6187 118.428C86.6187 118.428 86.6333 118.42 86.6406 118.428C86.6553 118.428 86.6626 118.442 86.6553 118.45C86.6553 118.45 86.6406 118.457 86.6333 118.45Z" fill="#FE9128"/>
</g>
<mask id="mask1_22_1157" style="mask-type:luminance" maskUnits="userSpaceOnUse" x="85" y="118" width="2" height="2">
<path d="M86.3645 119.011C84.4185 116.622 88.3105 121.4 86.3645 119.011V119.011Z" fill="white"/>
</mask>
<g mask="url(#mask1_22_1157)">
<path d="M88.3178 116.613H84.4258V121.391H88.3178V116.613Z" fill="#FF5E3B"/>
<path d="M86.3423 119.51C85.3475 119.234 84.6722 118.537 84.832 117.949C84.9917 117.361 85.9357 117.1 86.9305 117.376C87.9253 117.651 88.6006 118.349 88.4408 118.937C88.2811 119.525 87.3371 119.786 86.3423 119.51Z" fill="#FF5E3B"/>
<path d="M86.3506 119.488C85.3776 119.22 84.7096 118.53 84.8693 117.956C85.0291 117.375 85.9512 117.128 86.9243 117.39C87.8973 117.659 88.5653 118.348 88.4056 118.922C88.2458 119.503 87.3236 119.75 86.3506 119.488Z" fill="#FF5F3B"/>
<path d="M86.3495 119.467C85.391 119.205 84.7448 118.53 84.8973 117.964C85.0498 117.397 85.9574 117.15 86.9159 117.412C87.8744 117.673 88.5207 118.348 88.3682 118.915C88.2157 119.481 87.308 119.728 86.3495 119.467Z" fill="#FF603A"/>
<path d="M86.3568 119.445C85.4201 119.191 84.7811 118.53 84.9336 117.971C85.0861 117.412 85.972 117.172 86.9087 117.434C87.8454 117.688 88.4844 118.349 88.3319 118.908C88.1794 119.467 87.2935 119.706 86.3568 119.445Z" fill="#FF613A"/>
<path d="M86.3644 119.423C85.4494 119.169 84.825 118.523 84.9702 117.978C85.1227 117.434 85.9868 117.194 86.9017 117.448C87.8166 117.702 88.4411 118.349 88.2959 118.893C88.1434 119.438 87.2793 119.677 86.3644 119.423Z" fill="#FF6239"/>
<path d="M86.3719 119.402C85.4715 119.155 84.8615 118.523 85.0067 117.993C85.152 117.463 86.0015 117.231 86.9019 117.477C87.8023 117.724 88.4123 118.356 88.267 118.886C88.1218 119.416 87.2723 119.649 86.3719 119.402Z" fill="#FF6439"/>
<path d="M86.3794 119.387C85.5008 119.147 84.9053 118.53 85.0433 118.007C85.1885 117.484 86.0163 117.259 86.8949 117.499C87.7735 117.738 88.369 118.356 88.231 118.878C88.0858 119.401 87.258 119.626 86.3794 119.387Z" fill="#FF6538"/>
<path d="M86.3785 119.366C85.5216 119.126 84.9335 118.524 85.0787 118.015C85.2166 117.507 86.0299 117.282 86.8867 117.522C87.7436 117.761 88.3317 118.364 88.1865 118.872C88.0485 119.38 87.2353 119.606 86.3785 119.366Z" fill="#FF6638"/>
<path d="M86.3861 119.344C85.5438 119.111 84.9775 118.523 85.1154 118.022C85.2534 117.521 86.0449 117.311 86.8872 117.536C87.7295 117.768 88.2959 118.356 88.1579 118.857C88.0199 119.358 87.2284 119.569 86.3861 119.344Z" fill="#FF6738"/>
<path d="M86.3935 119.321C85.5729 119.096 85.0138 118.515 85.1518 118.029C85.2825 117.542 86.0594 117.332 86.88 117.557C87.7005 117.782 88.2596 118.363 88.1216 118.849C87.9909 119.336 87.214 119.546 86.3935 119.321Z" fill="#FF6837"/>
<path d="M86.4009 119.301C85.6022 119.083 85.0576 118.517 85.1883 118.045C85.319 117.573 86.0742 117.362 86.8729 117.58C87.6717 117.798 88.2163 118.364 88.0856 118.836C87.9549 119.308 87.1997 119.519 86.4009 119.301Z" fill="#FF6937"/>
<path d="M86.4085 119.278C85.6242 119.06 85.0942 118.516 85.2249 118.051C85.3556 117.586 86.089 117.383 86.8732 117.601C87.6574 117.819 88.1875 118.363 88.0568 118.828C87.9261 119.293 87.1927 119.496 86.4085 119.278Z" fill="#FF6A36"/>
<path d="M86.4081 119.256C85.6457 119.046 85.1302 118.508 85.2536 118.058C85.377 117.608 86.0959 117.412 86.8583 117.615C87.6208 117.826 88.1363 118.363 88.0129 118.813C87.8894 119.263 87.1706 119.459 86.4081 119.256Z" fill="#FF6B36"/>
<path d="M86.4155 119.235C85.6748 119.031 85.1665 118.509 85.29 118.066C85.4134 117.623 86.1105 117.434 86.8511 117.637C87.5918 117.841 88.1001 118.363 87.9766 118.806C87.8532 119.249 87.1561 119.438 86.4155 119.235Z" fill="#FF6C36"/>
<path d="M86.4222 119.219C85.6961 119.023 85.2096 118.515 85.3257 118.086C85.4419 117.658 86.1245 117.469 86.8506 117.673C87.5767 117.869 88.0632 118.377 87.9471 118.805C87.8309 119.234 87.1483 119.422 86.4222 119.219Z" fill="#FF6D35"/>
<path d="M86.4305 119.197C85.7261 119.001 85.2469 118.507 85.3631 118.093C85.4792 117.679 86.14 117.498 86.8444 117.687C87.5487 117.883 88.028 118.377 87.9118 118.79C87.7956 119.204 87.1348 119.386 86.4305 119.197Z" fill="#FF6E35"/>
<path d="M86.437 119.176C85.7544 118.988 85.2897 118.508 85.3986 118.102C85.5076 117.695 86.1538 117.521 86.8364 117.71C87.5189 117.898 87.9837 118.378 87.8747 118.784C87.7658 119.191 87.1196 119.365 86.437 119.176Z" fill="#FF7034"/>
<path d="M86.4377 119.155C85.7696 118.973 85.3194 118.501 85.4284 118.109C85.5373 117.717 86.1617 117.543 86.8298 117.724C87.4978 117.906 87.948 118.378 87.8391 118.77C87.7302 119.162 87.1057 119.336 86.4377 119.155Z" fill="#FF7134"/>
<path d="M86.4442 119.133C85.7979 118.958 85.3623 118.501 85.4639 118.116C85.5656 117.731 86.1755 117.564 86.8218 117.746C87.468 117.92 87.9037 118.377 87.8021 118.762C87.7004 119.147 87.0905 119.314 86.4442 119.133Z" fill="#FF7234"/>
<path d="M86.4515 119.111C85.827 118.937 85.3986 118.501 85.5003 118.131C85.6019 117.761 86.1901 117.601 86.8218 117.768C87.4463 117.942 87.8747 118.378 87.7731 118.748C87.6714 119.119 87.0832 119.278 86.4515 119.111Z" fill="#FF7333"/>
<path d="M86.4592 119.09C85.8493 118.923 85.4426 118.494 85.537 118.139C85.6387 117.775 86.2051 117.623 86.815 117.79C87.425 117.957 87.8316 118.385 87.7372 118.741C87.6355 119.104 87.0692 119.257 86.4592 119.09Z" fill="#FF7433"/>
<path d="M86.4587 119.068C85.8705 118.908 85.4712 118.494 85.5656 118.145C85.66 117.797 86.2118 117.644 86.8 117.804C87.3881 117.964 87.7875 118.378 87.6931 118.726C87.5987 119.075 87.0469 119.227 86.4587 119.068Z" fill="#FF7532"/>
<path d="M86.4668 119.053C85.9004 118.9 85.5155 118.501 85.6099 118.16C85.7043 117.826 86.2344 117.673 86.8081 117.833C87.3744 117.985 87.7593 118.385 87.6649 118.726C87.5705 119.06 87.0404 119.213 86.4668 119.053Z" fill="#FF7632"/>
<path d="M86.4731 119.032C85.9285 118.88 85.5509 118.495 85.6453 118.168C85.7325 117.841 86.248 117.703 86.7999 117.856C87.3517 118.008 87.7221 118.393 87.6277 118.72C87.5405 119.047 87.025 119.185 86.4731 119.039V119.032Z" fill="#FE7731"/>
<path d="M86.4808 119.009C85.9507 118.864 85.5949 118.493 85.6821 118.181C85.7692 117.869 86.263 117.731 86.793 117.876C87.3231 118.021 87.6789 118.392 87.5918 118.704C87.5047 119.016 87.0109 119.154 86.4808 119.009Z" fill="#FE7831"/>
<path d="M86.4881 118.987C85.9798 118.849 85.6313 118.486 85.7184 118.188C85.7983 117.883 86.2848 117.753 86.7931 117.898C87.3014 118.036 87.6499 118.399 87.5628 118.697C87.4829 119.002 86.9964 119.132 86.4881 118.987Z" fill="#FE7931"/>
<path d="M86.4878 118.966C86.0013 118.828 85.6673 118.487 85.7472 118.196C85.827 117.906 86.2918 117.782 86.7783 117.913C87.2648 118.044 87.5988 118.392 87.5189 118.683C87.439 118.973 86.9743 119.097 86.4878 118.966Z" fill="#FE7A30"/>
<path d="M86.4953 118.944C86.0233 118.813 85.7039 118.487 85.7837 118.204C85.8636 117.928 86.3065 117.804 86.7713 117.935C87.236 118.066 87.5627 118.392 87.4829 118.676C87.403 118.959 86.9601 119.075 86.4953 118.944Z" fill="#FE7B30"/>
<path d="M86.5018 118.922C86.0516 118.799 85.7467 118.479 85.8193 118.218C85.8919 117.949 86.3203 117.833 86.7705 117.956C87.2207 118.08 87.5257 118.399 87.4531 118.661C87.3805 118.929 86.952 119.045 86.5018 118.922Z" fill="#FE7C30"/>
<path d="M86.5101 118.9C86.0817 118.784 85.784 118.479 85.8566 118.225C85.9292 117.971 86.3359 117.855 86.7643 117.978C87.1927 118.094 87.4904 118.399 87.4178 118.653C87.3452 118.908 86.9385 119.024 86.5101 118.9Z" fill="#FE7D2F"/>
<path d="M86.5169 118.878C86.103 118.762 85.827 118.479 85.8924 118.232C85.9577 117.985 86.3498 117.884 86.7565 117.992C87.1704 118.109 87.4463 118.392 87.3809 118.639C87.3156 118.886 86.9235 118.987 86.5169 118.878Z" fill="#FE7E2F"/>
<path d="M86.5173 118.863C86.1252 118.754 85.8566 118.479 85.9219 118.246C85.9873 118.014 86.3576 117.912 86.7497 118.021C87.1418 118.13 87.4105 118.406 87.3451 118.638C87.2798 118.871 86.9094 118.972 86.5173 118.863Z" fill="#FE7F2E"/>
<path d="M86.5239 118.843C86.1535 118.741 85.8994 118.48 85.9575 118.254C86.0156 118.029 86.3714 117.935 86.7417 118.037C87.112 118.138 87.3662 118.4 87.3081 118.625C87.25 118.843 86.8942 118.944 86.5239 118.843Z" fill="#FE802E"/>
<path d="M86.5314 118.82C86.1756 118.726 85.9359 118.471 85.994 118.268C86.0521 118.065 86.3861 117.97 86.7347 118.065C87.0905 118.159 87.3301 118.413 87.272 118.617C87.2139 118.827 86.8799 118.914 86.5314 118.82Z" fill="#FE812E"/>
<path d="M86.5389 118.798C86.2049 118.704 85.9798 118.472 86.0306 118.276C86.0814 118.08 86.4009 117.992 86.7349 118.087C87.069 118.181 87.2941 118.414 87.2432 118.61C87.1924 118.806 86.8729 118.893 86.5389 118.798Z" fill="#FE822D"/>
<path d="M86.5462 118.777C86.2339 118.69 86.0161 118.472 86.0669 118.283C86.1178 118.094 86.4155 118.014 86.7277 118.101C87.04 118.189 87.2578 118.406 87.207 118.595C87.1561 118.784 86.8584 118.864 86.5462 118.777Z" fill="#FE832D"/>
<path d="M86.5461 118.756C86.2484 118.676 86.0523 118.465 86.0959 118.291C86.1395 118.117 86.4227 118.037 86.7204 118.124C87.0181 118.204 87.2141 118.415 87.1706 118.589C87.127 118.763 86.8438 118.843 86.5534 118.756H86.5461Z" fill="#FE842C"/>
<path d="M86.553 118.734C86.2771 118.661 86.0883 118.465 86.1391 118.298C86.1827 118.138 86.4441 118.066 86.72 118.138C86.996 118.211 87.1848 118.407 87.1339 118.574C87.0904 118.734 86.829 118.806 86.553 118.734Z" fill="#FE852C"/>
<path d="M86.5605 118.713C86.3063 118.64 86.1321 118.466 86.1756 118.313C86.2192 118.161 86.4588 118.095 86.713 118.168C86.9671 118.241 87.1414 118.415 87.0978 118.567C87.0542 118.72 86.8146 118.785 86.5605 118.713Z" fill="#FE862C"/>
<path d="M86.568 118.697C86.3284 118.631 86.1687 118.464 86.2122 118.326C86.2485 118.188 86.4736 118.123 86.7133 118.188C86.9529 118.254 87.1126 118.421 87.0691 118.559C87.0328 118.697 86.8077 118.762 86.568 118.697Z" fill="#FE872B"/>
<path d="M86.5745 118.675C86.3567 118.617 86.2114 118.464 86.2477 118.334C86.2841 118.203 86.4874 118.152 86.7052 118.21C86.923 118.268 87.0683 118.421 87.032 118.551C86.9957 118.682 86.7923 118.733 86.5745 118.675Z" fill="#FE882B"/>
<path d="M86.575 118.653C86.379 118.602 86.241 118.457 86.2773 118.341C86.3063 118.224 86.4951 118.174 86.6912 118.225C86.8872 118.275 87.0252 118.421 86.9889 118.537C86.9599 118.653 86.7711 118.704 86.575 118.653Z" fill="#FE892B"/>
<path d="M86.5817 118.632C86.4002 118.581 86.284 118.458 86.313 118.349C86.3421 118.24 86.5091 118.197 86.6906 118.247C86.8721 118.298 86.9883 118.422 86.9593 118.531C86.9302 118.64 86.7632 118.683 86.5817 118.632Z" fill="#FE8A2A"/>
<path d="M86.59 118.61C86.4303 118.566 86.3214 118.457 86.3504 118.363C86.3794 118.269 86.5247 118.225 86.6844 118.269C86.8442 118.312 86.9531 118.421 86.924 118.516C86.895 118.61 86.7498 118.654 86.59 118.61Z" fill="#FE8B2A"/>
<path d="M86.5965 118.589C86.4586 118.553 86.3642 118.451 86.3859 118.371C86.4077 118.291 86.5384 118.255 86.6764 118.291C86.8144 118.328 86.9088 118.429 86.887 118.509C86.8652 118.589 86.7345 118.625 86.5965 118.589Z" fill="#FE8C2A"/>
<path d="M86.597 118.566C86.4808 118.53 86.3937 118.45 86.4155 118.378C86.4372 118.305 86.5462 118.276 86.6696 118.312C86.7858 118.349 86.8729 118.428 86.8511 118.501C86.8294 118.574 86.7204 118.603 86.597 118.566Z" fill="#FE8D29"/>
<path d="M86.6037 118.545C86.5021 118.516 86.4367 118.451 86.4512 118.386C86.4658 118.328 86.5602 118.299 86.6618 118.328C86.7635 118.357 86.8288 118.422 86.8143 118.487C86.7998 118.545 86.7054 118.574 86.6037 118.545Z" fill="#FE8E29"/>
<path d="M86.611 118.53C86.5311 118.508 86.4731 118.45 86.4876 118.407C86.5021 118.356 86.5747 118.341 86.6546 118.363C86.7345 118.385 86.7926 118.443 86.778 118.487C86.7635 118.537 86.6909 118.552 86.611 118.53Z" fill="#FE8E29"/>
<path d="M86.6186 118.508C86.5605 118.494 86.517 118.45 86.5242 118.414C86.5315 118.377 86.5896 118.363 86.6549 118.377C86.713 118.392 86.7566 118.435 86.7493 118.472C86.7421 118.508 86.684 118.523 86.6186 118.508Z" fill="#FE8F28"/>
<path d="M86.626 118.486C86.5825 118.472 86.5534 118.443 86.5607 118.421C86.5607 118.399 86.6043 118.385 86.6478 118.399C86.6914 118.414 86.7204 118.443 86.7132 118.465C86.7059 118.486 86.6696 118.501 86.626 118.486Z" fill="#FE9028"/>
<path d="M86.6264 118.464C86.6264 118.464 86.5898 118.442 86.5898 118.428C86.5898 118.413 86.6118 118.406 86.6337 118.413C86.6557 118.42 86.6703 118.435 86.6703 118.45C86.6703 118.464 86.6484 118.472 86.6264 118.464Z" fill="#FE9028"/>
<path d="M86.6333 118.45C86.6333 118.45 86.6114 118.435 86.6187 118.428C86.6187 118.428 86.6333 118.42 86.6406 118.428C86.6553 118.428 86.6626 118.442 86.6553 118.45C86.6553 118.45 86.6406 118.457 86.6333 118.45Z" fill="#FE9128"/>
</g>
<mask id="mask2_22_1157" style="mask-type:luminance" maskUnits="userSpaceOnUse" x="85" y="118" width="2" height="2">
<path d="M86.3645 119.011C84.4185 116.622 88.3105 121.4 86.3645 119.011V119.011Z" fill="white"/>
</mask>
<g mask="url(#mask2_22_1157)">
<path d="M88.3178 116.613H84.4258V121.391H88.3178V116.613Z" fill="#FF5E3B"/>
<path d="M86.3423 119.51C85.3475 119.234 84.6722 118.537 84.832 117.949C84.9917 117.361 85.9357 117.1 86.9305 117.376C87.9253 117.651 88.6006 118.349 88.4408 118.937C88.2811 119.525 87.3371 119.786 86.3423 119.51Z" fill="#FF5E3B"/>
<path d="M86.3506 119.488C85.3776 119.22 84.7096 118.53 84.8693 117.956C85.0291 117.375 85.9512 117.128 86.9243 117.39C87.8973 117.659 88.5653 118.348 88.4056 118.922C88.2458 119.503 87.3236 119.75 86.3506 119.488Z" fill="#FF5F3B"/>
<path d="M86.3495 119.467C85.391 119.205 84.7448 118.53 84.8973 117.964C85.0498 117.397 85.9574 117.15 86.9159 117.412C87.8744 117.673 88.5207 118.348 88.3682 118.915C88.2157 119.481 87.308 119.728 86.3495 119.467Z" fill="#FF603A"/>
<path d="M86.3568 119.445C85.4201 119.191 84.7811 118.53 84.9336 117.971C85.0861 117.412 85.972 117.172 86.9087 117.434C87.8454 117.688 88.4844 118.349 88.3319 118.908C88.1794 119.467 87.2935 119.706 86.3568 119.445Z" fill="#FF613A"/>
<path d="M86.3644 119.423C85.4494 119.169 84.825 118.523 84.9702 117.978C85.1227 117.434 85.9868 117.194 86.9017 117.448C87.8166 117.702 88.4411 118.349 88.2959 118.893C88.1434 119.438 87.2793 119.677 86.3644 119.423Z" fill="#FF6239"/>
<path d="M86.3719 119.402C85.4715 119.155 84.8615 118.523 85.0067 117.993C85.152 117.463 86.0015 117.231 86.9019 117.477C87.8023 117.724 88.4123 118.356 88.267 118.886C88.1218 119.416 87.2723 119.649 86.3719 119.402Z" fill="#FF6439"/>
<path d="M86.3794 119.387C85.5008 119.147 84.9053 118.53 85.0433 118.007C85.1885 117.484 86.0163 117.259 86.8949 117.499C87.7735 117.738 88.369 118.356 88.231 118.878C88.0858 119.401 87.258 119.626 86.3794 119.387Z" fill="#FF6538"/>
<path d="M86.3785 119.366C85.5216 119.126 84.9335 118.524 85.0787 118.015C85.2166 117.507 86.0299 117.282 86.8867 117.522C87.7436 117.761 88.3317 118.364 88.1865 118.872C88.0485 119.38 87.2353 119.606 86.3785 119.366Z" fill="#FF6638"/>
<path d="M86.3861 119.344C85.5438 119.111 84.9775 118.523 85.1154 118.022C85.2534 117.521 86.0449 117.311 86.8872 117.536C87.7295 117.768 88.2959 118.356 88.1579 118.857C88.0199 119.358 87.2284 119.569 86.3861 119.344Z" fill="#FF6738"/>
<path d="M86.3935 119.321C85.5729 119.096 85.0138 118.515 85.1518 118.029C85.2825 117.542 86.0594 117.332 86.88 117.557C87.7005 117.782 88.2596 118.363 88.1216 118.849C87.9909 119.336 87.214 119.546 86.3935 119.321Z" fill="#FF6837"/>
<path d="M86.4009 119.301C85.6022 119.083 85.0576 118.517 85.1883 118.045C85.319 117.573 86.0742 117.362 86.8729 117.58C87.6717 117.798 88.2163 118.364 88.0856 118.836C87.9549 119.308 87.1997 119.519 86.4009 119.301Z" fill="#FF6937"/>
<path d="M86.4085 119.278C85.6242 119.06 85.0942 118.516 85.2249 118.051C85.3556 117.586 86.089 117.383 86.8732 117.601C87.6574 117.819 88.1875 118.363 88.0568 118.828C87.9261 119.293 87.1927 119.496 86.4085 119.278Z" fill="#FF6A36"/>
<path d="M86.4081 119.256C85.6457 119.046 85.1302 118.508 85.2536 118.058C85.377 117.608 86.0959 117.412 86.8583 117.615C87.6208 117.826 88.1363 118.363 88.0129 118.813C87.8894 119.263 87.1706 119.459 86.4081 119.256Z" fill="#FF6B36"/>
<path d="M86.4155 119.235C85.6748 119.031 85.1665 118.509 85.29 118.066C85.4134 117.623 86.1105 117.434 86.8511 117.637C87.5918 117.841 88.1001 118.363 87.9766 118.806C87.8532 119.249 87.1561 119.438 86.4155 119.235Z" fill="#FF6C36"/>
<path d="M86.4222 119.219C85.6961 119.023 85.2096 118.515 85.3257 118.086C85.4419 117.658 86.1245 117.469 86.8506 117.673C87.5767 117.869 88.0632 118.377 87.9471 118.805C87.8309 119.234 87.1483 119.422 86.4222 119.219Z" fill="#FF6D35"/>
<path d="M86.4305 119.197C85.7261 119.001 85.2469 118.507 85.3631 118.093C85.4792 117.679 86.14 117.498 86.8444 117.687C87.5487 117.883 88.028 118.377 87.9118 118.79C87.7956 119.204 87.1348 119.386 86.4305 119.197Z" fill="#FF6E35"/>
<path d="M86.437 119.176C85.7544 118.988 85.2897 118.508 85.3986 118.102C85.5076 117.695 86.1538 117.521 86.8364 117.71C87.5189 117.898 87.9837 118.378 87.8747 118.784C87.7658 119.191 87.1196 119.365 86.437 119.176Z" fill="#FF7034"/>
<path d="M86.4377 119.155C85.7696 118.973 85.3194 118.501 85.4284 118.109C85.5373 117.717 86.1617 117.543 86.8298 117.724C87.4978 117.906 87.948 118.378 87.8391 118.77C87.7302 119.162 87.1057 119.336 86.4377 119.155Z" fill="#FF7134"/>
<path d="M86.4442 119.133C85.7979 118.958 85.3623 118.501 85.4639 118.116C85.5656 117.731 86.1755 117.564 86.8218 117.746C87.468 117.92 87.9037 118.377 87.8021 118.762C87.7004 119.147 87.0905 119.314 86.4442 119.133Z" fill="#FF7234"/>
<path d="M86.4515 119.111C85.827 118.937 85.3986 118.501 85.5003 118.131C85.6019 117.761 86.1901 117.601 86.8218 117.768C87.4463 117.942 87.8747 118.378 87.7731 118.748C87.6714 119.119 87.0832 119.278 86.4515 119.111Z" fill="#FF7333"/>
<path d="M86.4592 119.09C85.8493 118.923 85.4426 118.494 85.537 118.139C85.6387 117.775 86.2051 117.623 86.815 117.79C87.425 117.957 87.8316 118.385 87.7372 118.741C87.6355 119.104 87.0692 119.257 86.4592 119.09Z" fill="#FF7433"/>
<path d="M86.4587 119.068C85.8705 118.908 85.4712 118.494 85.5656 118.145C85.66 117.797 86.2118 117.644 86.8 117.804C87.3881 117.964 87.7875 118.378 87.6931 118.726C87.5987 119.075 87.0469 119.227 86.4587 119.068Z" fill="#FF7532"/>
<path d="M86.4668 119.053C85.9004 118.9 85.5155 118.501 85.6099 118.16C85.7043 117.826 86.2344 117.673 86.8081 117.833C87.3744 117.985 87.7593 118.385 87.6649 118.726C87.5705 119.06 87.0404 119.213 86.4668 119.053Z" fill="#FF7632"/>
<path d="M86.4731 119.032C85.9285 118.88 85.5509 118.495 85.6453 118.168C85.7325 117.841 86.248 117.703 86.7999 117.856C87.3517 118.008 87.7221 118.393 87.6277 118.72C87.5405 119.047 87.025 119.185 86.4731 119.039V119.032Z" fill="#FE7731"/>
<path d="M86.4808 119.009C85.9507 118.864 85.5949 118.493 85.6821 118.181C85.7692 117.869 86.263 117.731 86.793 117.876C87.3231 118.021 87.6789 118.392 87.5918 118.704C87.5047 119.016 87.0109 119.154 86.4808 119.009Z" fill="#FE7831"/>
<path d="M86.4881 118.987C85.9798 118.849 85.6313 118.486 85.7184 118.188C85.7983 117.883 86.2848 117.753 86.7931 117.898C87.3014 118.036 87.6499 118.399 87.5628 118.697C87.4829 119.002 86.9964 119.132 86.4881 118.987Z" fill="#FE7931"/>
<path d="M86.4878 118.966C86.0013 118.828 85.6673 118.487 85.7472 118.196C85.827 117.906 86.2918 117.782 86.7783 117.913C87.2648 118.044 87.5988 118.392 87.5189 118.683C87.439 118.973 86.9743 119.097 86.4878 118.966Z" fill="#FE7A30"/>
<path d="M86.4953 118.944C86.0233 118.813 85.7039 118.487 85.7837 118.204C85.8636 117.928 86.3065 117.804 86.7713 117.935C87.236 118.066 87.5627 118.392 87.4829 118.676C87.403 118.959 86.9601 119.075 86.4953 118.944Z" fill="#FE7B30"/>
<path d="M86.5018 118.922C86.0516 118.799 85.7467 118.479 85.8193 118.218C85.8919 117.949 86.3203 117.833 86.7705 117.956C87.2207 118.08 87.5257 118.399 87.4531 118.661C87.3805 118.929 86.952 119.045 86.5018 118.922Z" fill="#FE7C30"/>
<path d="M86.5101 118.9C86.0817 118.784 85.784 118.479 85.8566 118.225C85.9292 117.971 86.3359 117.855 86.7643 117.978C87.1927 118.094 87.4904 118.399 87.4178 118.653C87.3452 118.908 86.9385 119.024 86.5101 118.9Z" fill="#FE7D2F"/>
<path d="M86.5169 118.878C86.103 118.762 85.827 118.479 85.8924 118.232C85.9577 117.985 86.3498 117.884 86.7565 117.992C87.1704 118.109 87.4463 118.392 87.3809 118.639C87.3156 118.886 86.9235 118.987 86.5169 118.878Z" fill="#FE7E2F"/>
<path d="M86.5173 118.863C86.1252 118.754 85.8566 118.479 85.9219 118.246C85.9873 118.014 86.3576 117.912 86.7497 118.021C87.1418 118.13 87.4105 118.406 87.3451 118.638C87.2798 118.871 86.9094 118.972 86.5173 118.863Z" fill="#FE7F2E"/>
<path d="M86.5239 118.843C86.1535 118.741 85.8994 118.48 85.9575 118.254C86.0156 118.029 86.3714 117.935 86.7417 118.037C87.112 118.138 87.3662 118.4 87.3081 118.625C87.25 118.843 86.8942 118.944 86.5239 118.843Z" fill="#FE802E"/>
<path d="M86.5314 118.82C86.1756 118.726 85.9359 118.471 85.994 118.268C86.0521 118.065 86.3861 117.97 86.7347 118.065C87.0905 118.159 87.3301 118.413 87.272 118.617C87.2139 118.827 86.8799 118.914 86.5314 118.82Z" fill="#FE812E"/>
<path d="M86.5389 118.798C86.2049 118.704 85.9798 118.472 86.0306 118.276C86.0814 118.08 86.4009 117.992 86.7349 118.087C87.069 118.181 87.2941 118.414 87.2432 118.61C87.1924 118.806 86.8729 118.893 86.5389 118.798Z" fill="#FE822D"/>
<path d="M86.5462 118.777C86.2339 118.69 86.0161 118.472 86.0669 118.283C86.1178 118.094 86.4155 118.014 86.7277 118.101C87.04 118.189 87.2578 118.406 87.207 118.595C87.1561 118.784 86.8584 118.864 86.5462 118.777Z" fill="#FE832D"/>
<path d="M86.5461 118.756C86.2484 118.676 86.0523 118.465 86.0959 118.291C86.1395 118.117 86.4227 118.037 86.7204 118.124C87.0181 118.204 87.2141 118.415 87.1706 118.589C87.127 118.763 86.8438 118.843 86.5534 118.756H86.5461Z" fill="#FE842C"/>
<path d="M86.553 118.734C86.2771 118.661 86.0883 118.465 86.1391 118.298C86.1827 118.138 86.4441 118.066 86.72 118.138C86.996 118.211 87.1848 118.407 87.1339 118.574C87.0904 118.734 86.829 118.806 86.553 118.734Z" fill="#FE852C"/>
<path d="M86.5605 118.713C86.3063 118.64 86.1321 118.466 86.1756 118.313C86.2192 118.161 86.4588 118.095 86.713 118.168C86.9671 118.241 87.1414 118.415 87.0978 118.567C87.0542 118.72 86.8146 118.785 86.5605 118.713Z" fill="#FE862C"/>
<path d="M86.568 118.697C86.3284 118.631 86.1687 118.464 86.2122 118.326C86.2485 118.188 86.4736 118.123 86.7133 118.188C86.9529 118.254 87.1126 118.421 87.0691 118.559C87.0328 118.697 86.8077 118.762 86.568 118.697Z" fill="#FE872B"/>
<path d="M86.5745 118.675C86.3567 118.617 86.2114 118.464 86.2477 118.334C86.2841 118.203 86.4874 118.152 86.7052 118.21C86.923 118.268 87.0683 118.421 87.032 118.551C86.9957 118.682 86.7923 118.733 86.5745 118.675Z" fill="#FE882B"/>
<path d="M86.575 118.653C86.379 118.602 86.241 118.457 86.2773 118.341C86.3063 118.224 86.4951 118.174 86.6912 118.225C86.8872 118.275 87.0252 118.421 86.9889 118.537C86.9599 118.653 86.7711 118.704 86.575 118.653Z" fill="#FE892B"/>
<path d="M86.5817 118.632C86.4002 118.581 86.284 118.458 86.313 118.349C86.3421 118.24 86.5091 118.197 86.6906 118.247C86.8721 118.298 86.9883 118.422 86.9593 118.531C86.9302 118.64 86.7632 118.683 86.5817 118.632Z" fill="#FE8A2A"/>
<path d="M86.59 118.61C86.4303 118.566 86.3214 118.457 86.3504 118.363C86.3794 118.269 86.5247 118.225 86.6844 118.269C86.8442 118.312 86.9531 118.421 86.924 118.516C86.895 118.61 86.7498 118.654 86.59 118.61Z" fill="#FE8B2A"/>
<path d="M86.5965 118.589C86.4586 118.553 86.3642 118.451 86.3859 118.371C86.4077 118.291 86.5384 118.255 86.6764 118.291C86.8144 118.328 86.9088 118.429 86.887 118.509C86.8652 118.589 86.7345 118.625 86.5965 118.589Z" fill="#FE8C2A"/>
<path d="M86.597 118.566C86.4808 118.53 86.3937 118.45 86.4155 118.378C86.4372 118.305 86.5462 118.276 86.6696 118.312C86.7858 118.349 86.8729 118.428 86.8511 118.501C86.8294 118.574 86.7204 118.603 86.597 118.566Z" fill="#FE8D29"/>
<path d="M86.6037 118.545C86.5021 118.516 86.4367 118.451 86.4512 118.386C86.4658 118.328 86.5602 118.299 86.6618 118.328C86.7635 118.357 86.8288 118.422 86.8143 118.487C86.7998 118.545 86.7054 118.574 86.6037 118.545Z" fill="#FE8E29"/>
<path d="M86.611 118.53C86.5311 118.508 86.4731 118.45 86.4876 118.407C86.5021 118.356 86.5747 118.341 86.6546 118.363C86.7345 118.385 86.7926 118.443 86.778 118.487C86.7635 118.537 86.6909 118.552 86.611 118.53Z" fill="#FE8E29"/>
<path d="M86.6186 118.508C86.5605 118.494 86.517 118.45 86.5242 118.414C86.5315 118.377 86.5896 118.363 86.6549 118.377C86.713 118.392 86.7566 118.435 86.7493 118.472C86.7421 118.508 86.684 118.523 86.6186 118.508Z" fill="#FE8F28"/>
<path d="M86.626 118.486C86.5825 118.472 86.5534 118.443 86.5607 118.421C86.5607 118.399 86.6043 118.385 86.6478 118.399C86.6914 118.414 86.7204 118.443 86.7132 118.465C86.7059 118.486 86.6696 118.501 86.626 118.486Z" fill="#FE9028"/>
<path d="M86.6264 118.464C86.6264 118.464 86.5898 118.442 86.5898 118.428C86.5898 118.413 86.6118 118.406 86.6337 118.413C86.6557 118.42 86.6703 118.435 86.6703 118.45C86.6703 118.464 86.6484 118.472 86.6264 118.464Z" fill="#FE9028"/>
<path d="M86.6333 118.45C86.6333 118.45 86.6114 118.435 86.6187 118.428C86.6187 118.428 86.6333 118.42 86.6406 118.428C86.6553 118.428 86.6626 118.442 86.6553 118.45C86.6553 118.45 86.6406 118.457 86.6333 118.45Z" fill="#FE9128"/>
</g>
<path d="M123.782 111.853C121.821 109.464 120.892 111.192 118.612 110.829C111.053 109.623 110.298 102.478 108.686 101.404C105.716 97.9255 105.716 99.2688 102.143 96.1973L92.3262 99.9731C93.1394 103.117 92.6384 108.752 94.7297 112.6C99.8271 121.968 116.281 122.853 117.922 118.075C117.944 118.017 119.418 119.564 119.433 119.506C120.848 122.258 122.417 126.012 121.124 127.798C119.433 128.386 118.953 130.492 118.946 131.857C118.946 132.518 118.961 132.896 119.207 133.07C119.447 133.237 123.637 135.546 127.05 135.161C130.346 134.116 131.218 129.381 131.174 126.637C130.121 121.321 126.795 115.527 123.789 111.86L123.782 111.853Z" fill="#A63D37"/>
<path opacity="0.65" d="M124.333 128.843C123.6 128.785 122.961 128.654 122.423 128.494C122.169 129.365 121.886 130.23 121.581 131.079C123.701 131.653 126.323 131.914 128.015 131.021C130.977 129.453 126.925 129.061 124.333 128.843Z" fill="#E84A30"/>
<path d="M55.5839 107.293C55.5839 107.293 44.6121 117.212 43.6609 122.309C42.7169 127.399 55.2644 134.552 59.4251 134.261C65.343 126.956 65.009 123.195 65.009 123.195L58.5319 123.493C58.5319 123.493 60.3473 118.12 65.009 117.604C69.6635 117.088 55.5911 107.3 55.5911 107.3L55.5839 107.293Z" fill="#A63D37"/>
<path opacity="0.65" d="M54.6172 112.192C54.9657 111.575 55.2997 110.922 55.3869 110.21C55.474 109.506 55.278 108.721 54.7334 108.271C54.6971 108.242 54.6535 108.22 54.6099 108.191C52.0975 110.573 45.4462 117.137 43.9141 121.392C43.9649 121.45 44.0302 121.501 44.1029 121.545C44.6111 121.85 45.2574 121.559 45.7729 121.254C49.4326 119.054 52.5114 115.903 54.6172 112.185V112.192Z" fill="#E84A30"/>
<path d="M157.038 31.478C153.059 26.5839 145.616 26.1119 140.366 29.227C137.81 30.7446 135.806 33.1844 134.818 35.9872C134.208 37.7227 134.041 39.567 134.15 41.3969C134.267 43.3066 134.484 45.2236 134.92 47.097C135.813 50.9164 137.737 54.4889 137.992 58.4463C138.238 62.273 136.902 65.6858 134.855 68.859C131.093 74.6825 125.8 79.5549 119.853 83.0911C116.941 84.8193 113.884 86.3441 110.566 87.0775C107.56 87.7456 100.371 86.9904 100.146 91.0059C100.051 92.6905 102.934 95.7475 104.495 96.4155C106.027 97.069 107.748 96.4591 109.273 96.0742C112.766 95.2029 116.171 93.9685 119.424 92.4291C122.75 90.8607 125.916 88.9655 128.864 86.7726C131.921 84.4998 134.906 82.0672 137.585 79.3515C142.573 74.2904 146.662 67.9659 147.373 60.7482C147.736 57.0885 146.967 53.4724 146.734 49.8272C146.654 48.5637 146.567 47.2567 146.734 45.9933C146.778 45.6592 146.836 44.9113 147.228 44.7806C147.685 44.6354 148.818 45.5866 149.188 45.7899C152.064 47.4092 155.709 47.2277 158.185 44.8678C160.48 42.6821 160.233 38.7029 159.391 35.9364C158.897 34.3171 158.098 32.785 157.031 31.4634C155.041 29.0237 159.02 33.9032 157.031 31.4634L157.038 31.478Z" fill="#FB5E30"/>
<path d="M112.396 89.8356C111.59 89.1457 110.421 88.5939 108.99 88.151C98.9697 85.0649 76.0314 87.4393 73.6569 87.0037C70.4402 85.7693 61.7194 73.2944 55.2278 78.5951C55.4674 81.0059 46.5215 77.1066 46.4417 79.4592C46.1512 88.7246 56.288 101.831 56.8326 111.002C61.5814 116.346 66.2795 118.038 75.1382 119.912C82.2761 121.422 104.866 104.482 115.939 100.669C116.448 98.4837 115.852 92.7836 112.396 89.8356Z" fill="url(#paint5_linear_22_1157)"/>
<path d="M104.154 105.535C98.3595 103.465 85.7031 112.128 79.7271 113.74C73.751 115.352 66.8456 116.899 59.7222 109.637C58.5459 108.432 57.631 107.619 58.0667 105.825C62.1475 88.8773 50.9942 78.9366 50.3479 79.1327C46.1727 74.8413 31.7373 79.7935 31.7373 79.7935C36.3773 80.7374 40.1459 83.0175 43.0576 86.5464C43.3916 86.9749 43.7329 87.4251 44.096 87.9043C46.3615 91.121 48.0098 95.2164 49.0554 100.147C49.2951 103.015 48.8158 105.934 47.182 108.672C48.097 108.323 49.3604 107.851 50.5803 106.922C53.4848 115.722 63.077 124.327 75.5446 122.911C94.5328 120.754 100.015 113.921 104.365 109.369C104.989 108.33 105.301 107.459 104.154 105.542V105.535Z" fill="#FFD09C"/>
<path d="M78.4061 113.624L61.6762 111.242C61.6762 111.242 69.8451 120.522 60.6305 132.147C57.6679 133.643 56.0051 133.273 55.5186 134.137C55.2935 134.449 55.1338 134.827 55.0176 135.248C55.0757 137.572 55.5622 139.953 56.586 141.986C58.503 142.604 61.9666 143.533 64.6242 143.119C65.1616 143.039 69.2279 141.638 69.5474 141.318C73.0255 131.995 77.4694 126.73 78.1593 125.271C79.1831 121.481 78.4134 113.617 78.4134 113.617L78.4061 113.624Z" fill="url(#paint6_linear_22_1157)"/>
<path d="M105.222 100.357C103.573 103.363 102.121 107.132 101.097 111.554C98.6793 121.974 107.799 126.505 113.013 124.428C112.505 126.026 111.263 128.436 108.329 131.544C105.621 134.412 102.709 135.85 102.709 135.85C102.709 135.85 101.359 139.118 104.474 141.071C105.708 141.848 112.911 143.337 115.38 141.957C118.684 137.244 122.199 128.792 122.38 122.954C122.482 119.766 121.298 119.592 119.185 118.539C116.353 117.131 117.087 109.877 116.636 108.925C116.448 103.436 116.818 100.873 115.656 95.9204C115.656 95.9204 112.664 92.8489 109.44 95.6445C106.216 98.4473 105.229 100.343 105.229 100.343L105.222 100.357Z" fill="url(#paint7_linear_22_1157)"/>
<path d="M23.038 75.6045C23.038 75.6045 13.9323 65.1628 11.9863 53.8352C18.841 48.1206 25.0494 51.5406 31.6862 60.4212C38.3157 69.3017 23.038 75.6045 23.038 75.6045Z" fill="#F3AD8C"/>
<path d="M56.2877 27.7884C58.437 21.2169 59.6424 14.3405 59.853 7.42052C59.9256 5.04609 59.7077 2.30133 57.7254 0.856333C55.6051 -0.690318 52.5772 0.0939 50.3189 1.3501C43.2029 5.31475 38.9986 13.5999 40.066 21.5655C40.4944 24.775 41.9612 28.1805 44.9674 29.6473C48.0171 31.1358 51.8075 30.1338 54.3925 28.0716C56.9775 26.0094 58.6113 23.0686 60.1942 20.2004L56.2949 27.7957L56.2877 27.7884Z" fill="#A4462D"/>
<path d="M40.0592 21.5583C40.139 22.132 40.248 22.7056 40.3932 23.2792C40.916 23.3228 41.4461 23.301 41.9471 23.1994C46.0788 22.3571 46.3111 19.4671 47.6254 16.1051C49.2011 12.0678 50.8276 8.05236 52.5122 4.05866C53.006 2.88233 53.5143 1.68422 53.6014 0.413498C53.6014 0.319101 53.6014 0.217443 53.6014 0.123047C52.4542 0.333624 51.3069 0.798346 50.3121 1.3502C43.196 5.31486 38.9918 13.6 40.0592 21.5656V21.5583Z" fill="#FFC272"/>
<path d="M39.071 10.5142C39.4414 11.2693 39.819 12.0172 40.1893 12.7724C40.5306 9.62829 42.0554 6.62212 44.3863 4.4873C43.4641 6.36071 43.6384 8.72789 44.8147 10.4488C45.0979 9.88969 45.3884 9.33057 45.6715 8.77145C46.0709 10.5069 47.9734 11.7413 49.7233 11.4C48.4308 11.6542 46.7389 13.2734 45.7151 14.0794C44.379 15.1251 43.2898 16.4539 41.9828 17.514C39.3034 19.6851 38.737 12.1697 39.0638 10.5214L39.071 10.5142Z" fill="#FFD7AB"/>
<path d="M80.4102 12.9973C72.9383 9.54097 66.4395 6.96322 66.9478 2.88965C65.4955 5.27861 65.0453 6.61468 65.7497 8.75676C43.2107 8.13229 33.8436 20.8613 27.6715 32.414C27.1052 33.4814 26.5969 35.6452 27.5989 36.8724C25.4786 36.7272 23.6778 39.9512 23.2131 41.4615C10.0702 52.2373 13.5847 55.0764 19.3429 57.4436C25.1011 59.8108 30.518 67.4351 39.58 78.3561C46.3475 78.7191 56.4625 83.5479 60.4998 84.1288C75.8138 85.4648 90.9027 84.1506 102.281 65.9175C97.4669 61.9674 105.236 53.1086 99.5945 35.2023C97.0094 26.9971 90.4525 17.6446 80.4174 13.0046L80.4102 12.9973Z" fill="url(#paint8_linear_22_1157)"/>
<g style="mix-blend-mode:multiply" opacity="0.47">
<path d="M33.3209 48.033L35.4339 48.4179C35.0127 46.087 32.13 39.2106 26.0088 37.3662C24.6219 38.3029 23.5472 40.3506 23.2059 41.4616C23.1043 41.5487 23.0099 41.6286 22.9082 41.7085C26.1322 45.3028 33.3209 48.033 33.3209 48.033Z" fill="#D46436"/>
</g>
<path d="M98.5123 71.1666C99.8048 69.5909 101.061 67.8554 102.274 65.9094C101.337 65.1397 100.879 64.1812 100.705 63.0049C95.448 65.7642 79.1247 73.1634 60.5503 69.8087C54.6106 70.179 60.2599 75.625 60.2599 75.625C60.2599 75.625 82.218 90.3799 98.5196 71.1593L98.5123 71.1666Z" fill="#9C3D39"/>
<path d="M91.0984 40.5616C91.0984 40.5616 77.3963 39.9153 67.2959 43.9381C71.689 37.9112 81.5716 31.6375 92.6958 33.6561C103.827 35.6748 91.0984 40.5616 91.0984 40.5616Z" fill="#9C3D39"/>
<path d="M54.1094 52.6215C67.4701 58.8081 80.4968 62.2499 101.221 55.9036C101.402 54.4949 101.576 52.9337 101.671 51.2273C98.2071 48.773 66.9763 43.9588 54.1094 52.6215Z" fill="#9C3D39"/>
<path d="M86.2553 16.4977C83.358 15.4448 71.9215 12.0465 62.0244 17.4852C70.433 17.2383 81.4338 21.0069 86.2698 23.4249C87.7511 24.1656 90.4668 20.6221 90.6193 20.3244C89.2905 18.952 87.8382 17.6667 86.2625 16.4977H86.2553Z" fill="#9C3D39"/>
<path d="M48.6634 56.3329C48.6634 56.3329 72.4731 41.8684 65.3498 31.2597C59.7078 22.8584 39.8482 33.1985 34.9033 48.3019L34.1699 61.532C35.9489 60.0725 48.6634 56.3402 48.6634 56.3402V56.3329Z" fill="#FFB980"/>
<path d="M37.5393 53.1602C31.2293 34.7529 18.05 41.6148 13.4537 42.6532C13.4028 42.6822 13.3593 42.7113 13.3084 42.7403C13.2576 42.8855 13.2068 43.0307 13.1632 43.176L12.7784 42.9C12.4516 43.8222 10.2079 49.5586 10.0989 50.3864C9.67053 53.7266 10.7089 55.8977 11.7618 57.0377C11.7981 57.074 12.1248 57.4952 12.1975 57.546C12.5242 57.3718 12.5242 56.8272 12.8582 56.74C12.9308 56.7182 13.0107 56.7182 13.0833 56.7037C14.0491 56.3842 15.6829 56.2172 16.6341 57.5606C17.5272 58.8168 21.6299 62.4982 26.4731 63.1082C27.9109 66.7461 28.6442 70.4203 27.3082 71.6547C25.58 73.2522 22.0583 74.9005 21.0635 73.0561C20.4898 76.3382 19.3861 78.5965 19.3861 78.5965C19.3861 78.5965 23.801 82.0165 29.7988 80.7095C32.9211 80.0269 36.2395 81.2831 38.1275 82.1835C64.7763 82.7935 70.9775 70.8269 76.024 59.2234C67.8188 54.5253 60.3179 49.0503 37.5393 53.1602Z" fill="url(#paint9_radial_22_1157)"/>
<path d="M12.6113 42.0347C14.187 37.9829 23.4597 35.5794 30.4813 41.6934C39.6378 49.6735 34.1846 48.4173 27.8818 50.9806C15.5449 44.5761 12.6113 42.0347 12.6113 42.0347Z" fill="#FE9E2E"/>
<path d="M20.4608 37.9973C16.6341 38.1062 13.4754 39.8272 12.6113 42.0346C12.6113 42.0346 13.2503 42.5864 15.1818 43.8281C15.8135 44.0169 16.5179 44.1839 17.2803 44.3291C25.4275 45.8177 26.916 46.3187 26.916 46.3187C26.2843 44.1621 23.7356 40.1757 20.4535 37.9973H20.4608Z" fill="#FFB877"/>
<path d="M51.2703 45.6663C50.2683 43.7493 46.6231 41.3676 44.7642 41.1934C43.2176 41.5056 39.9427 43.713 38.9697 49.7907C39.1513 49.5946 40.3639 47.6486 40.785 47.1331C41.5765 46.1601 42.5641 45.2597 43.7404 44.7804C46.3907 43.7203 49.2662 45.0418 51.5898 46.2908C51.4809 46.0802 51.372 45.8769 51.2631 45.6663H51.2703Z" fill="#76262C"/>
<path d="M20.9832 61.1907C24.9769 63.6741 31.1707 64.5164 34.5109 60.3775C34.8231 59.92 35.3096 60.5663 34.9756 61.837C33.7194 66.6585 32.1147 71.7051 28.5712 76.0037C24.7154 74.9436 22.341 74.8782 21.0703 74.9944C21.7456 73.4623 22.2176 68.7642 22.0433 66.2083C21.8037 62.7083 20.4022 61.169 18.4199 59.3682C18.7685 59.4553 19.7778 60.4283 20.9977 61.1907H20.9832Z" fill="url(#paint10_linear_22_1157)"/>
<path d="M13.4176 56.5577C13.2506 57.6541 14.3325 60.6821 15.1966 61.7785C15.5742 60.1738 15.9663 59.0846 16.569 57.7703C15.4217 56.427 15.095 56.5286 14.1728 56.5068L13.4176 56.5577Z" fill="white"/>
<path d="M22.2684 62.0254C22.1087 63.0928 23.3068 66.4983 23.895 67.1736C24.4831 65.2276 25.1584 63.8915 25.565 62.9984C24.7373 62.9621 24.0111 62.4175 23.1833 62.3812L22.2684 62.0254Z" fill="white"/>
<path d="M35.3607 59.5855C35.2663 59.5128 35.1211 59.2224 35.0702 59.295C33.7487 61.1684 30.6989 62.853 28.3681 62.9039C25.7032 62.9619 23.1182 61.8945 20.889 60.5076C19.7635 59.8033 18.6815 59.0046 17.7303 58.0751C16.8517 57.2183 15.5229 55.9185 14.2667 55.8967C13.0976 56.0202 11.885 56.9569 11.7979 57.0658C11.8559 57.1602 12.19 57.5523 12.2045 57.545C12.4078 57.4361 13.2138 56.8116 14.4192 56.906C15.8787 57.0222 16.5104 58.2203 17.4762 59.1062C18.6017 60.1373 19.8651 61.0232 21.1939 61.7566C23.7209 63.158 26.6544 64.0584 29.5517 63.5501C31.0257 63.2887 32.3908 62.6352 33.5526 61.6912C33.7922 61.4952 35.6293 59.7742 35.3679 59.5782L35.3607 59.5855Z" fill="#76262C"/>
<path d="M27.9835 48.1126C27.8745 49.4051 28.027 49.7972 27.9181 51.097C25.5872 50.3128 20.439 47.2558 17.5926 47.4954C16.1984 47.6188 15.632 51.0825 15.3779 51.0752C14.325 51.0462 13.381 50.2184 13.2794 49.8698C12.9744 48.8024 13.2286 47.1469 13.0543 44.8378C11.8344 44.3876 11.4858 41.3233 12.6622 40.7787C15.0366 39.6677 22.6609 40.4084 27.9907 48.1126H27.9835Z" fill="#76262C"/>
<path d="M17.4043 47.3797C19.8513 47.1473 25.9508 50.4294 27.9259 51.0902C28.0348 49.7977 27.8823 49.4056 27.9912 48.1058C27.8968 47.9679 18.8711 44.0758 17.4043 47.3724V47.3797Z" fill="#8C494E"/>
<path d="M28.2811 48.1352C28.2811 48.0699 28.2666 47.9972 28.2303 47.9464C24.0623 41.9196 18.4929 40.0752 15.022 40.0752C13.9909 40.0752 13.1413 40.2349 12.5386 40.5109C12.2046 40.6706 11.9795 40.9683 11.8416 41.3024C11.7036 41.6436 11.6455 42.0357 11.6455 42.4351C11.6455 42.9797 11.7544 43.5461 11.965 44.0326C12.1465 44.4465 12.4079 44.8023 12.771 45.0056C12.8218 45.6954 12.8364 46.3344 12.8291 46.9153C12.8291 47.3074 12.8291 47.6777 12.8291 48.019C12.8291 48.7669 12.8509 49.3987 13.0034 49.9433C13.0542 50.1175 13.1559 50.2482 13.2938 50.3935C13.7004 50.8219 14.4701 51.3229 15.3778 51.3592H15.3851C15.4795 51.3592 15.5448 51.3229 15.5884 51.2939C15.6683 51.2285 15.69 51.1777 15.7263 51.1269C15.828 50.9381 15.9079 50.6694 16.0241 50.3281C16.1983 49.8126 16.4162 49.1663 16.7066 48.6508C16.8518 48.3966 17.0043 48.1715 17.1641 48.0263C17.3238 47.8738 17.4763 47.8012 17.6288 47.7867C17.7305 47.7794 17.8321 47.7721 17.941 47.7721C19.2989 47.7721 21.2231 48.462 23.0675 49.268C24.9119 50.074 26.6763 50.9744 27.8381 51.3665C27.9253 51.3955 28.0197 51.381 28.0923 51.3302C28.1649 51.2793 28.2157 51.1995 28.223 51.1051C28.252 50.713 28.2666 50.3935 28.2666 50.1175C28.2666 49.74 28.252 49.4277 28.252 49.0646C28.252 48.796 28.2593 48.5055 28.2883 48.1207L28.2811 48.1352ZM17.9338 47.184C17.8103 47.184 17.6869 47.184 17.5707 47.1985C17.0987 47.2421 16.7357 47.5543 16.4597 47.9246C16.0458 48.491 15.7626 49.2534 15.5448 49.8707C15.4359 50.1829 15.3488 50.4588 15.2834 50.6476C15.2689 50.6912 15.2544 50.7275 15.2398 50.7565C14.8405 50.713 14.4411 50.5459 14.1361 50.3426C13.9619 50.2265 13.8166 50.103 13.715 49.9941C13.6133 49.8924 13.5552 49.7908 13.5625 49.7835C13.439 49.3478 13.41 48.7597 13.41 48.019C13.41 47.6777 13.41 47.3147 13.41 46.9153C13.41 46.2836 13.3955 45.5865 13.3374 44.8095C13.3301 44.6934 13.2575 44.599 13.1486 44.5554C12.9162 44.4755 12.6693 44.1996 12.4951 43.8002C12.3208 43.4009 12.2264 42.8998 12.2264 42.4351C12.2264 42.0938 12.2772 41.7671 12.3789 41.5202C12.4806 41.2733 12.6185 41.1136 12.7783 41.0409C13.2575 40.8158 14.0417 40.6561 15.0075 40.6561C18.2751 40.6561 23.6266 42.3915 27.6784 48.1933C27.6566 48.5346 27.6421 48.8178 27.6421 49.0719C27.6421 49.4495 27.6566 49.7617 27.6566 50.1248C27.6566 50.2918 27.6566 50.4733 27.6421 50.6767C26.5456 50.2555 24.9482 49.4568 23.2781 48.7306C21.4119 47.9174 19.4586 47.184 17.9192 47.184H17.9338Z" fill="#602229"/>
<path opacity="0.55" d="M115.221 134.951C113.216 133.259 110.748 132.09 108.155 131.727C106.493 133.447 104.779 134.631 103.726 135.277C103.094 135.669 102.717 135.996 102.76 136.221C104.517 136.962 108.584 137.325 111.459 137.405C116.724 137.55 115.99 135.611 115.213 134.958L115.221 134.951Z" fill="url(#paint11_linear_22_1157)"/>
<path style="mix-blend-mode:multiply" opacity="0.48" d="M102.063 65.7276C101.918 65.517 101.693 65.35 101.533 65.1395C100.48 63.7308 100.538 61.8428 100.684 60.1727C100.829 58.4736 101.112 56.789 101.315 55.0971C101.613 52.6138 101.787 50.1086 101.715 47.6035C101.642 44.9894 101.468 42.1285 100.749 39.6016C98.8464 40.2914 96.6608 40.4148 94.6712 40.6254C93.2407 40.7779 91.8102 40.9086 90.3798 41.003C94.4824 47.0226 93.8797 54.6905 90.6194 60.9352C89.4358 63.2007 87.9037 65.4444 85.8996 67.0637C84.3239 68.3344 82.7119 69.2856 80.7949 70.0045C76.5325 71.6093 72.0523 72.6912 67.6157 73.7223C69.1042 72.3935 70.3314 70.6871 71.4496 69.0533C73.5046 66.0326 75.1456 62.6997 76.0678 59.1562C73.2141 58.9674 70.2951 59.0618 67.5576 59.9477C65.3284 60.6665 63.3388 61.9009 61.4146 63.2225C58.9167 64.9361 57.2684 69.1767 54.6398 70.7016C45.4107 76.0604 28.7461 79.2626 27.9982 79.4369C23.1331 78.8705 21.8697 78.8052 20.127 79.0811C22.6466 80.3446 25.159 81.1796 28.0272 80.9545C29.7118 80.8238 31.2585 80.3809 32.9649 80.5842C34.33 80.7439 35.6661 81.1433 36.9368 81.6589C36.9658 81.6589 37.1183 81.7169 37.5177 81.8985C37.8445 82.08 37.9534 82.1526 37.9534 82.1599C38.6069 82.5447 39.2459 82.9659 39.8486 83.4306C39.8994 83.4742 39.9502 83.5177 40.0083 83.5613C43.8786 85.2968 49.5859 86.4803 53.7757 86.8144C70.4548 88.1214 68.93 84.7667 68.8864 84.498C73.8023 84.4617 78.7472 83.8372 83.3799 82.1599C87.3736 80.7149 91.0623 78.4857 94.2282 75.6538C95.9274 74.1289 97.4958 72.4588 98.9118 70.6653C99.6016 69.7939 100.262 68.9081 100.887 67.9931C101.235 67.4848 101.577 66.9838 101.903 66.4683C101.983 66.3376 102.172 66.1633 102.187 66.0181C102.216 65.7785 102.194 65.9382 102.049 65.7204L102.063 65.7276Z" fill="url(#paint12_linear_22_1157)"/>
<path d="M79.459 27.091C80.3303 24.6658 85.2462 19.532 89.2689 16.8817C93.2917 14.2313 98.665 12.8952 103.443 14.5798C107.001 15.836 109.84 18.6389 111.597 21.8121C113.355 24.9852 114.132 28.5215 114.545 32.0287C114.967 35.623 114.865 39.653 112.207 42.1219C109.579 44.5689 105.338 44.6633 101.548 44.3293C95.6952 43.8137 89.8208 42.1219 84.2078 40.2847C84.2078 40.2847 78.5876 29.509 79.459 27.0838V27.091Z" fill="url(#paint13_linear_22_1157)"/>
<path d="M104.619 40.7638C106.739 38.4111 106.848 34.6207 106.536 31.237C106.332 29.0368 105.998 26.8221 105.396 24.7091C105.374 24.6946 105.345 24.68 105.323 24.6655C102.114 22.7994 98.287 23.206 94.7725 24.1645C89.6316 25.5659 84.6866 28.0928 80.25 31.5492C81.3755 34.8168 83.2562 38.7524 83.9678 40.2119C87.9469 41.6133 92.0568 42.5282 96.1885 42.9276C99.1801 43.2181 102.52 43.0946 104.612 40.771L104.619 40.7638Z" fill="url(#paint14_linear_22_1157)"/>
<path d="M12.4734 42.8196C12.3935 42.304 12.4879 41.8248 12.6404 41.5198C12.7929 41.2076 12.9889 41.0769 13.1124 41.1205C13.3738 41.2294 13.3302 41.9119 13.4609 42.6671C13.5698 43.4295 13.8095 44.0613 13.5989 44.2501C13.49 44.3299 13.2649 44.2573 13.0252 44.0104C12.7856 43.7636 12.5533 43.3351 12.4734 42.8196Z" fill="#FEFEFE"/>
<path d="M24.5852 74.6741C26.4586 74.9137 28.5934 75.3348 28.8766 75.589C28.8766 75.6471 28.5789 75.9884 28.5716 76.0101C28.499 76.1844 26.8943 75.6543 24.8321 75.3929C22.7771 75.1025 21.0853 75.1678 21.0635 75.0008C21.0635 74.9863 21.1579 74.7612 21.1797 74.7394C21.4411 74.5579 22.6464 74.4054 24.5779 74.6813L24.5852 74.6741Z" fill="#76262C"/>
<path d="M81.1071 13.3464C80.8747 13.2302 80.6424 13.1068 80.41 12.9979C75.2472 10.6089 70.5492 8.64111 68.3055 6.30298C67.3179 5.30819 66.7879 4.24804 66.8387 3.06445C65.4736 5.33723 65.0597 6.66604 65.7422 8.75003C58.2123 8.53945 52.1564 9.83196 47.1897 12.0612C42.1141 15.0528 36.8133 20.1502 35.332 25.981C47.6326 9.1494 72.0378 10.9647 81.1071 13.3392V13.3464Z" fill="#9C3D39"/>
<path d="M89.298 37.3076C91.0407 36.0005 94.5189 34.8823 97.6412 34.6645C94.134 32.2828 89.7482 31.2226 85.5367 31.7382L91.1859 27.8389C90.1839 28.5287 87.2794 28.4125 86.0014 28.7828C84.2297 29.2911 82.5015 29.9882 80.8749 30.8668C80.7442 30.9394 80.3158 31.2444 80.1924 31.317C81.2162 34.4829 82.5523 37.4092 83.5326 40.5824C90.1476 41.766 92.6527 42.9278 95.6444 45.8323C94.6205 41.8531 93.3208 38.905 89.3053 37.3148L89.298 37.3076Z" fill="url(#paint15_linear_22_1157)"/>
<path d="M157.037 31.4777C155.048 29.038 159.027 33.9175 157.037 31.4777V31.4777Z" fill="#FFD09C"/>
<path d="M158.192 44.8813C160.487 42.6957 160.24 38.7165 159.398 35.9499C158.904 34.3307 158.105 32.7985 157.038 31.477C153.059 26.5829 145.616 26.1109 140.366 29.226C137.81 30.7436 135.806 33.1834 134.818 35.9862C134.208 37.7217 134.041 39.5661 134.15 41.3959C134.266 43.3056 134.484 45.2226 134.92 47.096C135.232 48.4321 135.668 49.7318 136.118 51.0316C137.207 49.819 138.689 48.9694 140.315 48.7879C142.936 48.4902 145.558 49.9787 146.945 52.1934C146.865 51.4092 146.785 50.6177 146.734 49.8335C146.654 48.57 146.567 47.263 146.734 45.9995C146.778 45.6655 146.836 44.9176 147.228 44.7869C147.685 44.6417 148.818 45.5929 149.188 45.7962C152.064 47.4227 155.709 47.234 158.185 44.874L158.192 44.8813Z" fill="#FFD09C"/>
<path d="M34.1626 58.3582C34.9177 59.0626 35.3026 60.0065 35.4696 61.0086C35.5495 61.4878 36.3772 61.3499 36.2901 60.8779C36.0578 59.6798 35.4115 58.7576 34.3877 58.0896C34.257 58.0024 34.0391 58.2493 34.1626 58.3582Z" fill="#76262C"/>
<path d="M118.467 84.2738C118.358 84.2011 118.234 84.1431 118.125 84.085C116.092 85.1959 113.979 86.1617 111.75 86.7862C113.246 87.1129 114.647 87.8681 115.7 88.9791C116.797 90.1263 117.508 91.6222 117.733 93.1906C118.3 92.9437 118.873 92.7041 119.425 92.4354C119.839 92.2394 120.238 92.0215 120.652 91.8182C120.957 91.1574 121.153 90.4531 121.197 89.727C121.335 87.5994 120.253 85.4356 118.467 84.2738Z" fill="#9C3D39"/>
<path d="M121.821 82.7634C122.671 83.1628 123.433 83.8381 123.941 84.6223C124.856 86.031 125.06 87.7882 124.864 89.4728C125.227 89.2477 125.582 89.0226 125.938 88.7903C126.396 87.8826 126.65 86.8733 126.643 85.8567C126.628 84.143 125.873 82.4439 124.617 81.2748C124.326 81.0062 123.999 80.7593 123.658 80.5632C122.758 81.224 121.836 81.8412 120.892 82.4366C121.16 82.4947 121.473 82.5964 121.821 82.7561V82.7634Z" fill="#9C3D39"/>
<path d="M136.605 65.6411C136.118 66.7448 135.53 67.8122 134.855 68.8578C134.158 69.9325 133.395 70.9636 132.597 71.9729C135.436 71.1378 138.66 71.5663 141.107 73.2436C141.15 70.143 139.284 67.1441 136.598 65.6338L136.605 65.6411Z" fill="#9C3D39"/>
<path d="M138.848 54.0595C138.303 54.1104 137.715 54.2483 137.258 54.5388C137.621 55.8168 137.911 57.1093 137.991 58.4526C138.042 59.215 138.013 59.9629 137.94 60.6963C139.03 59.8105 140.518 59.4183 142.195 59.6652C144.098 59.9412 145.797 61.0086 147.14 62.4027C147.235 61.8581 147.315 61.3135 147.366 60.7617C147.416 60.2752 147.438 59.7959 147.453 59.3094C147.039 58.3001 146.451 57.3634 145.688 56.5864C143.931 54.7929 141.346 53.8417 138.841 54.0668L138.848 54.0595Z" fill="#9C3D39"/>
<path d="M66.5409 135.023C64.0357 134.326 62.126 133.237 60.8553 131.843C60.7754 131.944 60.7028 132.046 60.6229 132.148C57.6603 133.643 55.9975 133.273 55.511 134.137C55.4166 134.275 55.3294 134.42 55.2568 134.587C56.1427 136.178 57.8636 137.579 60.209 137.927C64.9579 138.632 70.3167 136.083 66.5409 135.023Z" fill="url(#paint16_linear_22_1157)"/>
<path d="M117.101 114.277C116.767 111.939 116.847 100.757 115.895 97.0244C115.975 102.311 115.924 107.386 113.245 112.259C111.691 115.09 109.491 117.821 109.447 121.052C109.985 119.759 111.081 118.779 112.236 117.988C113.39 117.196 114.646 116.543 115.728 115.657C116.237 115.243 116.679 114.771 117.101 114.27V114.277Z" fill="#9C3D39"/>
<path d="M91.4902 86.5469C93.6323 88.2098 95.4331 90.301 96.7183 92.6827C98.4901 95.9793 99.2888 99.7915 98.9766 103.524C100.886 98.3247 100.93 92.4649 99.0928 87.2368C99.0274 87.0552 98.9548 86.8737 98.8822 86.6994C96.4787 86.5687 93.9663 86.5324 91.4902 86.5469Z" fill="#9C3D39"/>
<path d="M72.4007 10.7397C74.2886 11.052 76.1548 11.4296 77.9992 11.8725C74.659 10.6599 69.7358 7.68274 68.879 3.97949L68.7773 3.99401C68.9153 6.78234 70.3748 9.03334 72.4007 10.7397Z" fill="#9C3D39"/>
<path d="M72.2772 127.18C70.5199 125.423 67.9858 124.32 65.5314 124.726C65.2846 124.77 64.8634 124.915 64.3842 125.133C64.0356 126.345 63.5201 127.616 62.7939 128.923C63.4765 128.865 64.2317 128.705 64.6528 128.734C65.9308 128.822 67.1943 129.199 68.298 129.86C70.2731 131.043 71.6672 133.098 72.1247 135.349C73.0106 133.563 73.8819 132.016 74.6806 130.695C74.0634 129.402 73.2865 128.197 72.2699 127.188L72.2772 127.18Z" fill="#9C3D39"/>
<path d="M66.6934 121.357C68.0875 121.074 71.268 121.089 73.8312 121.779C76.7793 122.57 77.7886 123.587 78.3187 124.531C78.6817 122.635 78.718 120.072 78.6599 117.908C74.216 117.168 69.6414 118.692 66.6934 121.357Z" fill="#9C3D39"/>
<g style="mix-blend-mode:multiply" opacity="0.44">
<path d="M28.9638 37.0676C30.9752 37.6267 32.0499 39.2895 33.6473 40.4441L33.7054 40.4005C32.9938 37.0458 30.1837 34.9328 27.0468 34.5261C26.9597 35.3757 27.0759 36.247 27.5914 36.8788C27.8165 36.886 28.4846 36.9369 28.9638 37.0748V37.0676Z" fill="#D46436"/>
</g>
<path d="M73.6489 87.0106C73.068 86.7855 72.3056 86.1973 71.4197 85.4131C71.3108 86.2627 70.955 88.078 69.2196 91.0406C67.1211 94.6276 64.5796 98.0114 61.2031 100.437C68.4136 99.4782 74.7744 93.9669 76.8512 87.0106C75.2319 87.0687 74.0919 87.0832 73.6489 87.0106Z" fill="#9C3D39"/>
<path d="M72.9085 101.918C75.3701 99.9502 78.0059 98.1421 80.01 95.7096C81.956 93.3569 82.5369 91.4763 82.6822 88.7024C82.6822 88.6734 82.7257 88.6734 82.733 88.7024C83.1178 91.4182 83.4954 92.747 83.205 95.5643C82.9 98.4689 81.7673 101.504 79.9374 103.784C76.8877 107.574 71.7394 109.317 67.1576 110.428C67.143 110.428 67.1213 110.421 67.1213 110.399C67.0051 106.71 70.1783 104.104 72.9085 101.918Z" fill="#9C3D39"/>
<path d="M109.404 98.3828C109.15 102.79 107.466 106.973 105.788 111.061C108.301 108.461 110.813 105.775 112.425 102.536C114.037 99.2977 114.632 95.3766 113.195 92.0582C112.527 90.5115 111.321 89.023 109.898 88.1298C109.717 88.0137 109.099 87.7813 108.177 87.3819C106.551 87.5126 105.803 87.4037 104.953 87.2803C105.73 87.8975 106.652 88.8415 107.647 90.134C109.651 92.7262 109.579 95.4783 109.412 98.3828H109.404Z" fill="#9C3D39"/>
<g style="mix-blend-mode:multiply" opacity="0.48">
<path d="M87.0177 120.646C86.0883 111.032 75.102 106.261 76.4961 108.686C78.355 111.903 78.6092 116.848 78.66 117.908C78.6963 118.743 78.4494 121.067 78.2897 122.541C81.6298 122.047 84.5198 121.401 87.025 120.646H87.0177Z" fill="#D46436"/>
</g>
<path d="M103.436 140.215C103.711 140.52 104.045 140.81 104.474 141.079C105.708 141.856 112.912 143.344 115.38 141.965C115.576 141.682 115.772 141.391 115.976 141.079C112.527 142.415 106.1 141.246 103.436 140.215Z" fill="#932F30"/>
<g style="mix-blend-mode:screen" opacity="0.19">
<path d="M74.7023 16.3083C70.8175 12.2637 67.5717 9.9256 64.6309 8.74201C47.2838 8.60405 37.9458 16.5261 31.7955 25.5156C31.4324 26.75 31.2726 28.0134 31.3453 29.3059C31.8463 38.5786 36.4281 33.1181 53.376 31.143C57.1809 30.7001 79.9086 21.7397 74.7023 16.3155V16.3083Z" fill="#FFF64D"/>
</g>
<g style="mix-blend-mode:screen" opacity="0.19">
<path d="M105.94 93.6408C107.683 93.3939 109.774 92.7113 110.086 90.9759C110.26 89.9884 109.73 88.979 108.961 88.3255C108.83 88.2166 108.692 88.1295 108.554 88.0351C101.307 85.9801 87.99 86.5392 80.0026 86.8878H79.988C79.0804 87.1637 78.6665 88.2166 79.1167 89.0516L79.6177 89.9811C87.8229 93.6117 97.052 94.897 105.94 93.6408Z" fill="#FFF64D"/>
</g>
<g style="mix-blend-mode:multiply" opacity="0.34">
<path d="M146.742 46.0001C146.786 45.6661 146.844 44.9182 147.236 44.7875C147.33 44.7584 147.454 44.7875 147.592 44.8238C146.488 43.9452 144.447 43.1174 141.804 38.4629C139.945 38.8332 139.139 45.0779 142.814 54.5176C145.522 61.4666 144.498 68.2995 140.831 75.6914C144.266 71.3565 146.829 66.3244 147.381 60.7477C147.744 57.0881 146.974 53.4719 146.742 49.8268C146.662 48.5633 146.575 47.2563 146.742 45.9928V46.0001Z" fill="#D87146"/>
</g>
<path d="M63.063 142.219C61.146 142.19 58.2052 141.718 56.3027 141.376C56.3899 141.58 56.4843 141.783 56.5859 141.986C58.5029 142.604 61.9665 143.533 64.6242 143.119C65.1615 143.039 69.2278 141.638 69.5473 141.318C69.5691 141.26 69.5909 141.202 69.6199 141.137C68.3928 141.485 65.4156 142.248 63.0775 142.211L63.063 142.219Z" fill="#932F30"/>
<path d="M57.232 135.183C57.232 135.183 56.3969 136.359 56.259 136.824C56.2444 137.332 57.1884 140.2 57.2683 140.273C57.2174 139.583 56.8979 137.731 56.9052 137.107C56.9197 136.715 57.2029 135.538 57.232 135.183Z" fill="#932F30"/>
<path d="M61.5594 135.894C61.5594 135.894 60.5864 137.884 60.5356 138.639C60.5066 139.242 61.9225 141.631 62.0024 141.703C62.0822 141.776 61.3924 139.278 61.3997 138.654C61.3779 137.702 61.7773 135.299 61.5594 135.894Z" fill="#932F30"/>
<path d="M109.331 136.243C109.121 136.635 108.293 137.754 108.278 138.109C108.264 138.552 109.135 141.021 109.208 141.116C109.36 141.297 109.215 138.632 109.193 138.349C109.157 137.783 109.535 135.858 109.324 136.251L109.331 136.243Z" fill="#932F30"/>
<path d="M105.222 135.974C105.011 136.323 104.321 137.238 104.3 137.608C104.271 138.08 104.997 139.99 105.149 140.338C105.236 140.542 105.04 138.966 105.062 137.848C105.069 137.412 105.396 135.698 105.222 135.982V135.974Z" fill="#932F30"/>
<path d="M27.7941 72.7278C27.3657 73.7952 26.9954 74.5141 26.8574 75.0442C26.9083 75.3419 29.0431 75.291 29.1229 75.0296C29.1229 75.0296 27.8086 72.6988 27.8014 72.7278H27.7941Z" fill="white"/>
<path d="M21.6881 72.1324C21.3904 72.9601 21.2379 73.7807 21.1943 74.3325C21.2452 74.6302 23.38 74.5794 23.4599 74.318C23.4599 74.318 21.6954 72.1033 21.6881 72.1324Z" fill="white"/>
<path d="M55.9464 25.7623C53.7462 24.9926 45.0545 24.4407 44.4009 25.4355C43.7402 26.423 42.8616 31.8182 43.3045 32.9146C44.1831 32.5879 51.5533 27.0838 55.9536 25.7623H55.9464Z" fill="#9C3D39"/>
<g style="mix-blend-mode:screen" opacity="0.19">
<path d="M158.665 34.1843C158.215 33.2185 157.663 32.2963 156.995 31.4685C153.626 27.3224 147.773 26.3639 142.872 28.0485C141.782 29.7258 141.129 31.8026 141.129 34.0608C141.129 39.623 145.057 44.1395 149.901 44.1395C154.744 44.1395 158.607 39.6956 158.665 34.1843Z" fill="#FFF64D"/>
</g>
<g style="mix-blend-mode:screen" opacity="0.13">
<path d="M101.656 109.774C100.524 114.661 101.874 118.248 104.22 120.412C106.122 122.169 107.146 121.53 107.269 121.233C109.607 115.685 110.544 109.455 109.898 103.341C109.825 102.637 108.918 100.785 108.017 100.001C105.846 98.1055 104.829 100.407 104.387 101.424C103.319 103.856 102.382 106.659 101.656 109.774Z" fill="#FFF64D"/>
</g>
<defs>
<linearGradient id="paint0_linear_22_1157" x1="69.0064" y1="64.7754" x2="69.0064" y2="142.399" gradientUnits="userSpaceOnUse">
<stop stop-color="#16215E"/>
<stop offset="1" stop-color="#9175B5"/>
</linearGradient>
<linearGradient id="paint1_linear_22_1157" x1="18.9037" y1="39.4033" x2="18.9037" y2="92.1434" gradientUnits="userSpaceOnUse">
<stop stop-color="#16215E"/>
<stop offset="1" stop-color="#9175B5"/>
</linearGradient>
<linearGradient id="paint2_linear_22_1157" x1="47.8195" y1="6.00391" x2="47.8195" y2="61.3504" gradientUnits="userSpaceOnUse">
<stop stop-color="#16215E"/>
<stop offset="1" stop-color="#9175B5"/>
</linearGradient>
<linearGradient id="paint3_linear_22_1157" x1="115.856" y1="39.3994" x2="115.856" y2="92.1432" gradientUnits="userSpaceOnUse">
<stop stop-color="#16215E"/>
<stop offset="1" stop-color="#9175B5"/>
</linearGradient>
<linearGradient id="paint4_linear_22_1157" x1="86.9361" y1="6.00391" x2="86.9361" y2="61.3504" gradientUnits="userSpaceOnUse">
<stop stop-color="#16215E"/>
<stop offset="1" stop-color="#9175B5"/>
</linearGradient>
<linearGradient id="paint5_linear_22_1157" x1="81.4628" y1="88.2599" x2="77.8031" y2="112.73" gradientUnits="userSpaceOnUse">
<stop stop-color="#FE9128"/>
<stop offset="0.02" stop-color="#FE9028"/>
<stop offset="0.63" stop-color="#FE7133"/>
<stop offset="0.99" stop-color="#FF5E3B"/>
</linearGradient>
<linearGradient id="paint6_linear_22_1157" x1="68.4655" y1="110.923" x2="65.619" y2="141.5" gradientUnits="userSpaceOnUse">
<stop stop-color="#FF5E3B"/>
<stop offset="1" stop-color="#D24B37"/>
</linearGradient>
<linearGradient id="paint7_linear_22_1157" x1="103.45" y1="95.63" x2="115.475" y2="141.688" gradientUnits="userSpaceOnUse">
<stop stop-color="#FE9128"/>
<stop offset="0.18" stop-color="#FE7532"/>
<stop offset="0.3" stop-color="#FF5F3B"/>
<stop offset="0.57" stop-color="#FF5E3B"/>
<stop offset="0.81" stop-color="#DA4D37"/>
<stop offset="0.94" stop-color="#C44435"/>
</linearGradient>
<linearGradient id="paint8_linear_22_1157" x1="85.6238" y1="1.91664" x2="55.4096" y2="64.6322" gradientUnits="userSpaceOnUse">
<stop stop-color="#FE9128"/>
<stop offset="0.26" stop-color="#FE8B2A"/>
<stop offset="0.59" stop-color="#FE7B30"/>
<stop offset="0.96" stop-color="#FE603A"/>
<stop offset="0.99" stop-color="#FF5E3B"/>
</linearGradient>
<radialGradient id="paint9_radial_22_1157" cx="0" cy="0" r="1" gradientUnits="userSpaceOnUse" gradientTransform="translate(26.1173 52.9279) scale(31.3905 31.3905)">
<stop offset="0.19" stop-color="#FFEBD6"/>
<stop offset="0.33" stop-color="#FFE2C4"/>
<stop offset="0.57" stop-color="#FFD8AE"/>
<stop offset="0.8" stop-color="#FFD2A0"/>
<stop offset="1" stop-color="#FFD09C"/>
</radialGradient>
<linearGradient id="paint10_linear_22_1157" x1="24.1708" y1="74.3264" x2="26.1677" y2="63.4853" gradientUnits="userSpaceOnUse">
<stop stop-color="#C83B28"/>
<stop offset="1" stop-color="#94223F"/>
</linearGradient>
<linearGradient id="paint11_linear_22_1157" x1="108.112" y1="140.919" x2="110.159" y2="132.351" gradientUnits="userSpaceOnUse">
<stop stop-color="#FE9128"/>
<stop offset="0.26" stop-color="#FE8B2A"/>
<stop offset="0.59" stop-color="#FE7B30"/>
<stop offset="0.96" stop-color="#FE603A"/>
<stop offset="0.99" stop-color="#FF5E3B"/>
</linearGradient>
<linearGradient id="paint12_linear_22_1157" x1="54.9883" y1="52.4322" x2="76.6269" y2="79.8798" gradientUnits="userSpaceOnUse">
<stop offset="0.15" stop-color="white"/>
<stop offset="0.31" stop-color="#F8E6DF"/>
<stop offset="0.65" stop-color="#E6A88E"/>
<stop offset="1" stop-color="#D46436"/>
</linearGradient>
<linearGradient id="paint13_linear_22_1157" x1="110.479" y1="25.0506" x2="81.8552" y2="38.375" gradientUnits="userSpaceOnUse">
<stop stop-color="#76262C"/>
<stop offset="0.18" stop-color="#7B292C"/>
<stop offset="0.41" stop-color="#8B352C"/>
<stop offset="0.67" stop-color="#A6472D"/>
<stop offset="0.95" stop-color="#CB612D"/>
<stop offset="1" stop-color="#D3672E"/>
</linearGradient>
<linearGradient id="paint14_linear_22_1157" x1="77.0841" y1="36.9879" x2="105.759" y2="32.0502" gradientUnits="userSpaceOnUse">
<stop stop-color="#FFE499"/>
<stop offset="0.26" stop-color="#FFD689"/>
<stop offset="0.76" stop-color="#FFB25F"/>
<stop offset="1" stop-color="#FFA04A"/>
</linearGradient>
<linearGradient id="paint15_linear_22_1157" x1="98.469" y1="34.04" x2="79.626" y2="41.8531" gradientUnits="userSpaceOnUse">
<stop stop-color="#FFF5EB"/>
<stop offset="0.19" stop-color="#FFE7D1"/>
<stop offset="0.59" stop-color="#FFC590"/>
<stop offset="1" stop-color="#FFA04A"/>
</linearGradient>
<linearGradient id="paint16_linear_22_1157" x1="60.0638" y1="141.442" x2="62.2349" y2="132.394" gradientUnits="userSpaceOnUse">
<stop stop-color="#FE9128"/>
<stop offset="0.26" stop-color="#FE8B2A"/>
<stop offset="0.59" stop-color="#FE7B30"/>
<stop offset="0.96" stop-color="#FE603A"/>
<stop offset="0.99" stop-color="#FF5E3B"/>
</linearGradient>
<clipPath id="clip0_22_1157">
<rect width="137" height="139.681" fill="white" transform="translate(0 6.00098)"/>
</clipPath>
</defs>
</svg>
