<svg width="1920" height="1096" viewBox="0 0 1920 1096" fill="none" xmlns="http://www.w3.org/2000/svg">
<rect x="342" y="-134" width="351" height="351" rx="175.5" transform="rotate(90 342 -134)" fill="url(#paint0_linear_2012_2)"/>
<rect x="502" y="839" width="164" height="164" rx="82" transform="rotate(90 502 839)" fill="url(#paint1_linear_2012_2)"/>
<rect x="1196" y="186" width="102" height="102" rx="51" transform="rotate(90 1196 186)" fill="url(#paint2_linear_2012_2)"/>
<path d="M1920 1081V109C1872.21 156.674 1738.25 142.448 1584.67 140.151C1392.71 137.279 1249.35 305 1188.44 541.074C1127.52 777.148 971.858 746.131 831.575 768.532C719.348 786.453 629.764 984.311 599 1081H1920Z" fill="url(#paint3_linear_2012_2)"/>
<rect x="1803" y="357" width="564" height="564" rx="282" transform="rotate(90 1803 357)" fill="url(#paint4_linear_2012_2)"/>
<path d="M1209.29 1069.98C1206.01 1072.2 1133.73 1113.16 1113.03 1086.64C1092.32 1060.13 1079.24 1040.23 1079.24 1040.23L1113.83 996.891L1270.36 936.635L1209.24 1069.98H1209.29Z" fill="#932F30"/>
<path d="M1547.11 1080.95C1550.54 1071.12 1552.86 1062.15 1553.67 1054.44C1558.72 1008.58 1548.78 937.581 1534.35 879.402L1483.59 812C1433.39 837.339 1379.51 854.468 1324.92 861.057C1309.23 862.932 1293.54 863.742 1277.89 863.692C1252.87 904.184 1235.16 949.135 1227.04 996.266C1222.24 1024.09 1221.34 1052.72 1222.4 1081H1547.11V1080.95Z" fill="url(#paint5_radial_2012_2)"/>
<path d="M1267.21 1081H1556.78C1556.98 1080.54 1557.23 1080.04 1557.44 1079.58C1557.64 1080.04 1557.84 1080.54 1558.04 1081H1566.79C1568.35 1022.44 1561.28 980.676 1547.23 943.675C1543.74 921.859 1539.24 899.942 1534.19 879.644L1495.28 828.116C1488.3 824.927 1480.88 823.257 1473.14 824.32C1464.65 825.433 1456.92 829.736 1449.39 833.886C1381.27 871.9 1313.2 909.913 1245.08 947.876C1238.61 951.47 1231.08 1022.74 1232.09 1025.47C1244.47 1050.73 1257.92 1060.5 1267.11 1080.95L1267.21 1081Z" fill="#FFD09C"/>
<path d="M1352.48 458.325C1356.88 433.677 1370.16 409.181 1391.73 392.716C1419.25 371.654 1458.95 366.148 1489.36 378.523C1519.77 390.897 1539.72 420.192 1540.07 451.608C1540.22 468.477 1535.12 485.751 1525.62 500.954C1510.27 525.551 1483.3 544.391 1453.8 551.108C1426.83 557.27 1387.38 553.886 1367.38 536.612C1347.74 519.692 1348.29 481.912 1352.48 458.325Z" fill="url(#paint6_linear_2012_2)"/>
<path d="M1421.68 456.962C1430.82 435.597 1447.59 416.909 1469.26 408.373C1477.14 405.292 1485.62 403.676 1494.11 403.625C1514.31 416.758 1526.94 438.981 1527.19 462.619C1527.34 477.721 1522.74 493.226 1514.16 506.864C1500.37 528.935 1476.33 550.149 1449.86 556.159C1442.44 557.826 1433.7 554.391 1425.01 554.391C1404.86 526.966 1406.98 491.358 1421.63 456.962H1421.68Z" fill="url(#paint7_linear_2012_2)"/>
<path d="M1407.23 535.855C1408.04 533.43 1402.39 503.328 1401.98 502.671C1420.47 457.669 1461.38 457.012 1466.13 454.183C1457.39 462.568 1449.81 475.447 1445.47 488.226C1476.78 466.204 1510.07 471.912 1542.29 475.195C1512.95 485.65 1492.14 498.176 1476.48 520.197C1507.95 511.409 1518.3 516.561 1535.07 532.521C1514.87 531.966 1482.89 554.795 1473.15 562.068C1451.63 554.543 1408.65 563.23 1401.43 560.503C1401.43 553.633 1406.12 541.006 1407.23 535.905V535.855Z" fill="#FFD7AB"/>
<path d="M1554.36 709.248C1516.08 751.473 1466.73 785.616 1421.07 813.092C1346.93 857.64 1264.35 878.045 1180.15 893.299C1145.2 899.612 1109.89 904.865 1074.39 908.805C1058.38 892.743 1043.98 872.742 1030.75 848.145C986.553 766.12 995.695 658.336 1044.79 580.302C1066.2 546.31 1123.33 508.328 1152.17 480.65C1181.82 452.214 1190.1 436.607 1190.55 420.646C1196.26 427.667 1201.97 434.688 1207.68 441.658C1206.46 432.465 1206.46 420.646 1212.83 407.716C1214.7 433.223 1238.08 452.416 1262.12 459.335C1286.17 466.255 1311.62 464.184 1336.47 466.255C1390.62 470.75 1443.04 495.903 1481.43 535.653C1519.76 575.453 1543.71 629.547 1547.54 685.156L1554.41 709.248H1554.36Z" fill="url(#paint8_linear_2012_2)"/>
<path d="M1003.57 757.231L1015.49 733.34C1015.49 733.34 1051.15 733.34 1099.44 764.403C1069.29 760.968 1025.55 768.494 1005.49 772.484C1004.69 767.433 1004.03 762.332 1003.52 757.231H1003.57Z" fill="#9C3D39"/>
<path d="M1136.26 792.031C1106.16 837.488 1067.11 853.246 1033.98 853.953C1033.63 853.347 1031 848.802 1030.65 848.145C1021.76 831.629 1015.04 814.002 1010.34 795.819C1034.69 786.98 1088.28 772.333 1136.21 791.98L1136.26 792.031Z" fill="#9C3D39"/>
<path d="M1475.42 673.64C1483.65 559.341 1452.08 502.57 1395.31 513.783C1329.1 526.864 1329.05 629.395 1342.43 703.036C1355.82 776.676 1475.42 673.64 1475.42 673.64Z" fill="#FFAE7A"/>
<path d="M1473.95 667.68C1477.89 612.172 1472.29 570.958 1459.11 543.482C1463.35 534.996 1467.09 528.632 1469.71 524.541C1473.7 528.127 1477.64 531.865 1481.38 535.754C1519.71 575.554 1543.66 629.648 1547.49 685.257L1554.36 709.349C1544.62 720.108 1534.16 730.31 1523.2 740.058C1488.15 730.815 1456.78 714.097 1439.26 694.248C1459.11 680.711 1473.95 667.731 1473.95 667.731V667.68Z" fill="#9C3D39"/>
<path d="M1461.98 665.357C1468.6 564.897 1452.94 528.986 1399.91 535.451C1336.12 543.178 1338.24 627.274 1349.5 689.651C1360.82 752.079 1461.98 665.357 1461.98 665.357Z" fill="#76262C"/>
<path d="M1453.65 669.246C1460.62 574.695 1438.9 538.178 1391.37 546.158C1334.05 555.805 1336.73 630.759 1348.04 691.672C1359.35 752.584 1453.65 669.246 1453.65 669.246Z" fill="#FDE7EA"/>
<path d="M1380.62 558.533C1370.11 560.301 1361.63 564.291 1354.86 569.948C1336.37 599.091 1340.06 648.841 1348.04 691.671C1357.03 740.058 1418.3 697.48 1443.2 677.883C1449.31 586.161 1427.59 550.654 1380.67 558.533H1380.62Z" fill="white"/>
<path d="M1147.78 803.345C1061.1 735.614 1059.13 651.518 1111.21 627.88C1176.82 598.131 1235.61 677.883 1270.96 744.958C1306.32 811.981 1147.83 803.345 1147.83 803.345H1147.78Z" fill="#FFAE7A"/>
<path d="M1156.26 787.182C1116.91 757.079 1092.92 720.36 1091.81 695.106C1090.95 675.509 1105.4 660.508 1123.88 651.164C1180.96 622.375 1229.8 687.883 1258.89 743.493C1287.98 799.102 1156.21 787.182 1156.21 787.182H1156.26Z" fill="#76262C"/>
<path d="M1165.45 787.182C1093.73 731.775 1094.89 674.953 1137.32 654.952C1194.14 628.132 1233.18 689.702 1261.32 744.149C1289.5 798.596 1165.45 787.182 1165.45 787.182Z" fill="#FDE7EA"/>
<path d="M1197.37 659.094C1183.69 654.296 1168.68 654.599 1152.17 662.377C1111.56 681.52 1108.83 734.503 1171.72 787.637C1196.46 789.102 1285.66 791.172 1261.32 744.15C1244.4 711.471 1223.59 676.267 1197.37 659.094Z" fill="white"/>
<path d="M1047.77 664.953C1029.69 633.183 956.3 615.152 922.056 638.234C887.104 661.821 870.79 715.966 885.286 759.857C889.023 771.07 894.68 781.828 903.065 789.051C913.924 798.395 928.318 800.819 941.703 799.001C955.088 797.182 967.765 791.475 980.291 785.869C991.15 780.969 1004.48 773.545 1017.01 764.049C1017.01 764.049 1055.3 678.135 1047.77 664.902V664.953Z" fill="url(#paint9_linear_2012_2)"/>
<path style="mix-blend-mode:multiply" opacity="0.54" d="M1540.07 904.41L1495.42 827.84C1488.45 824.658 1481.03 822.992 1473.3 824.052C1464.81 825.163 1457.09 829.457 1449.56 833.598C1381.48 871.53 1313.44 909.461 1245.36 947.342C1244.25 947.948 1241.77 947.696 1238.64 947.14C1235.86 955.726 1233.39 964.414 1231.26 973.151C1387.38 957.545 1538.6 988.354 1566.69 1038.91C1566.54 1002.8 1548.71 945.271 1540.02 904.41H1540.07Z" fill="url(#paint10_linear_2012_2)"/>
<path d="M1394.9 693.147C1416.18 687.88 1429.17 666.357 1423.9 645.074C1418.63 623.79 1397.11 610.807 1375.83 616.074C1354.54 621.341 1341.56 642.864 1346.83 664.147C1352.09 685.431 1373.62 698.414 1394.9 693.147Z" fill="url(#paint11_linear_2012_2)"/>
<path d="M1357.48 654.599C1357.48 670.004 1369.96 682.479 1385.36 682.479C1400.77 682.479 1413.25 670.004 1413.25 654.599C1413.25 639.194 1400.77 626.719 1385.36 626.719C1369.96 626.719 1357.48 639.194 1357.48 654.599Z" fill="#76262C"/>
<g style="mix-blend-mode:overlay" opacity="0.35">
<path d="M1349.25 671.014C1357.59 659.448 1370.77 654.296 1380.72 659.498C1391.17 665.003 1394.25 680.004 1388.24 694.147C1387.28 694.197 1386.32 694.298 1385.36 694.298C1369.3 694.298 1355.51 684.752 1349.25 671.014Z" fill="white"/>
</g>
<path d="M1166.11 740.513C1166.11 762.433 1183.89 780.212 1205.81 780.212C1227.73 780.212 1246.01 762.837 1246.01 740.866C1246.01 734.452 1243.99 728.037 1241.32 722.683C1234.8 709.703 1221.37 700.763 1205.81 700.763C1183.89 700.763 1166.11 718.542 1166.11 740.462V740.513Z" fill="url(#paint12_linear_2012_2)"/>
<path d="M1177.93 740.512C1177.93 755.917 1190.4 768.393 1205.81 768.393C1221.21 768.393 1233.69 755.917 1233.69 740.512C1233.69 725.108 1221.21 712.632 1205.81 712.632C1190.4 712.632 1177.93 725.108 1177.93 740.512Z" fill="#76262C"/>
<g style="mix-blend-mode:overlay" opacity="0.35">
<path d="M1169.7 756.978C1178.03 745.412 1191.21 740.26 1201.16 745.462C1211.62 750.967 1214.7 765.968 1208.69 780.111C1207.73 780.161 1206.77 780.262 1205.81 780.262C1189.75 780.262 1175.96 770.716 1169.7 756.978Z" fill="white"/>
</g>
<path d="M1547.49 685.156C1545.68 658.791 1535.62 628.435 1525.37 604.141C1493.8 619.293 1382.33 683.287 1325.61 733.037C1325.61 733.037 1211.57 760.614 1125.85 787.485C1105.65 793.798 1081.41 808.395 1081.41 808.395C1077.37 811.223 1073.88 813.951 1070.65 816.476C1052.11 831.275 1036.96 840.77 1028.32 839.609C1030.85 841.376 1039.89 847.336 1049.18 848.599C1038.78 852.539 1029.79 853.296 1024.54 853.448C1021.2 853.751 1017.82 853.902 1014.43 853.801C1022.97 863.095 1032.97 870.974 1043.98 877.086C1037.77 879.055 1030.9 878.702 1024.94 876.176C1050.85 906.077 1084.49 929.008 1121.56 942.796C1150 956.484 1183.13 962.545 1222.73 962.393C1274.85 958.858 1350.06 945.877 1391.47 931.584C1408.85 919.108 1438.85 898.198 1466.53 877.793C1507.9 837.336 1542.64 790.212 1547.59 775.868C1579.52 683.236 1547.44 685.206 1547.44 685.206L1547.49 685.156Z" fill="url(#paint13_radial_2012_2)"/>
<path d="M1126.21 786.626C1168.58 773.343 1219.39 758.342 1256.52 750.513C1257.33 753.342 1258.03 756.271 1258.59 759.251C1191.46 772.787 1121.16 791.374 1107.77 794.556C1110.2 792.99 1120.6 788.394 1126.21 786.626Z" fill="#E99667"/>
<path d="M1452.59 648.538C1473.55 636.921 1487.74 631.618 1502.39 626.062C1506.08 624.698 1509.41 623.486 1512.34 622.425C1515.27 621.415 1517.9 620.708 1519.97 620.001C1524.16 618.637 1526.43 617.778 1526.38 617.576C1526.33 617.324 1523.91 617.728 1519.56 618.637C1517.39 619.142 1514.71 619.647 1511.68 620.455C1508.65 621.364 1505.27 622.425 1501.48 623.587C1486.43 628.537 1470.27 632.123 1449.16 643.84C1408.04 666.62 1376.63 693.894 1373.24 696.722C1369.81 699.5 1375.36 701.066 1375.62 701.167C1377.43 698.793 1395.31 682.075 1452.59 648.538Z" fill="#E99667"/>
<path style="mix-blend-mode:multiply" opacity="0.25" d="M1509.41 723.34C1510.17 775.11 1471.73 822.386 1426.98 840.619C1399.1 868.499 1372.03 897.794 1372.03 897.794C1372.03 897.794 1326.12 885.521 1303.44 894.713C1215.51 930.523 1071.76 897.794 1016.15 853.751C1015.6 853.751 1014.99 853.751 1014.43 853.751C1022.97 863.045 1032.97 870.924 1043.98 877.035C1037.77 879.005 1030.9 878.652 1024.94 876.126C1050.85 906.027 1084.49 928.957 1121.56 942.746C1150 956.434 1183.13 962.495 1222.73 962.343C1262.58 959.616 1315.92 951.383 1357.38 941.281C1372.64 937.19 1384.15 933.857 1389.45 932.19C1389.66 932.139 1389.86 932.038 1390.06 931.988C1391.12 931.382 1392.28 930.725 1393.55 930.018C1411.17 917.442 1439.91 897.39 1466.48 877.742C1507.84 837.336 1542.54 790.263 1547.49 775.868C1547.49 775.818 1547.49 775.716 1547.54 775.666C1548.4 773.191 1549.21 770.817 1549.97 768.443C1550.22 767.635 1550.47 766.878 1550.73 766.12C1551.23 764.453 1551.74 762.837 1552.24 761.271C1552.49 760.463 1552.75 759.655 1552.95 758.897C1553.55 756.928 1554.11 755.008 1554.62 753.139C1554.92 752.028 1555.22 750.968 1555.47 749.907C1555.68 749.048 1555.93 748.24 1556.13 747.382C1556.43 746.169 1556.74 744.957 1557.04 743.796C1557.14 743.442 1557.19 743.088 1557.29 742.735C1557.95 739.957 1558.5 737.331 1559.01 734.805L1509.36 723.39L1509.41 723.34Z" fill="url(#paint14_linear_2012_2)"/>
<path d="M1376.78 697.227C1381.53 695.965 1339.45 663.791 1321.02 667.175C1302.53 670.559 1263.74 687.126 1254.3 702.177C1248.64 711.218 1244.2 736.724 1244.09 749.654C1243.99 758.241 1246.11 758.342 1249.95 755.21C1259.5 747.331 1318.24 712.784 1376.78 697.278V697.227Z" fill="#FE9E2E"/>
<path opacity="0.3" d="M1338.34 709.854C1330.81 687.075 1316.57 674.802 1309.8 670.054C1314 668.741 1317.83 667.731 1321.02 667.175C1339.5 663.791 1381.52 695.965 1376.78 697.227C1363.8 700.662 1350.82 705.056 1338.34 709.854Z" fill="white"/>
<path d="M1329.4 703.945C1335.71 701.672 1362.28 692.328 1374.86 694.651C1379.81 695.56 1380.11 706.066 1374.56 709.501C1325.11 729.3 1332.23 736.068 1334.35 746.927C1329.6 748.846 1324.6 751.523 1320.01 753.746C1311.77 745.715 1303.29 737.229 1258.59 759.301C1252.48 762.332 1247.68 760.413 1245.56 753.594C1243.18 746.068 1294.45 716.673 1329.4 703.995V703.945Z" fill="#76262C"/>
<path opacity="0.16" d="M1258.59 759.251C1252.48 762.281 1247.68 760.362 1245.56 753.544C1244.4 749.756 1256.67 740.513 1273.64 730.562C1286.27 733.29 1297.73 738.593 1303.95 745.26C1295.21 744.553 1281.82 747.735 1258.59 759.251Z" fill="white"/>
<path d="M1379.2 696.066C1378.39 694.601 1377.03 693.288 1375.16 692.934C1373.65 692.631 1371.98 692.53 1370.21 692.53C1363.14 692.53 1354.25 694.5 1346.37 696.672C1338.49 698.844 1331.62 701.268 1328.8 702.278C1311.57 708.541 1290.56 718.744 1273.74 728.492C1265.36 733.341 1257.98 738.088 1252.73 742.18C1250.05 744.25 1247.93 746.119 1246.42 747.836C1244.9 749.604 1243.84 751.069 1243.79 752.988L1243.94 754.049C1244.75 756.625 1245.96 758.696 1247.58 760.16C1249.2 761.625 1251.27 762.383 1253.44 762.383C1255.36 762.383 1257.38 761.827 1259.45 760.817C1280.61 750.362 1293.54 746.877 1301.77 746.877C1306.32 746.877 1309.45 747.887 1312.08 749.352C1314.65 750.816 1316.72 752.837 1318.9 754.907C1319.4 755.413 1320.21 755.564 1320.87 755.211C1325.46 752.988 1330.46 750.311 1335.11 748.442C1335.87 748.139 1336.32 747.331 1336.17 746.473C1335.51 743.24 1334.55 740.563 1334.55 738.189C1334.55 736.674 1334.86 735.26 1335.87 733.593C1337.33 731.118 1340.56 728.088 1346.73 724.401C1352.89 720.714 1362.03 716.37 1375.26 711.067L1375.52 710.915C1379 708.743 1380.41 704.703 1380.47 701.066C1380.47 699.248 1380.11 697.48 1379.3 695.965L1379.2 696.066ZM1373.7 707.935C1356.07 715.006 1345.56 720.411 1339.35 725.108C1336.22 727.482 1334.15 729.654 1332.84 731.825C1331.52 733.997 1331.02 736.169 1331.02 738.189C1331.02 740.917 1331.78 743.392 1332.38 745.816C1328.34 747.533 1324.2 749.655 1320.41 751.523C1318.49 749.705 1316.42 747.786 1313.79 746.271C1310.71 744.503 1306.88 743.341 1301.82 743.341C1292.58 743.341 1279.35 747.079 1257.93 757.635C1256.22 758.494 1254.75 758.847 1253.49 758.847C1252.07 758.847 1250.96 758.443 1249.95 757.534C1248.94 756.625 1247.98 755.11 1247.33 752.988C1247.33 752.988 1247.73 751.574 1249.09 750.16C1251.42 747.584 1255.81 744.048 1261.57 740.21C1278.79 728.593 1307.89 713.592 1330.11 705.561C1332.89 704.551 1339.65 702.177 1347.38 700.005C1355.11 697.884 1363.85 696.015 1370.31 696.015C1371.93 696.015 1373.39 696.116 1374.61 696.369C1375.21 696.47 1375.77 696.874 1376.22 697.733C1376.68 698.591 1376.98 699.803 1376.98 701.167C1376.98 703.844 1375.82 706.723 1373.75 707.986L1373.7 707.935Z" fill="#602229"/>
<path d="M1544.01 935.422C1531.33 897.39 1512.9 873.045 1493.91 850.266C1495.37 784.252 1492.64 705.157 1469.16 662.175C1462.84 650.205 1448.04 646.72 1443.15 643.184C1441.07 641.719 1438.2 608.889 1446.68 598.687C1453.9 589.949 1461.63 590.757 1465.77 591.312C1467.54 591.565 1468.85 589.797 1468.15 588.13C1465.47 582.019 1464.16 576.665 1464.26 570.049C1464.41 560.553 1468.25 556.108 1481.38 548.734C1492.64 542.421 1507.24 540.249 1514.92 542.673C1518.55 544.29 1522.95 549.946 1525.52 556.411C1526.84 559.795 1531.74 559.644 1532.9 556.209C1534.21 552.27 1535.52 548.785 1537.95 546.209C1542.8 541.057 1552.19 539.491 1575.37 544.744C1593.41 548.835 1597.75 555.805 1597.45 563.281C1597.19 568.836 1595.73 573.786 1594.37 577.776C1593.81 579.443 1595.22 581.059 1596.94 580.756C1599.57 580.251 1602.95 579.797 1606.54 579.645C1611.94 579.443 1618.21 581.16 1625.98 586.615C1632.7 591.312 1637.4 598.484 1639.27 606.465C1641.99 618.082 1641.09 622.274 1638.31 625.203C1634.22 627.223 1624.77 633.941 1618.46 647.073C1607.14 670.812 1609.32 677.479 1610.17 709.804C1610.88 737.684 1622.9 764.049 1624.27 791.93C1625.93 824.76 1572.39 893.299 1548.15 935.928C1547.19 937.645 1544.62 937.392 1544.01 935.473V935.422Z" fill="url(#paint15_linear_2012_2)"/>
<path d="M1545.58 940.423C1538.2 916.684 1528.66 898.198 1518.05 882.188C1533.45 896.835 1549.82 905.118 1565.88 907.088C1558 919.26 1550.83 930.675 1545.58 940.423Z" fill="#9C3D39"/>
<path d="M981.655 670.711C1001.1 671.317 1032.01 686.52 1039.94 694.551C1040.75 695.359 1041.91 699.551 1041.36 702.026C1037.92 718.744 1017.11 765.11 1017.11 765.11C1004.53 774.302 991.15 781.525 980.342 786.273C967.816 791.778 955.138 797.284 941.754 799.102C933.066 800.263 923.975 799.657 915.742 796.677C915.136 795.667 914.479 794.708 913.873 793.647C900.337 768.747 900.489 735.765 914.227 710.764C927.965 685.762 954.835 669.852 981.655 670.711Z" fill="url(#paint16_linear_2012_2)"/>
<path d="M1352.99 704.753C1346.02 706.268 1340.31 706.773 1339.76 705.309C1339.15 703.793 1344.6 700.662 1351.67 699.096C1358.8 697.48 1364.81 697.682 1365.06 699.298C1365.36 700.864 1359.91 703.187 1352.94 704.804L1352.99 704.753Z" fill="#FEFEFE"/>
<path d="M1401.63 637.123C1407.57 637.123 1412.39 632.306 1412.39 626.365C1412.39 620.423 1407.57 615.606 1401.63 615.606C1395.69 615.606 1390.87 620.423 1390.87 626.365C1390.87 632.306 1395.69 637.123 1401.63 637.123Z" fill="white"/>
<path d="M1208.54 719.602C1214.48 719.602 1219.29 714.786 1219.29 708.844C1219.29 702.903 1214.48 698.086 1208.54 698.086C1202.59 698.086 1197.78 702.903 1197.78 708.844C1197.78 714.786 1202.59 719.602 1208.54 719.602Z" fill="white"/>
<path d="M1304.91 541.562C1297.63 516.611 1294.8 490.398 1296.32 464.437C1309.65 465.194 1323.14 465.144 1336.47 466.255C1339.65 466.508 1342.89 466.861 1346.07 467.265C1340.36 473.276 1335.26 479.892 1330.77 486.862C1319.91 503.883 1312.38 522.773 1304.91 541.512V541.562Z" fill="#9C3D39"/>
<path d="M1155.25 477.619C1182.32 451.102 1190.1 436.051 1190.51 420.697C1196.21 427.717 1201.92 434.738 1207.63 441.708C1206.42 432.515 1206.42 420.697 1212.78 407.767C1213.59 418.828 1218.44 428.677 1225.66 436.91C1230.31 457.971 1238.39 478.68 1243.84 499.489C1249.65 521.763 1254.85 544.239 1259.4 566.866C1260.05 570.048 1255.86 571.766 1254.04 569.038C1230.1 533.582 1198.38 503.428 1161.67 481.458C1159.54 480.195 1157.42 478.932 1155.3 477.568L1155.25 477.619Z" fill="#9C3D39"/>
<path d="M1058.58 562.573C1073.02 546.714 1092.47 530.501 1111.11 515.349C1138.94 522.521 1166.31 545.855 1182.47 567.826C1142.98 553.634 1099.14 551.866 1058.58 562.573Z" fill="#9C3D39"/>
<g style="mix-blend-mode:screen" opacity="0.19">
<path d="M1299.3 563.331C1314.85 559.24 1373.65 515.298 1365.46 501.913C1356.22 486.761 1239.04 459.083 1198.89 474.74C1134.59 499.742 1078.88 545.502 1080.55 559.038C1081.36 565.705 1172.93 596.414 1299.35 563.331H1299.3Z" fill="#FFF64D"/>
</g>
<path d="M1389.35 804.001C1387.28 806.122 1381.22 805.819 1380.77 807.638C1378.09 817.638 1372.54 822.992 1363.95 827.942C1351.78 834.962 1338.64 832.184 1335.56 829.356C1334.25 828.144 1326.27 832.538 1325.01 837.033C1319.65 839.407 1262.33 807.284 1269.35 799.556C1300.16 810.112 1329.7 793.495 1337.13 770.11C1338.59 769.908 1382.28 786.727 1406.48 736.826C1410.37 745.311 1400.62 790.869 1395.42 801.375C1394.41 803.344 1390.62 804.304 1389.46 804.051L1389.35 804.001Z" fill="url(#paint17_linear_2012_2)"/>
<path d="M1264.9 787.687C1262.73 793.445 1263.54 799.455 1265.81 805.163C1266.87 807.89 1262.28 809.658 1261.27 806.931C1258.69 800.011 1259.55 793.394 1263.39 787.131C1263.84 786.323 1265.26 786.778 1264.9 787.687Z" fill="#76262C"/>
<path d="M1392.23 760.413C1392.23 760.413 1393.95 768.039 1389.71 779.959C1389.35 781.02 1379.3 766.928 1379.3 766.928L1392.23 760.413Z" fill="white"/>
<path d="M1298.54 802.183C1298.54 802.183 1302.68 808.799 1314.05 814.153C1315.06 814.608 1312.23 797.486 1312.23 797.486L1298.54 802.183Z" fill="white"/>
<path d="M1363.39 829.609C1356.17 833.397 1348.39 833.801 1343.24 832.74C1338.04 831.629 1335.36 829.71 1335.51 829.356C1335.77 828.75 1338.75 829.71 1343.59 830.063C1348.39 830.366 1355.16 829.609 1361.68 826.174C1368.19 822.841 1373.04 817.992 1375.97 814.103C1378.95 810.214 1380.26 807.385 1380.82 807.587C1381.22 807.688 1380.82 810.971 1378.24 815.568C1375.72 820.113 1370.72 825.821 1363.44 829.508L1363.39 829.609Z" fill="#76262C"/>
<path d="M1405.67 730.209C1404.36 736.573 1401.22 742.886 1394.81 751.372C1392.28 754.705 1388.9 757.837 1384.96 760.665C1381.12 763.494 1376.27 765.564 1371.02 767.534C1365.82 769.353 1360.16 770.767 1354.35 770.868C1351.47 770.918 1348.54 770.716 1345.72 769.959C1344.3 769.555 1342.89 769.151 1341.57 768.544L1341.07 768.342L1339.91 767.787L1337.74 766.575C1336.42 766.12 1334.3 763.847 1334.35 766.575L1333.04 771.423L1332.18 773.848C1331.57 775.211 1330.97 776.575 1330.21 777.888C1328.75 780.464 1326.98 782.889 1325.06 785.061C1321.12 789.354 1316.42 792.788 1311.62 795.415C1309.25 796.728 1306.77 797.839 1304.35 798.748C1301.98 799.607 1299.6 800.213 1297.23 800.566C1292.48 801.324 1287.83 801.223 1283.69 800.768C1271.92 799.455 1264.6 795.263 1260.76 793.293C1260.56 794.303 1260.41 795.314 1260.31 796.273C1261.07 796.879 1261.97 797.536 1263.09 798.294C1267.28 800.971 1273.94 804.102 1282.83 805.668C1287.28 806.425 1292.48 806.223 1297.89 805.617C1300.56 805.365 1303.34 804.759 1306.17 803.849C1308.85 802.89 1311.57 801.829 1314.25 800.415C1319.6 797.687 1324.86 794 1329.45 789.152C1331.73 786.727 1333.8 783.949 1335.51 780.919C1336.42 779.404 1337.13 777.787 1337.84 776.171L1338.65 773.949L1339.2 774.201C1340.87 774.959 1342.58 775.464 1344.3 775.919C1347.74 776.777 1351.22 777.03 1354.56 776.929C1361.27 776.727 1367.49 775.009 1373.04 772.888C1375.82 771.777 1378.45 770.615 1380.92 769.302C1383.45 767.989 1385.92 766.474 1387.99 764.807C1392.23 761.473 1396.12 757.736 1398.75 754.099C1404 746.725 1406.43 739.755 1407.44 734.856C1407.64 733.846 1407.74 733.037 1407.84 732.28C1407.13 731.573 1406.38 730.916 1405.62 730.26L1405.67 730.209Z" fill="#76262C"/>
<path d="M1364.2 960.676C1329.05 964.969 1265.91 965.373 1233.03 965.576C1228.33 963.555 1224.95 962.646 1224.09 962.293C1231.87 961.686 1239.24 961.08 1240.1 960.979C1273.03 956.686 1338.44 945.322 1383.24 926.937C1419.71 911.987 1453.95 888.299 1457.49 884.813C1443.04 904.31 1370.87 957.848 1364.2 960.676Z" fill="#BE5C3F"/>
<path d="M1520.78 833.346C1539.26 843.7 1561.79 846.63 1582.34 841.377C1594.62 838.245 1606.03 832.134 1615.68 823.952C1607.8 841.276 1595.53 861.277 1582.9 880.824C1573 877.844 1563.35 874.156 1554.36 869.055C1539.87 860.822 1527.09 848.701 1520.78 833.296V833.346Z" fill="#9C3D39"/>
<path d="M1612.09 730.108C1614.06 744.149 1618.51 758.089 1621.49 772.181C1619.17 772.888 1616.84 773.494 1614.47 774.05C1573 783.495 1550.07 776.828 1531.48 765.716C1527.14 763.14 1527.54 760.362 1532.59 760.16C1567.9 758.544 1602.14 751.473 1612.04 730.108H1612.09Z" fill="#9C3D39"/>
<path d="M1007.31 750.362C987.311 750.614 966.654 758.342 947.41 765.514C962.562 743.392 976.957 719.249 1005.8 712.38C996.352 707.683 985.139 704.955 975.846 705.561C979.937 704.198 1004.84 680.509 1039.84 694.45C1041.81 695.763 1041.81 699.955 1041.71 700.662C1037.82 719.199 1024.13 751.069 1017.72 764.555C1010.8 769.201 991.15 782.788 985.998 794.758C985.998 774.959 985.746 764.959 1007.26 750.362H1007.31Z" fill="#FFD7AB"/>
<path d="M1462.14 600.505C1469.01 601.919 1475.67 603.889 1480.12 605.707C1477.64 601.313 1474.91 593.686 1472.74 586.867C1483.6 575.907 1498.4 568.331 1518.05 565.907C1521.53 572.422 1524.97 579.544 1527.7 586.362C1529.87 579.089 1533.35 571.463 1536.69 564.998C1553.81 565.2 1571.79 568.23 1587.35 574.847C1585.43 583.888 1583.51 593.332 1582.4 600.151C1591.64 591.211 1600.98 587.979 1607.75 586.817C1610.07 588.635 1612.4 590.555 1614.72 592.676C1618.36 596.868 1621.64 601.313 1624.47 606.111C1632.15 619.041 1624.06 623.082 1616.24 631.264C1606.03 641.921 1598.61 657.78 1590.43 670.003C1584.87 678.287 1579.16 686.823 1570.83 692.53C1564.52 693.843 1520.62 694.298 1512.39 694.399C1495.42 687.025 1491.28 666.518 1478.85 653.134C1464.26 637.375 1454.61 636.567 1450.27 630.355C1452.79 619.546 1456.63 609.394 1462.14 600.404V600.505Z" fill="#FFC281"/>
<path d="M1574.72 656.114C1570.98 637.275 1531.74 611.869 1514.16 632.325C1505.88 641.972 1498.81 661.518 1514.82 667.024C1530.52 672.377 1576.74 666.418 1574.72 656.164V656.114Z" fill="#FF836F"/>
<path d="M1547.29 601.768C1546.18 600.657 1545.42 599.293 1544.77 597.879C1542.7 593.333 1541.74 588.333 1541.89 583.383C1541.99 580.807 1542.44 578.13 1544.26 576.261C1551.48 568.837 1570.07 577.423 1570.22 586.969C1570.37 596.06 1556.28 610.859 1547.24 601.818L1547.29 601.768Z" fill="#FF836F"/>
<path d="M1610.28 615.91C1608.81 618.284 1605.93 619.648 1603.1 620.001C1600.27 620.405 1597.4 620.001 1594.52 619.547C1593.05 619.345 1591.59 619.092 1590.27 618.435C1588.96 617.779 1587.85 616.668 1587.6 615.253C1587.4 613.94 1588 612.577 1588.96 611.617C1589.87 610.657 1591.08 609.95 1592.29 609.243C1595.02 607.677 1597.8 606.112 1600.93 605.606C1606.64 604.647 1614.01 609.849 1610.28 615.86V615.91Z" fill="#FF836F"/>
<path d="M1517.85 596.666C1518.2 598.99 1518.4 601.313 1517.85 603.586C1517.34 605.859 1515.93 608.031 1513.81 609.041C1511.53 610.101 1508.76 609.748 1506.48 608.687C1504.21 607.626 1502.34 605.909 1500.52 604.192C1497.95 601.768 1495.32 599.394 1492.74 596.969C1490.98 595.353 1489.11 593.434 1489.16 591.11C1489.21 587.928 1492.64 585.959 1495.57 584.645C1498.5 583.332 1501.43 582.019 1504.31 580.706C1505.72 580.049 1507.24 579.393 1508.81 579.241C1516.13 578.433 1517.09 591.868 1517.85 596.717V596.666Z" fill="#FF836F"/>
<path d="M1482.49 625.052C1483.65 626.416 1484.76 628.385 1483.8 629.901C1482.95 631.264 1480.92 631.365 1479.26 631.264C1475.92 631.113 1472.59 630.961 1469.21 630.81C1466.38 630.658 1463.4 630.507 1461.18 628.84C1458.7 626.971 1457.79 623.537 1458.5 620.607C1462.03 606.313 1477.24 618.94 1482.49 625.102V625.052Z" fill="#FF836F"/>
<path d="M1422.29 508.833C1371.68 502.974 1344.81 532.168 1343.09 531.713C1339.5 520.551 1361.78 487.721 1362.99 485.801C1392.18 486.711 1418.4 504.893 1422.34 508.833H1422.29Z" fill="#9C3D39"/>
<path d="M1097.72 583.08C1106.21 581.413 1140.2 593.838 1147.12 603.636C1136.97 605.253 1101.21 611.667 1065.65 648.184C1071.21 619.344 1090.1 585.302 1097.72 583.029V583.08Z" fill="#9C3D39"/>
<path d="M1142.72 1003.61C1139.34 997.194 1103.48 958.808 1085.75 954.06C1063.78 948.201 1041.05 949.918 1025.34 956.03C997.009 967.091 982.614 1002.7 983.675 1014.01C985.291 1030.83 988.523 1054.22 998.12 1056.39C1019.38 1055.98 1090.5 1042.7 1102.47 1037.2C1114.44 1031.69 1109.44 1006.34 1109.44 1006.34L1142.72 1003.61Z" fill="#922E30"/>
<path d="M1089.64 1006.03C1091.26 1010.07 1089.64 1022.04 1089.24 1023.86C1088.02 1029.82 1082.72 1035.18 1080.85 1035.58C1054.59 1041.54 1012.62 1048.71 997.111 1049.02C987.514 1046.84 972.261 1035.93 970.695 1019.11C969.634 1007.8 997.06 967.142 1025.34 956.081C1041 949.969 1063.78 948.252 1085.75 954.111C1088.18 954.767 1090.95 956.081 1093.83 957.848C1094.44 971.789 1090.5 995.679 1089.69 1006.08L1089.64 1006.03Z" fill="url(#paint18_linear_2012_2)"/>
<path opacity="0.88" d="M1025.29 956.03C1040.95 949.918 1063.73 948.201 1085.7 954.06C1087.52 954.565 1089.54 955.474 1091.61 956.585C1088.83 971.586 1066.61 997.901 1059.08 1000.12C1034.44 1009.06 1001.76 1017.09 979.838 1014.32C973.474 1013.51 997.01 967.142 1025.35 956.08L1025.29 956.03Z" fill="url(#paint19_linear_2012_2)"/>
<path d="M1048.12 989.87L1046.76 1004.87C1046.76 1004.87 1047.72 1030.02 1049.94 1035.18C1045.55 1028.56 1038.68 1008.76 1038.98 1004.32C1039.23 999.871 1048.12 989.87 1048.12 989.87Z" fill="#922E30"/>
<path d="M1003.22 994.719C1003.22 994.719 1002.46 1011.44 1002.87 1014.22C1003.93 1021.29 1011.91 1044.12 1011.91 1044.12C1011.91 1044.12 1000.44 1033 994.838 1014.57C995.646 1004.82 1003.22 994.719 1003.22 994.719Z" fill="#922E30"/>
<path d="M1395.11 801.273C1393.09 796.374 1382.94 793.495 1382.28 793.495C1381.63 793.495 1381.12 806.122 1381.02 809.607C1380.92 813.092 1396.32 804.304 1395.11 801.273Z" fill="white"/>
<path d="M1323.54 836.831C1322.23 830.114 1325.61 821.83 1326.47 822.083C1327.33 822.285 1337.18 829.305 1339.15 831.679C1342.33 835.518 1324.15 839.963 1323.49 836.882L1323.54 836.831Z" fill="white"/>
<defs>
<linearGradient id="paint0_linear_2012_2" x1="378.132" y1="184.997" x2="683.709" y2="-125.741" gradientUnits="userSpaceOnUse">
<stop stop-color="white" stop-opacity="0"/>
<stop offset="1" stop-color="#8F2471" stop-opacity="0.5"/>
</linearGradient>
<linearGradient id="paint1_linear_2012_2" x1="518.882" y1="988.047" x2="661.659" y2="842.859" gradientUnits="userSpaceOnUse">
<stop stop-color="white" stop-opacity="0"/>
<stop offset="1" stop-color="#8F2471" stop-opacity="0.5"/>
</linearGradient>
<linearGradient id="paint2_linear_2012_2" x1="1206.5" y1="278.7" x2="1295.3" y2="188.4" gradientUnits="userSpaceOnUse">
<stop stop-color="white" stop-opacity="0"/>
<stop offset="1" stop-color="#8F2471" stop-opacity="0.5"/>
</linearGradient>
<linearGradient id="paint3_linear_2012_2" x1="1965.75" y1="-88.0815" x2="304.904" y2="574.649" gradientUnits="userSpaceOnUse">
<stop offset="0.192748" stop-color="#7364A7"/>
<stop offset="0.446562" stop-color="#B68AC6"/>
<stop offset="0.766553" stop-color="#CE8CB0"/>
<stop offset="0.94702" stop-color="#FFB6B0"/>
</linearGradient>
<linearGradient id="paint4_linear_2012_2" x1="1861.06" y1="869.576" x2="2352.07" y2="370.271" gradientUnits="userSpaceOnUse">
<stop stop-color="white" stop-opacity="0"/>
<stop offset="1" stop-color="#8F2471" stop-opacity="0.5"/>
</linearGradient>
<radialGradient id="paint5_radial_2012_2" cx="0" cy="0" r="1" gradientUnits="userSpaceOnUse" gradientTransform="translate(1250.6 888.676) rotate(-180) scale(712.952 716.134)">
<stop stop-color="#FA7C30"/>
<stop offset="0.23" stop-color="#F66B36"/>
<stop offset="0.55" stop-color="#F3593D"/>
<stop offset="0.64" stop-color="#ED563C"/>
<stop offset="0.76" stop-color="#DD4F39"/>
<stop offset="0.9" stop-color="#C24336"/>
<stop offset="1" stop-color="#AB3933"/>
</radialGradient>
<linearGradient id="paint6_linear_2012_2" x1="1474.96" y1="383.574" x2="1426.48" y2="513.631" gradientUnits="userSpaceOnUse">
<stop stop-color="#76262C"/>
<stop offset="0.18" stop-color="#7B292C"/>
<stop offset="0.41" stop-color="#8B352C"/>
<stop offset="0.67" stop-color="#A6472D"/>
<stop offset="0.95" stop-color="#CB612D"/>
<stop offset="1" stop-color="#D3672E"/>
</linearGradient>
<linearGradient id="paint7_linear_2012_2" x1="1446.63" y1="520.703" x2="1499.61" y2="423.475" gradientUnits="userSpaceOnUse">
<stop stop-color="#FFE499"/>
<stop offset="0.26" stop-color="#FFD689"/>
<stop offset="0.76" stop-color="#FFB25F"/>
<stop offset="1" stop-color="#FFA04A"/>
</linearGradient>
<linearGradient id="paint8_linear_2012_2" x1="1183.43" y1="491.408" x2="1289.65" y2="754.2" gradientUnits="userSpaceOnUse">
<stop offset="0.06" stop-color="#FE9128"/>
<stop offset="0.3" stop-color="#FE8B2A"/>
<stop offset="0.61" stop-color="#FE7B30"/>
<stop offset="0.97" stop-color="#FE603A"/>
<stop offset="0.99" stop-color="#FF5E3B"/>
</linearGradient>
<linearGradient id="paint9_linear_2012_2" x1="889.455" y1="704.364" x2="1040.39" y2="726.783" gradientUnits="userSpaceOnUse">
<stop stop-color="#76262C"/>
<stop offset="0.18" stop-color="#7B292C"/>
<stop offset="0.41" stop-color="#8B352C"/>
<stop offset="0.67" stop-color="#A6472D"/>
<stop offset="0.95" stop-color="#CB612D"/>
<stop offset="1" stop-color="#D3672E"/>
</linearGradient>
<linearGradient id="paint10_linear_2012_2" x1="1407.18" y1="1065.28" x2="1389.81" y2="929.917" gradientUnits="userSpaceOnUse">
<stop stop-color="white"/>
<stop offset="0.02" stop-color="#FDFAF8"/>
<stop offset="0.39" stop-color="#E9B099"/>
<stop offset="0.68" stop-color="#DA7B53"/>
<stop offset="0.89" stop-color="#D15927"/>
<stop offset="1" stop-color="#CE4D17"/>
</linearGradient>
<linearGradient id="paint11_linear_2012_2" x1="1407.25" y1="681.639" x2="1368.86" y2="633.909" gradientUnits="userSpaceOnUse">
<stop stop-color="#FDA80D"/>
<stop offset="0.99" stop-color="#AE1702"/>
</linearGradient>
<linearGradient id="paint12_linear_2012_2" x1="1227.83" y1="767.888" x2="1189.34" y2="720.006" gradientUnits="userSpaceOnUse">
<stop stop-color="#FDA80D"/>
<stop offset="0.99" stop-color="#AE1702"/>
</linearGradient>
<radialGradient id="paint13_radial_2012_2" cx="0" cy="0" r="1" gradientUnits="userSpaceOnUse" gradientTransform="translate(1299.3 753.442) scale(231.275 231.275)">
<stop offset="0.19" stop-color="#FFEBD6"/>
<stop offset="0.33" stop-color="#FFE2C4"/>
<stop offset="0.57" stop-color="#FFD8AE"/>
<stop offset="0.8" stop-color="#FFD2A0"/>
<stop offset="1" stop-color="#FFD09C"/>
</radialGradient>
<linearGradient id="paint14_linear_2012_2" x1="1461.23" y1="374.482" x2="1222.58" y2="957.747" gradientUnits="userSpaceOnUse">
<stop stop-color="white"/>
<stop offset="0.26" stop-color="#F3D4C7"/>
<stop offset="0.62" stop-color="#E49F82"/>
<stop offset="0.87" stop-color="#DB7D56"/>
<stop offset="1" stop-color="#D87146"/>
</linearGradient>
<linearGradient id="paint15_linear_2012_2" x1="1580.83" y1="576.564" x2="1462.14" y2="897.137" gradientUnits="userSpaceOnUse">
<stop stop-color="#FE9128"/>
<stop offset="0.05" stop-color="#FC8A2A"/>
<stop offset="0.26" stop-color="#F76F34"/>
<stop offset="0.45" stop-color="#F45E3A"/>
<stop offset="0.6" stop-color="#F3593D"/>
<stop offset="0.67" stop-color="#ED563C"/>
<stop offset="0.76" stop-color="#DD4F3A"/>
<stop offset="0.86" stop-color="#C24336"/>
<stop offset="0.97" stop-color="#9D3331"/>
<stop offset="1" stop-color="#932F30"/>
</linearGradient>
<linearGradient id="paint16_linear_2012_2" x1="1037.72" y1="745.563" x2="911.095" y2="729.35" gradientUnits="userSpaceOnUse">
<stop stop-color="#FFE499"/>
<stop offset="0.26" stop-color="#FFD689"/>
<stop offset="0.76" stop-color="#FFB25F"/>
<stop offset="1" stop-color="#FFA04A"/>
</linearGradient>
<linearGradient id="paint17_linear_2012_2" x1="1358.49" y1="827.538" x2="1337.08" y2="767.989" gradientUnits="userSpaceOnUse">
<stop stop-color="#C83B28"/>
<stop offset="1" stop-color="#94223F"/>
</linearGradient>
<linearGradient id="paint18_linear_2012_2" x1="1021.56" y1="931.685" x2="1039.49" y2="1027.75" gradientUnits="userSpaceOnUse">
<stop stop-color="#BD552D"/>
<stop offset="0.45" stop-color="#BD4F2E"/>
<stop offset="0.99" stop-color="#BD4134"/>
<stop offset="1" stop-color="#BD4134"/>
</linearGradient>
<linearGradient id="paint19_linear_2012_2" x1="1043.78" y1="1018.31" x2="1031.81" y2="971.536" gradientUnits="userSpaceOnUse">
<stop stop-color="#FE9128"/>
<stop offset="0.01" stop-color="#FE9028"/>
<stop offset="0.66" stop-color="#FE6B35"/>
<stop offset="1" stop-color="#FF5E3B"/>
</linearGradient>
</defs>
</svg>
