<svg width="360" height="461" viewBox="0 0 360 461" fill="none" xmlns="http://www.w3.org/2000/svg">
<path d="M482 455V0C459.499 22.3167 396.421 15.6575 324.11 14.582C233.721 13.2376 166.22 91.7492 137.539 202.257C108.858 312.765 35.5622 298.246 -30.4909 308.732C-83.3334 317.121 -125.515 409.739 -140 455H482Z" fill="url(#paint0_linear_2061_2)"/>
<rect x="396" y="165" width="240" height="239" rx="119.5" transform="rotate(90 396 165)" fill="url(#paint1_linear_2061_2)"/>
<path d="M191.249 451.164C190.11 451.935 165.033 466.147 157.848 456.947C150.664 447.747 146.125 440.843 146.125 440.843L158.129 425.807L212.435 404.901L191.231 451.164H191.249Z" fill="#932F30"/>
<path d="M308.457 454.972C309.647 451.561 310.452 448.449 310.732 445.776C312.483 429.863 309.034 405.23 304.028 385.045L286.418 361.659C269.001 370.451 250.306 376.394 231.365 378.679C225.921 379.33 220.478 379.611 215.051 379.594C206.369 393.643 200.224 409.239 197.406 425.591C195.743 435.244 195.428 445.178 195.796 454.99H308.457V454.972Z" fill="url(#paint2_radial_2061_2)"/>
<path d="M211.344 454.989H311.81C311.88 454.831 311.968 454.655 312.038 454.497C312.108 454.655 312.178 454.831 312.249 454.989H315.282C315.825 434.67 313.371 420.182 308.496 407.344C307.287 399.775 305.726 392.171 303.973 385.128L290.472 367.25C288.053 366.144 285.475 365.564 282.793 365.933C279.847 366.32 277.164 367.812 274.552 369.252C250.917 382.441 227.3 395.63 203.665 408.802C201.421 410.048 198.808 434.775 199.159 435.724C203.454 444.487 208.118 447.877 211.309 454.972L211.344 454.989Z" fill="#FFD09C"/>
<path d="M240.93 238.951C242.454 230.399 247.063 221.9 254.546 216.187C264.096 208.88 277.87 206.97 288.419 211.263C298.969 215.556 305.89 225.72 306.013 236.62C306.066 242.473 304.296 248.466 301.001 253.741C295.674 262.275 286.316 268.811 276.082 271.142C266.725 273.28 253.039 272.106 246.099 266.113C239.282 260.242 239.475 247.134 240.93 238.951Z" fill="url(#paint3_linear_2061_2)"/>
<path d="M264.937 238.477C268.109 231.065 273.927 224.581 281.445 221.619C284.178 220.55 287.122 219.99 290.066 219.972C297.076 224.528 301.457 232.239 301.545 240.44C301.597 245.68 300.002 251.059 297.023 255.791C292.239 263.449 283.898 270.809 274.716 272.894C272.14 273.472 269.108 272.281 266.094 272.281C259.102 262.765 259.838 250.411 264.92 238.477H264.937Z" fill="url(#paint4_linear_2061_2)"/>
<path d="M259.925 265.85C260.206 265.009 258.243 254.564 258.103 254.337C264.517 238.723 278.711 238.495 280.358 237.514C277.327 240.423 274.698 244.891 273.191 249.325C284.056 241.684 295.604 243.664 306.784 244.804C296.603 248.431 289.383 252.777 283.951 260.417C294.868 257.368 298.46 259.156 304.278 264.693C297.269 264.5 286.176 272.421 282.794 274.945C275.329 272.334 260.416 275.348 257.91 274.401C257.91 272.018 259.54 267.637 259.925 265.867V265.85Z" fill="#FFD7AB"/>
<path d="M310.972 326.009C297.689 340.659 280.568 352.505 264.726 362.038C239.001 377.494 210.35 384.574 181.138 389.866C169.011 392.056 156.762 393.879 144.443 395.246C138.888 389.673 133.893 382.734 129.302 374.2C113.969 345.741 117.14 308.345 134.174 281.271C141.604 269.477 161.423 256.299 171.429 246.696C181.716 236.83 184.59 231.415 184.747 225.878C186.728 228.314 188.708 230.749 190.688 233.168C190.267 229.978 190.267 225.878 192.475 221.392C193.124 230.241 201.237 236.9 209.579 239.301C217.92 241.702 226.752 240.983 235.374 241.702C254.159 243.261 272.349 251.988 285.667 265.78C298.968 279.588 307.274 298.356 308.606 317.65L310.989 326.009H310.972Z" fill="url(#paint5_linear_2061_2)"/>
<path d="M119.875 342.656L124.011 334.368C124.011 334.368 136.382 334.368 153.135 345.145C142.673 343.953 127.498 346.564 120.541 347.949C120.26 346.196 120.033 344.426 119.857 342.656H119.875Z" fill="#9C3D39"/>
<path d="M165.91 354.731C155.465 370.502 141.919 375.969 130.424 376.215C130.301 376.004 129.39 374.427 129.267 374.2C126.183 368.469 123.852 362.353 122.223 356.045C130.669 352.978 149.262 347.896 165.892 354.713L165.91 354.731Z" fill="#9C3D39"/>
<path d="M283.583 313.655C286.439 273.998 275.487 254.301 255.79 258.192C232.816 262.73 232.799 298.304 237.443 323.854C242.086 349.403 283.583 313.655 283.583 313.655Z" fill="#FFAE7A"/>
<path d="M283.074 311.587C284.441 292.328 282.496 278.029 277.922 268.496C279.394 265.552 280.691 263.344 281.602 261.924C282.986 263.169 284.353 264.465 285.65 265.815C298.951 279.623 307.257 298.391 308.589 317.685L310.972 326.044C307.59 329.777 303.962 333.316 300.16 336.699C287.998 333.492 277.116 327.691 271.035 320.804C277.922 316.108 283.074 311.604 283.074 311.604V311.587Z" fill="#9C3D39"/>
<path d="M278.922 310.781C281.217 275.926 275.785 263.466 257.385 265.709C235.252 268.391 235.988 297.568 239.896 319.21C243.821 340.869 278.922 310.781 278.922 310.781Z" fill="#76262C"/>
<path d="M276.03 312.13C278.448 279.326 270.913 266.656 254.423 269.425C234.534 272.772 235.462 298.777 239.388 319.911C243.313 341.045 276.03 312.13 276.03 312.13Z" fill="#FDE7EA"/>
<path d="M250.69 273.718C247.045 274.331 244.101 275.715 241.753 277.678C235.339 287.789 236.618 305.05 239.387 319.911C242.506 336.698 263.763 321.926 272.402 315.127C274.522 283.303 266.987 270.984 250.707 273.718H250.69Z" fill="white"/>
<path d="M169.905 358.656C139.834 335.157 139.151 305.979 157.218 297.778C179.982 287.457 200.379 315.127 212.646 338.398C224.913 361.653 169.923 358.656 169.923 358.656H169.905Z" fill="#FFAE7A"/>
<path d="M172.85 353.048C159.199 342.604 150.875 329.864 150.489 321.102C150.191 314.303 155.203 309.098 161.617 305.856C181.419 295.868 198.364 318.596 208.458 337.89C218.552 357.184 172.832 353.048 172.832 353.048H172.85Z" fill="#76262C"/>
<path d="M176.038 353.048C151.154 333.825 151.557 314.11 166.277 307.171C185.992 297.866 199.538 319.227 209.298 338.118C219.077 357.009 176.038 353.048 176.038 353.048Z" fill="#FDE7EA"/>
<path d="M187.114 308.608C182.365 306.943 177.16 307.049 171.43 309.747C157.341 316.389 156.395 334.771 178.212 353.206C186.799 353.715 217.746 354.433 209.299 338.118C203.429 326.78 196.209 314.566 187.114 308.608Z" fill="white"/>
<path d="M135.208 310.641C128.935 299.618 103.472 293.362 91.5913 301.371C79.4648 309.554 73.8046 328.34 78.8339 343.568C80.1307 347.458 82.0934 351.191 85.0023 353.697C88.7699 356.939 93.7642 357.78 98.408 357.149C103.052 356.518 107.45 354.538 111.796 352.593C115.564 350.893 120.19 348.317 124.536 345.022C124.536 345.022 137.819 315.214 135.208 310.623V310.641Z" fill="url(#paint6_linear_2061_2)"/>
<path style="mix-blend-mode:multiply" opacity="0.54" d="M306.013 393.721L290.522 367.155C288.103 366.051 285.527 365.473 282.846 365.841C279.902 366.226 277.221 367.716 274.61 369.153C250.988 382.313 227.383 395.473 203.761 408.616C203.376 408.827 202.517 408.739 201.431 408.546C200.467 411.525 199.608 414.539 198.872 417.571C253.038 412.156 305.505 422.846 315.248 440.387C315.195 427.858 309.009 407.898 305.995 393.721H306.013Z" fill="url(#paint7_linear_2061_2)"/>
<path d="M255.646 320.423C263.031 318.595 267.535 311.128 265.708 303.744C263.88 296.359 256.413 291.855 249.029 293.682C241.644 295.509 237.14 302.977 238.967 310.361C240.794 317.746 248.262 322.25 255.646 320.423Z" fill="url(#paint8_linear_2061_2)"/>
<path d="M242.665 307.048C242.665 312.393 246.993 316.721 252.338 316.721C257.683 316.721 262.011 312.393 262.011 307.048C262.011 301.703 257.683 297.375 252.338 297.375C246.993 297.375 242.665 301.703 242.665 307.048Z" fill="#76262C"/>
<g style="mix-blend-mode:overlay" opacity="0.35">
<path d="M239.808 312.743C242.699 308.731 247.273 306.943 250.725 308.748C254.352 310.658 255.421 315.863 253.336 320.769C253.003 320.787 252.67 320.822 252.337 320.822C246.765 320.822 241.981 317.51 239.808 312.743Z" fill="white"/>
</g>
<path d="M176.267 336.856C176.267 344.462 182.435 350.63 190.04 350.63C197.646 350.63 203.989 344.602 203.989 336.979C203.989 334.753 203.288 332.528 202.36 330.67C200.099 326.167 195.438 323.065 190.04 323.065C182.435 323.065 176.267 329.233 176.267 336.839V336.856Z" fill="url(#paint9_linear_2061_2)"/>
<path d="M180.367 336.856C180.367 342.201 184.696 346.529 190.04 346.529C195.385 346.529 199.713 342.201 199.713 336.856C199.713 331.511 195.385 327.183 190.04 327.183C184.696 327.183 180.367 331.511 180.367 336.856Z" fill="#76262C"/>
<g style="mix-blend-mode:overlay" opacity="0.35">
<path d="M177.511 342.569C180.402 338.556 184.976 336.768 188.428 338.573C192.056 340.484 193.124 345.688 191.039 350.595C190.706 350.612 190.373 350.647 190.04 350.647C184.468 350.647 179.684 347.335 177.511 342.569Z" fill="white"/>
</g>
<path d="M308.589 317.65C307.958 308.503 304.471 297.971 300.914 289.542C289.961 294.799 251.286 317.002 231.607 334.263C231.607 334.263 192.038 343.831 162.3 353.154C155.291 355.344 146.879 360.408 146.879 360.408C145.477 361.39 144.268 362.336 143.147 363.212C136.715 368.347 131.458 371.641 128.462 371.238C129.338 371.852 132.475 373.919 135.699 374.357C132.089 375.724 128.97 375.987 127.147 376.04C125.991 376.145 124.817 376.197 123.643 376.162C126.604 379.387 130.074 382.12 133.894 384.241C131.739 384.924 129.355 384.802 127.288 383.925C136.277 394.3 147.948 402.255 160.811 407.039C170.677 411.788 182.172 413.891 195.911 413.839C213.996 412.612 240.089 408.108 254.458 403.149C260.486 398.821 270.895 391.566 280.499 384.486C294.851 370.45 306.907 354.1 308.624 349.123C319.699 316.984 308.572 317.668 308.572 317.668L308.589 317.65Z" fill="url(#paint10_radial_2061_2)"/>
<path d="M162.423 352.856C177.125 348.247 194.754 343.042 207.634 340.326C207.914 341.307 208.16 342.324 208.353 343.358C185.063 348.054 160.67 354.503 156.026 355.607C156.868 355.064 160.477 353.469 162.423 352.856Z" fill="#E99667"/>
<path d="M275.662 304.945C282.934 300.915 287.858 299.075 292.94 297.147C294.22 296.674 295.376 296.254 296.393 295.886C297.409 295.535 298.32 295.29 299.039 295.044C300.493 294.571 301.282 294.273 301.264 294.203C301.247 294.116 300.405 294.256 298.898 294.571C298.145 294.746 297.216 294.922 296.165 295.202C295.113 295.518 293.939 295.885 292.625 296.289C287.403 298.006 281.795 299.25 274.47 303.316C260.206 311.219 249.306 320.682 248.132 321.663C246.94 322.627 248.868 323.17 248.955 323.205C249.586 322.382 255.79 316.581 275.662 304.945Z" fill="#E99667"/>
<path style="mix-blend-mode:multiply" opacity="0.25" d="M295.376 330.898C295.639 348.86 282.304 365.262 266.777 371.588C257.104 381.261 247.711 391.425 247.711 391.425C247.711 391.425 231.782 387.167 223.914 390.356C193.405 402.781 143.532 391.425 124.238 376.145C124.046 376.145 123.835 376.145 123.643 376.145C126.604 379.369 130.074 382.103 133.894 384.223C131.739 384.906 129.355 384.784 127.288 383.908C136.277 394.282 147.948 402.238 160.811 407.022C170.677 411.771 182.172 413.873 195.911 413.821C209.737 412.875 228.242 410.018 242.63 406.513C247.922 405.094 251.917 403.937 253.757 403.359C253.827 403.342 253.897 403.306 253.967 403.289C254.335 403.079 254.738 402.851 255.177 402.606C261.292 398.242 271.263 391.285 280.481 384.468C294.833 370.449 306.872 354.117 308.589 349.123C308.589 349.105 308.589 349.07 308.607 349.053C308.905 348.194 309.185 347.37 309.448 346.547C309.536 346.266 309.623 346.004 309.711 345.741C309.886 345.162 310.061 344.602 310.236 344.058C310.324 343.778 310.412 343.498 310.482 343.235C310.692 342.551 310.885 341.885 311.06 341.237C311.165 340.851 311.27 340.483 311.358 340.115C311.428 339.818 311.516 339.537 311.586 339.239C311.691 338.819 311.796 338.398 311.901 337.995C311.936 337.872 311.954 337.75 311.989 337.627C312.217 336.663 312.409 335.752 312.585 334.876L295.359 330.915L295.376 330.898Z" fill="url(#paint11_linear_2061_2)"/>
<path d="M249.359 321.838C251.006 321.4 236.409 310.238 230.012 311.412C223.599 312.586 210.14 318.334 206.863 323.556C204.901 326.692 203.359 335.542 203.323 340.028C203.288 343.007 204.024 343.042 205.356 341.956C208.668 339.222 229.049 327.236 249.359 321.856V321.838Z" fill="#FE9E2E"/>
<path opacity="0.3" d="M236.023 326.219C233.412 318.316 228.47 314.058 226.122 312.411C227.577 311.955 228.908 311.604 230.012 311.412C236.426 310.238 251.006 321.4 249.359 321.838C244.855 323.03 240.351 324.555 236.023 326.219Z" fill="white"/>
<path d="M232.921 324.169C235.111 323.38 244.329 320.138 248.692 320.945C250.41 321.26 250.515 324.905 248.587 326.097C231.431 332.966 233.902 335.314 234.638 339.082C232.991 339.748 231.256 340.676 229.661 341.448C226.805 338.661 223.861 335.717 208.353 343.375C206.232 344.427 204.567 343.761 203.831 341.395C203.008 338.784 220.794 328.585 232.921 324.187V324.169Z" fill="#76262C"/>
<path opacity="0.16" d="M208.353 343.358C206.233 344.409 204.568 343.743 203.832 341.378C203.429 340.063 207.687 336.856 213.575 333.404C217.956 334.351 221.934 336.191 224.09 338.504C221.058 338.258 216.414 339.362 208.353 343.358Z" fill="white"/>
<path d="M250.2 321.435C249.92 320.927 249.447 320.471 248.798 320.349C248.273 320.244 247.694 320.208 247.081 320.208C244.628 320.208 241.543 320.892 238.81 321.645C236.076 322.399 233.693 323.24 232.711 323.591C226.736 325.764 219.446 329.303 213.61 332.685C210.701 334.368 208.143 336.015 206.321 337.434C205.392 338.153 204.656 338.801 204.13 339.397C203.604 340.01 203.236 340.519 203.219 341.185L203.271 341.553C203.552 342.446 203.972 343.165 204.533 343.673C205.094 344.181 205.812 344.444 206.566 344.444C207.232 344.444 207.933 344.251 208.651 343.901C215.994 340.273 220.48 339.064 223.336 339.064C224.913 339.064 226 339.415 226.911 339.923C227.805 340.431 228.523 341.132 229.277 341.85C229.452 342.026 229.732 342.078 229.96 341.956C231.555 341.185 233.29 340.256 234.902 339.607C235.165 339.502 235.322 339.222 235.27 338.924C235.042 337.802 234.709 336.874 234.709 336.05C234.709 335.524 234.814 335.034 235.165 334.455C235.673 333.597 236.794 332.545 238.932 331.266C241.07 329.987 244.242 328.48 248.833 326.64L248.921 326.587C250.13 325.834 250.621 324.432 250.638 323.17C250.638 322.539 250.516 321.926 250.235 321.4L250.2 321.435ZM248.29 325.553C242.174 328.007 238.529 329.882 236.374 331.511C235.287 332.335 234.569 333.089 234.113 333.842C233.658 334.596 233.482 335.349 233.482 336.05C233.482 336.996 233.745 337.855 233.956 338.696C232.554 339.292 231.117 340.028 229.802 340.676C229.137 340.045 228.418 339.38 227.507 338.854C226.438 338.241 225.106 337.837 223.354 337.837C220.147 337.837 215.556 339.134 208.125 342.797C207.53 343.095 207.021 343.217 206.583 343.217C206.093 343.217 205.707 343.077 205.357 342.762C205.006 342.446 204.673 341.921 204.445 341.185C204.445 341.185 204.586 340.694 205.059 340.203C205.865 339.309 207.389 338.083 209.387 336.751C215.363 332.721 225.457 327.516 233.167 324.73C234.131 324.379 236.479 323.556 239.16 322.802C241.841 322.066 244.873 321.418 247.116 321.418C247.677 321.418 248.185 321.453 248.606 321.54C248.816 321.575 249.009 321.716 249.166 322.013C249.324 322.311 249.429 322.732 249.429 323.205C249.429 324.134 249.026 325.133 248.308 325.571L248.29 325.553Z" fill="#602229"/>
<path d="M307.38 404.481C302.981 391.286 296.585 382.839 289.996 374.936C290.504 352.032 289.558 324.59 281.409 309.677C279.219 305.524 274.084 304.315 272.384 303.088C271.666 302.58 270.667 291.189 273.611 287.65C276.117 284.618 278.798 284.898 280.235 285.091C280.849 285.179 281.304 284.565 281.059 283.987C280.13 281.867 279.674 280.009 279.709 277.714C279.762 274.419 281.094 272.877 285.65 270.318C289.558 268.128 294.622 267.374 297.286 268.216C298.548 268.776 300.072 270.739 300.966 272.982C301.421 274.156 303.121 274.104 303.524 272.912C303.98 271.545 304.436 270.336 305.277 269.442C306.959 267.655 310.218 267.112 318.262 268.934C324.518 270.353 326.025 272.772 325.92 275.365C325.832 277.293 325.324 279.01 324.851 280.395C324.658 280.973 325.149 281.534 325.745 281.429C326.656 281.253 327.83 281.096 329.074 281.043C330.949 280.973 333.122 281.569 335.821 283.461C338.151 285.091 339.781 287.579 340.43 290.348C341.376 294.379 341.06 295.833 340.097 296.85C338.677 297.551 335.4 299.881 333.21 304.437C329.284 312.674 330.038 314.987 330.336 326.202C330.581 335.875 334.752 345.023 335.225 354.696C335.803 366.086 317.228 389.866 308.817 404.656C308.484 405.252 307.59 405.164 307.38 404.499V404.481Z" fill="url(#paint12_linear_2061_2)"/>
<path d="M307.924 406.216C305.365 397.98 302.053 391.566 298.373 386.011C303.718 391.093 309.396 393.967 314.968 394.65C312.234 398.873 309.746 402.834 307.924 406.216Z" fill="#9C3D39"/>
<path d="M112.269 312.638C119.016 312.849 129.74 318.123 132.492 320.91C132.772 321.19 133.175 322.644 132.982 323.503C131.791 329.304 124.571 345.39 124.571 345.39C120.208 348.58 115.564 351.086 111.814 352.733C107.468 354.643 103.069 356.553 98.4254 357.184C95.4113 357.587 92.257 357.377 89.4006 356.343C89.1903 355.992 88.9625 355.659 88.7522 355.291C84.0558 346.652 84.1084 335.209 88.8749 326.535C93.6414 317.86 102.964 312.34 112.269 312.638Z" fill="url(#paint13_linear_2061_2)"/>
<path d="M241.104 324.449C238.686 324.975 236.706 325.15 236.513 324.642C236.303 324.116 238.195 323.03 240.649 322.487C243.12 321.926 245.205 321.996 245.293 322.557C245.398 323.1 243.505 323.906 241.087 324.467L241.104 324.449Z" fill="#FEFEFE"/>
<path d="M257.98 300.985C260.041 300.985 261.712 299.314 261.712 297.252C261.712 295.191 260.041 293.52 257.98 293.52C255.918 293.52 254.247 295.191 254.247 297.252C254.247 299.314 255.918 300.985 257.98 300.985Z" fill="white"/>
<path d="M190.986 329.601C193.048 329.601 194.719 327.93 194.719 325.869C194.719 323.807 193.048 322.136 190.986 322.136C188.925 322.136 187.254 323.807 187.254 325.869C187.254 327.93 188.925 329.601 190.986 329.601Z" fill="white"/>
<path d="M224.422 267.83C221.899 259.173 220.917 250.078 221.443 241.071C226.069 241.334 230.748 241.316 235.374 241.702C236.478 241.789 237.6 241.912 238.704 242.052C236.724 244.138 234.954 246.433 233.394 248.851C229.627 254.757 227.016 261.311 224.422 267.812V267.83Z" fill="#9C3D39"/>
<path d="M172.499 245.645C181.892 236.445 184.59 231.222 184.731 225.895C186.711 228.331 188.691 230.767 190.671 233.185C190.251 229.996 190.251 225.895 192.459 221.409C192.739 225.247 194.421 228.664 196.927 231.52C198.539 238.828 201.343 246.013 203.236 253.232C205.251 260.96 207.056 268.759 208.633 276.609C208.861 277.713 207.407 278.309 206.776 277.363C198.469 265.061 187.464 254.599 174.725 246.976C173.989 246.538 173.253 246.1 172.517 245.627L172.499 245.645Z" fill="#9C3D39"/>
<path d="M138.958 275.12C143.97 269.617 150.717 263.992 157.183 258.735C166.838 261.223 176.336 269.319 181.944 276.942C168.24 272.018 153.03 271.405 138.958 275.12Z" fill="#9C3D39"/>
<g style="mix-blend-mode:screen" opacity="0.19">
<path d="M222.477 275.383C227.874 273.963 248.272 258.717 245.433 254.074C242.226 248.816 201.571 239.213 187.639 244.646C165.332 253.32 146.003 269.197 146.581 273.893C146.861 276.206 178.632 286.861 222.494 275.383H222.477Z" fill="#FFF64D"/>
</g>
<path d="M253.72 358.885C253.002 359.621 250.899 359.516 250.741 360.147C249.812 363.616 247.885 365.474 244.906 367.191C240.682 369.627 236.126 368.663 235.057 367.682C234.602 367.261 231.833 368.786 231.395 370.346C229.537 371.169 209.648 360.024 212.083 357.343C222.773 361.005 233.024 355.24 235.6 347.127C236.109 347.056 251.267 352.892 259.661 335.578C261.01 338.522 257.628 354.329 255.823 357.974C255.472 358.657 254.158 358.99 253.755 358.903L253.72 358.885Z" fill="url(#paint14_linear_2061_2)"/>
<path d="M210.542 353.225C209.788 355.223 210.068 357.308 210.857 359.288C211.225 360.234 209.63 360.848 209.28 359.901C208.386 357.501 208.684 355.205 210.016 353.032C210.174 352.752 210.664 352.909 210.542 353.225Z" fill="#76262C"/>
<path d="M254.719 343.762C254.719 343.762 255.315 346.408 253.843 350.544C253.721 350.912 250.233 346.022 250.233 346.022L254.719 343.762Z" fill="white"/>
<path d="M222.212 358.254C222.212 358.254 223.649 360.55 227.592 362.407C227.942 362.565 226.961 356.624 226.961 356.624L222.212 358.254Z" fill="white"/>
<path d="M244.713 367.77C242.207 369.084 239.509 369.224 237.721 368.856C235.916 368.471 234.988 367.805 235.04 367.682C235.128 367.472 236.162 367.805 237.844 367.927C239.509 368.033 241.857 367.77 244.118 366.578C246.378 365.421 248.06 363.739 249.077 362.39C250.111 361.041 250.566 360.059 250.759 360.129C250.899 360.164 250.759 361.303 249.865 362.898C248.989 364.475 247.254 366.455 244.731 367.735L244.713 367.77Z" fill="#76262C"/>
<path d="M259.381 333.283C258.925 335.491 257.839 337.681 255.613 340.625C254.737 341.782 253.563 342.868 252.196 343.849C250.864 344.831 249.182 345.549 247.36 346.233C245.555 346.864 243.592 347.354 241.577 347.389C240.578 347.407 239.561 347.337 238.58 347.074C238.089 346.934 237.599 346.794 237.143 346.583L236.968 346.513L236.565 346.32L235.811 345.9C235.356 345.742 234.62 344.953 234.637 345.9L234.182 347.582L233.884 348.423C233.673 348.896 233.463 349.37 233.2 349.825C232.692 350.719 232.079 351.56 231.413 352.314C230.046 353.803 228.416 354.995 226.752 355.906C225.928 356.362 225.069 356.747 224.228 357.062C223.404 357.36 222.581 357.571 221.757 357.693C220.11 357.956 218.498 357.921 217.061 357.763C212.978 357.308 210.437 355.853 209.105 355.17C209.035 355.52 208.982 355.871 208.947 356.204C209.21 356.414 209.526 356.642 209.911 356.905C211.366 357.834 213.679 358.92 216.763 359.463C218.305 359.726 220.11 359.656 221.985 359.446C222.914 359.358 223.878 359.148 224.859 358.832C225.788 358.499 226.734 358.131 227.663 357.641C229.52 356.694 231.343 355.415 232.937 353.733C233.726 352.892 234.444 351.928 235.04 350.877C235.356 350.351 235.601 349.79 235.846 349.229L236.127 348.458L236.32 348.546C236.898 348.809 237.494 348.984 238.089 349.142C239.281 349.44 240.49 349.527 241.647 349.492C243.977 349.422 246.133 348.826 248.06 348.09C249.024 347.705 249.935 347.302 250.794 346.846C251.67 346.39 252.529 345.865 253.248 345.286C254.72 344.13 256.069 342.833 256.98 341.571C258.803 339.013 259.644 336.595 259.994 334.895C260.064 334.544 260.099 334.264 260.134 334.001C259.889 333.756 259.626 333.528 259.363 333.3L259.381 333.283Z" fill="#76262C"/>
<path d="M244.995 413.243C232.798 414.732 210.894 414.872 199.485 414.943C197.856 414.242 196.682 413.926 196.384 413.803C199.082 413.593 201.641 413.383 201.939 413.348C213.364 411.858 236.058 407.915 251.601 401.537C264.254 396.35 276.135 388.131 277.361 386.922C272.35 393.686 247.308 412.261 244.995 413.243Z" fill="#BE5C3F"/>
<path d="M299.319 369.065C305.733 372.657 313.549 373.674 320.681 371.851C324.939 370.765 328.9 368.645 332.247 365.806C329.513 371.816 325.255 378.756 320.874 385.538C317.439 384.504 314.092 383.224 310.973 381.454C305.943 378.598 301.51 374.392 299.319 369.048V369.065Z" fill="#9C3D39"/>
<path d="M331.002 333.247C331.685 338.118 333.227 342.955 334.261 347.844C333.455 348.089 332.649 348.3 331.825 348.492C317.438 351.769 309.482 349.456 303.034 345.601C301.527 344.707 301.667 343.743 303.419 343.673C315.668 343.113 327.549 340.659 330.984 333.247H331.002Z" fill="#9C3D39"/>
<path d="M121.171 340.273C114.232 340.361 107.064 343.042 100.388 345.53C105.645 337.855 110.639 329.479 120.645 327.095C117.368 325.466 113.478 324.519 110.254 324.73C111.673 324.256 120.312 316.038 132.456 320.874C133.14 321.33 133.14 322.784 133.105 323.03C131.755 329.461 127.006 340.519 124.781 345.197C122.38 346.81 115.563 351.524 113.776 355.677C113.776 348.807 113.688 345.338 121.153 340.273H121.171Z" fill="#FFD7AB"/>
<path d="M278.974 288.28C281.357 288.771 283.67 289.454 285.212 290.085C284.353 288.56 283.407 285.914 282.654 283.549C286.421 279.746 291.556 277.117 298.372 276.276C299.582 278.537 300.773 281.008 301.72 283.373C302.473 280.85 303.682 278.204 304.839 275.961C310.779 276.031 317.018 277.082 322.415 279.378C321.749 282.515 321.083 285.792 320.698 288.157C323.905 285.056 327.147 283.934 329.495 283.531C330.301 284.162 331.107 284.828 331.913 285.564C333.175 287.018 334.314 288.56 335.295 290.225C337.959 294.711 335.155 296.113 332.439 298.952C328.899 302.65 326.323 308.152 323.484 312.393C321.557 315.267 319.576 318.228 316.685 320.209C314.494 320.664 299.266 320.822 296.41 320.857C290.522 318.298 289.085 311.184 284.774 306.54C279.71 301.073 276.363 300.792 274.855 298.637C275.732 294.887 277.063 291.364 278.974 288.245V288.28Z" fill="#FFC281"/>
<path d="M318.035 307.574C316.738 301.038 303.122 292.223 297.024 299.32C294.15 302.667 291.697 309.449 297.252 311.359C302.702 313.217 318.736 311.149 318.035 307.591V307.574Z" fill="#FF836F"/>
<path d="M308.519 288.718C308.134 288.333 307.871 287.86 307.643 287.369C306.924 285.792 306.591 284.057 306.644 282.34C306.679 281.446 306.837 280.517 307.468 279.869C309.974 277.293 316.422 280.272 316.475 283.584C316.527 286.738 311.638 291.873 308.502 288.736L308.519 288.718Z" fill="#FF836F"/>
<path d="M330.371 293.625C329.863 294.449 328.864 294.922 327.883 295.044C326.901 295.185 325.902 295.044 324.903 294.887C324.395 294.817 323.887 294.729 323.431 294.501C322.976 294.273 322.59 293.888 322.503 293.397C322.433 292.942 322.643 292.468 322.976 292.135C323.291 291.802 323.712 291.557 324.132 291.312C325.079 290.769 326.043 290.225 327.129 290.05C329.109 289.717 331.668 291.522 330.371 293.607V293.625Z" fill="#FF836F"/>
<path d="M298.303 286.948C298.425 287.754 298.495 288.561 298.303 289.349C298.127 290.138 297.637 290.891 296.901 291.242C296.112 291.61 295.148 291.487 294.36 291.119C293.571 290.751 292.923 290.155 292.292 289.559C291.398 288.718 290.487 287.895 289.593 287.054C288.98 286.493 288.331 285.827 288.349 285.021C288.367 283.917 289.558 283.233 290.574 282.778C291.591 282.322 292.607 281.866 293.606 281.411C294.097 281.183 294.622 280.955 295.166 280.903C297.707 280.622 298.04 285.284 298.303 286.966V286.948Z" fill="#FF836F"/>
<path d="M286.035 296.797C286.438 297.27 286.824 297.954 286.491 298.479C286.193 298.952 285.492 298.987 284.914 298.952C283.757 298.9 282.601 298.847 281.427 298.795C280.445 298.742 279.411 298.69 278.64 298.111C277.782 297.463 277.466 296.271 277.712 295.255C278.938 290.296 284.213 294.677 286.035 296.815V296.797Z" fill="#FF836F"/>
<path d="M265.148 256.474C247.589 254.442 238.266 264.57 237.671 264.413C236.426 260.54 244.154 249.149 244.575 248.483C254.704 248.799 263.799 255.107 265.165 256.474H265.148Z" fill="#9C3D39"/>
<path d="M152.539 282.235C155.483 281.656 167.276 285.967 169.677 289.367C166.155 289.928 153.748 292.153 141.411 304.823C143.339 294.817 149.893 283.006 152.539 282.217V282.235Z" fill="#9C3D39"/>
<path d="M168.153 428.138C166.979 425.912 154.537 412.594 148.386 410.947C140.763 408.914 132.877 409.51 127.427 411.631C117.596 415.468 112.602 427.823 112.97 431.748C113.531 437.583 114.652 445.697 117.982 446.45C125.359 446.31 150.033 441.701 154.186 439.791C158.339 437.881 156.605 429.084 156.605 429.084L168.153 428.138Z" fill="#922E30"/>
<path d="M149.736 428.979C150.297 430.381 149.736 434.534 149.596 435.165C149.175 437.233 147.335 439.09 146.687 439.231C137.574 441.298 123.012 443.787 117.632 443.892C114.303 443.138 109.011 439.353 108.467 433.518C108.099 429.592 117.615 415.486 127.428 411.648C132.861 409.528 140.764 408.932 148.387 410.965C149.228 411.192 150.192 411.648 151.191 412.261C151.401 417.098 150.034 425.387 149.754 428.997L149.736 428.979Z" fill="url(#paint15_linear_2061_2)"/>
<path opacity="0.88" d="M127.411 411.63C132.843 409.51 140.746 408.914 148.369 410.947C149 411.122 149.701 411.438 150.419 411.823C149.456 417.028 141.745 426.158 139.134 426.929C130.582 430.03 119.244 432.817 111.639 431.853C109.431 431.573 117.597 415.486 127.428 411.648L127.411 411.63Z" fill="url(#paint16_linear_2061_2)"/>
<path d="M135.331 423.371L134.858 428.576C134.858 428.576 135.191 437.303 135.962 439.09C134.438 436.795 132.054 429.925 132.16 428.383C132.247 426.841 135.331 423.371 135.331 423.371Z" fill="#922E30"/>
<path d="M119.753 425.054C119.753 425.054 119.49 430.854 119.63 431.818C119.998 434.271 122.767 442.192 122.767 442.192C122.767 442.192 118.789 438.337 116.844 431.941C117.124 428.559 119.753 425.054 119.753 425.054Z" fill="#922E30"/>
<path d="M255.719 357.937C255.018 356.238 251.496 355.239 251.268 355.239C251.041 355.239 250.865 359.62 250.83 360.829C250.795 362.038 256.14 358.989 255.719 357.937Z" fill="white"/>
<path d="M230.888 370.275C230.432 367.944 231.606 365.07 231.904 365.158C232.202 365.228 235.619 367.664 236.303 368.487C237.407 369.819 231.098 371.361 230.87 370.292L230.888 370.275Z" fill="white"/>
<defs>
<linearGradient id="paint0_linear_2061_2" x1="503.543" y1="-92.2552" x2="-277.214" y2="221.12" gradientUnits="userSpaceOnUse">
<stop offset="0.192748" stop-color="#7364A7"/>
<stop offset="0.446562" stop-color="#B68AC6"/>
<stop offset="0.766553" stop-color="#CE8CB0"/>
<stop offset="0.94702" stop-color="#FFB6B0"/>
</linearGradient>
<linearGradient id="paint1_linear_2061_2" x1="420.706" y1="382.209" x2="628.76" y2="169.755" gradientUnits="userSpaceOnUse">
<stop stop-color="white" stop-opacity="0"/>
<stop offset="1" stop-color="#8F2471" stop-opacity="0.5"/>
</linearGradient>
<radialGradient id="paint2_radial_2061_2" cx="0" cy="0" r="1" gradientUnits="userSpaceOnUse" gradientTransform="translate(205.581 388.262) rotate(180) scale(247.361 248.465)">
<stop stop-color="#FA7C30"/>
<stop offset="0.23" stop-color="#F66B36"/>
<stop offset="0.55" stop-color="#F3593D"/>
<stop offset="0.64" stop-color="#ED563C"/>
<stop offset="0.76" stop-color="#DD4F39"/>
<stop offset="0.9" stop-color="#C24336"/>
<stop offset="1" stop-color="#AB3933"/>
</radialGradient>
<linearGradient id="paint3_linear_2061_2" x1="283.425" y1="213.015" x2="266.602" y2="258.139" gradientUnits="userSpaceOnUse">
<stop stop-color="#76262C"/>
<stop offset="0.18" stop-color="#7B292C"/>
<stop offset="0.41" stop-color="#8B352C"/>
<stop offset="0.67" stop-color="#A6472D"/>
<stop offset="0.95" stop-color="#CB612D"/>
<stop offset="1" stop-color="#D3672E"/>
</linearGradient>
<linearGradient id="paint4_linear_2061_2" x1="273.594" y1="260.592" x2="291.977" y2="226.859" gradientUnits="userSpaceOnUse">
<stop stop-color="#FFE499"/>
<stop offset="0.26" stop-color="#FFD689"/>
<stop offset="0.76" stop-color="#FFB25F"/>
<stop offset="1" stop-color="#FFA04A"/>
</linearGradient>
<linearGradient id="paint5_linear_2061_2" x1="182.277" y1="250.429" x2="219.129" y2="341.605" gradientUnits="userSpaceOnUse">
<stop offset="0.06" stop-color="#FE9128"/>
<stop offset="0.3" stop-color="#FE8B2A"/>
<stop offset="0.61" stop-color="#FE7B30"/>
<stop offset="0.97" stop-color="#FE603A"/>
<stop offset="0.99" stop-color="#FF5E3B"/>
</linearGradient>
<linearGradient id="paint6_linear_2061_2" x1="80.2804" y1="324.315" x2="132.647" y2="332.093" gradientUnits="userSpaceOnUse">
<stop stop-color="#76262C"/>
<stop offset="0.18" stop-color="#7B292C"/>
<stop offset="0.41" stop-color="#8B352C"/>
<stop offset="0.67" stop-color="#A6472D"/>
<stop offset="0.95" stop-color="#CB612D"/>
<stop offset="1" stop-color="#D3672E"/>
</linearGradient>
<linearGradient id="paint7_linear_2061_2" x1="259.908" y1="449.535" x2="253.879" y2="402.571" gradientUnits="userSpaceOnUse">
<stop stop-color="white"/>
<stop offset="0.02" stop-color="#FDFAF8"/>
<stop offset="0.39" stop-color="#E9B099"/>
<stop offset="0.68" stop-color="#DA7B53"/>
<stop offset="0.89" stop-color="#D15927"/>
<stop offset="1" stop-color="#CE4D17"/>
</linearGradient>
<linearGradient id="paint8_linear_2061_2" x1="259.93" y1="316.43" x2="246.612" y2="299.87" gradientUnits="userSpaceOnUse">
<stop stop-color="#FDA80D"/>
<stop offset="0.99" stop-color="#AE1702"/>
</linearGradient>
<linearGradient id="paint9_linear_2061_2" x1="197.681" y1="346.354" x2="184.328" y2="329.742" gradientUnits="userSpaceOnUse">
<stop stop-color="#FDA80D"/>
<stop offset="0.99" stop-color="#AE1702"/>
</linearGradient>
<radialGradient id="paint10_radial_2061_2" cx="0" cy="0" r="1" gradientUnits="userSpaceOnUse" gradientTransform="translate(222.477 341.342) scale(80.2417 80.2417)">
<stop offset="0.19" stop-color="#FFEBD6"/>
<stop offset="0.33" stop-color="#FFE2C4"/>
<stop offset="0.57" stop-color="#FFD8AE"/>
<stop offset="0.8" stop-color="#FFD2A0"/>
<stop offset="1" stop-color="#FFD09C"/>
</radialGradient>
<linearGradient id="paint11_linear_2061_2" x1="278.659" y1="209.861" x2="195.858" y2="412.226" gradientUnits="userSpaceOnUse">
<stop stop-color="white"/>
<stop offset="0.26" stop-color="#F3D4C7"/>
<stop offset="0.62" stop-color="#E49F82"/>
<stop offset="0.87" stop-color="#DB7D56"/>
<stop offset="1" stop-color="#D87146"/>
</linearGradient>
<linearGradient id="paint12_linear_2061_2" x1="320.155" y1="279.974" x2="278.973" y2="391.198" gradientUnits="userSpaceOnUse">
<stop stop-color="#FE9128"/>
<stop offset="0.05" stop-color="#FC8A2A"/>
<stop offset="0.26" stop-color="#F76F34"/>
<stop offset="0.45" stop-color="#F45E3A"/>
<stop offset="0.6" stop-color="#F3593D"/>
<stop offset="0.67" stop-color="#ED563C"/>
<stop offset="0.76" stop-color="#DD4F3A"/>
<stop offset="0.86" stop-color="#C24336"/>
<stop offset="0.97" stop-color="#9D3331"/>
<stop offset="1" stop-color="#932F30"/>
</linearGradient>
<linearGradient id="paint13_linear_2061_2" x1="131.721" y1="338.609" x2="87.7884" y2="332.984" gradientUnits="userSpaceOnUse">
<stop stop-color="#FFE499"/>
<stop offset="0.26" stop-color="#FFD689"/>
<stop offset="0.76" stop-color="#FFB25F"/>
<stop offset="1" stop-color="#FFA04A"/>
</linearGradient>
<linearGradient id="paint14_linear_2061_2" x1="243.013" y1="367.051" x2="235.583" y2="346.391" gradientUnits="userSpaceOnUse">
<stop stop-color="#C83B28"/>
<stop offset="1" stop-color="#94223F"/>
</linearGradient>
<linearGradient id="paint15_linear_2061_2" x1="126.114" y1="403.184" x2="132.335" y2="436.514" gradientUnits="userSpaceOnUse">
<stop stop-color="#BD552D"/>
<stop offset="0.45" stop-color="#BD4F2E"/>
<stop offset="0.99" stop-color="#BD4134"/>
<stop offset="1" stop-color="#BD4134"/>
</linearGradient>
<linearGradient id="paint16_linear_2061_2" x1="133.824" y1="433.237" x2="129.671" y2="417.01" gradientUnits="userSpaceOnUse">
<stop stop-color="#FE9128"/>
<stop offset="0.01" stop-color="#FE9028"/>
<stop offset="0.66" stop-color="#FE6B35"/>
<stop offset="1" stop-color="#FF5E3B"/>
</linearGradient>
</defs>
</svg>
