<svg width="1321" height="987" viewBox="0 0 1321 987" fill="none" xmlns="http://www.w3.org/2000/svg">
<path d="M1321 972V0C1273.21 47.6743 1139.25 33.4484 985.674 31.1509C793.707 28.2789 650.348 196 589.435 432.074C528.523 668.148 372.858 637.131 232.575 659.532C120.348 677.453 30.7639 875.311 0 972H1321Z" fill="url(#paint0_linear_1_12)"/>
<rect x="1204" y="248" width="564" height="564" rx="282" transform="rotate(90 1204 248)" fill="url(#paint1_linear_1_12)"/>
<path d="M610.293 960.975C607.01 963.198 534.733 1004.16 514.025 977.643C493.317 951.126 480.235 931.226 480.235 931.226L514.833 887.891L671.357 827.635L610.243 960.975H610.293Z" fill="#932F30"/>
<path d="M948.112 971.949C951.543 962.118 953.864 953.148 954.671 945.445C959.716 899.581 949.777 828.581 935.347 770.402L884.592 703C834.391 728.339 780.507 745.468 725.917 752.057C710.226 753.932 694.535 754.742 678.895 754.692C653.87 795.184 636.161 840.135 628.038 887.266C623.245 915.088 622.337 943.722 623.396 972H948.112V971.949Z" fill="url(#paint2_radial_1_12)"/>
<path d="M668.214 972H957.78C957.982 971.544 958.235 971.038 958.437 970.583C958.639 971.038 958.841 971.544 959.043 972H967.786C969.352 913.436 962.277 871.676 948.229 834.675C944.742 812.859 940.244 790.942 935.191 770.644L896.278 719.116C889.305 715.927 881.876 714.257 874.144 715.32C865.654 716.433 857.922 720.736 850.393 724.886C782.271 762.9 714.201 800.913 646.079 838.876C639.611 842.47 632.081 913.739 633.092 916.473C645.473 941.731 658.915 951.5 668.113 971.949L668.214 972Z" fill="#FFD09C"/>
<path d="M753.483 349.325C757.877 324.677 771.161 300.181 792.728 283.716C820.255 262.654 859.954 257.148 890.359 269.523C920.765 281.897 940.716 311.192 941.069 342.608C941.221 359.477 936.12 376.751 926.624 391.954C911.27 416.551 884.299 435.391 854.802 442.108C827.831 448.27 788.384 444.886 768.383 427.612C748.735 410.692 749.291 372.912 753.483 349.325Z" fill="url(#paint3_linear_1_12)"/>
<path d="M822.678 347.962C831.82 326.597 848.589 307.909 870.257 299.373C878.136 296.292 886.621 294.676 895.107 294.625C915.31 307.758 927.937 329.981 928.189 353.619C928.341 368.721 923.745 384.226 915.158 397.864C901.37 419.935 877.328 441.149 850.862 447.159C843.437 448.826 834.699 445.391 826.012 445.391C805.859 417.966 807.981 382.358 822.628 347.962H822.678Z" fill="url(#paint4_linear_1_12)"/>
<path d="M808.234 426.855C809.042 424.43 803.385 394.328 802.981 393.671C821.467 348.669 862.379 348.012 867.126 345.183C858.388 353.568 850.812 366.447 846.469 379.226C877.784 357.204 911.068 362.912 943.292 366.195C913.947 376.65 893.138 389.176 877.48 411.197C908.947 402.409 919.301 407.561 936.07 423.521C915.866 422.966 883.895 445.795 874.147 453.068C852.63 445.543 809.648 454.23 802.426 451.503C802.426 444.633 807.123 432.006 808.234 426.905V426.855Z" fill="#FFD7AB"/>
<path d="M955.362 600.248C917.077 642.473 867.731 676.616 822.072 704.092C747.927 748.64 665.346 769.045 581.15 784.299C546.198 790.612 510.893 795.865 475.386 799.805C459.375 783.743 444.98 763.742 431.747 739.145C387.553 657.12 396.695 549.336 445.789 471.302C467.204 437.31 524.328 399.328 553.168 371.65C582.816 343.214 591.1 327.607 591.554 311.646C597.262 318.667 602.969 325.688 608.676 332.658C607.464 323.465 607.464 311.646 613.828 298.716C615.697 324.223 639.082 343.416 663.124 350.335C687.166 357.255 712.622 355.184 737.471 357.255C791.616 361.75 844.043 386.903 882.429 426.653C920.765 466.453 944.705 520.547 948.544 576.156L955.413 600.248H955.362Z" fill="url(#paint5_linear_1_12)"/>
<path d="M404.575 648.231L416.495 624.34C416.495 624.34 452.153 624.34 500.439 655.403C470.286 651.968 426.546 659.494 406.494 663.484C405.686 658.433 405.029 653.332 404.524 648.231H404.575Z" fill="#9C3D39"/>
<path d="M537.26 683.031C507.157 728.488 468.115 744.246 434.982 744.953C434.628 744.347 432.002 739.802 431.648 739.145C422.759 722.629 416.041 705.002 411.344 686.819C435.689 677.98 489.278 663.333 537.21 682.98L537.26 683.031Z" fill="#9C3D39"/>
<path d="M876.419 564.64C884.652 450.341 853.085 393.57 796.314 404.783C730.098 417.864 730.048 520.395 743.432 594.036C756.817 667.676 876.419 564.64 876.419 564.64Z" fill="#FFAE7A"/>
<path d="M874.955 558.68C878.894 503.172 873.288 461.958 860.105 434.482C864.348 425.996 868.086 419.632 870.712 415.541C874.702 419.127 878.642 422.865 882.379 426.754C920.715 466.554 944.656 520.648 948.494 576.257L955.363 600.349C945.615 611.108 935.16 621.31 924.2 631.058C889.147 621.815 857.782 605.097 840.256 585.248C860.106 571.711 874.955 558.731 874.955 558.731V558.68Z" fill="#9C3D39"/>
<path d="M862.985 556.357C869.601 455.897 853.944 419.986 800.911 426.451C737.119 434.178 739.241 518.274 750.504 580.651C761.818 643.079 862.985 556.357 862.985 556.357Z" fill="#76262C"/>
<path d="M854.651 560.246C861.621 465.695 839.902 429.178 792.374 437.158C735.048 446.805 737.725 521.759 749.039 582.672C760.353 643.584 854.651 560.246 854.651 560.246Z" fill="#FDE7EA"/>
<path d="M781.617 449.533C771.111 451.301 762.626 455.291 755.858 460.948C737.372 490.091 741.059 539.841 749.039 582.671C758.03 631.058 819.296 588.48 844.196 568.883C850.307 477.161 828.589 441.654 781.667 449.533H781.617Z" fill="white"/>
<path d="M548.776 694.345C462.104 626.614 460.134 542.518 512.208 518.88C577.818 489.131 636.609 568.883 671.964 635.958C707.32 702.981 548.826 694.345 548.826 694.345H548.776Z" fill="#FFAE7A"/>
<path d="M557.26 678.182C517.914 648.079 493.923 611.36 492.812 586.106C491.953 566.509 506.398 551.508 524.884 542.164C581.958 513.375 630.799 578.883 659.892 634.493C688.984 690.102 557.209 678.182 557.209 678.182H557.26Z" fill="#76262C"/>
<path d="M566.453 678.182C494.731 622.775 495.893 565.953 538.32 545.952C595.141 519.132 634.183 580.702 662.316 635.149C690.5 689.596 566.453 678.182 566.453 678.182Z" fill="#FDE7EA"/>
<path d="M598.373 550.094C584.686 545.296 569.685 545.599 553.169 553.377C512.561 572.52 509.833 625.503 572.715 678.637C597.464 680.102 686.661 682.172 662.316 635.15C645.396 602.471 624.587 567.267 598.373 550.094Z" fill="white"/>
<path d="M448.77 555.953C430.688 524.183 357.3 506.152 323.056 529.234C288.104 552.821 271.79 606.966 286.286 650.857C290.023 662.07 295.68 672.828 304.065 680.051C314.924 689.395 329.318 691.819 342.703 690.001C356.088 688.182 368.765 682.475 381.291 676.869C392.15 671.969 405.484 664.545 418.01 655.049C418.01 655.049 456.295 569.135 448.77 555.902V555.953Z" fill="url(#paint6_linear_1_12)"/>
<path style="mix-blend-mode:multiply" opacity="0.54" d="M941.07 795.41L896.421 718.84C889.451 715.658 882.026 713.992 874.298 715.052C865.813 716.163 858.085 720.457 850.56 724.598C782.475 762.53 714.441 800.461 646.356 838.342C645.245 838.948 642.77 838.696 639.639 838.14C636.861 846.726 634.386 855.414 632.265 864.151C788.384 848.545 939.605 879.354 967.687 929.913C967.536 893.8 949.706 836.271 941.019 795.41H941.07Z" fill="url(#paint7_linear_1_12)"/>
<path d="M795.9 584.147C817.184 578.88 830.167 557.357 824.9 536.074C819.633 514.79 798.11 501.807 776.827 507.074C755.543 512.341 742.56 533.864 747.827 555.147C753.094 576.431 774.617 589.414 795.9 584.147Z" fill="url(#paint8_linear_1_12)"/>
<path d="M758.484 545.599C758.484 561.004 770.96 573.479 786.365 573.479C801.77 573.479 814.245 561.004 814.245 545.599C814.245 530.194 801.77 517.719 786.365 517.719C770.96 517.719 758.484 530.194 758.484 545.599Z" fill="#76262C"/>
<g style="mix-blend-mode:overlay" opacity="0.35">
<path d="M750.251 562.014C758.585 550.448 771.768 545.296 781.718 550.498C792.173 556.003 795.254 571.004 789.243 585.147C788.284 585.197 787.324 585.298 786.364 585.298C770.303 585.298 756.514 575.752 750.251 562.014Z" fill="white"/>
</g>
<path d="M567.109 631.513C567.109 653.433 584.888 671.212 606.809 671.212C628.729 671.212 647.013 653.837 647.013 631.866C647.013 625.452 644.993 619.037 642.316 613.683C635.8 600.703 622.365 591.763 606.809 591.763C584.888 591.763 567.109 609.542 567.109 631.462V631.513Z" fill="url(#paint9_linear_1_12)"/>
<path d="M578.929 631.512C578.929 646.917 591.404 659.393 606.809 659.393C622.214 659.393 634.689 646.917 634.689 631.512C634.689 616.108 622.214 603.632 606.809 603.632C591.404 603.632 578.929 616.108 578.929 631.512Z" fill="#76262C"/>
<g style="mix-blend-mode:overlay" opacity="0.35">
<path d="M570.695 647.978C579.029 636.412 592.211 631.26 602.162 636.462C612.617 641.967 615.698 656.968 609.687 671.111C608.728 671.161 607.768 671.262 606.808 671.262C590.747 671.262 576.958 661.716 570.695 647.978Z" fill="white"/>
</g>
<path d="M948.494 576.156C946.675 549.791 936.624 519.435 926.371 495.141C894.804 510.293 783.333 574.287 726.613 624.037C726.613 624.037 612.566 651.614 526.854 678.485C506.651 684.798 482.407 699.395 482.407 699.395C478.366 702.223 474.881 704.951 471.649 707.476C453.112 722.275 437.96 731.77 429.323 730.609C431.849 732.376 440.89 738.336 450.183 739.599C439.778 743.539 430.788 744.296 425.535 744.448C422.202 744.751 418.818 744.902 415.434 744.801C423.969 754.095 433.97 761.974 444.981 768.086C438.768 770.055 431.899 769.702 425.939 767.176C451.85 797.077 485.488 820.008 522.561 833.796C550.997 847.484 584.13 853.545 623.728 853.393C675.852 849.858 751.058 836.877 792.475 822.584C809.85 810.108 839.851 789.198 867.529 768.793C908.895 728.336 943.645 681.212 948.594 666.868C980.515 574.236 948.443 576.206 948.443 576.206L948.494 576.156Z" fill="url(#paint10_radial_1_12)"/>
<path d="M527.208 677.626C569.584 664.343 620.395 649.342 657.518 641.513C658.326 644.342 659.033 647.271 659.589 650.251C592.464 663.787 522.157 682.374 508.772 685.556C511.197 683.99 521.601 679.394 527.208 677.626Z" fill="#E99667"/>
<path d="M853.59 539.538C874.551 527.921 888.744 522.618 903.391 517.062C907.078 515.698 910.412 514.486 913.341 513.425C916.271 512.415 918.897 511.708 920.968 511.001C925.16 509.637 927.433 508.778 927.382 508.576C927.332 508.324 924.907 508.728 920.564 509.637C918.392 510.142 915.715 510.647 912.684 511.455C909.654 512.364 906.27 513.425 902.482 514.587C887.431 519.537 871.268 523.123 850.156 534.84C809.042 557.62 777.626 584.894 774.242 587.722C770.808 590.5 776.364 592.066 776.616 592.167C778.435 589.793 796.314 573.075 853.59 539.538Z" fill="#E99667"/>
<path style="mix-blend-mode:multiply" opacity="0.25" d="M910.411 614.34C911.168 666.11 872.732 713.386 827.982 731.619C800.102 759.499 773.029 788.794 773.029 788.794C773.029 788.794 727.118 776.521 704.439 785.713C616.505 821.523 472.76 788.794 417.151 744.751C416.595 744.751 415.989 744.751 415.434 744.751C423.969 754.045 433.97 761.924 444.981 768.035C438.768 770.005 431.899 769.652 425.939 767.126C451.85 797.027 485.488 819.957 522.561 833.746C550.997 847.434 584.13 853.495 623.728 853.343C663.579 850.616 716.915 842.383 758.382 832.281C773.635 828.19 785.151 824.857 790.454 823.19C790.656 823.139 790.859 823.038 791.061 822.988C792.121 822.382 793.283 821.725 794.546 821.018C812.173 808.442 840.912 788.39 867.479 768.742C908.845 728.336 943.544 681.263 948.494 666.868C948.494 666.818 948.494 666.716 948.544 666.666C949.403 664.191 950.211 661.817 950.968 659.443C951.221 658.635 951.474 657.878 951.726 657.12C952.231 655.453 952.736 653.837 953.241 652.271C953.494 651.463 953.746 650.655 953.948 649.897C954.555 647.928 955.11 646.008 955.615 644.139C955.918 643.028 956.221 641.968 956.474 640.907C956.676 640.048 956.928 639.24 957.13 638.382C957.433 637.169 957.737 635.957 958.04 634.796C958.141 634.442 958.191 634.088 958.292 633.735C958.949 630.957 959.504 628.331 960.009 625.805L910.36 614.39L910.411 614.34Z" fill="url(#paint11_linear_1_12)"/>
<path d="M777.778 588.227C782.526 586.965 740.453 554.791 722.018 558.175C703.532 561.559 664.742 578.126 655.297 593.177C649.64 602.218 645.195 627.724 645.094 640.654C644.993 649.241 647.115 649.342 650.953 646.21C660.499 638.331 719.24 603.784 777.778 588.278V588.227Z" fill="#FE9E2E"/>
<path opacity="0.3" d="M739.341 600.854C731.815 578.075 717.572 565.802 710.804 561.054C714.996 559.741 718.834 558.731 722.016 558.175C740.502 554.791 782.525 586.965 777.777 588.227C764.797 591.662 751.816 596.056 739.341 600.854Z" fill="white"/>
<path d="M730.401 594.945C736.715 592.672 763.282 583.328 775.858 585.651C780.808 586.56 781.111 597.066 775.555 600.501C726.108 620.3 733.23 627.068 735.351 637.927C730.603 639.846 725.603 642.523 721.007 644.746C712.774 636.715 704.289 628.229 659.589 650.301C653.478 653.332 648.679 651.413 646.558 644.594C644.184 637.068 695.45 607.673 730.401 594.995V594.945Z" fill="#76262C"/>
<path opacity="0.16" d="M659.59 650.251C653.478 653.281 648.68 651.362 646.558 644.544C645.397 640.756 657.67 631.513 674.641 621.562C687.268 624.29 698.733 629.593 704.946 636.26C696.208 635.553 682.823 638.735 659.59 650.251Z" fill="white"/>
<path d="M780.202 587.066C779.394 585.601 778.031 584.288 776.162 583.934C774.647 583.631 772.98 583.53 771.212 583.53C764.141 583.53 755.252 585.5 747.372 587.672C739.493 589.844 732.624 592.268 729.796 593.278C712.573 599.541 691.561 609.744 674.742 619.492C666.358 624.341 658.984 629.088 653.731 633.18C651.054 635.25 648.933 637.119 647.417 638.836C645.902 640.604 644.841 642.069 644.791 643.988L644.942 645.049C645.751 647.625 646.963 649.696 648.579 651.16C650.195 652.625 652.266 653.383 654.438 653.383C656.357 653.383 658.378 652.827 660.448 651.817C681.611 641.362 694.541 637.877 702.774 637.877C707.32 637.877 710.451 638.887 713.078 640.352C715.654 641.816 717.724 643.837 719.896 645.907C720.401 646.413 721.209 646.564 721.866 646.211C726.462 643.988 731.462 641.311 736.109 639.442C736.867 639.139 737.321 638.331 737.17 637.473C736.513 634.24 735.554 631.563 735.554 629.189C735.554 627.674 735.857 626.26 736.867 624.593C738.332 622.118 741.564 619.088 747.726 615.401C753.888 611.714 763.03 607.37 776.263 602.067L776.515 601.915C780.001 599.743 781.415 595.703 781.465 592.066C781.465 590.248 781.112 588.48 780.304 586.965L780.202 587.066ZM774.697 598.935C757.07 606.006 746.564 611.411 740.352 616.108C737.22 618.482 735.149 620.654 733.836 622.825C732.523 624.997 732.018 627.169 732.018 629.189C732.018 631.917 732.776 634.392 733.382 636.816C729.341 638.533 725.199 640.655 721.411 642.523C719.492 640.705 717.421 638.786 714.795 637.271C711.714 635.503 707.875 634.341 702.825 634.341C693.582 634.341 680.349 638.079 658.933 648.635C657.216 649.494 655.751 649.847 654.488 649.847C653.074 649.847 651.963 649.443 650.953 648.534C649.943 647.625 648.983 646.11 648.327 643.988C648.327 643.988 648.731 642.574 650.094 641.16C652.418 638.584 656.812 635.048 662.57 631.21C679.793 619.593 708.885 604.592 731.109 596.561C733.887 595.551 740.655 593.177 748.383 591.005C756.11 588.884 764.848 587.015 771.313 587.015C772.929 587.015 774.394 587.116 775.606 587.369C776.212 587.47 776.768 587.874 777.223 588.733C777.677 589.591 777.98 590.803 777.98 592.167C777.98 594.844 776.818 597.723 774.748 598.986L774.697 598.935Z" fill="#602229"/>
<path d="M945.009 826.422C932.332 788.39 913.896 764.045 894.905 741.266C896.37 675.252 893.643 596.157 870.157 553.175C863.843 541.205 849.044 537.72 844.145 534.184C842.074 532.719 839.195 499.889 847.681 489.687C854.903 480.949 862.631 481.757 866.773 482.312C868.54 482.565 869.854 480.797 869.146 479.13C866.47 473.019 865.156 467.665 865.257 461.049C865.409 451.553 869.247 447.108 882.379 439.734C893.643 433.421 908.24 431.249 915.917 433.673C919.553 435.29 923.947 440.946 926.523 447.411C927.837 450.795 932.736 450.644 933.898 447.209C935.211 443.27 936.524 439.785 938.948 437.209C943.797 432.057 953.191 430.491 976.375 435.744C994.406 439.835 998.75 446.805 998.447 454.281C998.194 459.836 996.729 464.786 995.366 468.776C994.81 470.443 996.224 472.059 997.941 471.756C1000.57 471.251 1003.95 470.797 1007.54 470.645C1012.94 470.443 1019.21 472.16 1026.98 477.615C1033.7 482.312 1038.4 489.484 1040.27 497.465C1042.99 509.082 1042.09 513.274 1039.31 516.203C1035.22 518.223 1025.77 524.941 1019.46 538.073C1008.14 561.812 1010.32 568.479 1011.17 600.804C1011.88 628.684 1023.9 655.049 1025.27 682.93C1026.93 715.76 973.395 784.299 949.151 826.928C948.191 828.645 945.615 828.392 945.009 826.473V826.422Z" fill="url(#paint12_linear_1_12)"/>
<path d="M946.575 831.423C939.201 807.684 929.655 789.198 919.049 773.188C934.454 787.835 950.818 796.118 966.88 798.088C959 810.26 951.828 821.675 946.575 831.423Z" fill="#9C3D39"/>
<path d="M382.655 561.711C402.1 562.317 433.011 577.52 440.941 585.551C441.749 586.359 442.911 590.551 442.355 593.026C438.921 609.744 418.111 656.11 418.111 656.11C405.535 665.302 392.15 672.525 381.342 677.273C368.816 682.778 356.138 688.284 342.754 690.102C334.066 691.263 324.975 690.657 316.742 687.677C316.136 686.667 315.479 685.708 314.873 684.647C301.337 659.747 301.489 626.765 315.227 601.764C328.965 576.762 355.835 560.852 382.655 561.711Z" fill="url(#paint13_linear_1_12)"/>
<path d="M753.988 595.753C747.018 597.268 741.311 597.773 740.755 596.309C740.149 594.793 745.604 591.662 752.675 590.096C759.797 588.48 765.807 588.682 766.059 590.298C766.363 591.864 760.908 594.187 753.938 595.804L753.988 595.753Z" fill="#FEFEFE"/>
<path d="M802.627 528.123C808.569 528.123 813.386 523.306 813.386 517.365C813.386 511.423 808.569 506.606 802.627 506.606C796.686 506.606 791.869 511.423 791.869 517.365C791.869 523.306 796.686 528.123 802.627 528.123Z" fill="white"/>
<path d="M609.536 610.602C615.477 610.602 620.294 605.786 620.294 599.844C620.294 593.903 615.477 589.086 609.536 589.086C603.594 589.086 598.777 593.903 598.777 599.844C598.777 605.786 603.594 610.602 609.536 610.602Z" fill="white"/>
<path d="M705.905 432.562C698.632 407.611 695.804 381.398 697.319 355.437C710.653 356.194 724.138 356.144 737.473 357.255C740.655 357.508 743.887 357.861 747.069 358.265C741.362 364.276 736.26 370.892 731.765 377.862C720.906 394.883 713.38 413.773 705.905 432.512V432.562Z" fill="#9C3D39"/>
<path d="M556.251 368.619C583.323 342.102 591.101 327.051 591.506 311.697C597.213 318.717 602.92 325.738 608.628 332.708C607.415 323.515 607.416 311.697 613.779 298.767C614.588 309.828 619.436 319.677 626.659 327.91C631.306 348.971 639.387 369.68 644.842 390.489C650.65 412.763 655.852 435.239 660.398 457.866C661.055 461.048 656.863 462.766 655.044 460.038C631.104 424.582 599.385 394.428 562.666 372.458C560.544 371.195 558.423 369.932 556.302 368.568L556.251 368.619Z" fill="#9C3D39"/>
<path d="M459.578 453.573C474.023 437.714 493.469 421.501 512.106 406.349C539.936 413.521 567.311 436.855 583.474 458.826C543.977 444.634 500.136 442.866 459.578 453.573Z" fill="#9C3D39"/>
<g style="mix-blend-mode:screen" opacity="0.19">
<path d="M700.298 454.331C715.854 450.24 774.645 406.298 766.463 392.913C757.22 377.761 640.042 350.083 599.888 365.74C535.592 390.742 479.881 436.502 481.548 450.038C482.356 456.705 573.927 487.414 700.348 454.331H700.298Z" fill="#FFF64D"/>
</g>
<path d="M790.354 695.001C788.284 697.122 782.223 696.819 781.768 698.638C779.091 708.638 773.535 713.992 764.949 718.942C752.777 725.962 739.645 723.184 736.564 720.356C735.25 719.144 727.27 723.538 726.007 728.033C720.654 730.407 663.327 698.284 670.348 690.556C701.158 701.112 730.705 684.495 738.129 661.11C739.594 660.908 783.283 677.727 807.477 627.826C811.366 636.311 801.618 681.869 796.415 692.375C795.405 694.344 791.617 695.304 790.455 695.051L790.354 695.001Z" fill="url(#paint14_linear_1_12)"/>
<path d="M665.903 678.687C663.732 684.445 664.54 690.455 666.813 696.163C667.873 698.89 663.277 700.658 662.267 697.931C659.691 691.011 660.55 684.394 664.388 678.131C664.843 677.323 666.257 677.778 665.903 678.687Z" fill="#76262C"/>
<path d="M793.234 651.413C793.234 651.413 794.951 659.039 790.708 670.959C790.355 672.02 780.304 657.928 780.304 657.928L793.234 651.413Z" fill="white"/>
<path d="M699.542 693.183C699.542 693.183 703.684 699.799 715.048 705.153C716.058 705.608 713.23 688.486 713.23 688.486L699.542 693.183Z" fill="white"/>
<path d="M764.393 720.609C757.171 724.397 749.392 724.801 744.241 723.74C739.038 722.629 736.361 720.71 736.513 720.356C736.765 719.75 739.745 720.71 744.594 721.063C749.392 721.366 756.16 720.609 762.676 717.174C769.191 713.841 774.04 708.992 776.97 705.103C779.95 701.214 781.263 698.385 781.818 698.587C782.223 698.688 781.818 701.971 779.243 706.568C776.717 711.113 771.717 716.821 764.444 720.508L764.393 720.609Z" fill="#76262C"/>
<path d="M806.669 621.209C805.356 627.573 802.224 633.886 795.81 642.372C793.285 645.705 789.901 648.837 785.961 651.665C782.122 654.494 777.274 656.564 772.021 658.534C766.818 660.353 761.162 661.767 755.353 661.868C752.474 661.918 749.545 661.716 746.716 660.959C745.302 660.555 743.888 660.151 742.575 659.544L742.07 659.342L740.908 658.787L738.736 657.575C737.423 657.12 735.302 654.847 735.352 657.575L734.039 662.423L733.18 664.848C732.574 666.211 731.968 667.575 731.21 668.888C729.746 671.464 727.978 673.889 726.059 676.061C722.119 680.354 717.422 683.788 712.624 686.415C710.25 687.728 707.775 688.839 705.35 689.748C702.977 690.607 700.603 691.213 698.229 691.566C693.481 692.324 688.834 692.223 684.693 691.768C672.924 690.455 665.601 686.263 661.762 684.293C661.56 685.303 661.409 686.314 661.308 687.273C662.065 687.879 662.974 688.536 664.085 689.294C668.278 691.971 674.945 695.102 683.834 696.668C688.279 697.425 693.481 697.223 698.885 696.617C701.562 696.365 704.34 695.759 707.169 694.849C709.846 693.89 712.573 692.829 715.25 691.415C720.604 688.687 725.857 685 730.453 680.152C732.726 677.727 734.796 674.949 736.514 671.919C737.423 670.404 738.13 668.787 738.837 667.171L739.645 664.949L740.201 665.201C741.868 665.959 743.585 666.464 745.302 666.919C748.737 667.777 752.222 668.03 755.555 667.929C762.273 667.727 768.485 666.009 774.041 663.888C776.819 662.777 779.445 661.615 781.92 660.302C784.446 658.989 786.921 657.474 788.991 655.807C793.234 652.473 797.123 648.736 799.75 645.099C805.002 637.725 807.427 630.755 808.437 625.856C808.639 624.846 808.74 624.037 808.841 623.28C808.134 622.573 807.376 621.916 806.619 621.26L806.669 621.209Z" fill="#76262C"/>
<path d="M765.201 851.676C730.047 855.969 666.912 856.373 634.032 856.576C629.334 854.555 625.95 853.646 625.092 853.293C632.87 852.686 640.244 852.08 641.103 851.979C674.034 847.686 739.442 836.322 784.242 817.937C820.709 802.987 854.953 779.299 858.489 775.813C844.043 795.31 771.868 848.848 765.201 851.676Z" fill="#BE5C3F"/>
<path d="M921.775 724.346C940.261 734.7 962.788 737.63 983.344 732.377C995.618 729.245 1007.03 723.134 1016.68 714.952C1008.8 732.276 996.527 752.277 983.9 771.824C974.001 768.844 964.354 765.156 955.363 760.055C940.867 751.822 928.089 739.701 921.775 724.296V724.346Z" fill="#9C3D39"/>
<path d="M1013.09 621.108C1015.06 635.149 1019.51 649.089 1022.49 663.181C1020.17 663.888 1017.84 664.494 1015.47 665.05C974.001 674.495 951.071 667.828 932.484 656.716C928.14 654.14 928.544 651.362 933.595 651.16C968.9 649.544 1003.14 642.473 1013.04 621.108H1013.09Z" fill="#9C3D39"/>
<path d="M408.312 641.362C388.311 641.614 367.654 649.342 348.41 656.514C363.562 634.392 377.957 610.249 406.797 603.38C397.352 598.683 386.139 595.955 376.846 596.561C380.937 595.198 405.837 571.509 440.839 585.45C442.809 586.763 442.809 590.955 442.708 591.662C438.819 610.199 425.131 642.069 418.717 655.555C411.797 660.201 392.15 673.788 386.998 685.758C386.998 665.959 386.746 655.959 408.262 641.362H408.312Z" fill="#FFD7AB"/>
<path d="M863.136 491.505C870.005 492.919 876.672 494.889 881.117 496.707C878.642 492.313 875.914 484.686 873.743 477.867C884.602 466.907 899.401 459.331 919.048 456.907C922.533 463.422 925.968 470.544 928.695 477.362C930.867 470.089 934.352 462.463 937.686 455.998C954.808 456.2 972.789 459.23 988.345 465.847C986.426 474.888 984.506 484.332 983.395 491.151C992.638 482.211 1001.98 478.979 1008.75 477.817C1011.07 479.635 1013.4 481.555 1015.72 483.676C1019.36 487.868 1022.64 492.313 1025.47 497.111C1033.15 510.041 1025.06 514.082 1017.24 522.264C1007.03 532.921 999.608 548.78 991.426 561.003C985.87 569.287 980.163 577.823 971.829 583.53C965.515 584.843 921.624 585.298 913.391 585.399C896.421 578.025 892.279 557.518 879.854 544.134C865.257 528.375 855.61 527.567 851.267 521.355C853.792 510.546 857.631 500.394 863.136 491.404V491.505Z" fill="#FFC281"/>
<path d="M975.719 547.114C971.981 528.275 932.736 502.869 915.16 523.325C906.876 532.972 899.805 552.518 915.816 558.024C931.524 563.377 977.739 557.418 975.719 547.164V547.114Z" fill="#FF836F"/>
<path d="M948.292 492.768C947.181 491.657 946.423 490.293 945.766 488.879C943.696 484.333 942.736 479.333 942.888 474.383C942.989 471.807 943.443 469.13 945.261 467.261C952.484 459.837 971.071 468.423 971.222 477.969C971.374 487.06 957.282 501.859 948.241 492.818L948.292 492.768Z" fill="#FF836F"/>
<path d="M1011.28 506.91C1009.81 509.284 1006.93 510.648 1004.1 511.001C1001.27 511.405 998.396 511.001 995.517 510.547C994.052 510.345 992.588 510.092 991.274 509.435C989.961 508.779 988.85 507.668 988.597 506.253C988.395 504.94 989.001 503.577 989.961 502.617C990.87 501.657 992.082 500.95 993.295 500.243C996.022 498.677 998.8 497.112 1001.93 496.606C1007.64 495.647 1015.01 500.849 1011.28 506.86V506.91Z" fill="#FF836F"/>
<path d="M918.847 487.666C919.2 489.99 919.402 492.313 918.847 494.586C918.342 496.859 916.927 499.031 914.806 500.041C912.533 501.101 909.755 500.748 907.482 499.687C905.21 498.626 903.341 496.909 901.522 495.192C898.947 492.768 896.32 490.394 893.744 487.969C891.976 486.353 890.108 484.434 890.158 482.11C890.209 478.928 893.643 476.959 896.573 475.645C899.502 474.332 902.432 473.019 905.311 471.706C906.725 471.049 908.24 470.393 909.806 470.241C917.129 469.433 918.089 482.868 918.847 487.717V487.666Z" fill="#FF836F"/>
<path d="M883.49 516.052C884.652 517.416 885.763 519.385 884.804 520.901C883.945 522.264 881.925 522.365 880.258 522.264C876.924 522.113 873.591 521.961 870.207 521.81C867.378 521.658 864.398 521.507 862.176 519.84C859.701 517.971 858.792 514.537 859.499 511.607C863.035 497.313 878.238 509.94 883.49 516.102V516.052Z" fill="#FF836F"/>
<path d="M823.286 399.833C772.677 393.974 745.807 423.168 744.089 422.713C740.503 411.551 762.777 378.721 763.99 376.801C793.183 377.711 819.397 395.893 823.336 399.833H823.286Z" fill="#9C3D39"/>
<path d="M498.722 474.08C507.207 472.413 541.199 484.838 548.119 494.636C537.967 496.253 502.207 502.667 466.65 539.184C472.206 510.344 491.095 476.302 498.722 474.029V474.08Z" fill="#9C3D39"/>
<path d="M543.724 894.608C540.34 888.194 504.479 849.808 486.751 845.06C464.78 839.201 442.052 840.918 426.344 847.03C398.009 858.091 383.614 893.699 384.675 905.013C386.291 921.832 389.523 945.217 399.12 947.389C420.384 946.985 491.499 933.701 503.469 928.196C515.439 922.691 510.439 897.336 510.439 897.336L543.724 894.608Z" fill="#922E30"/>
<path d="M490.641 897.033C492.257 901.073 490.641 913.044 490.237 914.862C489.025 920.822 483.721 926.176 481.853 926.58C455.589 932.54 413.617 939.712 398.111 940.015C388.514 937.843 373.261 926.934 371.695 910.114C370.634 898.801 398.06 858.142 426.345 847.081C442.002 840.969 464.781 839.252 486.752 845.111C489.176 845.767 491.954 847.081 494.833 848.848C495.439 862.789 491.5 886.679 490.692 897.083L490.641 897.033Z" fill="url(#paint15_linear_1_12)"/>
<path opacity="0.88" d="M426.295 847.03C441.952 840.918 464.731 839.201 486.702 845.06C488.52 845.565 490.541 846.474 492.612 847.585C489.834 862.586 467.61 888.901 460.084 891.123C435.437 900.063 402.758 908.094 380.838 905.316C374.474 904.508 398.01 858.142 426.345 847.08L426.295 847.03Z" fill="url(#paint16_linear_1_12)"/>
<path d="M449.123 880.87L447.76 895.871C447.76 895.871 448.719 921.024 450.942 926.176C446.547 919.559 439.678 899.76 439.981 895.315C440.234 890.871 449.123 880.87 449.123 880.87Z" fill="#922E30"/>
<path d="M404.222 885.719C404.222 885.719 403.465 902.437 403.869 905.215C404.929 912.286 412.91 935.116 412.91 935.116C412.91 935.116 401.444 924.004 395.838 905.569C396.646 895.821 404.222 885.719 404.222 885.719Z" fill="#922E30"/>
<path d="M796.112 692.273C794.092 687.374 783.94 684.495 783.283 684.495C782.627 684.495 782.122 697.122 782.021 700.607C781.92 704.092 797.325 695.304 796.112 692.273Z" fill="white"/>
<path d="M724.542 727.831C723.229 721.114 726.613 712.83 727.472 713.083C728.33 713.285 738.179 720.305 740.149 722.679C743.331 726.518 725.148 730.963 724.492 727.882L724.542 727.831Z" fill="white"/>
<defs>
<linearGradient id="paint0_linear_1_12" x1="1366.75" y1="-197.081" x2="-294.096" y2="465.649" gradientUnits="userSpaceOnUse">
<stop offset="0.192748" stop-color="#7364A7"/>
<stop offset="0.446562" stop-color="#B68AC6"/>
<stop offset="0.766553" stop-color="#CE8CB0"/>
<stop offset="0.94702" stop-color="#FFB6B0"/>
</linearGradient>
<linearGradient id="paint1_linear_1_12" x1="1262.06" y1="760.576" x2="1753.07" y2="261.271" gradientUnits="userSpaceOnUse">
<stop stop-color="white" stop-opacity="0"/>
<stop offset="1" stop-color="#8F2471" stop-opacity="0.5"/>
</linearGradient>
<radialGradient id="paint2_radial_1_12" cx="0" cy="0" r="1" gradientUnits="userSpaceOnUse" gradientTransform="translate(651.6 779.676) rotate(-180) scale(712.952 716.134)">
<stop stop-color="#FA7C30"/>
<stop offset="0.23" stop-color="#F66B36"/>
<stop offset="0.55" stop-color="#F3593D"/>
<stop offset="0.64" stop-color="#ED563C"/>
<stop offset="0.76" stop-color="#DD4F39"/>
<stop offset="0.9" stop-color="#C24336"/>
<stop offset="1" stop-color="#AB3933"/>
</radialGradient>
<linearGradient id="paint3_linear_1_12" x1="875.965" y1="274.574" x2="827.477" y2="404.631" gradientUnits="userSpaceOnUse">
<stop stop-color="#76262C"/>
<stop offset="0.18" stop-color="#7B292C"/>
<stop offset="0.41" stop-color="#8B352C"/>
<stop offset="0.67" stop-color="#A6472D"/>
<stop offset="0.95" stop-color="#CB612D"/>
<stop offset="1" stop-color="#D3672E"/>
</linearGradient>
<linearGradient id="paint4_linear_1_12" x1="847.629" y1="411.703" x2="900.612" y2="314.475" gradientUnits="userSpaceOnUse">
<stop stop-color="#FFE499"/>
<stop offset="0.26" stop-color="#FFD689"/>
<stop offset="0.76" stop-color="#FFB25F"/>
<stop offset="1" stop-color="#FFA04A"/>
</linearGradient>
<linearGradient id="paint5_linear_1_12" x1="584.433" y1="382.408" x2="690.651" y2="645.2" gradientUnits="userSpaceOnUse">
<stop offset="0.06" stop-color="#FE9128"/>
<stop offset="0.3" stop-color="#FE8B2A"/>
<stop offset="0.61" stop-color="#FE7B30"/>
<stop offset="0.97" stop-color="#FE603A"/>
<stop offset="0.99" stop-color="#FF5E3B"/>
</linearGradient>
<linearGradient id="paint6_linear_1_12" x1="290.455" y1="595.364" x2="441.389" y2="617.783" gradientUnits="userSpaceOnUse">
<stop stop-color="#76262C"/>
<stop offset="0.18" stop-color="#7B292C"/>
<stop offset="0.41" stop-color="#8B352C"/>
<stop offset="0.67" stop-color="#A6472D"/>
<stop offset="0.95" stop-color="#CB612D"/>
<stop offset="1" stop-color="#D3672E"/>
</linearGradient>
<linearGradient id="paint7_linear_1_12" x1="808.184" y1="956.278" x2="790.809" y2="820.917" gradientUnits="userSpaceOnUse">
<stop stop-color="white"/>
<stop offset="0.02" stop-color="#FDFAF8"/>
<stop offset="0.39" stop-color="#E9B099"/>
<stop offset="0.68" stop-color="#DA7B53"/>
<stop offset="0.89" stop-color="#D15927"/>
<stop offset="1" stop-color="#CE4D17"/>
</linearGradient>
<linearGradient id="paint8_linear_1_12" x1="808.248" y1="572.639" x2="769.862" y2="524.909" gradientUnits="userSpaceOnUse">
<stop stop-color="#FDA80D"/>
<stop offset="0.99" stop-color="#AE1702"/>
</linearGradient>
<linearGradient id="paint9_linear_1_12" x1="628.83" y1="658.888" x2="590.343" y2="611.006" gradientUnits="userSpaceOnUse">
<stop stop-color="#FDA80D"/>
<stop offset="0.99" stop-color="#AE1702"/>
</linearGradient>
<radialGradient id="paint10_radial_1_12" cx="0" cy="0" r="1" gradientUnits="userSpaceOnUse" gradientTransform="translate(700.298 644.442) scale(231.275 231.275)">
<stop offset="0.19" stop-color="#FFEBD6"/>
<stop offset="0.33" stop-color="#FFE2C4"/>
<stop offset="0.57" stop-color="#FFD8AE"/>
<stop offset="0.8" stop-color="#FFD2A0"/>
<stop offset="1" stop-color="#FFD09C"/>
</radialGradient>
<linearGradient id="paint11_linear_1_12" x1="862.226" y1="265.482" x2="623.576" y2="848.747" gradientUnits="userSpaceOnUse">
<stop stop-color="white"/>
<stop offset="0.26" stop-color="#F3D4C7"/>
<stop offset="0.62" stop-color="#E49F82"/>
<stop offset="0.87" stop-color="#DB7D56"/>
<stop offset="1" stop-color="#D87146"/>
</linearGradient>
<linearGradient id="paint12_linear_1_12" x1="981.829" y1="467.564" x2="863.136" y2="788.137" gradientUnits="userSpaceOnUse">
<stop stop-color="#FE9128"/>
<stop offset="0.05" stop-color="#FC8A2A"/>
<stop offset="0.26" stop-color="#F76F34"/>
<stop offset="0.45" stop-color="#F45E3A"/>
<stop offset="0.6" stop-color="#F3593D"/>
<stop offset="0.67" stop-color="#ED563C"/>
<stop offset="0.76" stop-color="#DD4F3A"/>
<stop offset="0.86" stop-color="#C24336"/>
<stop offset="0.97" stop-color="#9D3331"/>
<stop offset="1" stop-color="#932F30"/>
</linearGradient>
<linearGradient id="paint13_linear_1_12" x1="438.718" y1="636.563" x2="312.095" y2="620.35" gradientUnits="userSpaceOnUse">
<stop stop-color="#FFE499"/>
<stop offset="0.26" stop-color="#FFD689"/>
<stop offset="0.76" stop-color="#FFB25F"/>
<stop offset="1" stop-color="#FFA04A"/>
</linearGradient>
<linearGradient id="paint14_linear_1_12" x1="759.494" y1="718.538" x2="738.079" y2="658.989" gradientUnits="userSpaceOnUse">
<stop stop-color="#C83B28"/>
<stop offset="1" stop-color="#94223F"/>
</linearGradient>
<linearGradient id="paint15_linear_1_12" x1="422.556" y1="822.685" x2="440.487" y2="918.751" gradientUnits="userSpaceOnUse">
<stop stop-color="#BD552D"/>
<stop offset="0.45" stop-color="#BD4F2E"/>
<stop offset="0.99" stop-color="#BD4134"/>
<stop offset="1" stop-color="#BD4134"/>
</linearGradient>
<linearGradient id="paint16_linear_1_12" x1="444.781" y1="909.306" x2="432.81" y2="862.536" gradientUnits="userSpaceOnUse">
<stop stop-color="#FE9128"/>
<stop offset="0.01" stop-color="#FE9028"/>
<stop offset="0.66" stop-color="#FE6B35"/>
<stop offset="1" stop-color="#FF5E3B"/>
</linearGradient>
</defs>
</svg>
